<svg xmlns="http://www.w3.org/2000/svg" viewBox="0 0 174.76 198.74">
  <defs>
    <style>
      .cls-1 {
        fill: #bb9469;
      }

      .cls-2 {
        fill: #684b29;
      }

      .cls-3 {
        fill: #825537;
      }

      .cls-4 {
        fill: #704626;
      }

      .cls-5 {
        fill: #2c220c;
      }

      .cls-6 {
        fill: #f9f7f5;
      }

      .cls-7 {
        fill: #d4d4d4;
      }

      .cls-8 {
        fill: #eef4ee;
      }

      .cls-9 {
        fill: #4c5155;
      }

      .cls-10 {
        fill: #cdcccc;
      }

      .cls-11 {
        fill: #afafaf;
      }

      .cls-12 {
        fill: #696b70;
      }

      .cls-13 {
        fill: #3e4347;
      }

      .cls-14 {
        fill: #f0e7e8;
      }

      .cls-15 {
        fill: #be8245;
      }

      .cls-16 {
        fill: #dddcd6;
      }

      .cls-17 {
        fill: #606060;
      }

      .cls-18 {
        fill: #e2e0e0;
      }

      .cls-19 {
        fill: #ddd;
      }

      .cls-20 {
        fill: #3a3b3f;
      }

      .cls-21 {
        fill: #efeded;
      }

      .cls-22 {
        fill: #bdbebd;
      }

      .cls-23 {
        fill: #fbfbfb;
      }

      .cls-24 {
        fill: #aaa;
      }

      .cls-25 {
        fill: #ececec;
      }

      .cls-26 {
        fill: #3b3b3b;
      }

      .cls-27 {
        fill: #bababa;
      }

      .cls-28 {
        opacity: 0.2;
      }

      .cls-29 {
        opacity: 0.1;
      }

      .cls-30 {
        fill: #ecb129;
      }

      .cls-31 {
        fill: #ffc043;
      }

      .cls-32 {
        fill: #ff931e;
      }

      .cls-33 {
        fill: #ead98b;
      }

      .cls-34 {
        fill: #c8ba78;
      }

      .cls-35 {
        fill: #f4e295;
      }
    </style>
  </defs>
  <title>barkaРесурс 7</title>
  <g id="Слой_2" data-name="Слой 2">
    <g id="Material">
      <g id="barka">
        <g>
          <polygon class="cls-1" points="0 30.89 130.95 107.78 85.19 133.84 106.05 144.56 174.76 103.63 25.13 16.95 0 30.89"/>
          <polygon class="cls-2" points="0 30.89 0 41.73 122.31 112.74 130.95 107.78 0 30.89"/>
          <polygon class="cls-2" points="106.05 144.44 106.05 153.32 174.76 113.66 174.76 103.63 106.05 144.44"/>
          <polygon class="cls-2" points="85.19 133.84 106.05 144.44 106.05 153.32 85.19 141.9 85.19 133.84"/>
          <polyline class="cls-3" points="85.19 137.06 4.38 90.03 4.5 44.27 122.42 112.74 85.19 133.84"/>
          <polygon class="cls-4" points="170.95 115.85 170.95 158.39 101.1 198.74 101.1 150.66 106.05 153.2 170.95 115.85"/>
          <polygon class="cls-3" points="89.8 144.32 101.1 150.66 101.1 198.74 89.68 192.16 89.8 144.32"/>
          <polygon class="cls-1" points="26.05 76.54 15.1 82.88 49.11 102.13 49.11 90.03 26.05 76.54"/>
          <polygon class="cls-4" points="26.05 76.54 26.05 65.59 15.1 59.48 15.1 82.88 26.05 76.54"/>
          <polygon class="cls-5" points="49.11 90.03 49.11 78.27 26.05 65.59 26.05 76.54 49.11 90.03"/>
          <polygon class="cls-1" points="67.32 99.94 56.37 106.4 90.38 126.46 90.38 113.43 67.32 99.94"/>
          <polygon class="cls-4" points="67.32 99.94 67.32 88.99 56.37 82.88 56.37 106.4 67.32 99.94"/>
          <polygon class="cls-5" points="90.38 113.43 90.38 101.67 67.32 88.99 67.32 99.94 90.38 113.43"/>
        </g>
        <g>
          <polygon class="cls-6" points="64.78 13.37 41.96 0 26.17 9.22 48.76 22.48 64.78 13.37"/>
          <polygon class="cls-7" points="64.78 13.37 64.78 40.69 49.11 50.03 48.76 22.48 64.78 13.37"/>
          <polygon class="cls-8" points="26.17 9.22 48.76 22.48 49.11 50.03 26.17 37.81 26.17 9.22"/>
          <polygon class="cls-9" points="29.86 15.56 43 23.17 43 19.37 30.09 11.87 29.86 15.56"/>
          <polygon class="cls-10" points="30.2 25.13 43 31.93 43 44.5 30.2 38.04 30.2 25.13"/>
          <polygon class="cls-11" points="34.81 34.81 30.2 38.04 30.2 25.13 35.04 27.67 34.81 34.81"/>
          <polygon class="cls-12" points="34.81 34.81 43 38.73 43 31.93 35.04 27.67 34.81 34.81"/>
          <polygon class="cls-13" points="21.9 39.66 29.05 37.23 45.53 45.99 41.15 50.61 21.9 39.66"/>
          <polygon class="cls-13" points="21.9 40.81 21.9 39.66 41.15 50.61 41.15 51.76 21.9 40.81"/>
          <polygon class="cls-13" points="45.53 45.99 45.53 47.38 41.15 51.76 41.15 50.61 45.53 45.99"/>
          <g>
            <ellipse class="cls-14" cx="35.04" cy="35.27" rx="4.03" ry="2.31"/>
            <path class="cls-14" d="M31.82,43.11,31,35.62a5,5,0,0,0,4.15,1.84c2.77-.12,3.57-1.27,3.92-1.84s.12-.58.12-.58L39,43.11a6.31,6.31,0,0,1-3.8,1.27A4.37,4.37,0,0,1,31.82,43.11Z"/>
            <path class="cls-15" d="M31.47,36.08c2.54-2.31,5-2.31,7,0-.46.81-1.61,1.38-3.34,1.38A4.54,4.54,0,0,1,31.47,36.08Z"/>
            <path class="cls-16" d="M30.09,40.69c.23,1.73,1,2.42,2.31,2.54V37.7A7.26,7.26,0,0,0,30.09,40.69Zm2,2.19c-.81-.35-1.27-.69-1.38-2.07A4.41,4.41,0,0,1,32,38.73Z"/>
            <path class="cls-7" d="M32.51,37.81l-.23-.12A5.75,5.75,0,0,0,30,40.58a3.32,3.32,0,0,0,1.27,2.54c.46.12.81.12,1.27.23v-.23a1.34,1.34,0,0,1-1.15-.23,2,2,0,0,1-1-2.19A4.79,4.79,0,0,1,32.51,37.81Z"/>
          </g>
          <path class="cls-17" d="M36.89,25.48H34.7a.54.54,0,0,0-.58.58v7c.46.58,1,.58,1.61,0l-.12-5.76a.25.25,0,0,1,.23-.23h.92C37.46,26.51,37.46,26.05,36.89,25.48Z"/>
        </g>
        <g>
          <ellipse class="cls-18" cx="65.36" cy="44.27" rx="4.03" ry="2.31"/>
          <path class="cls-19" d="M62.13,52.22l-.81-7.49a5,5,0,0,0,4.15,1.84c2.77-.12,3.57-1.27,3.92-1.84s.12-.58.12-.58l-.23,8.07a6.31,6.31,0,0,1-3.8,1.27A4.37,4.37,0,0,1,62.13,52.22Z"/>
          <path class="cls-20" d="M61.79,45.07c2.54-2.31,5-2.31,7,0-.46.81-1.61,1.38-3.34,1.38A4.21,4.21,0,0,1,61.79,45.07Z"/>
          <path class="cls-10" d="M60.4,49.8c.23,1.73,1,2.42,2.31,2.54V46.8A7.49,7.49,0,0,0,60.4,49.8Zm2,2.19c-.81-.35-1.27-.69-1.38-2.07a4.41,4.41,0,0,1,1.38-2.07Z"/>
          <path class="cls-21" d="M62.83,46.8l-.23-.12a5.75,5.75,0,0,0-2.31,2.88,3.32,3.32,0,0,0,1.27,2.54c.46.12.81.12,1.27.23V52.1a1.34,1.34,0,0,1-1.15-.23,2,2,0,0,1-1-2.19A4.79,4.79,0,0,1,62.83,46.8Z"/>
        </g>
        <g>
          <ellipse class="cls-18" cx="74.35" cy="48.88" rx="4.03" ry="2.31"/>
          <path class="cls-19" d="M77.58,56.83l.81-7.49a5,5,0,0,1-4.15,1.84c-2.77-.12-3.57-1.27-3.92-1.84s-.12-.58-.12-.58l.23,8.07a6.31,6.31,0,0,0,3.8,1.27A4.37,4.37,0,0,0,77.58,56.83Z"/>
          <path class="cls-3" d="M77.93,49.68c-2.54-2.31-5-2.31-7,0,.46.81,1.61,1.38,3.34,1.38A4.21,4.21,0,0,0,77.93,49.68Z"/>
          <path class="cls-21" d="M76.89,51.41v5.53c1.27-.12,2.08-.81,2.31-2.54A6.6,6.6,0,0,0,76.89,51.41Zm.35,1a4.41,4.41,0,0,1,1.38,2.07,2.12,2.12,0,0,1-1.38,2.07Z"/>
          <path class="cls-10" d="M76.89,51.41l.23-.12a5.75,5.75,0,0,1,2.31,2.88,3.32,3.32,0,0,1-1.27,2.54c-.46.12-.81.12-1.27.23v-.23A1.34,1.34,0,0,0,78,56.49a2,2,0,0,0,1-2.19A5.89,5.89,0,0,0,76.89,51.41Z"/>
        </g>
        <g>
          <path class="cls-21" d="M114,82.31c3-.58,4.61-2.65,4.84-6.11-3.23,3.46-6.46,3.46-9.8,0C109.51,79.66,111.13,81.73,114,82.31Z"/>
          <ellipse class="cls-10" cx="114.01" cy="76.31" rx="4.38" ry="2.54"/>
          <path class="cls-3" d="M109.74,76.43c2.65-2.65,6-2.54,8.65,0-.35,1.27-.35,2.19-4.15,2.65C110.43,78.73,110.32,77.93,109.74,76.43Z"/>
          <path class="cls-10" d="M117.24,74.12c.81-.46,1.5-.58,2-.12a3.36,3.36,0,0,1,.12,1.84l-.58,1-.23-1.38a1.34,1.34,0,0,0,.23-.81l-.23-.23a1.25,1.25,0,0,0-.69.12Z"/>
          <path class="cls-19" d="M114,73.2c-2.65,0-4.84,1.38-4.84,3s2.19,3,4.84,3,4.84-1.38,4.84-3S116.66,73.2,114,73.2Zm0,5.65c-2.31,0-4.15-1.15-4.15-2.54s1.84-2.54,4.15-2.54,4.15,1.15,4.15,2.54S116.31,78.85,114,78.85Z"/>
        </g>
        <g>
          <path class="cls-21" d="M153.2,101.9c3-.58,4.61-2.65,4.84-6.11-3.23,3.46-6.46,3.46-9.8,0C148.71,99.25,150.32,101.33,153.2,101.9Z"/>
          <ellipse class="cls-10" cx="153.2" cy="95.91" rx="4.38" ry="2.54"/>
          <path class="cls-3" d="M148.82,96c2.65-2.65,6-2.54,8.65,0-.35,1.27-.35,2.19-4.15,2.65C149.63,98.33,149.51,97.52,148.82,96Z"/>
          <path class="cls-10" d="M156.43,93.72c.81-.46,1.5-.58,2-.12a3.36,3.36,0,0,1,.12,1.84l-.58,1-.23-1.38a1.34,1.34,0,0,0,.23-.81l-.23-.23a1.25,1.25,0,0,0-.69.12Z"/>
          <path class="cls-19" d="M153.2,92.8c-2.65,0-4.84,1.38-4.84,3s2.19,3,4.84,3,4.84-1.38,4.84-3S155.85,92.8,153.2,92.8Zm0,5.65c-2.31,0-4.15-1.15-4.15-2.54s1.84-2.54,4.15-2.54,4.15,1.15,4.15,2.54S155.39,98.45,153.2,98.45Z"/>
        </g>
        <g>
          <path class="cls-19" d="M68.59,109.17c3-.58,4.61-2.65,4.84-6.11-3.23,3.46-6.46,3.46-9.8,0C64.09,106.51,65.71,108.47,68.59,109.17Z"/>
          <path class="cls-22" d="M72.85,103.06c0-1.38-2-2.54-4.38-2.54s-4.38,1.15-4.38,2.54c0,1,.92,1.84,2.31,2.31a4.54,4.54,0,0,1,2.31-.69,3.69,3.69,0,0,1,2.08.58C72,104.79,72.85,104,72.85,103.06Z"/>
          <path class="cls-11" d="M66.51,105.36a5.58,5.58,0,0,0,2.08.35,5.35,5.35,0,0,0,2.42-.46,4,4,0,0,0-2.08-.58A3.78,3.78,0,0,0,66.51,105.36Z"/>
          <path class="cls-11" d="M71.82,100.87c.81-.46,1.5-.58,2-.12a3.36,3.36,0,0,1,.12,1.84l-.58,1-.23-1.38a1.34,1.34,0,0,0,.23-.81l-.23-.23a1.25,1.25,0,0,0-.69.12Z"/>
          <path class="cls-10" d="M68.47,100.06c-2.65,0-4.84,1.38-4.84,3s2.19,3,4.84,3,4.84-1.38,4.84-3S71.24,100.06,68.47,100.06Zm0,5.53c-2.31,0-4.15-1.15-4.15-2.54s1.84-2.54,4.15-2.54,4.15,1.15,4.15,2.54S70.78,105.59,68.47,105.59Z"/>
        </g>
        <g>
          <path class="cls-19" d="M77.81,113.78c3-.58,4.61-2.65,4.84-6.11-3.23,3.46-6.46,3.46-9.8,0C73.32,111,74.93,113.09,77.81,113.78Z"/>
          <path class="cls-22" d="M82.19,107.67c0-1.38-2-2.54-4.38-2.54s-4.38,1.15-4.38,2.54c0,1,.92,1.84,2.31,2.31a4.54,4.54,0,0,1,2.31-.69,3.69,3.69,0,0,1,2.08.58C81.38,109.28,82.19,108.59,82.19,107.67Z"/>
          <path class="cls-11" d="M75.85,109.86a5.58,5.58,0,0,0,2.08.35,5.35,5.35,0,0,0,2.42-.46,4,4,0,0,0-2.08-.58A5,5,0,0,0,75.85,109.86Z"/>
          <path class="cls-11" d="M81.15,105.48c.81-.46,1.5-.58,2-.12a3.36,3.36,0,0,1,.12,1.84l-.58,1-.23-1.38a1.34,1.34,0,0,0,.23-.81l-.23-.23a1.25,1.25,0,0,0-.69.12Z"/>
          <path class="cls-10" d="M77.81,104.56c-2.65,0-4.84,1.38-4.84,3s2.19,3,4.84,3,4.84-1.38,4.84-3S80.46,104.56,77.81,104.56Zm0,5.65c-2.31,0-4.15-1.15-4.15-2.54s1.84-2.54,4.15-2.54S82,106.28,82,107.67,80.12,110.2,77.81,110.2Z"/>
        </g>
        <g>
          <polygon class="cls-23" points="39.42 83.46 19.94 72.28 28.82 67.09 48.76 78.04 39.42 83.46"/>
          <polygon class="cls-24" points="39.42 83.46 39.42 95.33 48.76 89.8 48.76 78.04 39.42 83.46"/>
          <polygon class="cls-25" points="19.94 72.28 39.42 83.46 39.42 95.33 19.71 84.04 19.94 72.28"/>
          <polygon class="cls-26" points="32.74 89.92 32.74 82.54 21.09 75.51 21.09 83.11 32.74 89.92"/>
          <polygon class="cls-27" points="35.04 88.53 35.04 89.8 38.27 91.64 38.27 90.26 35.04 88.53"/>
          <polygon class="cls-27" points="35.04 86.11 35.04 87.38 38.27 89.22 38.27 87.84 35.04 86.11"/>
          <polygon class="cls-26" points="35.51 84.04 35.51 85.3 37.7 86.46 37.81 85.3 35.51 84.04"/>
        </g>
        <g>
          <ellipse class="cls-6" cx="90.49" cy="67.32" rx="15.91" ry="8.65"/>
          <g class="cls-28">
            <ellipse class="cls-29" cx="91.3" cy="67.78" rx="12.68" ry="6.92"/>
          </g>
          <ellipse class="cls-30" cx="90.49" cy="67.32" rx="12.68" ry="6.92"/>
          <ellipse class="cls-31" cx="90.49" cy="67.32" rx="11.53" ry="6.34"/>
          <ellipse class="cls-32" cx="89.45" cy="69.74" rx="2.77" ry="1.5"/>
          <ellipse class="cls-32" cx="98.68" cy="67.32" rx="2.77" ry="1.5"/>
          <ellipse class="cls-32" cx="93.14" cy="64.55" rx="2.77" ry="1.5"/>
          <ellipse class="cls-32" cx="84.84" cy="64.32" rx="2.77" ry="1.5"/>
          <ellipse class="cls-32" cx="82.65" cy="67.55" rx="1.04" ry="0.58"/>
          <ellipse class="cls-32" cx="92.22" cy="61.9" rx="1.04" ry="0.58"/>
          <ellipse class="cls-32" cx="84.38" cy="71.24" rx="1.04" ry="0.58"/>
          <ellipse class="cls-32" cx="94.3" cy="68.24" rx="1.04" ry="0.58"/>
          <ellipse class="cls-32" cx="88.99" cy="66.4" rx="1.04" ry="0.58"/>
          <ellipse class="cls-32" cx="95.68" cy="70.66" rx="1.04" ry="0.58"/>
          <ellipse class="cls-32" cx="98.21" cy="64.32" rx="1.04" ry="0.58"/>
          <polygon class="cls-32" points="85.42 69.17 86.69 67.32 84.38 68.47 85.42 69.17"/>
          <polygon class="cls-32" points="92.22 73.08 93.49 71.24 91.3 72.39 92.22 73.08"/>
          <polygon class="cls-32" points="90.95 68.24 92.22 66.4 90.03 67.55 90.95 68.24"/>
          <polygon class="cls-32" points="81.61 68.59 79.66 67.55 81.04 69.74 81.61 68.59"/>
          <polygon class="cls-32" points="98.44 69.74 96.25 69.4 98.22 71.01 98.44 69.74"/>
          <polygon class="cls-32" points="82.77 65.13 80.58 64.78 82.54 66.4 82.77 65.13"/>
          <polygon class="cls-32" points="96.6 66.51 97.87 64.67 95.56 65.82 96.6 66.51"/>
          <polygon class="cls-32" points="88.88 63.75 90.15 61.9 87.84 63.06 88.88 63.75"/>
        </g>
        <g>
          <g class="cls-28">
            <ellipse class="cls-29" cx="123.46" cy="92.22" rx="5.76" ry="3.34"/>
          </g>
          <g>
            <path class="cls-19" d="M122.19,93.26c3-.58,4.61-2.65,4.84-6.11-3.23,3.46-6.46,3.46-9.8,0C117.81,90.61,119.43,92.57,122.19,93.26Z"/>
            <path class="cls-22" d="M126.57,87.15c0-1.38-2-2.54-4.38-2.54s-4.38,1.15-4.38,2.54c0,1,.92,1.84,2.31,2.31a4.54,4.54,0,0,1,2.31-.69,3.69,3.69,0,0,1,2.08.58C125.77,88.88,126.57,88.07,126.57,87.15Z"/>
            <path class="cls-11" d="M120.23,89.45a5.58,5.58,0,0,0,2.08.35,5.35,5.35,0,0,0,2.42-.46,4,4,0,0,0-2.08-.58A3.78,3.78,0,0,0,120.23,89.45Z"/>
            <path class="cls-11" d="M125.54,85c.81-.46,1.5-.58,2-.12a3.36,3.36,0,0,1,.12,1.84l-.58,1-.23-1.38a1.34,1.34,0,0,0,.23-.81l-.23-.23a1.25,1.25,0,0,0-.69.12Z"/>
            <path class="cls-10" d="M122.19,84.15c-2.65,0-4.84,1.38-4.84,3s2.19,3,4.84,3,4.84-1.38,4.84-3S125,84.15,122.19,84.15Zm0,5.53c-2.31,0-4.15-1.15-4.15-2.54s1.84-2.54,4.15-2.54,4.15,1.15,4.15,2.54S124.5,89.68,122.19,89.68Z"/>
          </g>
          <path class="cls-33" d="M117.47,84.5l2.08-1,3.92,6.11a5.44,5.44,0,0,1-2.77-.12Z"/>
          <polygon class="cls-34" points="123.69 83.23 121.73 86.92 123 88.99 125.77 84.15 123.69 83.23"/>
          <path class="cls-35" d="M127.26,85.07l1,1.5-3.92,2.88s-.58.12-.92.23l-.81-1.27Z"/>
          <path class="cls-34" d="M119.43,87.61l-.92.58a3.43,3.43,0,0,0,.92.81,12,12,0,0,0,1.15.46Z"/>
        </g>
        <g>
          <g class="cls-28">
            <ellipse class="cls-29" cx="138.33" cy="96.14" rx="5.76" ry="3.34"/>
          </g>
          <g>
            <path class="cls-19" d="M137.18,97.18c3-.58,4.61-2.65,4.84-6.11-3.23,3.46-6.46,3.46-9.8,0C132.68,94.53,134.3,96.49,137.18,97.18Z"/>
            <path class="cls-22" d="M141.44,91.07c0-1.38-2-2.54-4.38-2.54s-4.38,1.15-4.38,2.54c0,1,.92,1.84,2.31,2.31a4.54,4.54,0,0,1,2.31-.69,3.69,3.69,0,0,1,2.08.58C140.75,92.8,141.44,92,141.44,91.07Z"/>
            <path class="cls-11" d="M135.1,93.37a5.58,5.58,0,0,0,2.08.35,5.35,5.35,0,0,0,2.42-.46,4,4,0,0,0-2.08-.58A3.78,3.78,0,0,0,135.1,93.37Z"/>
            <path class="cls-11" d="M140.41,88.88c.81-.46,1.5-.58,2-.12a3.36,3.36,0,0,1,.12,1.84l-.58,1-.23-1.38a1.34,1.34,0,0,0,.23-.81l-.23-.23a1.25,1.25,0,0,0-.69.12Z"/>
            <path class="cls-10" d="M137.18,88.07c-2.65,0-4.84,1.38-4.84,3s2.19,3,4.84,3,4.84-1.38,4.84-3S139.83,88.07,137.18,88.07Zm0,5.53c-2.31,0-4.15-1.15-4.15-2.54s1.84-2.54,4.15-2.54,4.15,1.15,4.15,2.54S139.37,93.6,137.18,93.6Z"/>
          </g>
          <path class="cls-33" d="M132.34,88.42l2.08-1,3.92,6.11a5.44,5.44,0,0,1-2.77-.12Z"/>
          <polygon class="cls-34" points="138.56 87.15 136.6 90.84 137.87 92.91 140.64 88.07 138.56 87.15"/>
          <path class="cls-35" d="M142.13,89l1,1.5-3.92,2.88s-.58.12-.92.23l-.81-1.27Z"/>
          <path class="cls-34" d="M134.3,91.53l-.92.58a3.43,3.43,0,0,0,.92.81,12,12,0,0,0,1.15.46Z"/>
        </g>
        <g>
          <g class="cls-28">
            <ellipse class="cls-29" cx="18.79" cy="32.85" rx="5.76" ry="3.34"/>
          </g>
          <g>
            <path class="cls-19" d="M17.64,33.89c3-.58,4.61-2.65,4.84-6.11-3.23,3.46-6.46,3.46-9.8,0C13.14,31.24,14.76,33.2,17.64,33.89Z"/>
            <path class="cls-22" d="M22,27.78c0-1.38-2-2.54-4.38-2.54s-4.38,1.15-4.38,2.54c0,1,.92,1.84,2.31,2.31a4.54,4.54,0,0,1,2.31-.69,3.69,3.69,0,0,1,2.08.58C21.21,29.51,22,28.7,22,27.78Z"/>
            <path class="cls-11" d="M15.56,30.09a5.58,5.58,0,0,0,2.08.35A5.35,5.35,0,0,0,20.06,30,4,4,0,0,0,18,29.4,3.78,3.78,0,0,0,15.56,30.09Z"/>
            <path class="cls-11" d="M20.86,25.59c.81-.46,1.5-.58,2-.12a3.36,3.36,0,0,1,.12,1.84l-.58,1L22.13,27a1.34,1.34,0,0,0,.23-.81l-.23-.23a1.25,1.25,0,0,0-.69.12Z"/>
            <path class="cls-10" d="M17.64,24.78c-2.65,0-4.84,1.38-4.84,3s2.19,3,4.84,3,4.84-1.38,4.84-3S20.29,24.78,17.64,24.78Zm0,5.53c-2.31,0-4.15-1.15-4.15-2.54s1.84-2.54,4.15-2.54,4.15,1.15,4.15,2.54S19.94,30.32,17.64,30.32Z"/>
          </g>
          <path class="cls-33" d="M12.8,25.13l2.08-1,3.92,6.11A5.44,5.44,0,0,1,16,30.09Z"/>
          <polygon class="cls-34" points="19.02 23.86 17.06 27.55 18.33 29.63 21.21 24.78 19.02 23.86"/>
          <path class="cls-35" d="M22.71,25.71l1,1.5-3.92,2.88s-.58.12-.92.23L18.1,29Z"/>
          <path class="cls-34" d="M14.76,28.24l-.92.58a3.43,3.43,0,0,0,.92.81,12,12,0,0,0,1.15.46Z"/>
        </g>
      </g>
    </g>
  </g>
</svg>
