<?xml version="1.0" encoding="utf-8"?>
<!-- Generator: Adobe Illustrator 21.0.2, SVG Export Plug-In . SVG Version: 6.00 Build 0)  -->
<svg version="1.1" id="Слой_1" xmlns="http://www.w3.org/2000/svg" xmlns:xlink="http://www.w3.org/1999/xlink" x="0px" y="0px"
	 viewBox="0 0 206.7 198.7" style="enable-background:new 0 0 206.7 198.7;" xml:space="preserve">
<style type="text/css">
	.st0{opacity:0.18;}
	.st1{fill:#BB9469;}
	.st2{fill:#684B29;}
	.st3{fill:#825537;}
	.st4{fill:#704626;}
	.st5{fill:#2C220C;}
	.st6{fill:#F9F7F5;}
	.st7{fill:#D4D4D4;}
	.st8{fill:#EEF4EE;}
	.st9{fill:#4C5155;}
	.st10{fill:#CDCCCC;}
	.st11{fill:#AFAFAF;}
	.st12{fill:#696B70;}
	.st13{fill:#3E4347;}
	.st14{fill:#F0E7E8;}
	.st15{fill:#BE8245;}
	.st16{fill:#DDDCD6;}
	.st17{fill:#606060;}
	.st18{fill:#E2E0E0;}
	.st19{fill:#DDDDDD;}
	.st20{fill:#3A3B3F;}
	.st21{fill:#EFEDED;}
	.st22{fill:#BDBEBD;}
	.st23{fill:#FBFBFB;}
	.st24{fill:#AAAAAA;}
	.st25{fill:#ECECEC;}
	.st26{fill:#3B3B3B;}
	.st27{fill:#BABABA;}
	.st28{opacity:0.2;}
	.st29{opacity:0.1;enable-background:new    ;}
	.st30{fill:#ECB129;}
	.st31{fill:#FFC043;}
	.st32{fill:#FF931E;}
	.st33{fill:#EAD98B;}
	.st34{fill:#C8BA78;}
	.st35{fill:#F4E295;}
</style>
<polygon class="st0" points="4.4,90 119.5,171.5 101.1,198.7 137.1,198.7 206.7,163 56.4,75.5 "/>
<title>barkaРесурс 7</title>
<g id="Слой_2">
	<g id="Material">
		<g id="barka">
			<g>
				<polygon class="st1" points="0,30.9 130.9,107.8 85.2,133.8 106.1,144.6 174.8,103.6 25.1,17 				"/>
				<polygon class="st2" points="0,30.9 0,41.7 122.3,112.7 130.9,107.8 				"/>
				<polygon class="st2" points="106.1,144.4 106.1,153.3 174.8,113.7 174.8,103.6 				"/>
				<polygon class="st2" points="85.2,133.8 106.1,144.4 106.1,153.3 85.2,141.9 				"/>
				<polyline class="st3" points="85.2,137.1 4.4,90 4.5,44.3 122.4,112.7 85.2,133.8 				"/>
				<polygon class="st4" points="170.9,115.8 170.9,158.4 101.1,198.7 101.1,150.7 106.1,153.2 				"/>
				<polygon class="st3" points="89.8,144.3 101.1,150.7 101.1,198.7 89.7,192.2 				"/>
				<polygon class="st1" points="26,76.5 15.1,82.9 49.1,102.1 49.1,90 				"/>
				<polygon class="st4" points="26,76.5 26,65.6 15.1,59.5 15.1,82.9 				"/>
				<polygon class="st5" points="49.1,90 49.1,78.3 26,65.6 26,76.5 				"/>
				<polygon class="st1" points="67.3,99.9 56.4,106.4 90.4,126.5 90.4,113.4 				"/>
				<polygon class="st4" points="67.3,99.9 67.3,89 56.4,82.9 56.4,106.4 				"/>
				<polygon class="st5" points="90.4,113.4 90.4,101.7 67.3,89 67.3,99.9 				"/>
			</g>
			<g>
				<polygon class="st6" points="64.8,13.4 42,0 26.2,9.2 48.8,22.5 				"/>
				<polygon class="st7" points="64.8,13.4 64.8,40.7 49.1,50 48.8,22.5 				"/>
				<polygon class="st8" points="26.2,9.2 48.8,22.5 49.1,50 26.2,37.8 				"/>
				<polygon class="st9" points="29.9,15.6 43,23.2 43,19.4 30.1,11.9 				"/>
				<polygon class="st10" points="30.2,25.1 43,31.9 43,44.5 30.2,38 				"/>
				<polygon class="st11" points="34.8,34.8 30.2,38 30.2,25.1 35,27.7 				"/>
				<polygon class="st12" points="34.8,34.8 43,38.7 43,31.9 35,27.7 				"/>
				<polygon class="st13" points="21.9,39.7 29,37.2 45.5,46 41.2,50.6 				"/>
				<polygon class="st13" points="21.9,40.8 21.9,39.7 41.2,50.6 41.2,51.8 				"/>
				<polygon class="st13" points="45.5,46 45.5,47.4 41.2,51.8 41.2,50.6 				"/>
				<g>
					<ellipse class="st14" cx="35" cy="35.3" rx="4" ry="2.3"/>
					<path class="st14" d="M31.8,43.1L31,35.6c1,1.2,2.6,1.9,4.2,1.8c2.8-0.1,3.6-1.3,3.9-1.8s0.1-0.6,0.1-0.6L39,43.1
						c-1.1,0.8-2.4,1.3-3.8,1.3C33.9,44.5,32.7,44,31.8,43.1z"/>
					<path class="st15" d="M31.5,36.1c2.5-2.3,5-2.3,7,0c-0.5,0.8-1.6,1.4-3.3,1.4C33.8,37.6,32.4,37.1,31.5,36.1z"/>
					<path class="st16" d="M30.1,40.7c0.2,1.7,1,2.4,2.3,2.5v-5.5C31.4,38.5,30.6,39.5,30.1,40.7z M32.1,42.9
						c-0.8-0.3-1.3-0.7-1.4-2.1c0.2-0.8,0.7-1.5,1.3-2.1L32.1,42.9z"/>
					<path class="st7" d="M32.5,37.8l-0.2-0.1c-1.1,0.7-1.9,1.7-2.3,2.9c0,1,0.5,1.9,1.3,2.5c0.5,0.1,0.8,0.1,1.3,0.2v-0.2
						c-0.4,0.1-0.8,0-1.1-0.2c-0.8-0.4-1.2-1.3-1-2.2C30.7,39.5,31.5,38.5,32.5,37.8z"/>
				</g>
				<path class="st17" d="M36.9,25.5h-2.2c-0.3,0-0.6,0.2-0.6,0.5c0,0,0,0.1,0,0.1v7c0.5,0.6,1,0.6,1.6,0l-0.1-5.8
					c0-0.1,0.1-0.2,0.2-0.2h0.9C37.5,26.5,37.5,26,36.9,25.5z"/>
			</g>
			<g>
				<ellipse class="st18" cx="65.4" cy="44.3" rx="4" ry="2.3"/>
				<path class="st19" d="M62.1,52.2l-0.8-7.5c1,1.2,2.6,1.9,4.2,1.8c2.8-0.1,3.6-1.3,3.9-1.8s0.1-0.6,0.1-0.6l-0.2,8.1
					c-1.1,0.8-2.4,1.3-3.8,1.3C64.2,53.6,63,53.1,62.1,52.2z"/>
				<path class="st20" d="M61.8,45.1c2.5-2.3,5-2.3,7,0c-0.5,0.8-1.6,1.4-3.3,1.4C64.1,46.6,62.7,46.1,61.8,45.1z"/>
				<path class="st10" d="M60.4,49.8c0.2,1.7,1,2.4,2.3,2.5v-5.5C61.7,47.6,60.9,48.6,60.4,49.8z M62.4,52c-0.8-0.3-1.3-0.7-1.4-2.1
					c0.3-0.8,0.7-1.5,1.4-2.1V52z"/>
				<path class="st21" d="M62.8,46.8l-0.2-0.1c-1.1,0.7-1.9,1.7-2.3,2.9c0,1,0.5,1.9,1.3,2.5c0.5,0.1,0.8,0.1,1.3,0.2v-0.2
					c-0.4,0.1-0.8,0-1.2-0.2c-0.8-0.4-1.2-1.3-1-2.2C61,48.5,61.8,47.4,62.8,46.8z"/>
			</g>
			<g>
				<ellipse class="st18" cx="74.3" cy="48.9" rx="4" ry="2.3"/>
				<path class="st19" d="M77.6,56.8l0.8-7.5c-1,1.2-2.6,1.9-4.2,1.8c-2.8-0.1-3.6-1.3-3.9-1.8s-0.1-0.6-0.1-0.6l0.2,8.1
					c1.1,0.8,2.4,1.3,3.8,1.3C75.5,58.2,76.7,57.7,77.6,56.8z"/>
				<path class="st3" d="M77.9,49.7c-2.5-2.3-5-2.3-7,0c0.5,0.8,1.6,1.4,3.3,1.4C75.6,51.2,77,50.7,77.9,49.7z"/>
				<path class="st21" d="M76.9,51.4v5.5c1.3-0.1,2.1-0.8,2.3-2.5C78.7,53.2,77.9,52.2,76.9,51.4z M77.2,52.4
					c0.6,0.5,1.1,1.3,1.4,2.1c0,0.9-0.5,1.8-1.4,2.1V52.4z"/>
				<path class="st10" d="M76.9,51.4l0.2-0.1c1.1,0.7,1.9,1.7,2.3,2.9c0,1-0.5,1.9-1.3,2.5c-0.5,0.1-0.8,0.1-1.3,0.2v-0.2
					c0.4,0.1,0.8,0,1.1-0.2c0.8-0.4,1.2-1.3,1-2.2C78.6,53.1,77.9,52.1,76.9,51.4z"/>
			</g>
			<g>
				<path class="st21" d="M114,82.3c3-0.6,4.6-2.7,4.8-6.1c-3.2,3.5-6.5,3.5-9.8,0C109.5,79.7,111.1,81.7,114,82.3z"/>
				<ellipse class="st10" cx="114" cy="76.3" rx="4.4" ry="2.5"/>
				<path class="st3" d="M109.7,76.4c2.7-2.7,6-2.5,8.7,0c-0.3,1.3-0.3,2.2-4.2,2.7C110.4,78.7,110.3,77.9,109.7,76.4z"/>
				<path class="st10" d="M117.2,74.1c0.8-0.5,1.5-0.6,2-0.1c0.2,0.6,0.3,1.2,0.1,1.8l-0.6,1l-0.2-1.4c0.2-0.2,0.2-0.5,0.2-0.8
					l-0.2-0.2c-0.2,0-0.5,0-0.7,0.1L117.2,74.1z"/>
				<path class="st19" d="M114,73.2c-2.7,0-4.8,1.4-4.8,3s2.2,3,4.8,3s4.8-1.4,4.8-3S116.7,73.2,114,73.2z M114,78.8
					c-2.3,0-4.2-1.2-4.2-2.5s1.8-2.5,4.2-2.5s4.2,1.2,4.2,2.5S116.3,78.8,114,78.8z"/>
			</g>
			<g>
				<path class="st21" d="M153.2,101.9c3-0.6,4.6-2.7,4.8-6.1c-3.2,3.5-6.5,3.5-9.8,0C148.7,99.3,150.3,101.3,153.2,101.9z"/>
				<ellipse class="st10" cx="153.2" cy="95.9" rx="4.4" ry="2.5"/>
				<path class="st3" d="M148.8,96c2.6-2.7,6-2.5,8.6,0c-0.4,1.3-0.4,2.2-4.1,2.7C149.6,98.3,149.5,97.5,148.8,96z"/>
				<path class="st10" d="M156.4,93.7c0.8-0.5,1.5-0.6,2-0.1c0.2,0.6,0.3,1.2,0.1,1.8l-0.6,1l-0.2-1.4c0.2-0.2,0.2-0.5,0.2-0.8
					l-0.2-0.2c-0.2,0-0.5,0-0.7,0.1L156.4,93.7z"/>
				<path class="st19" d="M153.2,92.8c-2.6,0-4.8,1.4-4.8,3s2.2,3,4.8,3s4.8-1.4,4.8-3S155.9,92.8,153.2,92.8z M153.2,98.5
					c-2.3,0-4.1-1.2-4.1-2.5s1.8-2.5,4.1-2.5s4.1,1.2,4.1,2.5S155.4,98.4,153.2,98.5z"/>
			</g>
			<g>
				<path class="st19" d="M68.6,109.2c3-0.6,4.6-2.7,4.8-6.1c-3.2,3.5-6.5,3.5-9.8,0C64.1,106.5,65.7,108.5,68.6,109.2z"/>
				<path class="st22" d="M72.8,103.1c0-1.4-2-2.5-4.4-2.5s-4.4,1.2-4.4,2.5c0,1,0.9,1.8,2.3,2.3c0.7-0.4,1.5-0.7,2.3-0.7
					c0.7,0,1.5,0.2,2.1,0.6C72,104.8,72.8,104,72.8,103.1z"/>
				<path class="st11" d="M66.5,105.4c0.7,0.2,1.4,0.4,2.1,0.3c0.8,0,1.7-0.1,2.4-0.5c-0.6-0.4-1.3-0.6-2.1-0.6
					C68.1,104.6,67.2,104.9,66.5,105.4z"/>
				<path class="st11" d="M71.8,100.9c0.8-0.5,1.5-0.6,2-0.1c0.2,0.6,0.3,1.2,0.1,1.8l-0.6,1l-0.2-1.4c0.2-0.2,0.2-0.5,0.2-0.8
					l-0.2-0.2c-0.2,0-0.5,0-0.7,0.1L71.8,100.9z"/>
				<path class="st10" d="M68.5,100.1c-2.7,0-4.8,1.4-4.8,3s2.2,3,4.8,3s4.8-1.4,4.8-3S71.2,100.1,68.5,100.1z M68.5,105.6
					c-2.3,0-4.2-1.2-4.2-2.5s1.8-2.5,4.2-2.5s4.2,1.2,4.2,2.5S70.8,105.6,68.5,105.6z"/>
			</g>
			<g>
				<path class="st19" d="M77.8,113.8c3-0.6,4.6-2.7,4.8-6.1c-3.2,3.5-6.5,3.5-9.8,0C73.3,111,74.9,113.1,77.8,113.8z"/>
				<path class="st22" d="M82.2,107.7c0-1.4-2-2.5-4.4-2.5s-4.4,1.2-4.4,2.5c0,1,0.9,1.8,2.3,2.3c0.7-0.4,1.5-0.7,2.3-0.7
					c0.7,0,1.5,0.2,2.1,0.6C81.4,109.3,82.2,108.6,82.2,107.7z"/>
				<path class="st11" d="M75.8,109.9c0.7,0.2,1.4,0.4,2.1,0.3c0.8,0,1.7-0.1,2.4-0.5c-0.6-0.4-1.3-0.6-2.1-0.6
					C77.4,109.2,76.6,109.4,75.8,109.9z"/>
				<path class="st11" d="M81.2,105.5c0.8-0.5,1.5-0.6,2-0.1c0.2,0.6,0.3,1.2,0.1,1.8l-0.6,1l-0.2-1.4c0.2-0.2,0.2-0.5,0.2-0.8
					l-0.2-0.2c-0.2,0-0.5,0-0.7,0.1L81.2,105.5z"/>
				<path class="st10" d="M77.8,104.6c-2.7,0-4.8,1.4-4.8,3s2.2,3,4.8,3s4.8-1.4,4.8-3S80.5,104.6,77.8,104.6z M77.8,110.2
					c-2.3,0-4.2-1.2-4.2-2.5s1.8-2.5,4.2-2.5s4.2,1.2,4.2,2.5S80.1,110.2,77.8,110.2L77.8,110.2z"/>
			</g>
			<g>
				<polygon class="st23" points="39.4,83.5 19.9,72.3 28.8,67.1 48.8,78 				"/>
				<polygon class="st24" points="39.4,83.5 39.4,95.3 48.8,89.8 48.8,78 				"/>
				<polygon class="st25" points="19.9,72.3 39.4,83.5 39.4,95.3 19.7,84 				"/>
				<polygon class="st26" points="32.7,89.9 32.7,82.5 21.1,75.5 21.1,83.1 				"/>
				<polygon class="st27" points="35,88.5 35,89.8 38.3,91.6 38.3,90.3 				"/>
				<polygon class="st27" points="35,86.1 35,87.4 38.3,89.2 38.3,87.8 				"/>
				<polygon class="st26" points="35.5,84 35.5,85.3 37.7,86.5 37.8,85.3 				"/>
			</g>
			<g>
				<ellipse class="st6" cx="90.5" cy="67.3" rx="15.9" ry="8.7"/>
				<g class="st28">
					<ellipse class="st29" cx="91.3" cy="67.8" rx="12.7" ry="6.9"/>
				</g>
				<ellipse class="st30" cx="90.5" cy="67.3" rx="12.7" ry="6.9"/>
				<ellipse class="st31" cx="90.5" cy="67.3" rx="11.5" ry="6.3"/>
				<ellipse class="st32" cx="89.4" cy="69.7" rx="2.8" ry="1.5"/>
				<ellipse class="st32" cx="98.7" cy="67.3" rx="2.8" ry="1.5"/>
				<ellipse class="st32" cx="93.1" cy="64.6" rx="2.8" ry="1.5"/>
				<ellipse class="st32" cx="84.8" cy="64.3" rx="2.8" ry="1.5"/>
				<ellipse class="st32" cx="82.7" cy="67.6" rx="1" ry="0.6"/>
				<ellipse class="st32" cx="92.2" cy="61.9" rx="1" ry="0.6"/>
				<ellipse class="st32" cx="84.4" cy="71.2" rx="1" ry="0.6"/>
				<ellipse class="st32" cx="94.3" cy="68.2" rx="1" ry="0.6"/>
				<ellipse class="st32" cx="89" cy="66.4" rx="1" ry="0.6"/>
				<ellipse class="st32" cx="95.7" cy="70.7" rx="1" ry="0.6"/>
				<ellipse class="st32" cx="98.2" cy="64.3" rx="1" ry="0.6"/>
				<polygon class="st32" points="85.4,69.2 86.7,67.3 84.4,68.5 				"/>
				<polygon class="st32" points="92.2,73.1 93.5,71.2 91.3,72.4 				"/>
				<polygon class="st32" points="90.9,68.2 92.2,66.4 90,67.6 				"/>
				<polygon class="st32" points="81.6,68.6 79.7,67.6 81,69.7 				"/>
				<polygon class="st32" points="98.4,69.7 96.3,69.4 98.2,71 				"/>
				<polygon class="st32" points="82.8,65.1 80.6,64.8 82.5,66.4 				"/>
				<polygon class="st32" points="96.6,66.5 97.9,64.7 95.6,65.8 				"/>
				<polygon class="st32" points="88.9,63.8 90.2,61.9 87.8,63.1 				"/>
			</g>
			<g>
				<g class="st28">
					<ellipse class="st29" cx="123.5" cy="92.2" rx="5.8" ry="3.3"/>
				</g>
				<g>
					<path class="st19" d="M122.2,93.3c3-0.6,4.6-2.7,4.8-6.1c-3.2,3.5-6.5,3.5-9.8,0C117.8,90.6,119.4,92.6,122.2,93.3z"/>
					<path class="st22" d="M126.6,87.2c0-1.4-2-2.5-4.4-2.5s-4.4,1.2-4.4,2.5c0,1,0.9,1.8,2.3,2.3c0.7-0.4,1.5-0.7,2.3-0.7
						c0.7,0,1.5,0.2,2.1,0.6C125.8,88.9,126.6,88.1,126.6,87.2z"/>
					<path class="st11" d="M120.2,89.4c0.7,0.2,1.4,0.4,2.1,0.3c0.8,0,1.7-0.1,2.4-0.5c-0.6-0.4-1.3-0.6-2.1-0.6
						C121.8,88.7,120.9,89,120.2,89.4z"/>
					<path class="st11" d="M125.5,85c0.8-0.5,1.5-0.6,2-0.1c0.2,0.6,0.3,1.2,0.1,1.8l-0.6,1l-0.2-1.4c0.2-0.2,0.2-0.5,0.2-0.8
						l-0.2-0.2c-0.2,0-0.5,0-0.7,0.1L125.5,85z"/>
					<path class="st10" d="M122.2,84.2c-2.7,0-4.8,1.4-4.8,3s2.2,3,4.8,3s4.8-1.4,4.8-3S125,84.2,122.2,84.2z M122.2,89.7
						c-2.3,0-4.2-1.2-4.2-2.5s1.8-2.5,4.2-2.5s4.2,1.2,4.2,2.5S124.5,89.7,122.2,89.7z"/>
				</g>
				<path class="st33" d="M117.5,84.5l2.1-1l3.9,6.1c-0.9,0.2-1.9,0.2-2.8-0.1L117.5,84.5z"/>
				<polygon class="st34" points="123.7,83.2 121.7,86.9 123,89 125.8,84.2 				"/>
				<path class="st35" d="M127.3,85.1l1,1.5l-3.9,2.9c0,0-0.6,0.1-0.9,0.2l-0.8-1.3L127.3,85.1z"/>
				<path class="st34" d="M119.4,87.6l-0.9,0.6c0.3,0.3,0.6,0.6,0.9,0.8c0.4,0.2,0.8,0.3,1.2,0.5L119.4,87.6z"/>
			</g>
			<g>
				<g class="st28">
					<ellipse class="st29" cx="138.3" cy="96.1" rx="5.8" ry="3.3"/>
				</g>
				<g>
					<path class="st19" d="M137.2,97.2c3-0.6,4.6-2.7,4.8-6.1c-3.2,3.5-6.5,3.5-9.8,0C132.7,94.5,134.3,96.5,137.2,97.2z"/>
					<path class="st22" d="M141.4,91.1c0-1.4-2-2.5-4.4-2.5s-4.4,1.2-4.4,2.5c0,1,0.9,1.8,2.3,2.3c0.7-0.4,1.5-0.7,2.3-0.7
						c0.7,0,1.5,0.2,2.1,0.6C140.8,92.8,141.4,92,141.4,91.1z"/>
					<path class="st11" d="M135.1,93.4c0.7,0.2,1.4,0.4,2.1,0.3c0.8,0,1.7-0.1,2.4-0.5c-0.6-0.4-1.3-0.6-2.1-0.6
						C136.7,92.6,135.8,92.9,135.1,93.4z"/>
					<path class="st11" d="M140.4,88.9c0.8-0.5,1.5-0.6,2-0.1c0.2,0.6,0.3,1.2,0.1,1.8l-0.6,1l-0.2-1.4c0.2-0.2,0.2-0.5,0.2-0.8
						l-0.2-0.2c-0.2,0-0.5,0-0.7,0.1L140.4,88.9z"/>
					<path class="st10" d="M137.2,88.1c-2.6,0-4.8,1.4-4.8,3s2.2,3,4.8,3s4.8-1.4,4.8-3S139.8,88.1,137.2,88.1z M137.2,93.6
						c-2.3,0-4.1-1.2-4.1-2.5s1.8-2.5,4.1-2.5s4.1,1.2,4.1,2.5S139.4,93.6,137.2,93.6z"/>
				</g>
				<path class="st33" d="M132.3,88.4l2.1-1l3.9,6.1c-0.9,0.2-1.9,0.2-2.8-0.1L132.3,88.4z"/>
				<polygon class="st34" points="138.6,87.2 136.6,90.8 137.9,92.9 140.6,88.1 				"/>
				<path class="st35" d="M142.1,89l1,1.5l-3.9,2.9c0,0-0.6,0.1-0.9,0.2l-0.8-1.3L142.1,89z"/>
				<path class="st34" d="M134.3,91.5l-0.9,0.6c0.3,0.3,0.6,0.6,0.9,0.8c0.4,0.2,0.8,0.3,1.1,0.5L134.3,91.5z"/>
			</g>
			<g>
				<g class="st28">
					<ellipse class="st29" cx="18.8" cy="32.8" rx="5.8" ry="3.3"/>
				</g>
				<g>
					<path class="st19" d="M17.6,33.9c3-0.6,4.6-2.6,4.8-6.1c-3.2,3.5-6.5,3.5-9.8,0C13.1,31.2,14.8,33.2,17.6,33.9z"/>
					<path class="st22" d="M22,27.8c0-1.4-2-2.5-4.4-2.5s-4.4,1.1-4.4,2.5c0,1,0.9,1.8,2.3,2.3c0.7-0.4,1.5-0.7,2.3-0.7
						c0.7,0,1.5,0.2,2.1,0.6C21.2,29.5,22,28.7,22,27.8z"/>
					<path class="st11" d="M15.6,30.1c0.7,0.2,1.4,0.4,2.1,0.4c0.8,0,1.7-0.1,2.4-0.4c-0.6-0.4-1.3-0.6-2.1-0.6
						C17.1,29.3,16.3,29.6,15.6,30.1z"/>
					<path class="st11" d="M20.9,25.6c0.8-0.5,1.5-0.6,2-0.1c0.2,0.6,0.3,1.2,0.1,1.8l-0.6,1L22.1,27c0.2-0.2,0.2-0.5,0.2-0.8
						L22.1,26c-0.2,0-0.5,0-0.7,0.1L20.9,25.6z"/>
					<path class="st10" d="M17.6,24.8c-2.6,0-4.8,1.4-4.8,3s2.2,3,4.8,3s4.8-1.4,4.8-3S20.3,24.8,17.6,24.8z M17.6,30.3
						c-2.3,0-4.1-1.1-4.1-2.5s1.8-2.5,4.1-2.5s4.1,1.1,4.1,2.5S19.9,30.3,17.6,30.3L17.6,30.3z"/>
				</g>
				<path class="st33" d="M12.8,25.1l2.1-1l3.9,6.1c-0.9,0.2-1.9,0.1-2.8-0.1L12.8,25.1z"/>
				<polygon class="st34" points="19,23.9 17.1,27.5 18.3,29.6 21.2,24.8 				"/>
				<path class="st35" d="M22.7,25.7l1,1.5l-3.9,2.9c0,0-0.6,0.1-0.9,0.2L18.1,29L22.7,25.7z"/>
				<path class="st34" d="M14.8,28.2l-0.9,0.6c0.3,0.3,0.6,0.6,0.9,0.8c0.4,0.2,0.8,0.3,1.1,0.5L14.8,28.2z"/>
			</g>
		</g>
	</g>
</g>
</svg>
