<svg xmlns="http://www.w3.org/2000/svg" viewBox="0 0 234.38 251.77">
  <defs>
    <style>
      .cls-1 {
        opacity: 0.1;
      }

      .cls-2 {
        fill: #704626;
      }

      .cls-3 {
        fill: #825537;
      }

      .cls-4 {
        fill: #bb9469;
      }

      .cls-5 {
        fill: #cbac95;
      }

      .cls-6 {
        fill: #ead98b;
      }

      .cls-7 {
        fill: #c8ba78;
      }

      .cls-8 {
        fill: #1b4275;
      }

      .cls-9 {
        fill: #3fa9f5;
      }

      .cls-10 {
        fill: #1d4e89;
      }

      .cls-11 {
        fill: #ff931e;
      }

      .cls-12 {
        fill: #ea821b;
      }

      .cls-13 {
        fill: #ada168;
      }

      .cls-14 {
        fill: #efeded;
      }

      .cls-15 {
        fill: #00b2ca;
      }

      .cls-16 {
        fill: #255f99;
      }

      .cls-17 {
        fill: #00ccdb;
      }

      .cls-18 {
        fill: #1099ac;
      }

      .cls-19 {
        fill: #f4e295;
      }

      .cls-20 {
        opacity: 0.6;
      }

      .cls-21 {
        fill: #cdcfd1;
      }

      .cls-22 {
        fill: #e6e9ed;
      }

      .cls-23 {
        opacity: 0.7;
      }

      .cls-24 {
        fill: #d3cfcf;
      }

      .cls-25 {
        fill: #f4c9b8;
      }

      .cls-26 {
        fill: #f1c5b5;
      }

      .cls-27 {
        fill: #bea28d;
      }

      .cls-28 {
        fill: #f1c6b5;
      }

      .cls-29 {
        fill: #edcbbd;
      }

      .cls-30 {
        fill: #af6100;
      }

      .cls-31 {
        fill: #fff;
      }

      .cls-32 {
        fill: #965102;
      }

      .cls-33 {
        fill: #bdbebd;
      }

      .cls-34 {
        fill: #fbb03b;
      }

      .cls-35 {
        fill: #7a4e4e;
      }

      .cls-36 {
        fill: #efefef;
      }

      .cls-37 {
        fill: #cdcccc;
      }

      .cls-38 {
        fill: #ddd;
      }

      .cls-39 {
        opacity: 0.2;
      }

      .cls-40 {
        fill: #f9f7f5;
      }

      .cls-41 {
        fill: #ecb129;
      }

      .cls-42 {
        fill: #ffc043;
      }

      .cls-43 {
        fill: #f1c6be;
      }

      .cls-44 {
        fill: #7dcfb6;
      }

      .cls-45 {
        fill: #89dbc0;
      }

      .cls-46 {
        fill: #603912;
      }

      .cls-47 {
        fill: #c0737a;
      }

      .cls-48 {
        fill: #e3868f;
      }
    </style>
  </defs>
  <title>birthdayРесурс 6</title>
  <g id="Слой_2" data-name="Слой 2">
    <g id="Material">
      <g id="birthday">
        <ellipse class="cls-1" cx="183.08" cy="90.4" rx="16.3" ry="9.4"/>
        <g>
          <polygon class="cls-2" points="127.88 135.1 125.28 133.5 125.28 110.4 127.88 111.8 127.88 135.1"/>
          <polyline class="cls-3" points="110.68 144.9 110.68 120.9 130.38 109.8 130.38 133.8 127.88 135.1 127.88 113.1 113.28 121.4 113.18 143.6 110.68 144.9"/>
          <polygon class="cls-2" points="110.68 144.9 108.08 143.4 108.08 120.2 110.38 121.5 110.68 121.5 110.68 144.9"/>
          <path class="cls-3" d="M91.88,83.4l.1,50.8,2.2-1.4.2-22,14.7-7.9,2.3-1V72.4Zm2.6,18.3L109,93.3v6.4L94.48,108Zm0-8.5L109,84.8v6.4l-14.5,8.3Zm0-8.5L109,76.3v6.4L94.48,91Z"/>
          <polygon class="cls-4" points="94.58 105.2 106.38 98.2 108.98 99.7 94.48 108 94.58 105.2"/>
          <polygon class="cls-4" points="112.38 121.5 112.28 119.6 130.38 109.5 130.38 111.1 112.38 121.5"/>
          <polygon class="cls-4" points="110.38 119.6 112.28 119.6 130.38 109.5 130.38 108.5 111.28 98.5 91.88 109.3 110.38 119.6"/>
          <polygon class="cls-4" points="110.38 119.6 91.88 109.3 91.88 111.3 110.38 121.5 110.38 119.6"/>
          <polygon class="cls-4" points="111.28 72.4 109.08 71.1 89.68 82.3 91.88 83.4 111.28 72.4"/>
          <polygon class="cls-4" points="94.58 96.6 106.38 89.7 108.98 91.2 94.48 99.5 94.58 96.6"/>
          <polygon class="cls-4" points="94.58 88.1 106.38 81.2 108.98 82.7 94.48 91 94.58 88.1"/>
          <polygon class="cls-2" points="106.38 98.2 106.38 94.8 108.98 93.3 108.98 99.7 106.38 98.2"/>
          <polygon class="cls-2" points="106.38 89.6 106.38 86.2 108.98 84.7 108.98 91.1 106.38 89.6"/>
          <polygon class="cls-2" points="106.38 81.2 106.38 77.8 108.98 76.2 108.98 82.7 106.38 81.2"/>
          <polygon class="cls-2" points="91.98 134.2 89.68 132.8 89.68 82.3 91.88 83.4 91.98 134.2"/>
          <polygon class="cls-5" points="110.38 121.5 112.38 121.5 112.28 119.6 110.38 119.6 110.38 121.5"/>
          <polygon class="cls-2" points="91.88 111.3 108.08 120.2 108.08 122.2 91.88 113.2 91.88 111.3"/>
        </g>
        <g>
          <polygon class="cls-2" points="102.48 147.9 99.88 146.3 99.88 123.1 102.48 124.6 102.48 147.9"/>
          <polyline class="cls-3" points="85.28 157.7 85.28 133.6 104.98 122.6 104.98 146.5 102.48 147.9 102.48 125.9 87.88 134.2 87.88 156.4 85.28 157.7"/>
          <polygon class="cls-2" points="85.28 157.7 82.68 156.1 82.68 133 84.98 134.2 85.28 134.2 85.28 157.7"/>
          <path class="cls-3" d="M66.48,96.2l.1,50.8,2.2-1.4.2-22,14.7-7.9,2.3-1V85.2Zm2.7,18.3,14.5-8.4v6.4l-14.5,8.3Zm0-8.5,14.5-8.4V104l-14.5,8.3Zm0-8.5,14.5-8.4v6.4l-14.5,8.3Z"/>
          <polygon class="cls-4" points="69.18 117.9 80.98 111 83.68 112.5 69.18 120.8 69.18 117.9"/>
          <polygon class="cls-4" points="86.98 134.3 86.98 132.4 104.98 122.3 104.98 123.8 86.98 134.3"/>
          <polygon class="cls-4" points="84.98 132.4 86.98 132.4 104.98 122.3 104.98 121.3 85.88 111.3 66.58 122.1 84.98 132.4"/>
          <polygon class="cls-4" points="84.98 132.4 66.58 122.1 66.58 124 84.98 134.2 84.98 132.4"/>
          <polygon class="cls-4" points="85.88 85.1 83.68 83.9 64.38 95.1 66.48 96.2 85.88 85.1"/>
          <polygon class="cls-4" points="69.18 109.4 80.98 102.4 83.68 104 69.18 112.3 69.18 109.4"/>
          <polygon class="cls-4" points="69.18 100.9 80.98 93.9 83.68 95.4 69.18 103.8 69.18 100.9"/>
          <polygon class="cls-2" points="80.98 111 80.98 107.6 83.68 106.1 83.68 112.5 80.98 111"/>
          <polygon class="cls-2" points="80.98 102.4 80.98 99 83.68 97.4 83.68 103.9 80.98 102.4"/>
          <polygon class="cls-2" points="80.98 93.9 80.98 90.5 83.68 89 83.68 95.4 80.98 93.9"/>
          <polygon class="cls-2" points="66.58 147 64.28 145.6 64.38 95.1 66.48 96.2 66.58 147"/>
          <polygon class="cls-5" points="84.98 134.2 86.98 134.3 86.98 132.4 84.98 132.4 84.98 134.2"/>
          <polygon class="cls-2" points="66.58 124 82.68 133 82.68 135 66.58 125.9 66.58 124"/>
        </g>
        <g>
          <polygon class="cls-2" points="70.28 162.1 67.68 160.6 67.68 137.4 70.28 138.8 70.28 162.1"/>
          <polyline class="cls-3" points="53.08 172 53.08 147.9 72.78 136.8 72.78 160.8 70.28 162.1 70.28 140.2 55.68 148.5 55.58 170.6 53.08 172"/>
          <polygon class="cls-2" points="53.08 172 50.48 170.4 50.48 147.2 52.78 148.5 53.08 148.5 53.08 172"/>
          <path class="cls-3" d="M34.28,110.5l.1,50.8,2.2-1.4.2-22,14.7-7.9,2.3-1V99.5Zm2.6,18.3,14.5-8.4v6.4l-14.5,8.3Zm0-8.5,14.5-8.4v6.4l-14.5,8.3Zm0-8.6,14.5-8.4v6.4L36.88,118Z"/>
          <polygon class="cls-4" points="36.88 132.2 48.78 125.2 51.38 126.8 36.88 135.1 36.88 132.2"/>
          <polygon class="cls-4" points="54.68 148.5 54.68 146.6 72.78 136.5 72.78 138.1 54.68 148.5"/>
          <polygon class="cls-4" points="52.78 146.6 54.68 146.6 72.78 136.5 72.78 135.6 53.68 125.6 34.28 136.4 52.78 146.6"/>
          <polygon class="cls-4" points="52.78 146.6 34.28 136.4 34.28 138.3 52.78 148.5 52.78 146.6"/>
          <polygon class="cls-4" points="53.68 99.4 51.38 98.1 32.08 109.3 34.28 110.5 53.68 99.4"/>
          <polygon class="cls-4" points="36.88 123.6 48.78 116.7 51.38 118.2 36.88 126.5 36.88 123.6"/>
          <polygon class="cls-4" points="36.88 115.1 48.78 108.2 51.38 109.7 36.88 118 36.88 115.1"/>
          <polygon class="cls-2" points="48.78 125.2 48.78 121.9 51.38 120.3 51.38 126.8 48.78 125.2"/>
          <polygon class="cls-2" points="48.78 116.6 48.78 113.2 51.38 111.7 51.38 118.1 48.78 116.6"/>
          <polygon class="cls-2" points="48.78 108.2 48.78 104.8 51.38 103.3 51.38 109.7 48.78 108.2"/>
          <polygon class="cls-2" points="34.28 161.2 32.08 159.8 32.08 109.3 34.28 110.5 34.28 161.2"/>
          <polygon class="cls-5" points="52.78 148.5 54.68 148.5 54.68 146.6 52.78 146.6 52.78 148.5"/>
          <polygon class="cls-2" points="34.28 138.3 50.48 147.2 50.48 149.2 34.28 140.2 34.28 138.3"/>
        </g>
        <g>
          <ellipse class="cls-6" cx="13.08" cy="153.6" rx="10.1" ry="4.5"/>
          <path class="cls-7" d="M13.08,148.8c5.7,0,10.1,2.1,10.1,4.8H22c0-1.7-3.6-3.6-8.9-3.6s-8.9,1.9-8.9,3.6H3C3,150.9,7.38,148.8,13.08,148.8Z"/>
          <path class="cls-8" d="M15.68,160.6c2-5,7.8-10,13.2-10.8,1.3-.2,1.3-2.2,0-2-6.4.8-12.8,6.3-15.1,12.2-.5,1.2,1.5,1.8,1.9.6Z"/>
          <path class="cls-9" d="M.68,149c5,2,9.9,8,10.6,13.4.1,1.3,2.2,1.3,2,0-.8-6.4-6.1-12.9-12-15.3-1.3-.6-1.8,1.4-.6,1.9Z"/>
          <path class="cls-8" d="M7.78,158.8c-1.8-5.2-.7-12.8,3-17,.8-1-.6-2.4-1.4-1.4-4.2,4.7-5.5,13-3.5,18.9.4,1.2,2.3.7,1.9-.5Z"/>
          <path class="cls-10" d="M13.68,162.8c-1.8-5.2-.7-12.8,3-17,.8-1-.6-2.4-1.4-1.4-4.2,4.7-5.5,13-3.5,18.9.4,1.2,2.3.7,1.9-.5Z"/>
          <path class="cls-11" d="M15.18,164.9c-1.8-5.2-.7-12.8,3-17,.8-1-.6-2.4-1.4-1.4-4.2,4.7-5.5,13-3.5,18.9a1,1,0,0,0,1.9-.5Z"/>
          <path class="cls-6" d="M10.18,163.1a35.61,35.61,0,0,0,3.4-18.4c-.1-1.3-2.1-1.3-2,0a32.76,32.76,0,0,1-3.1,17.4c-.6,1.2,1.1,2.2,1.7,1Z"/>
          <path class="cls-9" d="M16.58,159.5A35.61,35.61,0,0,0,20,141.1c-.1-1.3-2.1-1.3-2,0a32.76,32.76,0,0,1-3.1,17.4c-.6,1.2,1.1,2.2,1.7,1Z"/>
          <path class="cls-10" d="M7.18,164.6a35.61,35.61,0,0,0,3.4-18.4c-.1-1.3-2.1-1.3-2,0a32.76,32.76,0,0,1-3.1,17.4c-.6,1.2,1.1,2.2,1.7,1Z"/>
          <path class="cls-11" d="M17.68,168.1a35.61,35.61,0,0,0,3.4-18.4c-.1-1.3-2.1-1.3-2,0A32.76,32.76,0,0,1,16,167.1c-.5,1.2,1.2,2.2,1.7,1Z"/>
          <path class="cls-12" d="M13.08,167.6a35.61,35.61,0,0,0,3.4-18.4c-.1-1.3-2.1-1.3-2,0a32.76,32.76,0,0,1-3.1,17.4c-.6,1.2,1.2,2.2,1.7,1Z"/>
          <path class="cls-7" d="M13.08,157.3c5.2,0,8.9-1.9,8.9-3.6h1.2c0,2.7-4.4,4.8-10.1,4.8S3,156.4,3,153.7h1.2C4.18,155.3,7.78,157.3,13.08,157.3Z"/>
          <path class="cls-7" d="M3.58,155.4c3.5,4.2,19.5,3.6,19.5-1.8L20.78,176c0,2.5-2.2,4.5-7.8,4.5h0c-2-.5-5.2-1.4-6-2C6,177.7,4,159,3.58,155.4Z"/>
          <path class="cls-13" d="M4.78,176.5,3,153.5a2.57,2.57,0,0,0,.7,1.8c.4,3.7,2.4,22.4,3.4,23.1.8.6,4,1.4,6,2C7.48,180.5,4.78,179,4.78,176.5Z"/>
        </g>
        <g>
          <path class="cls-8" d="M10.68,76.7h-.8v-1h.8c50.7,0,96.6-25.4,136.3-75.7l.8.6c-20.3,25.7-42.4,45.1-65.5,57.7A148.5,148.5,0,0,1,10.68,76.7Z"/>
          <polygon class="cls-14" points="143.48 5.2 147.28 17.8 143.48 16.4 142.78 21.3 138.98 10.4 143.48 5.2"/>
          <polygon class="cls-15" points="136.48 13.3 138.98 26.2 135.28 24.5 134.08 29.2 131.48 18.1 136.48 13.3"/>
          <polygon class="cls-11" points="128.58 22.5 130.68 35.5 126.98 33.7 125.68 38.4 123.38 27.1 128.58 22.5"/>
          <polygon class="cls-8" points="120.28 30.5 121.68 43.6 118.08 41.5 116.48 46.1 114.88 34.8 120.28 30.5"/>
          <polygon class="cls-12" points="112.58 37.4 113.28 50.6 109.88 48.3 107.98 52.9 106.98 41.5 112.58 37.4"/>
          <polygon class="cls-8" points="93.78 50.9 93.58 62.8 90.18 61.2 88.08 65.3 87.98 54.5 93.78 50.9"/>
          <polygon class="cls-16" points="83.38 57.4 82.88 69.3 79.48 67.6 76.38 71.3 77.28 60.5 83.38 57.4"/>
          <polygon class="cls-11" points="71.58 62.9 71.48 74.2 68.28 72.3 65.78 76.2 65.78 65.8 71.58 62.9"/>
          <polygon class="cls-9" points="61.88 67.1 61.38 78.7 58.08 76.8 54.98 80 55.58 69.5 61.88 67.1"/>
          <polygon class="cls-17" points="51.28 70.9 50.48 82.3 47.58 80.6 44.38 83.3 45.28 72.5 51.28 70.9"/>
          <polygon class="cls-8" points="41.48 73.4 40.88 84.8 38.08 83.1 34.68 85.4 35.58 74.5 41.48 73.4"/>
          <polygon class="cls-11" points="31.88 75 31.38 86.9 28.08 84.9 25.28 86.6 26.18 75.8 31.88 75"/>
          <polygon class="cls-18" points="21.28 75.9 20.58 87.9 17.38 85.9 14.98 87.4 15.58 76.2 21.28 75.9"/>
        </g>
        <g>
          <polygon class="cls-12" points="178.58 94.5 178.58 82 157.78 70.7 158.38 82.8 178.58 94.5"/>
          <polygon class="cls-12" points="198.58 83 198.58 70.7 178.58 82 178.58 94.5 198.58 83"/>
          <polygon class="cls-11" points="178.58 59.2 198.58 70.7 178.58 82 158.28 70.9 178.58 59.2"/>
          <polygon class="cls-6" points="191.78 86.9 191.78 74.5 187.48 76.9 187.48 89.3 191.78 86.9"/>
          <polygon class="cls-7" points="168.78 88.8 168.78 76.7 165.28 74.8 165.28 86.8 168.78 88.8"/>
          <polygon class="cls-19" points="187.48 76.9 178.18 71.6 168.78 76.7 165.28 74.8 174.48 69.6 167.48 65.6 170.98 63.6 178.08 67.5 186.18 63.6 189.58 65.5 181.88 69.5 191.78 74.5 187.48 76.9"/>
        </g>
        <g>
          <polygon class="cls-8" points="157.48 94.4 157.48 83.9 148.38 78.8 148.38 89.1 157.48 94.4"/>
          <polygon class="cls-10" points="157.48 94.4 167.08 88.9 167.08 79.2 157.48 83.9 157.48 94.4"/>
          <polygon class="cls-16" points="157.48 74.3 167.08 79.2 157.48 83.9 148.38 78.8 157.48 74.3"/>
          <polygon class="cls-6" points="163.88 90.7 163.88 80.8 161.38 82 161.38 92.2 163.88 90.7"/>
          <polygon class="cls-7" points="154.58 82.3 152.28 81 152.28 91.4 154.28 92.5 154.58 82.3"/>
          <polygon class="cls-19" points="161.38 82 158.18 80.3 154.58 82.3 152.28 81 155.88 79.2 151.98 77 153.98 76 157.88 78.1 161.38 76.3 163.08 77.2 159.98 79.1 163.88 80.8 161.38 82"/>
        </g>
        <g>
          <polygon class="cls-18" points="177.08 72.4 177.08 61.9 167.98 56.8 167.98 67.2 177.08 72.4"/>
          <polygon class="cls-15" points="177.08 72.4 186.68 66.9 186.68 57.2 177.08 61.9 177.08 72.4"/>
          <polygon class="cls-17" points="177.08 52.3 186.68 57.2 177.08 61.9 167.98 56.8 177.08 52.3"/>
          <polygon class="cls-6" points="183.48 68.7 183.48 58.8 180.98 60 180.98 70.2 183.48 68.7"/>
          <polygon class="cls-7" points="174.18 60.3 171.88 59 171.88 69.4 173.88 70.5 174.18 60.3"/>
          <polygon class="cls-19" points="180.98 60 177.78 58.3 174.18 60.3 171.88 59 175.48 57.2 171.58 55 173.58 54 177.48 56.1 180.98 54.3 182.68 55.2 179.58 57.1 183.48 58.8 180.98 60"/>
        </g>
        <g>
          <ellipse class="cls-1" cx="144.98" cy="96.7" rx="4.1" ry="2.3"/>
          <g class="cls-20">
            <rect class="cls-21" x="144.98" y="50.3" width="0.3" height="41.3"/>
          </g>
          <path class="cls-17" d="M139.08,42.4a16.77,16.77,0,0,1-.8-7.9,7.7,7.7,0,0,1,14.4,3.8,14.35,14.35,0,0,1-7,12.5A14.56,14.56,0,0,1,139.08,42.4Z"/>
          <path class="cls-15" d="M137.18,38.3a8,8,0,0,1,1-3.8,16.76,16.76,0,0,0,.8,7.9,15.75,15.75,0,0,0,6.5,8.4,1.09,1.09,0,0,0-.4.2S137.18,47.2,137.18,38.3Z"/>
        </g>
        <g>
          <polygon class="cls-3" points="156.58 127.4 159.18 125.8 159.18 102.7 156.58 104.1 156.58 127.4"/>
          <polyline class="cls-2" points="173.88 137.2 173.88 113.2 154.18 102.1 154.18 126.1 156.58 127.4 156.58 105.4 171.28 113.7 171.28 135.9 173.88 137.2"/>
          <polygon class="cls-3" points="173.88 137.2 176.48 135.7 176.48 112.5 174.18 113.8 173.88 113.8 173.88 137.2"/>
          <path class="cls-2" d="M173.18,64.7V94.2l2.3,1,14.7,7.9.2,22,2.2,1.4.1-50.8ZM190,100.3,175.48,92V85.6L190,94Zm0-8.5-14.5-8.3V77.1L190,85.5Zm0-8.5L175.48,75V68.6L190,77Z"/>
          <polygon class="cls-4" points="189.98 97.4 178.18 90.5 175.48 92 189.98 100.3 189.98 97.4"/>
          <polygon class="cls-4" points="172.18 113.8 172.18 111.9 154.18 101.8 154.18 103.4 172.18 113.8"/>
          <polygon class="cls-4" points="174.18 111.9 172.18 111.9 154.18 101.8 154.18 100.8 173.18 90.8 192.58 101.6 174.18 111.9"/>
          <polygon class="cls-4" points="174.18 111.9 192.58 101.6 192.58 103.5 174.18 113.8 174.18 111.9"/>
          <polygon class="cls-4" points="173.18 64.7 175.48 63.4 194.78 74.6 192.68 75.7 173.18 64.7"/>
          <polygon class="cls-4" points="189.98 88.9 178.18 82 175.48 83.5 189.98 91.8 189.98 88.9"/>
          <polygon class="cls-4" points="189.98 80.4 178.18 73.4 175.48 75 189.98 83.3 189.98 80.4"/>
          <polygon class="cls-3" points="178.18 90.5 178.18 87.1 175.48 85.6 175.48 92 178.18 90.5"/>
          <polygon class="cls-3" points="178.18 81.9 178.18 78.5 175.48 77 175.48 83.4 178.18 81.9"/>
          <polygon class="cls-3" points="178.18 73.4 178.18 70.1 175.48 68.5 175.48 75 178.18 73.4"/>
          <polygon class="cls-3" points="192.58 126.5 194.78 125.1 194.78 74.6 192.68 75.7 192.58 126.5"/>
          <polygon class="cls-5" points="174.18 113.8 172.18 113.8 172.18 111.9 174.18 111.9 174.18 113.8"/>
          <polygon class="cls-3" points="192.58 103.5 176.48 112.5 176.48 114.5 192.58 105.4 192.58 103.5"/>
        </g>
        <g>
          <path class="cls-11" d="M91.88,227.8c-4.9-5.2-3.9-11.7-2.1-16.5a13.49,13.49,0,1,1,19.3,18.6C103.68,231.9,96.68,232.9,91.88,227.8Z"/>
          <path class="cls-12" d="M87.08,219.5a13.12,13.12,0,0,1,2.8-8.2c-1.9,4.8-2.8,11.3,2.1,16.5s11.8,4.1,17.2,2.1a13.49,13.49,0,0,1-22.1-10.4Z"/>
        </g>
        <g>
          <path class="cls-17" d="M30.08,189.6c-5.2-5.6-4.2-12.4-2.2-17.5a14.31,14.31,0,1,1,20.5,19.7C42.58,194,35.18,195.1,30.08,189.6Z"/>
          <path class="cls-15" d="M24.88,180.8a13.9,13.9,0,0,1,3-8.7c-2,5.1-3,12,2.2,17.5s12.5,4.4,18.3,2.3a14.69,14.69,0,0,1-9.1,3.3A14.4,14.4,0,0,1,24.88,180.8Z"/>
        </g>
        <g>
          <ellipse class="cls-1" cx="222.68" cy="127" rx="4.1" ry="2.3"/>
          <g class="cls-20">
            <rect class="cls-22" x="222.68" y="80.6" width="0.3" height="41.3"/>
          </g>
          <path class="cls-11" d="M216.68,72.7a16.77,16.77,0,0,1-.8-7.9,7.7,7.7,0,0,1,14.4,3.8,14.35,14.35,0,0,1-7,12.5A15.38,15.38,0,0,1,216.68,72.7Z"/>
          <path class="cls-12" d="M214.88,68.6a8,8,0,0,1,1-3.8,16.76,16.76,0,0,0,.8,7.9,15.75,15.75,0,0,0,6.5,8.4,1.09,1.09,0,0,0-.4.2S214.88,77.5,214.88,68.6Z"/>
        </g>
        <g>
          <ellipse class="cls-1" cx="204.58" cy="118.6" rx="5.5" ry="3.2"/>
          <g class="cls-20">
            <rect class="cls-22" x="204.58" y="90.2" width="0.3" height="23.3"/>
          </g>
          <path class="cls-19" d="M198.68,82.9a16.77,16.77,0,0,1-.8-7.9,7.7,7.7,0,0,1,14.4,3.8,14.35,14.35,0,0,1-7,12.5A14.56,14.56,0,0,1,198.68,82.9Z"/>
          <path class="cls-6" d="M196.78,78.8a8,8,0,0,1,1-3.8,16.76,16.76,0,0,0,.8,7.9,15.75,15.75,0,0,0,6.5,8.4,1.09,1.09,0,0,0-.4.2S196.78,87.7,196.78,78.8Z"/>
        </g>
        <g>
          <g class="cls-23">
            <g class="cls-20">
              <rect class="cls-22" x="226.78" y="138.2" width="0.3" height="41.3"/>
            </g>
          </g>
          <ellipse class="cls-1" cx="226.78" cy="184.6" rx="4.1" ry="2.3"/>
          <path class="cls-14" d="M220.78,130.3a16.77,16.77,0,0,1-.8-7.9,7.7,7.7,0,0,1,14.4,3.8,14.35,14.35,0,0,1-7,12.5A15.38,15.38,0,0,1,220.78,130.3Z"/>
          <path class="cls-24" d="M219,126.2a8,8,0,0,1,1-3.8,16.76,16.76,0,0,0,.8,7.9,15.75,15.75,0,0,0,6.5,8.4,1.09,1.09,0,0,0-.4.2S219,135.2,219,126.2Z"/>
        </g>
        <g>
          <g class="cls-20">
            <rect class="cls-22" x="212.88" y="68.4" width="0.3" height="57.3"/>
          </g>
          <ellipse class="cls-1" cx="212.88" cy="130.9" rx="2.1" ry="1.2"/>
          <path class="cls-14" d="M206.88,61.1a16.77,16.77,0,0,1-.8-7.9,7.7,7.7,0,0,1,14.4,3.8,14.35,14.35,0,0,1-7,12.5A15.38,15.38,0,0,1,206.88,61.1Z"/>
          <path class="cls-24" d="M205.08,57a8,8,0,0,1,1-3.8,16.76,16.76,0,0,0,.8,7.9,15.75,15.75,0,0,0,6.5,8.4,1.09,1.09,0,0,0-.4.2S205.08,66,205.08,57Z"/>
        </g>
        <g>
          <g>
            <path class="cls-7" d="M154.58,159.7l2.5-16.6s-.75-13-.3-14.4l.9-2.8,8.1,3.2-4,13.1-3.6,17.5Z"/>
            <path class="cls-6" d="M163.88,165V128.2l6.9-1.4a94.78,94.78,0,0,1,.4,12.2l-3,25.1Z"/>
            <path class="cls-17" d="M154.08,107.3s8.45.7,9.2,1.1l2.8,1.5-.6,3.2,3.7,4.2,2,10.1-8.2,1.3-5.3-2.4-4.3-12-.2.2-2-3.6Z"/>
            <path class="cls-11" d="M152.18,105.2a23.54,23.54,0,0,1-.5-2.9c0-.7,1.65-2.74,1.9-2.9s4.6-.4,5.1,0a8.1,8.1,0,0,1,2,2.7c.21.8.37,3.17,0,3.8a19.74,19.74,0,0,1-1.4,2.4,1,1,0,0,1-1.2-.6,8.32,8.32,0,0,1-.2-2.1,2.75,2.75,0,0,0-.6-1.3c-.1,0-.3.9-.5,1s-.81-2.2-1.3-2.4a6.12,6.12,0,0,0-3,.1C152.19,103.29,152.18,105.2,152.18,105.2Z"/>
            <path class="cls-10" d="M153.48,100.3l2.6-7.8,2.6,7.6a5.12,5.12,0,0,1-2.7,1.4A3.44,3.44,0,0,1,153.48,100.3Z"/>
          </g>
          <path class="cls-25" d="M158.08,107.7l-.2-2.1a7.54,7.54,0,0,0-.32-1.9c-.23-.44-.88,1.6-.88,1.6s.77-2.16-1-2.68a4.36,4.36,0,0,0-3.26.38,20.45,20.45,0,0,0-.2,4.6c.08.31,1.87.52,2,.7a1.48,1.48,0,0,1,.2,1.2c-.22.65,4.34,4.28,5.1,3.8.52-.89.22-2.72-.3-4.8Z"/>
        </g>
        <g>
          <polygon class="cls-4" points="146.98 173.3 81.68 135.5 122.78 111.2 188.38 149.4 146.98 173.3"/>
          <polygon class="cls-2" points="146.98 173.3 146.98 177.6 81.78 139.3 81.78 135.5 146.98 173.3"/>
          <polygon class="cls-3" points="146.98 177.6 146.98 173.3 188.48 149.4 188.48 153.3 146.98 177.6"/>
          <polygon class="cls-2" points="144.08 175.9 144.08 211.2 147.08 212.9 147.08 177.7 144.08 175.9"/>
          <polygon class="cls-3" points="149.28 176.3 147.08 177.7 147.08 212.9 149.28 211.5 149.28 176.3"/>
          <polygon class="cls-2" points="181.48 157.4 181.48 189.1 184.38 190.8 184.38 155.6 181.48 157.4"/>
          <polygon class="cls-3" points="186.58 154.3 184.38 155.6 184.38 190.8 186.58 189.4 186.58 154.3"/>
          <polygon class="cls-2" points="84.78 141.1 84.78 176.3 87.78 178 87.78 142.8 84.78 141.1"/>
          <polygon class="cls-3" points="89.98 144.1 87.78 142.8 87.78 178 89.98 176.6 89.98 144.1"/>
        </g>
        <path class="cls-25" d="M170.18,121.5c.28-1.22-1.35-5.25-1.7-6l-2.7-5.7-2,2.9s2.69,6.4,2.6,7.6-5.2,9.3-5.2,9.3-5.31,1.7-5.6,2.2,1.79,1.3,3.3,1.3,4.1-2.6,4.1-2.6S169.91,122.72,170.18,121.5Z"/>
        <path class="cls-25" d="M153.38,114.3l-.2.2-2-3.6s.88,8.3.5,9.1a22,22,0,0,1-4.7,3.73c-1.56,1-3.8,1.57-4.5,2.17s.8,1.9,2.75,1.4,1.43-1.47,2.85-2.28c2.48-1.4,6.85-3.34,7.1-3.83.4-.76-.4-3-.4-3Z"/>
        <g>
          <ellipse class="cls-1" cx="203.18" cy="100.3" rx="4.1" ry="2.3"/>
          <g class="cls-20">
            <rect class="cls-22" x="203.18" y="53.9" width="0.3" height="41.3"/>
          </g>
          <path class="cls-11" d="M197.18,46a16.77,16.77,0,0,1-.8-7.9,7.7,7.7,0,0,1,14.4,3.8,14.35,14.35,0,0,1-7,12.5A15.38,15.38,0,0,1,197.18,46Z"/>
          <path class="cls-12" d="M195.38,41.9a8,8,0,0,1,1-3.8,16.76,16.76,0,0,0,.8,7.9,15.75,15.75,0,0,0,6.5,8.4,1.09,1.09,0,0,0-.4.2S195.38,50.8,195.38,41.9Z"/>
        </g>
        <g>
          <path class="cls-26" d="M214.08,163.6c-1,.4-3.68.3-3.9.4s-.67-.17-.5-.5,3.7-1.61,3.3-2.5-10-15.6-10-15.6l5.6-.5c-.35,0,6.82,16.42,7.4,17.2S215.08,163.2,214.08,163.6Z"/>
          <polygon class="cls-26" points="199.68 163.6 201.98 161.7 200.88 156.3 198.08 143.9 202.98 145.4 204.38 158.4 205.48 162.8 203.98 163.6 200.88 164.1 199.68 163.6"/>
          <path class="cls-6" d="M207.88,134.6c2.2,6.11,4.23,12.32,8.5,17.2a30,30,0,0,1-6.3,1c-2.62,0-7.8-.7-11.2-.7a16.8,16.8,0,0,1-6.7-1.7l6.5-19.6,8.8,2.4Z"/>
          <path class="cls-3" d="M198.68,130.8s-.4-11.15,0-12.4a16.39,16.39,0,0,1,1.9-3.3l7.4,1.3,3,4c-1.69,4.82-3.11,9.36-3.5,12.8C203.94,132.88,200.13,132.79,198.68,130.8Z"/>
          <path class="cls-27" d="M199,118c-3.57-2.91-5.27-5.58-7.4-8.3,0,0-1.4-1.65-1.4-2.2s.31-.84,1.2-1.1,2.5,2.1,2.5,2.1l6.2,8Z"/>
          <path class="cls-28" d="M201.18,114c-.35.09-.25-2.08,0-5.1l1.8-2,4.7,3,.5,1.9h1.5c-2.57,2.32-5,4.46-5.3,4.1Z"/>
          <path class="cls-29" d="M210.18,121.1a42.37,42.37,0,0,1-6.2-1.9c-1.17-.6-9.5-7.6-9.5-7.6s-2.18-.5-2.3-1.3.92-1.7,2.2-1.7,2.4,2.4,2.4,2.4,13.53,6.73,14,7.4,0,1.94,0,2.2A.57.57,0,0,1,210.18,121.1Z"/>
          <path class="cls-30" d="M200.38,113.5s-.86-4-.3-5.2,4.61-4.21,5.6-3.9,5.57,2.66,6,3.5-.18,2.4,0,3.2,2.14.8,2.3,2.1-1.6,6.29-2.4,6.7-.39-5.08-1.4-3.4.51-4,.3-4.3-2.2,2.24-2.7,2.5-.92,0-.7-.4,1.8-1.39,2.2-2.1-1.33.15-1.5-.4a14.51,14.51,0,0,0-.7-2.3c-.25-.37-3.35-2.16-4.43-1.95S201,111.2,201,111.2Z"/>
          <path class="cls-10" d="M210.48,107.5l.5-7.7-5,5.7s1.08,1.83,1.9,2.1A7.16,7.16,0,0,0,210.48,107.5Z"/>
        </g>
        <g>
          <polygon class="cls-8" points="201.08 210.3 201.08 193.5 201.08 170.5 192.78 169.2 192.78 183.6 196.98 209.4 201.08 210.3"/>
          <path class="cls-10" d="M208.08,205.7l-2.4-16c.3,2,.3-10.45.3-13.8s-1.6-9.5-1.6-9.5l-3.3,4.1v18.4l3.5,16.8Z"/>
          <path class="cls-31" d="M201.08,210.3s1.08,2.1.4,2.6-7.89-.76-9.2-1.3-2.08-2.7-1-2.7,5.7.5,5.7.5Z"/>
          <path class="cls-31" d="M208.48,208.9c.44-.69-.4-3.2-.4-3.2.24.11-5.63-2.87-6.6-2.8-.79.05,0,2.19,0,2.8s3.74,3,4.7,3.2S208,209.59,208.48,208.9Z"/>
          <path class="cls-25" d="M192.08,167.6s-1.15,2.14-1.6,2.3a2.64,2.64,0,0,1-2.4-1.1c-.37-.84.52-15.2.9-15.6s1.42-1.42,1.9-1,.61,3.63.2,4.6a61.1,61.1,0,0,0-1,6.9Z"/>
          <path class="cls-25" d="M208.08,160.8a2.76,2.76,0,0,1-.4,2.2c-.72.73-3.5,0-3.5,0s-10-8.91-10.7-9.4-1.13-2.13-.7-2.6,1,0,1,0l5.4,4.2Z"/>
          <path class="cls-11" d="M195.38,154.3l-2.7,3.6-3.7,7.6a6.14,6.14,0,0,1,3.1,2.1l.7-1.4v3s8.1,2.08,9.8,1.2a3.37,3.37,0,0,0,1.6-3l1.3-6.6a2.53,2.53,0,0,1,2.6,0l-1.3-9.3Z"/>
          <polygon class="cls-25" points="196.98 154 196.98 149.5 193.58 147.4 194.28 143.7 202.58 150 201.48 153.5 196.98 154"/>
          <path class="cls-32" d="M195.28,140.6c.47-.33,4.1-1.7,4.1-1.7s3.7,2,4.3,3.2,1.5,9.8,1.5,9.8a21.71,21.71,0,0,1-11,2.1s.52-8.6.4-9.2-.4-2-.4-2.3A4.16,4.16,0,0,1,195.28,140.6Z"/>
          <path class="cls-10" d="M201.08,141.2l-2.2-7.6-2.9,7.2a4.77,4.77,0,0,0,2.5,1.4A5,5,0,0,0,201.08,141.2Z"/>
        </g>
        <g>
          <polygon class="cls-33" points="140.88 133 140.88 128.9 140.58 128.8 140.38 128.9 140.38 133 140.58 133.1 140.88 133"/>
          <polygon class="cls-34" points="140.88 128.7 140.48 128 140.68 127.3 140.18 128 140.38 128.7 140.58 128.9 140.88 128.7"/>
        </g>
        <g>
          <polygon class="cls-33" points="135.38 133.7 135.38 129.6 135.08 129.6 134.88 129.6 134.88 133.7 135.08 133.9 135.38 133.7"/>
          <polygon class="cls-34" points="135.38 129.5 134.98 128.7 135.18 128.1 134.68 128.7 134.88 129.5 135.08 129.6 135.38 129.5"/>
        </g>
        <g>
          <g>
            <path class="cls-3" d="M130.28,137.4a19.55,19.55,0,0,1,8.2-1.7,20.59,20.59,0,0,1,7.9,1.5h4v4.5c0,3.3-5.3,5.9-11.9,5.9s-11.9-2.7-11.9-5.9v-4.2Z"/>
            <ellipse class="cls-3" cx="138.58" cy="137.4" rx="11.9" ry="5.9"/>
          </g>
          <path class="cls-19" d="M127.28,137.4c0-3.1,4.9-5.4,11.2-5.4s11.2,2.4,11.2,5.4-4.9,5.4-11.2,5.4S127.28,140.5,127.28,137.4Zm1.2,0c0,1.8,3.2,4.6,10,4.6,6.3,0,10-2.3,10-4.6s-4.5-4.6-10-4.6C132.38,132.9,128.48,135,128.48,137.4Z"/>
          <g>
            <path class="cls-3" d="M134.88,134.5a8.43,8.43,0,0,1,3.7-.7,8.69,8.69,0,0,1,3.5.7h1.8v2c0,1.5-2.4,2.7-5.3,2.7s-5.3-1.2-5.3-2.7v-1.9Z"/>
            <ellipse class="cls-6" cx="138.58" cy="134.5" rx="5.3" ry="2.7"/>
          </g>
          <g>
            <path class="cls-35" d="M134.88,132.3a8.43,8.43,0,0,1,3.7-.7,8.69,8.69,0,0,1,3.5.7h1.8v2c0,1.5-2.4,2.7-5.3,2.7s-5.3-1.2-5.3-2.7v-1.9Z"/>
            <ellipse class="cls-3" cx="138.58" cy="132.3" rx="5.3" ry="2.7"/>
            <ellipse class="cls-36" cx="146.28" cy="138" rx="0.9" ry="0.4"/>
            <ellipse class="cls-36" cx="140.58" cy="140.6" rx="0.9" ry="0.4"/>
            <ellipse class="cls-36" cx="135.68" cy="139.6" rx="0.9" ry="0.4"/>
            <ellipse class="cls-36" cx="130.78" cy="139.3" rx="0.9" ry="0.4"/>
            <ellipse class="cls-36" cx="132.18" cy="134.7" rx="0.9" ry="0.4"/>
            <ellipse class="cls-36" cx="137.58" cy="133" rx="0.9" ry="0.4"/>
            <ellipse class="cls-36" cx="140.88" cy="131.9" rx="0.9" ry="0.4"/>
            <ellipse class="cls-36" cx="144.68" cy="135.3" rx="0.9" ry="0.4"/>
            <ellipse class="cls-11" cx="145.28" cy="139.6" rx="0.9" ry="0.4"/>
            <ellipse class="cls-11" cx="142.48" cy="139.1" rx="0.9" ry="0.4"/>
            <ellipse class="cls-11" cx="137.68" cy="141" rx="0.9" ry="0.4"/>
            <ellipse class="cls-11" cx="132.68" cy="138.2" rx="0.9" ry="0.4"/>
            <ellipse class="cls-11" cx="130.08" cy="136.7" rx="0.9" ry="0.4"/>
            <ellipse class="cls-11" cx="140.28" cy="133.4" rx="0.9" ry="0.4"/>
            <ellipse class="cls-11" cx="136.58" cy="131.7" rx="0.9" ry="0.4"/>
            <ellipse class="cls-11" cx="146.98" cy="136.6" rx="0.9" ry="0.4"/>
          </g>
          <path class="cls-19" d="M134,132.3c0-1.3,2-2.3,4.6-2.3s4.6,1,4.6,2.3-2,2.3-4.6,2.3S134,133.6,134,132.3Zm.8,0c0,.7,1.6,1.6,3.8,1.6s3.8-.8,3.8-1.6-1.6-1.6-3.8-1.6S134.78,131.5,134.78,132.3Z"/>
          <path class="cls-19" d="M150.48,141.8v-1.4c-3.4,3.3-7.1,4.5-11.9,4.5s-8.5-1.2-11.9-4.6v1.5c2.8,3.1,7.6,4.2,11.8,4.2S147,145,150.48,141.8Z"/>
        </g>
        <g>
          <g>
            <polygon class="cls-33" points="148.08 139 148.08 134.8 147.88 134.8 147.58 134.8 147.58 139 147.88 139.1 148.08 139"/>
            <polygon class="cls-34" points="148.08 134.7 147.68 133.9 147.88 133.3 147.48 134 147.58 134.7 147.88 134.8 148.08 134.7"/>
          </g>
          <g>
            <polygon class="cls-33" points="145.58 135.3 145.58 131.1 145.28 131.1 145.08 131.1 145.08 135.3 145.28 135.4 145.58 135.3"/>
            <polygon class="cls-34" points="145.58 131 145.18 130.2 145.38 129.6 144.88 130.3 145.08 131 145.28 131.1 145.58 131"/>
          </g>
          <g>
            <polygon class="cls-33" points="138.88 131.5 138.88 127.4 138.68 127.3 138.38 127.4 138.38 131.5 138.68 131.7 138.88 131.5"/>
            <polygon class="cls-34" points="138.88 127.2 138.48 126.5 138.68 125.9 138.18 126.5 138.38 127.3 138.68 127.4 138.88 127.2"/>
          </g>
          <g>
            <polygon class="cls-33" points="133.28 140.9 133.28 136.7 132.98 136.7 132.78 136.7 132.78 140.9 132.98 141 133.28 140.9"/>
            <polygon class="cls-34" points="133.28 136.6 132.88 135.8 133.08 135.2 132.58 135.8 132.78 136.6 132.98 136.7 133.28 136.6"/>
          </g>
          <g>
            <polygon class="cls-33" points="130.88 135.3 130.88 131.1 130.58 131.1 130.38 131.1 130.38 135.3 130.58 135.4 130.88 135.3"/>
            <polygon class="cls-34" points="130.88 131 130.48 130.2 130.68 129.6 130.18 130.3 130.38 131 130.58 131.1 130.88 131"/>
          </g>
          <g>
            <polygon class="cls-33" points="143.98 141.1 143.98 136.9 143.78 136.9 143.48 136.9 143.48 141.1 143.78 141.2 143.98 141.1"/>
            <polygon class="cls-34" points="143.98 136.8 143.58 136 143.78 135.4 143.28 136.1 143.48 136.8 143.78 136.9 143.98 136.8"/>
          </g>
          <g>
            <polygon class="cls-33" points="138.78 141.6 138.78 137.5 138.48 137.4 138.28 137.5 138.28 141.6 138.48 141.7 138.78 141.6"/>
            <polygon class="cls-34" points="138.78 137.3 138.38 136.6 138.58 135.9 138.08 136.6 138.28 137.3 138.48 137.5 138.78 137.3"/>
          </g>
          <g>
            <polygon class="cls-33" points="129.48 138.5 129.48 134.3 129.28 134.3 128.98 134.3 128.98 138.5 129.28 138.6 129.48 138.5"/>
            <polygon class="cls-34" points="129.48 134.2 129.08 133.4 129.28 132.8 128.88 133.5 128.98 134.2 129.28 134.3 129.48 134.2"/>
          </g>
        </g>
        <g>
          <path class="cls-14" d="M167.28,151.8c-2.6-.5-4-2.3-4.2-5.3,2.8,3,5.6,3,8.5,0C171.18,149.5,169.78,151.3,167.28,151.8Z"/>
          <ellipse class="cls-37" cx="167.28" cy="146.6" rx="3.8" ry="2.2"/>
          <path class="cls-3" d="M171.08,146.7c-2.3-2.3-5.2-2.2-7.5,0,.3,1.1.3,1.9,3.6,2.3C170.38,148.7,170.48,148,171.08,146.7Z"/>
          <path class="cls-37" d="M164.48,144.7c-.7-.4-1.3-.5-1.7-.1a2.92,2.92,0,0,0-.1,1.6l.5.9.2-1.2a1.17,1.17,0,0,1-.2-.7l.2-.2a1.08,1.08,0,0,1,.6.1Z"/>
          <path class="cls-38" d="M163.08,146.6c0,1.5,1.9,2.6,4.2,2.6s4.2-1.2,4.2-2.6-1.9-2.6-4.2-2.6S163.08,145.1,163.08,146.6Zm.7,0c0-1.2,1.6-2.2,3.6-2.2s3.6,1,3.6,2.2-1.6,2.2-3.6,2.2S163.78,147.8,163.78,146.6Z"/>
        </g>
        <g>
          <path class="cls-14" d="M145.08,159.6c-2.6-.5-4-2.3-4.2-5.3,2.8,3,5.6,3,8.5,0C149,157.3,147.58,159,145.08,159.6Z"/>
          <ellipse class="cls-37" cx="145.08" cy="154.3" rx="3.8" ry="2.2"/>
          <path class="cls-3" d="M148.88,154.4c-2.3-2.3-5.2-2.2-7.5,0,.3,1.1.3,1.9,3.6,2.3C148.18,156.4,148.28,155.8,148.88,154.4Z"/>
          <path class="cls-37" d="M142.28,152.4c-.7-.4-1.3-.5-1.7-.1a2.92,2.92,0,0,0-.1,1.6l.5.9.2-1.2a1.17,1.17,0,0,1-.2-.7l.2-.2a1.08,1.08,0,0,1,.6.1Z"/>
          <path class="cls-38" d="M140.88,154.3c0,1.5,1.9,2.6,4.2,2.6s4.2-1.2,4.2-2.6-1.9-2.6-4.2-2.6S140.88,152.8,140.88,154.3Zm.7,0c0-1.2,1.6-2.2,3.6-2.2s3.6,1,3.6,2.2-1.6,2.2-3.6,2.2S141.58,155.5,141.58,154.3Z"/>
        </g>
        <g>
          <path class="cls-14" d="M128.38,126.1c-2.6-.5-4-2.3-4.2-5.3,2.8,3,5.6,3,8.5,0C132.18,123.8,130.78,125.6,128.38,126.1Z"/>
          <ellipse class="cls-37" cx="128.28" cy="120.8" rx="3.8" ry="2.2"/>
          <path class="cls-3" d="M132.08,121c-2.3-2.3-5.2-2.2-7.5,0,.3,1.1.3,1.9,3.6,2.3C131.38,122.9,131.48,122.3,132.08,121Z"/>
          <path class="cls-37" d="M125.48,119c-.7-.4-1.3-.5-1.7-.1a2.92,2.92,0,0,0-.1,1.6l.5.9.2-1.2a1.17,1.17,0,0,1-.2-.7l.2-.2a1.08,1.08,0,0,1,.6.1Z"/>
          <path class="cls-38" d="M124.08,120.8c0,1.5,1.9,2.6,4.2,2.6s4.2-1.2,4.2-2.6-1.9-2.6-4.2-2.6S124.08,119.4,124.08,120.8Zm.7,0c0-1.2,1.6-2.2,3.6-2.2s3.6,1,3.6,2.2-1.6,2.2-3.6,2.2S124.78,122.1,124.78,120.8Z"/>
        </g>
        <g class="cls-39">
          <ellipse class="cls-1" cx="95.08" cy="137.2" rx="5" ry="2.9"/>
        </g>
        <g>
          <path class="cls-14" d="M95.78,138c-2.6-.5-4-2.3-4.2-5.3,2.8,3,5.6,3,8.5,0C99.68,135.7,98.28,137.5,95.78,138Z"/>
          <ellipse class="cls-37" cx="95.78" cy="132.8" rx="3.8" ry="2.2"/>
          <path class="cls-3" d="M99.58,132.9c-2.3-2.3-5.2-2.2-7.5,0,.3,1.1.3,1.9,3.6,2.3C98.88,134.9,99,134.2,99.58,132.9Z"/>
          <path class="cls-37" d="M93,130.9c-.7-.4-1.3-.5-1.7-.1a2.92,2.92,0,0,0-.1,1.6l.5.9.2-1.2a1.17,1.17,0,0,1-.2-.7l.2-.2a1.08,1.08,0,0,1,.6.1Z"/>
          <path class="cls-38" d="M91.58,132.8c0,1.5,1.9,2.6,4.2,2.6s4.2-1.2,4.2-2.6-1.9-2.6-4.2-2.6S91.58,131.3,91.58,132.8Zm.7,0c0-1.2,1.6-2.2,3.6-2.2s3.6,1,3.6,2.2-1.6,2.2-3.6,2.2S92.28,134,92.28,132.8Z"/>
        </g>
        <g>
          <path class="cls-14" d="M120.48,150.7c-2.6-.5-4-2.3-4.2-5.3,2.8,3,5.6,3,8.5,0C124.28,148.4,122.88,150.1,120.48,150.7Z"/>
          <ellipse class="cls-37" cx="120.48" cy="145.4" rx="3.8" ry="2.2"/>
          <path class="cls-3" d="M124.18,145.5c-2.3-2.3-5.2-2.2-7.5,0,.3,1.1.3,1.9,3.6,2.3C123.48,147.5,123.58,146.9,124.18,145.5Z"/>
          <path class="cls-37" d="M117.58,143.5c-.7-.4-1.3-.5-1.7-.1a2.92,2.92,0,0,0-.1,1.6l.5.9.2-1.2a1.17,1.17,0,0,1-.2-.7l.2-.2a1.08,1.08,0,0,1,.6.1Z"/>
          <path class="cls-38" d="M116.18,145.4c0,1.5,1.9,2.6,4.2,2.6s4.2-1.2,4.2-2.6-1.9-2.6-4.2-2.6S116.18,143.9,116.18,145.4Zm.7,0c0-1.2,1.6-2.2,3.6-2.2s3.6,1,3.6,2.2-1.6,2.2-3.6,2.2S116.88,146.6,116.88,145.4Z"/>
        </g>
        <g>
          <ellipse class="cls-40" cx="114.88" cy="131.9" rx="10.1" ry="5.5"/>
          <g class="cls-39">
            <ellipse class="cls-1" cx="114.38" cy="132.2" rx="8.1" ry="4.4"/>
          </g>
          <ellipse class="cls-41" cx="114.88" cy="131.9" rx="8.1" ry="4.4"/>
          <ellipse class="cls-42" cx="114.88" cy="131.9" rx="7.3" ry="4"/>
          <ellipse class="cls-11" cx="115.58" cy="133.4" rx="1.8" ry="0.9"/>
          <ellipse class="cls-11" cx="109.68" cy="131.9" rx="1.8" ry="0.9"/>
          <ellipse class="cls-11" cx="113.18" cy="130.1" rx="1.8" ry="0.9"/>
          <ellipse class="cls-11" cx="118.48" cy="129.9" rx="1.8" ry="0.9"/>
          <ellipse class="cls-11" cx="119.88" cy="132" rx="0.6" ry="0.3"/>
          <ellipse class="cls-11" cx="113.78" cy="128.4" rx="0.6" ry="0.3"/>
          <ellipse class="cls-11" cx="118.78" cy="134.4" rx="0.6" ry="0.3"/>
          <ellipse class="cls-11" cx="112.48" cy="132.5" rx="0.6" ry="0.3"/>
          <ellipse class="cls-11" cx="115.78" cy="131.3" rx="0.6" ry="0.3"/>
          <ellipse class="cls-11" cx="111.58" cy="134" rx="0.6" ry="0.3"/>
          <ellipse class="cls-11" cx="109.98" cy="129.9" rx="0.6" ry="0.3"/>
          <polygon class="cls-11" points="118.08 133 117.28 131.9 118.78 132.6 118.08 133"/>
          <polygon class="cls-11" points="113.78 135.5 112.98 134.4 114.38 135.1 113.78 135.5"/>
          <polygon class="cls-11" points="114.58 132.5 113.78 131.3 115.18 132 114.58 132.5"/>
          <polygon class="cls-11" points="120.48 132.7 121.78 132 120.88 133.4 120.48 132.7"/>
          <polygon class="cls-11" points="109.78 133.4 111.18 133.2 109.98 134.2 109.78 133.4"/>
          <polygon class="cls-11" points="119.78 130.5 121.18 130.3 119.88 131.3 119.78 130.5"/>
          <polygon class="cls-11" points="110.98 131.4 110.18 130.2 111.68 130.9 110.98 131.4"/>
          <polygon class="cls-11" points="115.88 129.6 115.08 128.4 116.58 129.1 115.88 129.6"/>
        </g>
        <ellipse class="cls-40" cx="159.18" cy="157.4" rx="5" ry="2.7"/>
        <ellipse class="cls-40" cx="159.98" cy="140" rx="5" ry="2.7"/>
        <ellipse class="cls-40" cx="129.08" cy="154.6" rx="5" ry="2.7"/>
        <ellipse class="cls-40" cx="109.68" cy="143.1" rx="5" ry="2.7"/>
        <ellipse class="cls-40" cx="117.88" cy="122.1" rx="5" ry="2.7"/>
        <g>
          <path class="cls-43" d="M170.38,191.5c-.45-1.29.42-3.33,1.7-5.6l.7-5-4.8-2.4s-2.16,2.1-2.2,3a35.86,35.86,0,0,0,1,5.5c.21.65,1.25,1,1.1,1.6s-2.7,3-2.7,3l3.3.7Z"/>
          <path class="cls-3" d="M172.68,245.5c.28-.43,0-3.2,0-3.2a36.31,36.31,0,0,0-4.2-2.6c-.67-.15-2.18-.37-2.3,0s3.75,5.11,4.4,5.5S172.41,245.93,172.68,245.5Z"/>
          <path class="cls-3" d="M168.38,251.7c.5-.15.86-2.17.5-2.4a38.8,38.8,0,0,0-5.3-1.4c-.42,0-4.2.15-4.2.7s3.25,3.1,3.8,3.1S167.88,251.85,168.38,251.7Z"/>
          <path class="cls-44" d="M168.13,249.43c-.08-.66-1.95-15.38-1.75-17.83s3.6-16.3,3.6-16.3l-8.1-1.3s-1.1,15-1.1,17.3,3,16.87,3.5,17.5S168.21,250.08,168.13,249.43Z"/>
          <path class="cls-45" d="M172.78,243c.21-.36-.61-14-.3-15.9s2.7-11.8,2.7-11.8l-7.1.6s-1,9.65-1,12.2,2.11,13.44,2.4,13.9S172.54,243.4,172.78,243Z"/>
          <path class="cls-9" d="M172.88,188.8s2.06-6,2.2-8.6.34-10.85.6-11.1,2.3,0,2.3,0,1,10.73.7,13-3.7,11-3.9,12.9.95,10.86,1.2,12.8,1,6.7.3,7.4-5.95.7-8.2.7a21.75,21.75,0,0,1-6.6-1.4c-.44-.31-.23-1.53,0-3.1s2.09-13.61,1.4-15.7-3.76-11.25-4.2-13.2-1.8-11.3-1.8-11.3c1-.18,2.29-.19,2.9-.7,0,0,2,9.44,2.7,11.4s3.06,9.24,3.6,9.6,2.26-.1,3.4-.4A13.84,13.84,0,0,0,172.88,188.8Z"/>
          <path class="cls-46" d="M167.78,185.9s-1.63-5.3-1.4-6.1,1-2.5,2.1-2.5,4.81,2.16,5.3,2.8a6.58,6.58,0,0,1,.7,2.3l-.6,3.2-1.3,3.3a25.81,25.81,0,0,1-4-.5A10.32,10.32,0,0,1,167.78,185.9Z"/>
          <path class="cls-43" d="M178,169.4a24.26,24.26,0,0,0,0-3.5,9.17,9.17,0,0,0-2-2.8c-.26,0-.58.53-.6.8s-.09,1.56-.1,1.7-.3.25-.3.5a8.14,8.14,0,0,0,.3,1.2,14.32,14.32,0,0,1,.8,2.9C176.22,170.46,176.93,170.12,178,169.4Z"/>
          <path class="cls-43" d="M157.28,171.2a28.36,28.36,0,0,1-1.2-3.3s-.2-2.15-.2-2.4.44-.9.8-.9,1.09,2,1.3,2.1.47-.17.7.2h0s1,4.12.7,4.3S157.54,171.5,157.28,171.2Z"/>
          <path class="cls-10" d="M173.88,179.9l-.6-8.4-4.6,6.9s.89,1.82,2.3,2.1A4.8,4.8,0,0,0,173.88,179.9Z"/>
        </g>
        <g>
          <path class="cls-31" d="M126.88,231.9c.1.52-1.22,2.5-2,2.5s-6.28-3.92-6.5-4.5.4-3.61,1.1-3.4,3.3,2.74,4,3.3S126.79,231.38,126.88,231.9Z"/>
          <path class="cls-47" d="M125.48,231.9c.2-.5-1.5-14.3-1.5-14.3l3.5-23.1-8.3-1.3v14.3l3.1,22.7C123.48,232,125.28,232.4,125.48,231.9Z"/>
          <path class="cls-31" d="M134.38,232.3c.43-.59.63-3.32,0-3.9s-5.48-3.07-6.1-2.9-.67,2.1-.3,2.8a20.12,20.12,0,0,0,4.1,3.7C132.67,232.21,134,232.89,134.38,232.3Z"/>
          <path class="cls-48" d="M134.38,229.4c-.92-1.27-3-16.49-2.4-15.8l.7-11.2-2.6-11.2-2.6,3.3v18.2c.14-.62,3.42,15.34,3.4,16.7C130.87,230.19,134.81,230,134.38,229.4Z"/>
          <path class="cls-25" d="M114.88,171.7a10.41,10.41,0,0,0,1.2,2l-1.1,2.9a22.3,22.3,0,0,1-2.3-3.8c-.25-1,2.83-10.3,3.3-10.5s1.2-.8,1.6-.4S116,165.73,116,166A57.25,57.25,0,0,0,114.88,171.7Z"/>
          <path class="cls-25" d="M130.58,184.6l1.7-1.2v-2.5c.74-1.06.33-5-.2-9.3,0,0-.4-1.5.8-1.5s1.9,7.74,1.9,8.8.1,7.43-1,7.7S130.58,184.6,130.58,184.6Z"/>
          <path class="cls-8" d="M121.78,178.4c-1.1,0-3.24-2.18-3.8-2.8s-2.15-3.9-2.5-3.9a6.65,6.65,0,0,0-2.4,2.1c0,.38,5.37,7,5.7,7.9s.4,11.5.4,11.5c.54,10.73-1.23,17.64-2,26.2a24.14,24.14,0,0,0,4.2,1c1.79.19,9.93-1.29,10.9-1.5s3.94-1.48,4.4-2.2-6-22.89-6.2-25.2,1.21-6.34,1.3-6.7,1.57-1.78,1.6-2.3-1.55-5.36-2.5-5.5S122.88,178.45,121.78,178.4Z"/>
          <path class="cls-25" d="M123.28,178.1c.3-1.42.86-3.07.3-3.7a14.17,14.17,0,0,1-1.4-.3c-.34-.12-1.5-6.2-1.5-6.2l6.7,6.6c-.73.66-.07,1.92.4,3.1Z"/>
          <path class="cls-32" d="M121.68,164.8a42,42,0,0,1,4-1.7s4.06,2.41,4.4,3.2.16,7.3-.5,7.7-2.79.66-3,1a3.74,3.74,0,0,0,.1,2c.17.7,2.1,8.58,1.4,9.6s-4.28,3.27-4.5.8,2-10.22,2.1-10.6.3-1.52,0-1.6a34.5,34.5,0,0,1-3.5-1.1c-.76-.42-2-6.91-1.6-7.4S121.45,165.06,121.68,164.8Z"/>
          <path class="cls-10" d="M127.38,165.4l-2.1-7.6-2.9,7.2a4,4,0,0,0,2.5,1.4A4.45,4.45,0,0,0,127.38,165.4Z"/>
          <path class="cls-8" d="M128.78,175c.26.25.55,1.75,0,2s-5.35-2.08-5.7-1.8a2.54,2.54,0,0,0,0,2.2C123.4,177.6,128.52,174.75,128.78,175Z"/>
        </g>
        <g>
          <polygon class="cls-4" points="79.28 188.2 59.28 177.1 79.18 167.4 80.98 167.4 97.68 176.9 97.68 178 79.28 188.2"/>
          <polygon class="cls-4" points="79.28 190 79.28 188.2 59.28 177.1 59.28 178.4 79.28 190"/>
          <polygon class="cls-4" points="79.28 188.2 97.68 178 97.68 179.9 79.28 190 79.28 188.2"/>
          <path class="cls-2" d="M57.68,153.7v50.5l2.4,1.2L60,184.2l14.7,7.9.2,22,2.2,1.4.1-50.8Zm16.8,35.7L60,181.1v-6.4l14.5,8.4Zm0-8.5L60,172.6v-6.4l14.5,8.4Zm0-8.6L60,164v-6.4l14.5,8.4Z"/>
          <polygon class="cls-3" points="77.08 215.5 79.58 214.2 79.68 192 94.28 183.7 94.28 205.7 96.78 204.3 96.78 180.4 79.28 190 79.28 163.6 77.18 164.8 77.08 215.5"/>
          <polygon class="cls-4" points="57.68 153.7 59.98 152.4 79.28 163.6 77.18 164.8 57.68 153.7"/>
          <polygon class="cls-4" points="74.48 186.5 62.68 179.5 59.98 181 74.48 189.4 74.48 186.5"/>
          <polygon class="cls-4" points="74.48 177.9 62.68 171 59.98 172.5 74.48 180.8 74.48 177.9"/>
          <polygon class="cls-4" points="74.48 169.4 62.68 162.5 59.98 164 74.48 172.3 74.48 169.4"/>
          <polygon class="cls-3" points="62.68 179.5 62.68 176.1 59.98 174.6 59.98 181 62.68 179.5"/>
          <polygon class="cls-3" points="62.68 170.9 62.68 167.5 59.98 166 59.98 172.4 62.68 170.9"/>
          <polygon class="cls-3" points="62.68 162.5 62.68 159.1 59.98 157.5 59.98 164 62.68 162.5"/>
          <polygon class="cls-3" points="60.18 205.3 62.68 204 62.68 185.6 60.08 184.2 60.18 205.3"/>
          <polygon class="cls-2" points="94.28 205.7 91.68 204.1 91.68 185.3 94.28 183.7 94.28 205.7"/>
        </g>
        <g class="cls-39">
          <ellipse class="cls-1" cx="117.28" cy="122.3" rx="5" ry="2.9"/>
        </g>
        <g class="cls-39">
          <ellipse class="cls-1" cx="109.08" cy="143.3" rx="5" ry="2.9"/>
        </g>
        <g class="cls-39">
          <ellipse class="cls-1" cx="128.48" cy="154.9" rx="5" ry="2.9"/>
        </g>
        <g class="cls-39">
          <ellipse class="cls-1" cx="159.38" cy="140.2" rx="5" ry="2.9"/>
        </g>
        <g class="cls-39">
          <ellipse class="cls-1" cx="158.58" cy="157.6" rx="5" ry="2.9"/>
        </g>
      </g>
    </g>
  </g>
</svg>
