<?xml version="1.0" encoding="utf-8"?>
<!-- Generator: Adobe Illustrator 21.0.2, SVG Export Plug-In . SVG Version: 6.00 Build 0)  -->
<svg version="1.1" id="Слой_1" xmlns="http://www.w3.org/2000/svg" xmlns:xlink="http://www.w3.org/1999/xlink" x="0px" y="0px"
	 viewBox="0 0 234.4 251.8" style="enable-background:new 0 0 234.4 251.8;" xml:space="preserve">
<style type="text/css">
	.st0{opacity:0.18;}
	.st1{opacity:0.1;enable-background:new    ;}
	.st2{fill:#704626;}
	.st3{fill:#825537;}
	.st4{fill:#BB9469;}
	.st5{fill:#CBAC95;}
	.st6{fill:#EAD98B;}
	.st7{fill:#C8BA78;}
	.st8{fill:#1B4275;}
	.st9{fill:#3FA9F5;}
	.st10{fill:#1D4E89;}
	.st11{fill:#FF931E;}
	.st12{fill:#EA821B;}
	.st13{fill:#ADA168;}
	.st14{fill:#EFEDED;}
	.st15{fill:#00B2CA;}
	.st16{fill:#255F99;}
	.st17{fill:#00CCDB;}
	.st18{fill:#1099AC;}
	.st19{fill:#F4E295;}
	.st20{opacity:0.6;}
	.st21{fill:#CDCFD1;}
	.st22{fill:#E6E9ED;}
	.st23{opacity:0.7;}
	.st24{fill:#D3CFCF;}
	.st25{fill:#F4C9B8;}
	.st26{fill:#F1C5B5;}
	.st27{fill:#BEA28D;}
	.st28{fill:#F1C6B5;}
	.st29{fill:#EDCBBD;}
	.st30{fill:#AF6100;}
	.st31{fill:#FFFFFF;}
	.st32{fill:#965102;}
	.st33{fill:#BDBEBD;}
	.st34{fill:#FBB03B;}
	.st35{fill:#7A4E4E;}
	.st36{fill:#EFEFEF;}
	.st37{fill:#CDCCCC;}
	.st38{fill:#DDDDDD;}
	.st39{opacity:0.2;}
	.st40{fill:#F9F7F5;}
	.st41{fill:#ECB129;}
	.st42{fill:#FFC043;}
	.st43{fill:#F1C6BE;}
	.st44{fill:#7DCFB6;}
	.st45{fill:#89DBC0;}
	.st46{fill:#603912;}
	.st47{fill:#C0737A;}
	.st48{fill:#E3868F;}
</style>
<g>
	<ellipse class="st0" cx="42.9" cy="191.2" rx="18.8" ry="7.6"/>
	<path class="st0" d="M126.7,224.2c-2.2,0-4.3,0.2-6.3,0.4c-3.4-1.5-8.3-2.4-13.6-2.4c-10.4,0-18.8,3.4-18.8,7.6
		c0,4.2,8.4,7.6,18.8,7.6c2.2,0,4.3-0.2,6.3-0.4c3.4,1.5,8.3,2.4,13.6,2.4c10.4,0,18.8-3.4,18.8-7.6
		C145.5,227.6,137.1,224.2,126.7,224.2z"/>
	<ellipse class="st0" cx="165.4" cy="245.7" rx="18.8" ry="7.6"/>
	<ellipse class="st0" cx="196.2" cy="209.3" rx="18.8" ry="7.6"/>
	<ellipse class="st0" cx="205" cy="158.8" rx="18.8" ry="7.6"/>
	<ellipse class="st0" cx="172.6" cy="85.9" rx="27.3" ry="11.1"/>
	<ellipse class="st0" cx="13.9" cy="177.3" rx="12.9" ry="5.2"/>
	<polygon class="st0" points="29.9,160.4 54.7,174.6 77.4,162.5 52.8,148.5 	"/>
	<polygon class="st0" points="53.6,203.1 78.4,217.3 101.1,205.2 76.5,191.2 	"/>
	<polygon class="st0" points="151.4,124.4 176.2,138.6 198.9,126.5 174.3,112.5 	"/>
	<polygon class="st0" points="61,144.7 85.8,158.9 108.5,146.8 83.9,132.8 	"/>
	<polygon class="st0" points="82.7,174.6 123,150 192.8,189.8 148.8,217.3 	"/>
</g>
<title>birthdayРесурс 6</title>
<g id="Слой_2">
	<g id="Material">
		<g id="birthday">
			<ellipse class="st1" cx="183.1" cy="90.4" rx="16.3" ry="9.4"/>
			<g>
				<polygon class="st2" points="127.9,135.1 125.3,133.5 125.3,110.4 127.9,111.8 				"/>
				<polyline class="st3" points="110.7,144.9 110.7,120.9 130.4,109.8 130.4,133.8 127.9,135.1 127.9,113.1 113.3,121.4 
					113.2,143.6 110.7,144.9 				"/>
				<polygon class="st2" points="110.7,144.9 108.1,143.4 108.1,120.2 110.4,121.5 110.7,121.5 				"/>
				<path class="st3" d="M91.9,83.4l0.1,50.8l2.2-1.4l0.2-22l14.7-7.9l2.3-1V72.4L91.9,83.4z M94.5,101.7l14.5-8.4v6.4L94.5,108
					L94.5,101.7z M94.5,93.2l14.5-8.4v6.4l-14.5,8.3L94.5,93.2z M94.5,84.7l14.5-8.4v6.4L94.5,91L94.5,84.7z"/>
				<polygon class="st4" points="94.6,105.2 106.4,98.2 109,99.7 94.5,108 				"/>
				<polygon class="st4" points="112.4,121.5 112.3,119.6 130.4,109.5 130.4,111.1 				"/>
				<polygon class="st4" points="110.4,119.6 112.3,119.6 130.4,109.5 130.4,108.5 111.3,98.5 91.9,109.3 				"/>
				<polygon class="st4" points="110.4,119.6 91.9,109.3 91.9,111.3 110.4,121.5 				"/>
				<polygon class="st4" points="111.3,72.4 109.1,71.1 89.7,82.3 91.9,83.4 				"/>
				<polygon class="st4" points="94.6,96.6 106.4,89.7 109,91.2 94.5,99.5 				"/>
				<polygon class="st4" points="94.6,88.1 106.4,81.2 109,82.7 94.5,91 				"/>
				<polygon class="st2" points="106.4,98.2 106.4,94.8 109,93.3 109,99.7 				"/>
				<polygon class="st2" points="106.4,89.6 106.4,86.2 109,84.7 109,91.1 				"/>
				<polygon class="st2" points="106.4,81.2 106.4,77.8 109,76.2 109,82.7 				"/>
				<polygon class="st2" points="92,134.2 89.7,132.8 89.7,82.3 91.9,83.4 				"/>
				<polygon class="st5" points="110.4,121.5 112.4,121.5 112.3,119.6 110.4,119.6 				"/>
				<polygon class="st2" points="91.9,111.3 108.1,120.2 108.1,122.2 91.9,113.2 				"/>
			</g>
			<g>
				<polygon class="st2" points="102.5,147.9 99.9,146.3 99.9,123.1 102.5,124.6 				"/>
				<polyline class="st3" points="85.3,157.7 85.3,133.6 105,122.6 105,146.5 102.5,147.9 102.5,125.9 87.9,134.2 87.9,156.4 
					85.3,157.7 				"/>
				<polygon class="st2" points="85.3,157.7 82.7,156.1 82.7,133 85,134.2 85.3,134.2 				"/>
				<path class="st3" d="M66.5,96.2l0.1,50.8l2.2-1.4l0.2-22l14.7-7.9l2.3-1V85.2L66.5,96.2z M69.2,114.5l14.5-8.4v6.4l-14.5,8.3
					V114.5z M69.2,106l14.5-8.4v6.4l-14.5,8.3V106z M69.2,97.5l14.5-8.4v6.4l-14.5,8.3V97.5z"/>
				<polygon class="st4" points="69.2,117.9 81,111 83.7,112.5 69.2,120.8 				"/>
				<polygon class="st4" points="87,134.3 87,132.4 105,122.3 105,123.8 				"/>
				<polygon class="st4" points="85,132.4 87,132.4 105,122.3 105,121.3 85.9,111.3 66.6,122.1 				"/>
				<polygon class="st4" points="85,132.4 66.6,122.1 66.6,124 85,134.2 				"/>
				<polygon class="st4" points="85.9,85.1 83.7,83.9 64.4,95.1 66.5,96.2 				"/>
				<polygon class="st4" points="69.2,109.4 81,102.4 83.7,104 69.2,112.3 				"/>
				<polygon class="st4" points="69.2,100.9 81,93.9 83.7,95.4 69.2,103.8 				"/>
				<polygon class="st2" points="81,111 81,107.6 83.7,106.1 83.7,112.5 				"/>
				<polygon class="st2" points="81,102.4 81,99 83.7,97.4 83.7,103.9 				"/>
				<polygon class="st2" points="81,93.9 81,90.5 83.7,89 83.7,95.4 				"/>
				<polygon class="st2" points="66.6,147 64.3,145.6 64.4,95.1 66.5,96.2 				"/>
				<polygon class="st5" points="85,134.2 87,134.3 87,132.4 85,132.4 				"/>
				<polygon class="st2" points="66.6,124 82.7,133 82.7,135 66.6,125.9 				"/>
			</g>
			<g>
				<polygon class="st2" points="70.3,162.1 67.7,160.6 67.7,137.4 70.3,138.8 				"/>
				<polyline class="st3" points="53.1,172 53.1,147.9 72.8,136.8 72.8,160.8 70.3,162.1 70.3,140.2 55.7,148.5 55.6,170.6 
					53.1,172 				"/>
				<polygon class="st2" points="53.1,172 50.5,170.4 50.5,147.2 52.8,148.5 53.1,148.5 				"/>
				<path class="st3" d="M34.3,110.5l0.1,50.8l2.2-1.4l0.2-22l14.7-7.9l2.3-1V99.5L34.3,110.5z M36.9,128.8l14.5-8.4v6.4l-14.5,8.3
					V128.8z M36.9,120.3l14.5-8.4v6.4l-14.5,8.3V120.3z M36.9,111.7l14.5-8.4v6.4L36.9,118L36.9,111.7z"/>
				<polygon class="st4" points="36.9,132.2 48.8,125.2 51.4,126.8 36.9,135.1 				"/>
				<polygon class="st4" points="54.7,148.5 54.7,146.6 72.8,136.5 72.8,138.1 				"/>
				<polygon class="st4" points="52.8,146.6 54.7,146.6 72.8,136.5 72.8,135.6 53.7,125.6 34.3,136.4 				"/>
				<polygon class="st4" points="52.8,146.6 34.3,136.4 34.3,138.3 52.8,148.5 				"/>
				<polygon class="st4" points="53.7,99.4 51.4,98.1 32.1,109.3 34.3,110.5 				"/>
				<polygon class="st4" points="36.9,123.6 48.8,116.7 51.4,118.2 36.9,126.5 				"/>
				<polygon class="st4" points="36.9,115.1 48.8,108.2 51.4,109.7 36.9,118 				"/>
				<polygon class="st2" points="48.8,125.2 48.8,121.9 51.4,120.3 51.4,126.8 				"/>
				<polygon class="st2" points="48.8,116.6 48.8,113.2 51.4,111.7 51.4,118.1 				"/>
				<polygon class="st2" points="48.8,108.2 48.8,104.8 51.4,103.3 51.4,109.7 				"/>
				<polygon class="st2" points="34.3,161.2 32.1,159.8 32.1,109.3 34.3,110.5 				"/>
				<polygon class="st5" points="52.8,148.5 54.7,148.5 54.7,146.6 52.8,146.6 				"/>
				<polygon class="st2" points="34.3,138.3 50.5,147.2 50.5,149.2 34.3,140.2 				"/>
			</g>
			<g>
				<ellipse class="st6" cx="13.1" cy="153.6" rx="10.1" ry="4.5"/>
				<path class="st7" d="M13.1,148.8c5.7,0,10.1,2.1,10.1,4.8H22c0-1.7-3.6-3.6-8.9-3.6s-8.9,1.9-8.9,3.6H3
					C3,150.9,7.4,148.8,13.1,148.8z"/>
				<path class="st8" d="M15.7,160.6c2-5,7.8-10,13.2-10.8c1.3-0.2,1.3-2.2,0-2c-6.4,0.8-12.8,6.3-15.1,12.2
					C13.3,161.2,15.3,161.8,15.7,160.6z"/>
				<path class="st9" d="M0.7,149c5,2,9.9,8,10.6,13.4c0.1,1.3,2.2,1.3,2,0c-0.8-6.4-6.1-12.9-12-15.3C0,146.5-0.5,148.5,0.7,149
					L0.7,149z"/>
				<path class="st8" d="M7.8,158.8c-1.8-5.2-0.7-12.8,3-17c0.8-1-0.6-2.4-1.4-1.4c-4.2,4.7-5.5,13-3.5,18.9
					C6.3,160.5,8.2,160,7.8,158.8z"/>
				<path class="st10" d="M13.7,162.8c-1.8-5.2-0.7-12.8,3-17c0.8-1-0.6-2.4-1.4-1.4c-4.2,4.7-5.5,13-3.5,18.9
					C12.2,164.5,14.1,164,13.7,162.8z"/>
				<path class="st11" d="M15.2,164.9c-1.8-5.2-0.7-12.8,3-17c0.8-1-0.6-2.4-1.4-1.4c-4.2,4.7-5.5,13-3.5,18.9
					c0.2,0.5,0.8,0.7,1.3,0.5C15,165.7,15.2,165.3,15.2,164.9z"/>
				<path class="st6" d="M10.2,163.1c2.8-5.7,3.9-12.1,3.4-18.4c-0.1-1.3-2.1-1.3-2,0c0.6,6-0.5,12-3.1,17.4
					C7.9,163.3,9.6,164.3,10.2,163.1z"/>
				<path class="st9" d="M16.6,159.5c2.8-5.7,3.9-12.1,3.4-18.4c-0.1-1.3-2.1-1.3-2,0c0.6,6-0.5,12-3.1,17.4
					C14.3,159.7,16,160.7,16.6,159.5L16.6,159.5z"/>
				<path class="st10" d="M7.2,164.6c2.8-5.7,3.9-12.1,3.4-18.4c-0.1-1.3-2.1-1.3-2,0c0.6,6-0.5,12-3.1,17.4
					C4.9,164.8,6.6,165.8,7.2,164.6z"/>
				<path class="st11" d="M17.7,168.1c2.8-5.7,3.9-12.1,3.4-18.4c-0.1-1.3-2.1-1.3-2,0c0.6,6-0.5,12-3.1,17.4
					C15.5,168.3,17.2,169.3,17.7,168.1L17.7,168.1z"/>
				<path class="st12" d="M13.1,167.6c2.8-5.7,3.9-12.1,3.4-18.4c-0.1-1.3-2.1-1.3-2,0c0.6,6-0.5,12-3.1,17.4
					C10.8,167.8,12.6,168.8,13.1,167.6z"/>
				<path class="st7" d="M13.1,157.3c5.2,0,8.9-1.9,8.9-3.6h1.2c0,2.7-4.4,4.8-10.1,4.8S3,156.4,3,153.7h1.2
					C4.2,155.3,7.8,157.3,13.1,157.3z"/>
				<path class="st7" d="M3.6,155.4c3.5,4.2,19.5,3.6,19.5-1.8L20.8,176c0,2.5-2.2,4.5-7.8,4.5l0,0c-2-0.5-5.2-1.4-6-2
					C6,177.7,4,159,3.6,155.4z"/>
				<path class="st13" d="M4.8,176.5l-1.8-23c0,0.7,0.2,1.3,0.7,1.8c0.4,3.7,2.4,22.4,3.4,23.1c0.8,0.6,4,1.4,6,2
					C7.5,180.5,4.8,179,4.8,176.5z"/>
			</g>
			<g>
				<path class="st8" d="M10.7,76.7H9.9v-1h0.8C61.4,75.7,107.3,50.3,147,0l0.8,0.6c-20.3,25.7-42.4,45.1-65.5,57.7
					C60.3,70.4,35.7,76.7,10.7,76.7z"/>
				<polygon class="st14" points="143.5,5.2 147.3,17.8 143.5,16.4 142.8,21.3 139,10.4 				"/>
				<polygon class="st15" points="136.5,13.3 139,26.2 135.3,24.5 134.1,29.2 131.5,18.1 				"/>
				<polygon class="st11" points="128.6,22.5 130.7,35.5 127,33.7 125.7,38.4 123.4,27.1 				"/>
				<polygon class="st8" points="120.3,30.5 121.7,43.6 118.1,41.5 116.5,46.1 114.9,34.8 				"/>
				<polygon class="st12" points="112.6,37.4 113.3,50.6 109.9,48.3 108,52.9 107,41.5 				"/>
				<polygon class="st8" points="93.8,50.9 93.6,62.8 90.2,61.2 88.1,65.3 88,54.5 				"/>
				<polygon class="st16" points="83.4,57.4 82.9,69.3 79.5,67.6 76.4,71.3 77.3,60.5 				"/>
				<polygon class="st11" points="71.6,62.9 71.5,74.2 68.3,72.3 65.8,76.2 65.8,65.8 				"/>
				<polygon class="st9" points="61.9,67.1 61.4,78.7 58.1,76.8 55,80 55.6,69.5 				"/>
				<polygon class="st17" points="51.3,70.9 50.5,82.3 47.6,80.6 44.4,83.3 45.3,72.5 				"/>
				<polygon class="st8" points="41.5,73.4 40.9,84.8 38.1,83.1 34.7,85.4 35.6,74.5 				"/>
				<polygon class="st11" points="31.9,75 31.4,86.9 28.1,84.9 25.3,86.6 26.2,75.8 				"/>
				<polygon class="st18" points="21.3,75.9 20.6,87.9 17.4,85.9 15,87.4 15.6,76.2 				"/>
			</g>
			<g>
				<polygon class="st12" points="178.6,94.5 178.6,82 157.8,70.7 158.4,82.8 				"/>
				<polygon class="st12" points="198.6,83 198.6,70.7 178.6,82 178.6,94.5 				"/>
				<polygon class="st11" points="178.6,59.2 198.6,70.7 178.6,82 158.3,70.9 				"/>
				<polygon class="st6" points="191.8,86.9 191.8,74.5 187.5,76.9 187.5,89.3 				"/>
				<polygon class="st7" points="168.8,88.8 168.8,76.7 165.3,74.8 165.3,86.8 				"/>
				<polygon class="st19" points="187.5,76.9 178.2,71.6 168.8,76.7 165.3,74.8 174.5,69.6 167.5,65.6 171,63.6 178.1,67.5 
					186.2,63.6 189.6,65.5 181.9,69.5 191.8,74.5 				"/>
			</g>
			<g>
				<polygon class="st8" points="157.5,94.4 157.5,83.9 148.4,78.8 148.4,89.1 				"/>
				<polygon class="st10" points="157.5,94.4 167.1,88.9 167.1,79.2 157.5,83.9 				"/>
				<polygon class="st16" points="157.5,74.3 167.1,79.2 157.5,83.9 148.4,78.8 				"/>
				<polygon class="st6" points="163.9,90.7 163.9,80.8 161.4,82 161.4,92.2 				"/>
				<polygon class="st7" points="154.6,82.3 152.3,81 152.3,91.4 154.3,92.5 				"/>
				<polygon class="st19" points="161.4,82 158.2,80.3 154.6,82.3 152.3,81 155.9,79.2 152,77 154,76 157.9,78.1 161.4,76.3 
					163.1,77.2 160,79.1 163.9,80.8 				"/>
			</g>
			<g>
				<polygon class="st18" points="177.1,72.4 177.1,61.9 168,56.8 168,67.2 				"/>
				<polygon class="st15" points="177.1,72.4 186.7,66.9 186.7,57.2 177.1,61.9 				"/>
				<polygon class="st17" points="177.1,52.3 186.7,57.2 177.1,61.9 168,56.8 				"/>
				<polygon class="st6" points="183.5,68.7 183.5,58.8 181,60 181,70.2 				"/>
				<polygon class="st7" points="174.2,60.3 171.9,59 171.9,69.4 173.9,70.5 				"/>
				<polygon class="st19" points="181,60 177.8,58.3 174.2,60.3 171.9,59 175.5,57.2 171.6,55 173.6,54 177.5,56.1 181,54.3 
					182.7,55.2 179.6,57.1 183.5,58.8 				"/>
			</g>
			<g>
				<ellipse class="st1" cx="145" cy="96.7" rx="4.1" ry="2.3"/>
				<g class="st20">
					<rect x="145" y="50.3" class="st21" width="0.3" height="41.3"/>
				</g>
				<path class="st17" d="M139.1,42.4c-0.9-2.5-1.2-5.2-0.8-7.9c2.1-3.7,6.8-5,10.5-2.9c2.4,1.4,3.9,3.9,3.9,6.7
					c0.1,5.1-2.6,9.9-7,12.5C142.5,48.9,140.1,45.9,139.1,42.4z"/>
				<path class="st15" d="M137.2,38.3c0-1.3,0.4-2.6,1-3.8c-0.4,2.7-0.1,5.4,0.8,7.9c1.1,3.5,3.4,6.4,6.5,8.4
					c-0.1,0-0.3,0.1-0.4,0.2C145.1,51,137.2,47.2,137.2,38.3z"/>
			</g>
			<g>
				<polygon class="st3" points="156.6,127.4 159.2,125.8 159.2,102.7 156.6,104.1 				"/>
				<polyline class="st2" points="173.9,137.2 173.9,113.2 154.2,102.1 154.2,126.1 156.6,127.4 156.6,105.4 171.3,113.7 
					171.3,135.9 173.9,137.2 				"/>
				<polygon class="st3" points="173.9,137.2 176.5,135.7 176.5,112.5 174.2,113.8 173.9,113.8 				"/>
				<path class="st2" d="M173.2,64.7v29.5l2.3,1l14.7,7.9l0.2,22l2.2,1.4l0.1-50.8L173.2,64.7z M190,100.3L175.5,92v-6.4L190,94
					V100.3z M190,91.8l-14.5-8.3v-6.4l14.5,8.4V91.8z M190,83.3L175.5,75v-6.4L190,77V83.3z"/>
				<polygon class="st4" points="190,97.4 178.2,90.5 175.5,92 190,100.3 				"/>
				<polygon class="st4" points="172.2,113.8 172.2,111.9 154.2,101.8 154.2,103.4 				"/>
				<polygon class="st4" points="174.2,111.9 172.2,111.9 154.2,101.8 154.2,100.8 173.2,90.8 192.6,101.6 				"/>
				<polygon class="st4" points="174.2,111.9 192.6,101.6 192.6,103.5 174.2,113.8 				"/>
				<polygon class="st4" points="173.2,64.7 175.5,63.4 194.8,74.6 192.7,75.7 				"/>
				<polygon class="st4" points="190,88.9 178.2,82 175.5,83.5 190,91.8 				"/>
				<polygon class="st4" points="190,80.4 178.2,73.4 175.5,75 190,83.3 				"/>
				<polygon class="st3" points="178.2,90.5 178.2,87.1 175.5,85.6 175.5,92 				"/>
				<polygon class="st3" points="178.2,81.9 178.2,78.5 175.5,77 175.5,83.4 				"/>
				<polygon class="st3" points="178.2,73.4 178.2,70.1 175.5,68.5 175.5,75 				"/>
				<polygon class="st3" points="192.6,126.5 194.8,125.1 194.8,74.6 192.7,75.7 				"/>
				<polygon class="st5" points="174.2,113.8 172.2,113.8 172.2,111.9 174.2,111.9 				"/>
				<polygon class="st3" points="192.6,103.5 176.5,112.5 176.5,114.5 192.6,105.4 				"/>
			</g>
			<g>
				<path class="st11" d="M91.9,227.8c-4.9-5.2-3.9-11.7-2.1-16.5c4.5-5.9,13-7.1,18.9-2.5s7.1,13,2.5,18.9
					c-0.6,0.8-1.3,1.6-2.1,2.2C103.7,231.9,96.7,232.9,91.9,227.8z"/>
				<path class="st12" d="M87.1,219.5c0-3,1-5.9,2.8-8.2c-1.9,4.8-2.8,11.3,2.1,16.5s11.8,4.1,17.2,2.1c-5.7,4.8-14.2,4-19-1.8
					C88.2,225.7,87.1,222.6,87.1,219.5L87.1,219.5z"/>
			</g>
			<g>
				<path class="st17" d="M30.1,189.6c-5.2-5.6-4.2-12.4-2.2-17.5c4.8-6.3,13.8-7.5,20.1-2.7c6.3,4.8,7.5,13.8,2.7,20.1
					c-0.7,0.9-1.4,1.7-2.3,2.4C42.6,194,35.2,195.1,30.1,189.6z"/>
				<path class="st15" d="M24.9,180.8c0-3.2,1-6.2,3-8.7c-2,5.1-3,12,2.2,17.5s12.5,4.4,18.3,2.3c-2.6,2.1-5.8,3.3-9.1,3.3
					C31.3,195.2,24.9,188.8,24.9,180.8C24.9,180.8,24.9,180.8,24.9,180.8z"/>
			</g>
			<g>
				<ellipse class="st1" cx="222.7" cy="127" rx="4.1" ry="2.3"/>
				<g class="st20">
					<rect x="222.7" y="80.6" class="st22" width="0.3" height="41.3"/>
				</g>
				<path class="st11" d="M216.7,72.7c-0.9-2.5-1.2-5.2-0.8-7.9c2.1-3.7,6.8-5,10.5-2.9c2.4,1.4,3.9,3.9,3.9,6.7
					c0.1,5.1-2.6,9.9-7,12.5C220.1,79.2,217.8,76.2,216.7,72.7z"/>
				<path class="st12" d="M214.9,68.6c0-1.3,0.4-2.6,1-3.8c-0.4,2.7-0.1,5.4,0.8,7.9c1.1,3.5,3.4,6.4,6.5,8.4
					c-0.1,0-0.3,0.1-0.4,0.2C222.8,81.3,214.9,77.5,214.9,68.6z"/>
			</g>
			<g>
				<ellipse class="st1" cx="204.6" cy="118.6" rx="5.5" ry="3.2"/>
				<g class="st20">
					<rect x="204.6" y="90.2" class="st22" width="0.3" height="23.3"/>
				</g>
				<path class="st19" d="M198.7,82.9c-0.9-2.5-1.2-5.2-0.8-7.9c2.1-3.7,6.8-5,10.5-2.9c2.4,1.4,3.9,3.9,3.9,6.7
					c0.1,5.1-2.6,9.9-7,12.5C202.1,89.4,199.7,86.4,198.7,82.9z"/>
				<path class="st6" d="M196.8,78.8c0-1.3,0.4-2.6,1-3.8c-0.4,2.7-0.1,5.4,0.8,7.9c1.1,3.5,3.4,6.4,6.5,8.4c-0.1,0-0.3,0.1-0.4,0.2
					C204.7,91.5,196.8,87.7,196.8,78.8z"/>
			</g>
			<g>
				<g class="st23">
					<g class="st20">
						<rect x="226.8" y="138.2" class="st22" width="0.3" height="41.3"/>
					</g>
				</g>
				<ellipse class="st1" cx="226.8" cy="184.6" rx="4.1" ry="2.3"/>
				<path class="st14" d="M220.8,130.3c-0.9-2.5-1.2-5.2-0.8-7.9c2.1-3.7,6.8-5,10.5-2.9c2.4,1.4,3.9,3.9,3.9,6.7
					c0.1,5.1-2.6,9.9-7,12.5C224.2,136.8,221.9,133.8,220.8,130.3z"/>
				<path class="st24" d="M219,126.2c0-1.3,0.4-2.6,1-3.8c-0.4,2.7-0.1,5.4,0.8,7.9c1.1,3.5,3.4,6.4,6.5,8.4c-0.1,0-0.3,0.1-0.4,0.2
					C226.9,138.9,219,135.2,219,126.2z"/>
			</g>
			<g>
				<g class="st20">
					<rect x="212.9" y="68.4" class="st22" width="0.3" height="57.3"/>
				</g>
				<ellipse class="st1" cx="212.9" cy="130.9" rx="2.1" ry="1.2"/>
				<path class="st14" d="M206.9,61.1c-0.9-2.5-1.2-5.2-0.8-7.9c2.1-3.7,6.8-5,10.5-2.9c2.4,1.4,3.9,3.9,3.9,6.7
					c0.1,5.1-2.6,9.9-7,12.5C210.3,67.6,208,64.6,206.9,61.1z"/>
				<path class="st24" d="M205.1,57c0-1.3,0.4-2.6,1-3.8c-0.4,2.7-0.1,5.4,0.8,7.9c1.1,3.5,3.4,6.4,6.5,8.4c-0.1,0-0.3,0.1-0.4,0.2
					C213,69.7,205.1,66,205.1,57z"/>
			</g>
			<g>
				<g>
					<path class="st7" d="M154.6,159.7l2.5-16.6c0,0-0.8-13-0.3-14.4l0.9-2.8l8.1,3.2l-4,13.1l-3.6,17.5H154.6z"/>
					<path class="st6" d="M163.9,165v-36.8l6.9-1.4c0.4,4.1,0.5,8.1,0.4,12.2l-3,25.1L163.9,165z"/>
					<path class="st17" d="M154.1,107.3c0,0,8.4,0.7,9.2,1.1l2.8,1.5l-0.6,3.2l3.7,4.2l2,10.1l-8.2,1.3l-5.3-2.4l-4.3-12l-0.2,0.2
						l-2-3.6L154.1,107.3z"/>
					<path class="st11" d="M152.2,105.2c-0.2-1-0.4-1.9-0.5-2.9c0-0.7,1.6-2.7,1.9-2.9s4.6-0.4,5.1,0c0.8,0.8,1.5,1.7,2,2.7
						c0.2,0.8,0.4,3.2,0,3.8c-0.4,0.8-0.9,1.6-1.4,2.4c-0.5,0.1-1-0.1-1.2-0.6c-0.2-0.7-0.2-1.4-0.2-2.1c-0.1-0.5-0.3-0.9-0.6-1.3
						c-0.1,0-0.3,0.9-0.5,1s-0.8-2.2-1.3-2.4c-1-0.2-2-0.2-3,0.1C152.2,103.3,152.2,105.2,152.2,105.2z"/>
					<path class="st10" d="M153.5,100.3l2.6-7.8l2.6,7.6c-0.7,0.7-1.7,1.2-2.7,1.4C155,101.5,154.1,101,153.5,100.3z"/>
				</g>
				<path class="st25" d="M158.1,107.7l-0.2-2.1c0-0.6-0.1-1.3-0.3-1.9c-0.2-0.4-0.9,1.6-0.9,1.6s0.8-2.2-1-2.7
					c-1.1-0.3-2.3-0.2-3.3,0.4c-0.2,1.5-0.3,3.1-0.2,4.6c0.1,0.3,1.9,0.5,2,0.7c0.2,0.4,0.3,0.8,0.2,1.2c-0.2,0.7,4.3,4.3,5.1,3.8
					c0.5-0.9,0.2-2.7-0.3-4.8L158.1,107.7z"/>
			</g>
			<g>
				<polygon class="st4" points="147,173.3 81.7,135.5 122.8,111.2 188.4,149.4 				"/>
				<polygon class="st2" points="147,173.3 147,177.6 81.8,139.3 81.8,135.5 				"/>
				<polygon class="st3" points="147,177.6 147,173.3 188.5,149.4 188.5,153.3 				"/>
				<polygon class="st2" points="144.1,175.9 144.1,211.2 147.1,212.9 147.1,177.7 				"/>
				<polygon class="st3" points="149.3,176.3 147.1,177.7 147.1,212.9 149.3,211.5 				"/>
				<polygon class="st2" points="181.5,157.4 181.5,189.1 184.4,190.8 184.4,155.6 				"/>
				<polygon class="st3" points="186.6,154.3 184.4,155.6 184.4,190.8 186.6,189.4 				"/>
				<polygon class="st2" points="84.8,141.1 84.8,176.3 87.8,178 87.8,142.8 				"/>
				<polygon class="st3" points="90,144.1 87.8,142.8 87.8,178 90,176.6 				"/>
			</g>
			<path class="st25" d="M170.2,121.5c0.3-1.2-1.4-5.3-1.7-6l-2.7-5.7l-2,2.9c0,0,2.7,6.4,2.6,7.6s-5.2,9.3-5.2,9.3
				s-5.3,1.7-5.6,2.2s1.8,1.3,3.3,1.3s4.1-2.6,4.1-2.6S169.9,122.7,170.2,121.5z"/>
			<path class="st25" d="M153.4,114.3l-0.2,0.2l-2-3.6c0,0,0.9,8.3,0.5,9.1c-1.4,1.5-3,2.7-4.7,3.7c-1.6,1-3.8,1.6-4.5,2.2
				s0.8,1.9,2.8,1.4s1.4-1.5,2.9-2.3c2.5-1.4,6.9-3.3,7.1-3.8c0.4-0.8-0.4-3-0.4-3L153.4,114.3z"/>
			<g>
				<ellipse class="st1" cx="203.2" cy="100.3" rx="4.1" ry="2.3"/>
				<g class="st20">
					<rect x="203.2" y="53.9" class="st22" width="0.3" height="41.3"/>
				</g>
				<path class="st11" d="M197.2,46c-0.9-2.5-1.2-5.2-0.8-7.9c2.1-3.7,6.8-5,10.5-2.9c2.4,1.4,3.9,3.9,3.9,6.7
					c0.1,5.1-2.6,9.9-7,12.5C200.6,52.5,198.3,49.5,197.2,46z"/>
				<path class="st12" d="M195.4,41.9c0-1.3,0.4-2.6,1-3.8c-0.4,2.7-0.1,5.4,0.8,7.9c1.1,3.5,3.4,6.4,6.5,8.4
					c-0.1,0-0.3,0.1-0.4,0.2C203.3,54.6,195.4,50.8,195.4,41.9z"/>
			</g>
			<g>
				<path class="st26" d="M214.1,163.6c-1,0.4-3.7,0.3-3.9,0.4s-0.7-0.2-0.5-0.5s3.7-1.6,3.3-2.5s-10-15.6-10-15.6l5.6-0.5
					c-0.4,0,6.8,16.4,7.4,17.2S215.1,163.2,214.1,163.6z"/>
				<polygon class="st26" points="199.7,163.6 202,161.7 200.9,156.3 198.1,143.9 203,145.4 204.4,158.4 205.5,162.8 204,163.6 
					200.9,164.1 				"/>
				<path class="st6" d="M207.9,134.6c2.2,6.1,4.2,12.3,8.5,17.2c-2.1,0.6-4.2,0.9-6.3,1c-2.6,0-7.8-0.7-11.2-0.7
					c-2.3-0.1-4.6-0.7-6.7-1.7l6.5-19.6l8.8,2.4L207.9,134.6z"/>
				<path class="st3" d="M198.7,130.8c0,0-0.4-11.2,0-12.4c0.5-1.2,1.1-2.3,1.9-3.3l7.4,1.3l3,4c-1.7,4.8-3.1,9.4-3.5,12.8
					C203.9,132.9,200.1,132.8,198.7,130.8z"/>
				<path class="st27" d="M199,118c-3.6-2.9-5.3-5.6-7.4-8.3c0,0-1.4-1.7-1.4-2.2s0.3-0.8,1.2-1.1s2.5,2.1,2.5,2.1l6.2,8L199,118z"
					/>
				<path class="st28" d="M201.2,114c-0.4,0.1-0.3-2.1,0-5.1l1.8-2l4.7,3l0.5,1.9h1.5c-2.6,2.3-5,4.5-5.3,4.1L201.2,114z"/>
				<path class="st29" d="M210.2,121.1c-2.1-0.5-4.2-1.1-6.2-1.9c-1.2-0.6-9.5-7.6-9.5-7.6s-2.2-0.5-2.3-1.3s0.9-1.7,2.2-1.7
					s2.4,2.4,2.4,2.4s13.5,6.7,14,7.4s0,1.9,0,2.2C210.7,120.9,210.5,121.1,210.2,121.1z"/>
				<path class="st30" d="M200.4,113.5c0,0-0.9-4-0.3-5.2s4.6-4.2,5.6-3.9s5.6,2.7,6,3.5s-0.2,2.4,0,3.2s2.1,0.8,2.3,2.1
					s-1.6,6.3-2.4,6.7s-0.4-5.1-1.4-3.4s0.5-4,0.3-4.3s-2.2,2.2-2.7,2.5s-0.9,0-0.7-0.4s1.8-1.4,2.2-2.1s-1.3,0.2-1.5-0.4
					c-0.2-0.8-0.4-1.6-0.7-2.3c-0.3-0.4-3.4-2.2-4.4-1.9s-1.7,3.7-1.7,3.7L200.4,113.5z"/>
				<path class="st10" d="M210.5,107.5l0.5-7.7l-5,5.7c0,0,1.1,1.8,1.9,2.1C208.7,107.7,209.6,107.7,210.5,107.5z"/>
			</g>
			<g>
				<polygon class="st8" points="201.1,210.3 201.1,193.5 201.1,170.5 192.8,169.2 192.8,183.6 197,209.4 				"/>
				<path class="st10" d="M208.1,205.7l-2.4-16c0.3,2,0.3-10.4,0.3-13.8s-1.6-9.5-1.6-9.5l-3.3,4.1v18.4l3.5,16.8H208.1z"/>
				<path class="st31" d="M201.1,210.3c0,0,1.1,2.1,0.4,2.6s-7.9-0.8-9.2-1.3s-2.1-2.7-1-2.7s5.7,0.5,5.7,0.5L201.1,210.3z"/>
				<path class="st31" d="M208.5,208.9c0.4-0.7-0.4-3.2-0.4-3.2c0.2,0.1-5.6-2.9-6.6-2.8c-0.8,0.1,0,2.2,0,2.8s3.7,3,4.7,3.2
					S208,209.6,208.5,208.9z"/>
				<path class="st25" d="M192.1,167.6c0,0-1.1,2.1-1.6,2.3c-0.9,0.1-1.9-0.3-2.4-1.1c-0.4-0.8,0.5-15.2,0.9-15.6s1.4-1.4,1.9-1
					s0.6,3.6,0.2,4.6c-0.5,2.3-0.8,4.6-1,6.9L192.1,167.6z"/>
				<path class="st25" d="M208.1,160.8c0.2,0.8,0,1.6-0.4,2.2c-0.7,0.7-3.5,0-3.5,0s-10-8.9-10.7-9.4s-1.1-2.1-0.7-2.6s1,0,1,0
					l5.4,4.2L208.1,160.8z"/>
				<path class="st11" d="M195.4,154.3l-2.7,3.6l-3.7,7.6c1.2,0.4,2.3,1.1,3.1,2.1l0.7-1.4v3c0,0,8.1,2.1,9.8,1.2
					c1-0.6,1.6-1.8,1.6-3l1.3-6.6c0.8-0.5,1.8-0.5,2.6,0l-1.3-9.3L195.4,154.3z"/>
				<polygon class="st25" points="197,154 197,149.5 193.6,147.4 194.3,143.7 202.6,150 201.5,153.5 				"/>
				<path class="st32" d="M195.3,140.6c0.5-0.3,4.1-1.7,4.1-1.7s3.7,2,4.3,3.2s1.5,9.8,1.5,9.8c-3.4,1.6-7.2,2.4-11,2.1
					c0,0,0.5-8.6,0.4-9.2s-0.4-2-0.4-2.3C194.4,141.8,194.7,141.1,195.3,140.6z"/>
				<path class="st10" d="M201.1,141.2l-2.2-7.6l-2.9,7.2c0.7,0.7,1.5,1.2,2.5,1.4C199.4,142.1,200.3,141.8,201.1,141.2z"/>
			</g>
			<g>
				<polygon class="st33" points="140.9,133 140.9,128.9 140.6,128.8 140.4,128.9 140.4,133 140.6,133.1 				"/>
				<polygon class="st34" points="140.9,128.7 140.5,128 140.7,127.3 140.2,128 140.4,128.7 140.6,128.9 				"/>
			</g>
			<g>
				<polygon class="st33" points="135.4,133.7 135.4,129.6 135.1,129.6 134.9,129.6 134.9,133.7 135.1,133.9 				"/>
				<polygon class="st34" points="135.4,129.5 135,128.7 135.2,128.1 134.7,128.7 134.9,129.5 135.1,129.6 				"/>
			</g>
			<g>
				<g>
					<path class="st3" d="M130.3,137.4c2.6-1.2,5.4-1.7,8.2-1.7c2.7,0,5.4,0.5,7.9,1.5h4v4.5c0,3.3-5.3,5.9-11.9,5.9
						s-11.9-2.7-11.9-5.9v-4.2L130.3,137.4z"/>
					<ellipse class="st3" cx="138.6" cy="137.4" rx="11.9" ry="5.9"/>
				</g>
				<path class="st19" d="M127.3,137.4c0-3.1,4.9-5.4,11.2-5.4s11.2,2.4,11.2,5.4s-4.9,5.4-11.2,5.4S127.3,140.5,127.3,137.4z
					 M128.5,137.4c0,1.8,3.2,4.6,10,4.6c6.3,0,10-2.3,10-4.6s-4.5-4.6-10-4.6C132.4,132.9,128.5,135,128.5,137.4z"/>
				<g>
					<path class="st3" d="M134.9,134.5c1.2-0.5,2.4-0.7,3.7-0.7c1.2,0,2.4,0.2,3.5,0.7h1.8v2c0,1.5-2.4,2.7-5.3,2.7
						s-5.3-1.2-5.3-2.7v-1.9L134.9,134.5z"/>
					<ellipse class="st6" cx="138.6" cy="134.5" rx="5.3" ry="2.7"/>
				</g>
				<g>
					<path class="st35" d="M134.9,132.3c1.2-0.5,2.4-0.7,3.7-0.7c1.2,0,2.4,0.2,3.5,0.7h1.8v2c0,1.5-2.4,2.7-5.3,2.7
						s-5.3-1.2-5.3-2.7v-1.9L134.9,132.3z"/>
					<ellipse class="st3" cx="138.6" cy="132.3" rx="5.3" ry="2.7"/>
					<ellipse class="st36" cx="146.3" cy="138" rx="0.9" ry="0.4"/>
					<ellipse class="st36" cx="140.6" cy="140.6" rx="0.9" ry="0.4"/>
					<ellipse class="st36" cx="135.7" cy="139.6" rx="0.9" ry="0.4"/>
					<ellipse class="st36" cx="130.8" cy="139.3" rx="0.9" ry="0.4"/>
					<ellipse class="st36" cx="132.2" cy="134.7" rx="0.9" ry="0.4"/>
					<ellipse class="st36" cx="137.6" cy="133" rx="0.9" ry="0.4"/>
					<ellipse class="st36" cx="140.9" cy="131.9" rx="0.9" ry="0.4"/>
					<ellipse class="st36" cx="144.7" cy="135.3" rx="0.9" ry="0.4"/>
					<ellipse class="st11" cx="145.3" cy="139.6" rx="0.9" ry="0.4"/>
					<ellipse class="st11" cx="142.5" cy="139.1" rx="0.9" ry="0.4"/>
					<ellipse class="st11" cx="137.7" cy="141" rx="0.9" ry="0.4"/>
					<ellipse class="st11" cx="132.7" cy="138.2" rx="0.9" ry="0.4"/>
					<ellipse class="st11" cx="130.1" cy="136.7" rx="0.9" ry="0.4"/>
					<ellipse class="st11" cx="140.3" cy="133.4" rx="0.9" ry="0.4"/>
					<ellipse class="st11" cx="136.6" cy="131.7" rx="0.9" ry="0.4"/>
					<ellipse class="st11" cx="147" cy="136.6" rx="0.9" ry="0.4"/>
				</g>
				<path class="st19" d="M134,132.3c0-1.3,2-2.3,4.6-2.3s4.6,1,4.6,2.3s-2,2.3-4.6,2.3S134,133.6,134,132.3z M134.8,132.3
					c0,0.7,1.6,1.6,3.8,1.6s3.8-0.8,3.8-1.6s-1.6-1.6-3.8-1.6S134.8,131.5,134.8,132.3L134.8,132.3z"/>
				<path class="st19" d="M150.5,141.8v-1.4c-3.4,3.3-7.1,4.5-11.9,4.5s-8.5-1.2-11.9-4.6v1.5c2.8,3.1,7.6,4.2,11.8,4.2
					S147,145,150.5,141.8z"/>
			</g>
			<g>
				<g>
					<polygon class="st33" points="148.1,139 148.1,134.8 147.9,134.8 147.6,134.8 147.6,139 147.9,139.1 					"/>
					<polygon class="st34" points="148.1,134.7 147.7,133.9 147.9,133.3 147.5,134 147.6,134.7 147.9,134.8 					"/>
				</g>
				<g>
					<polygon class="st33" points="145.6,135.3 145.6,131.1 145.3,131.1 145.1,131.1 145.1,135.3 145.3,135.4 					"/>
					<polygon class="st34" points="145.6,131 145.2,130.2 145.4,129.6 144.9,130.3 145.1,131 145.3,131.1 					"/>
				</g>
				<g>
					<polygon class="st33" points="138.9,131.5 138.9,127.4 138.7,127.3 138.4,127.4 138.4,131.5 138.7,131.7 					"/>
					<polygon class="st34" points="138.9,127.2 138.5,126.5 138.7,125.9 138.2,126.5 138.4,127.3 138.7,127.4 					"/>
				</g>
				<g>
					<polygon class="st33" points="133.3,140.9 133.3,136.7 133,136.7 132.8,136.7 132.8,140.9 133,141 					"/>
					<polygon class="st34" points="133.3,136.6 132.9,135.8 133.1,135.2 132.6,135.8 132.8,136.6 133,136.7 					"/>
				</g>
				<g>
					<polygon class="st33" points="130.9,135.3 130.9,131.1 130.6,131.1 130.4,131.1 130.4,135.3 130.6,135.4 					"/>
					<polygon class="st34" points="130.9,131 130.5,130.2 130.7,129.6 130.2,130.3 130.4,131 130.6,131.1 					"/>
				</g>
				<g>
					<polygon class="st33" points="144,141.1 144,136.9 143.8,136.9 143.5,136.9 143.5,141.1 143.8,141.2 					"/>
					<polygon class="st34" points="144,136.8 143.6,136 143.8,135.4 143.3,136.1 143.5,136.8 143.8,136.9 					"/>
				</g>
				<g>
					<polygon class="st33" points="138.8,141.6 138.8,137.5 138.5,137.4 138.3,137.5 138.3,141.6 138.5,141.7 					"/>
					<polygon class="st34" points="138.8,137.3 138.4,136.6 138.6,135.9 138.1,136.6 138.3,137.3 138.5,137.5 					"/>
				</g>
				<g>
					<polygon class="st33" points="129.5,138.5 129.5,134.3 129.3,134.3 129,134.3 129,138.5 129.3,138.6 					"/>
					<polygon class="st34" points="129.5,134.2 129.1,133.4 129.3,132.8 128.9,133.5 129,134.2 129.3,134.3 					"/>
				</g>
			</g>
			<g>
				<path class="st14" d="M167.3,151.8c-2.6-0.5-4-2.3-4.2-5.3c2.8,3,5.6,3,8.5,0C171.2,149.5,169.8,151.3,167.3,151.8z"/>
				<ellipse class="st37" cx="167.3" cy="146.6" rx="3.8" ry="2.2"/>
				<path class="st3" d="M171.1,146.7c-2.3-2.3-5.2-2.2-7.5,0c0.3,1.1,0.3,1.9,3.6,2.3C170.4,148.7,170.5,148,171.1,146.7z"/>
				<path class="st37" d="M164.5,144.7c-0.7-0.4-1.3-0.5-1.7-0.1c-0.2,0.5-0.2,1.1-0.1,1.6l0.5,0.9l0.2-1.2
					c-0.1-0.2-0.2-0.5-0.2-0.7l0.2-0.2c0.2,0,0.4,0,0.6,0.1L164.5,144.7z"/>
				<path class="st38" d="M163.1,146.6c0,1.5,1.9,2.6,4.2,2.6s4.2-1.2,4.2-2.6s-1.9-2.6-4.2-2.6S163.1,145.1,163.1,146.6z
					 M163.8,146.6c0-1.2,1.6-2.2,3.6-2.2s3.6,1,3.6,2.2s-1.6,2.2-3.6,2.2S163.8,147.8,163.8,146.6z"/>
			</g>
			<g>
				<path class="st14" d="M145.1,159.6c-2.6-0.5-4-2.3-4.2-5.3c2.8,3,5.6,3,8.5,0C149,157.3,147.6,159,145.1,159.6z"/>
				<ellipse class="st37" cx="145.1" cy="154.3" rx="3.8" ry="2.2"/>
				<path class="st3" d="M148.9,154.4c-2.3-2.3-5.2-2.2-7.5,0c0.3,1.1,0.3,1.9,3.6,2.3C148.2,156.4,148.3,155.8,148.9,154.4z"/>
				<path class="st37" d="M142.3,152.4c-0.7-0.4-1.3-0.5-1.7-0.1c-0.2,0.5-0.2,1.1-0.1,1.6l0.5,0.9l0.2-1.2
					c-0.1-0.2-0.2-0.5-0.2-0.7l0.2-0.2c0.2,0,0.4,0,0.6,0.1L142.3,152.4z"/>
				<path class="st38" d="M140.9,154.3c0,1.5,1.9,2.6,4.2,2.6s4.2-1.2,4.2-2.6s-1.9-2.6-4.2-2.6S140.9,152.8,140.9,154.3z
					 M141.6,154.3c0-1.2,1.6-2.2,3.6-2.2s3.6,1,3.6,2.2s-1.6,2.2-3.6,2.2S141.6,155.5,141.6,154.3z"/>
			</g>
			<g>
				<path class="st14" d="M128.4,126.1c-2.6-0.5-4-2.3-4.2-5.3c2.8,3,5.6,3,8.5,0C132.2,123.8,130.8,125.6,128.4,126.1z"/>
				<ellipse class="st37" cx="128.3" cy="120.8" rx="3.8" ry="2.2"/>
				<path class="st3" d="M132.1,121c-2.3-2.3-5.2-2.2-7.5,0c0.3,1.1,0.3,1.9,3.6,2.3C131.4,122.9,131.5,122.3,132.1,121z"/>
				<path class="st37" d="M125.5,119c-0.7-0.4-1.3-0.5-1.7-0.1c-0.2,0.5-0.2,1.1-0.1,1.6l0.5,0.9l0.2-1.2c-0.1-0.2-0.2-0.5-0.2-0.7
					l0.2-0.2c0.2,0,0.4,0,0.6,0.1L125.5,119z"/>
				<path class="st38" d="M124.1,120.8c0,1.5,1.9,2.6,4.2,2.6c2.3,0,4.2-1.2,4.2-2.6s-1.9-2.6-4.2-2.6S124.1,119.4,124.1,120.8z
					 M124.8,120.8c0-1.2,1.6-2.2,3.6-2.2c2,0,3.6,1,3.6,2.2s-1.6,2.2-3.6,2.2S124.8,122.1,124.8,120.8z"/>
			</g>
			<g class="st39">
				<ellipse class="st1" cx="95.1" cy="137.2" rx="5" ry="2.9"/>
			</g>
			<g>
				<path class="st14" d="M95.8,138c-2.6-0.5-4-2.3-4.2-5.3c2.8,3,5.6,3,8.5,0C99.7,135.7,98.3,137.5,95.8,138z"/>
				<ellipse class="st37" cx="95.8" cy="132.8" rx="3.8" ry="2.2"/>
				<path class="st3" d="M99.6,132.9c-2.3-2.3-5.2-2.2-7.5,0c0.3,1.1,0.3,1.9,3.6,2.3C98.9,134.9,99,134.2,99.6,132.9z"/>
				<path class="st37" d="M93,130.9c-0.7-0.4-1.3-0.5-1.7-0.1c-0.2,0.5-0.2,1.1-0.1,1.6l0.5,0.9l0.2-1.2c-0.1-0.2-0.2-0.5-0.2-0.7
					l0.2-0.2c0.2,0,0.4,0,0.6,0.1L93,130.9z"/>
				<path class="st38" d="M91.6,132.8c0,1.5,1.9,2.6,4.2,2.6s4.2-1.2,4.2-2.6s-1.9-2.6-4.2-2.6S91.6,131.3,91.6,132.8z M92.3,132.8
					c0-1.2,1.6-2.2,3.6-2.2s3.6,1,3.6,2.2s-1.6,2.2-3.6,2.2S92.3,134,92.3,132.8z"/>
			</g>
			<g>
				<path class="st14" d="M120.5,150.7c-2.6-0.5-4-2.3-4.2-5.3c2.8,3,5.6,3,8.5,0C124.3,148.4,122.9,150.1,120.5,150.7z"/>
				<ellipse class="st37" cx="120.5" cy="145.4" rx="3.8" ry="2.2"/>
				<path class="st3" d="M124.2,145.5c-2.3-2.3-5.2-2.2-7.5,0c0.3,1.1,0.3,1.9,3.6,2.3C123.5,147.5,123.6,146.9,124.2,145.5z"/>
				<path class="st37" d="M117.6,143.5c-0.7-0.4-1.3-0.5-1.7-0.1c-0.2,0.5-0.2,1.1-0.1,1.6l0.5,0.9l0.2-1.2
					c-0.1-0.2-0.2-0.5-0.2-0.7l0.2-0.2c0.2,0,0.4,0,0.6,0.1L117.6,143.5z"/>
				<path class="st38" d="M116.2,145.4c0,1.5,1.9,2.6,4.2,2.6s4.2-1.2,4.2-2.6s-1.9-2.6-4.2-2.6S116.2,143.9,116.2,145.4z
					 M116.9,145.4c0-1.2,1.6-2.2,3.6-2.2s3.6,1,3.6,2.2s-1.6,2.2-3.6,2.2S116.9,146.6,116.9,145.4z"/>
			</g>
			<g>
				<ellipse class="st40" cx="114.9" cy="131.9" rx="10.1" ry="5.5"/>
				<g class="st39">
					<ellipse class="st1" cx="114.4" cy="132.2" rx="8.1" ry="4.4"/>
				</g>
				<ellipse class="st41" cx="114.9" cy="131.9" rx="8.1" ry="4.4"/>
				<ellipse class="st42" cx="114.9" cy="131.9" rx="7.3" ry="4"/>
				<ellipse class="st11" cx="115.6" cy="133.4" rx="1.8" ry="0.9"/>
				<ellipse class="st11" cx="109.7" cy="131.9" rx="1.8" ry="0.9"/>
				<ellipse class="st11" cx="113.2" cy="130.1" rx="1.8" ry="0.9"/>
				<ellipse class="st11" cx="118.5" cy="129.9" rx="1.8" ry="0.9"/>
				<ellipse class="st11" cx="119.9" cy="132" rx="0.6" ry="0.3"/>
				<ellipse class="st11" cx="113.8" cy="128.4" rx="0.6" ry="0.3"/>
				<ellipse class="st11" cx="118.8" cy="134.4" rx="0.6" ry="0.3"/>
				<ellipse class="st11" cx="112.5" cy="132.5" rx="0.6" ry="0.3"/>
				<ellipse class="st11" cx="115.8" cy="131.3" rx="0.6" ry="0.3"/>
				<ellipse class="st11" cx="111.6" cy="134" rx="0.6" ry="0.3"/>
				<ellipse class="st11" cx="110" cy="129.9" rx="0.6" ry="0.3"/>
				<polygon class="st11" points="118.1,133 117.3,131.9 118.8,132.6 				"/>
				<polygon class="st11" points="113.8,135.5 113,134.4 114.4,135.1 				"/>
				<polygon class="st11" points="114.6,132.5 113.8,131.3 115.2,132 				"/>
				<polygon class="st11" points="120.5,132.7 121.8,132 120.9,133.4 				"/>
				<polygon class="st11" points="109.8,133.4 111.2,133.2 110,134.2 				"/>
				<polygon class="st11" points="119.8,130.5 121.2,130.3 119.9,131.3 				"/>
				<polygon class="st11" points="111,131.4 110.2,130.2 111.7,130.9 				"/>
				<polygon class="st11" points="115.9,129.6 115.1,128.4 116.6,129.1 				"/>
			</g>
			<ellipse class="st40" cx="159.2" cy="157.4" rx="5" ry="2.7"/>
			<ellipse class="st40" cx="160" cy="140" rx="5" ry="2.7"/>
			<ellipse class="st40" cx="129.1" cy="154.6" rx="5" ry="2.7"/>
			<ellipse class="st40" cx="109.7" cy="143.1" rx="5" ry="2.7"/>
			<ellipse class="st40" cx="117.9" cy="122.1" rx="5" ry="2.7"/>
			<g>
				<path class="st43" d="M170.4,191.5c-0.4-1.3,0.4-3.3,1.7-5.6l0.7-5l-4.8-2.4c0,0-2.2,2.1-2.2,3c0.2,1.9,0.5,3.7,1,5.5
					c0.2,0.6,1.3,1,1.1,1.6s-2.7,3-2.7,3l3.3,0.7L170.4,191.5z"/>
				<path class="st3" d="M172.7,245.5c0.3-0.4,0-3.2,0-3.2c-1.3-1-2.7-1.8-4.2-2.6c-0.7-0.1-2.2-0.4-2.3,0s3.8,5.1,4.4,5.5
					S172.4,245.9,172.7,245.5z"/>
				<path class="st3" d="M168.4,251.7c0.5-0.1,0.9-2.2,0.5-2.4c-1.7-0.6-3.5-1.1-5.3-1.4c-0.4,0-4.2,0.1-4.2,0.7s3.3,3.1,3.8,3.1
					S167.9,251.9,168.4,251.7z"/>
				<path class="st44" d="M168.1,249.4c-0.1-0.7-1.9-15.4-1.8-17.8s3.6-16.3,3.6-16.3l-8.1-1.3c0,0-1.1,15-1.1,17.3s3,16.9,3.5,17.5
					S168.2,250.1,168.1,249.4z"/>
				<path class="st45" d="M172.8,243c0.2-0.4-0.6-14-0.3-15.9s2.7-11.8,2.7-11.8l-7.1,0.6c0,0-1,9.6-1,12.2s2.1,13.4,2.4,13.9
					S172.5,243.4,172.8,243z"/>
				<path class="st9" d="M172.9,188.8c0,0,2.1-6,2.2-8.6s0.3-10.9,0.6-11.1s2.3,0,2.3,0s1,10.7,0.7,13s-3.7,11-3.9,12.9
					s0.9,10.9,1.2,12.8s1,6.7,0.3,7.4s-5.9,0.7-8.2,0.7c-2.3-0.1-4.5-0.6-6.6-1.4c-0.4-0.3-0.2-1.5,0-3.1s2.1-13.6,1.4-15.7
					s-3.8-11.3-4.2-13.2s-1.8-11.3-1.8-11.3c1-0.2,2.3-0.2,2.9-0.7c0,0,2,9.4,2.7,11.4s3.1,9.2,3.6,9.6s2.3-0.1,3.4-0.4
					C170.7,190.5,171.9,189.7,172.9,188.8z"/>
				<path class="st46" d="M167.8,185.9c0,0-1.6-5.3-1.4-6.1s1-2.5,2.1-2.5s4.8,2.2,5.3,2.8c0.4,0.7,0.6,1.5,0.7,2.3l-0.6,3.2
					l-1.3,3.3c-1.3-0.1-2.7-0.2-4-0.5C168.2,187.6,167.9,186.8,167.8,185.9z"/>
				<path class="st43" d="M178,169.4c0.1-1.2,0.1-2.3,0-3.5c-0.5-1.1-1.2-2-2-2.8c-0.3,0-0.6,0.5-0.6,0.8s-0.1,1.6-0.1,1.7
					s-0.3,0.3-0.3,0.5c0.1,0.4,0.2,0.8,0.3,1.2c0.4,0.9,0.6,1.9,0.8,2.9C176.2,170.5,176.9,170.1,178,169.4z"/>
				<path class="st43" d="M157.3,171.2c-0.5-1.1-0.9-2.2-1.2-3.3c0,0-0.2-2.1-0.2-2.4s0.4-0.9,0.8-0.9s1.1,2,1.3,2.1
					s0.5-0.2,0.7,0.2l0,0c0,0,1,4.1,0.7,4.3S157.5,171.5,157.3,171.2z"/>
				<path class="st10" d="M173.9,179.9l-0.6-8.4l-4.6,6.9c0,0,0.9,1.8,2.3,2.1C172,180.6,173,180.4,173.9,179.9z"/>
			</g>
			<g>
				<path class="st31" d="M126.9,231.9c0.1,0.5-1.2,2.5-2,2.5s-6.3-3.9-6.5-4.5s0.4-3.6,1.1-3.4s3.3,2.7,4,3.3
					S126.8,231.4,126.9,231.9z"/>
				<path class="st47" d="M125.5,231.9c0.2-0.5-1.5-14.3-1.5-14.3l3.5-23.1l-8.3-1.3v14.3l3.1,22.7
					C123.5,232,125.3,232.4,125.5,231.9z"/>
				<path class="st31" d="M134.4,232.3c0.4-0.6,0.6-3.3,0-3.9s-5.5-3.1-6.1-2.9s-0.7,2.1-0.3,2.8c1.2,1.4,2.6,2.7,4.1,3.7
					C132.7,232.2,134,232.9,134.4,232.3z"/>
				<path class="st48" d="M134.4,229.4c-0.9-1.3-3-16.5-2.4-15.8l0.7-11.2l-2.6-11.2l-2.6,3.3v18.2c0.1-0.6,3.4,15.3,3.4,16.7
					C130.9,230.2,134.8,230,134.4,229.4z"/>
				<path class="st25" d="M114.9,171.7c0.3,0.7,0.7,1.4,1.2,2l-1.1,2.9c-0.9-1.2-1.7-2.5-2.3-3.8c-0.3-1,2.8-10.3,3.3-10.5
					s1.2-0.8,1.6-0.4s-1.6,3.8-1.6,4.1C115.5,167.9,115.2,169.8,114.9,171.7z"/>
				<path class="st25" d="M130.6,184.6l1.7-1.2v-2.5c0.7-1.1,0.3-5-0.2-9.3c0,0-0.4-1.5,0.8-1.5s1.9,7.7,1.9,8.8s0.1,7.4-1,7.7
					S130.6,184.6,130.6,184.6z"/>
				<path class="st8" d="M121.8,178.4c-1.1,0-3.2-2.2-3.8-2.8s-2.2-3.9-2.5-3.9c-1,0.5-1.8,1.2-2.4,2.1c0,0.4,5.4,7,5.7,7.9
					s0.4,11.5,0.4,11.5c0.5,10.7-1.2,17.6-2,26.2c1.4,0.5,2.8,0.8,4.2,1c1.8,0.2,9.9-1.3,10.9-1.5s3.9-1.5,4.4-2.2s-6-22.9-6.2-25.2
					s1.2-6.3,1.3-6.7s1.6-1.8,1.6-2.3s-1.6-5.4-2.5-5.5S122.9,178.4,121.8,178.4z"/>
				<path class="st25" d="M123.3,178.1c0.3-1.4,0.9-3.1,0.3-3.7c-0.5-0.1-0.9-0.2-1.4-0.3c-0.3-0.1-1.5-6.2-1.5-6.2l6.7,6.6
					c-0.7,0.7-0.1,1.9,0.4,3.1L123.3,178.1z"/>
				<path class="st32" d="M121.7,164.8c1.3-0.6,2.6-1.2,4-1.7c0,0,4.1,2.4,4.4,3.2s0.2,7.3-0.5,7.7s-2.8,0.7-3,1
					c-0.1,0.7-0.1,1.4,0.1,2c0.2,0.7,2.1,8.6,1.4,9.6s-4.3,3.3-4.5,0.8s2-10.2,2.1-10.6s0.3-1.5,0-1.6c-1.2-0.3-2.4-0.7-3.5-1.1
					c-0.8-0.4-2-6.9-1.6-7.4S121.4,165.1,121.7,164.8z"/>
				<path class="st10" d="M127.4,165.4l-2.1-7.6l-2.9,7.2c0.6,0.8,1.5,1.3,2.5,1.4C125.8,166.3,126.7,166,127.4,165.4z"/>
				<path class="st8" d="M128.8,175c0.3,0.3,0.6,1.8,0,2s-5.3-2.1-5.7-1.8c-0.3,0.7-0.3,1.5,0,2.2
					C123.4,177.6,128.5,174.8,128.8,175z"/>
			</g>
			<g>
				<polygon class="st4" points="79.3,188.2 59.3,177.1 79.2,167.4 81,167.4 97.7,176.9 97.7,178 				"/>
				<polygon class="st4" points="79.3,190 79.3,188.2 59.3,177.1 59.3,178.4 				"/>
				<polygon class="st4" points="79.3,188.2 97.7,178 97.7,179.9 79.3,190 				"/>
				<path class="st2" d="M57.7,153.7v50.5l2.4,1.2L60,184.2l14.7,7.9l0.2,22l2.2,1.4l0.1-50.8L57.7,153.7z M74.5,189.4L60,181.1
					v-6.4l14.5,8.4L74.5,189.4z M74.5,180.9L60,172.6v-6.4l14.5,8.4L74.5,180.9z M74.5,172.3L60,164v-6.4l14.5,8.4L74.5,172.3z"/>
				<polygon class="st3" points="77.1,215.5 79.6,214.2 79.7,192 94.3,183.7 94.3,205.7 96.8,204.3 96.8,180.4 79.3,190 79.3,163.6 
					77.2,164.8 				"/>
				<polygon class="st4" points="57.7,153.7 60,152.4 79.3,163.6 77.2,164.8 				"/>
				<polygon class="st4" points="74.5,186.5 62.7,179.5 60,181 74.5,189.4 				"/>
				<polygon class="st4" points="74.5,177.9 62.7,171 60,172.5 74.5,180.8 				"/>
				<polygon class="st4" points="74.5,169.4 62.7,162.5 60,164 74.5,172.3 				"/>
				<polygon class="st3" points="62.7,179.5 62.7,176.1 60,174.6 60,181 				"/>
				<polygon class="st3" points="62.7,170.9 62.7,167.5 60,166 60,172.4 				"/>
				<polygon class="st3" points="62.7,162.5 62.7,159.1 60,157.5 60,164 				"/>
				<polygon class="st3" points="60.2,205.3 62.7,204 62.7,185.6 60.1,184.2 				"/>
				<polygon class="st2" points="94.3,205.7 91.7,204.1 91.7,185.3 94.3,183.7 				"/>
			</g>
			<g class="st39">
				<ellipse class="st1" cx="117.3" cy="122.3" rx="5" ry="2.9"/>
			</g>
			<g class="st39">
				<ellipse class="st1" cx="109.1" cy="143.3" rx="5" ry="2.9"/>
			</g>
			<g class="st39">
				<ellipse class="st1" cx="128.5" cy="154.9" rx="5" ry="2.9"/>
			</g>
			<g class="st39">
				<ellipse class="st1" cx="159.4" cy="140.2" rx="5" ry="2.9"/>
			</g>
			<g class="st39">
				<ellipse class="st1" cx="158.6" cy="157.6" rx="5" ry="2.9"/>
			</g>
		</g>
	</g>
</g>
</svg>
