<?xml version="1.0" encoding="utf-8"?>
<!-- Generator: Adobe Illustrator 21.0.2, SVG Export Plug-In . SVG Version: 6.00 Build 0)  -->
<svg version="1.1" id="Слой_1" xmlns="http://www.w3.org/2000/svg" xmlns:xlink="http://www.w3.org/1999/xlink" x="0px" y="0px"
	 viewBox="0 0 166.9 208.9" style="enable-background:new 0 0 166.9 208.9;" xml:space="preserve">
<style type="text/css">
	.st0{opacity:0.18;}
	.st1{fill:#825537;}
	.st2{fill:#704626;}
	.st3{fill:#BB9469;}
	.st4{fill:#CBAC95;}
	.st5{fill:#191A0A;}
	.st6{fill:#C69C73;}
	.st7{fill:#4D4F54;}
	.st8{fill:#3A3B3F;}
	.st9{fill:#696B70;}
	.st10{fill:#EFEDED;}
	.st11{fill:#736357;}
	.st12{fill:#534741;}
	.st13{fill:#EA821B;}
	.st14{fill:#F6E4B6;}
	.st15{fill:#FCE7BA;}
	.st16{fill:#1D4E89;}
	.st17{fill:#E27F1B;}
	.st18{fill:#1B4275;}
	.st19{fill:#FF931E;}
	.st20{fill:#EF861D;}
	.st21{fill:#3F2D23;}
	.st22{fill:#584F54;}
	.st23{fill:#D58125;}
	.st24{fill:#2A1B1A;}
	.st25{fill:#CEA080;}
	.st26{fill:#EDBEA1;}
	.st27{fill:#1099AC;}
	.st28{fill:#633A12;}
	.st29{fill:#D3C0AA;}
	.st30{opacity:0.2;}
	.st31{opacity:0.1;enable-background:new    ;}
	.st32{fill:#434A55;}
	.st33{fill:#FFF9FD;}
	.st34{fill:#3FA9F5;}
	.st35{fill:#255F99;}
	.st36{fill:#DDDDDD;}
	.st37{fill:#00CCDB;}
	.st38{fill:#D8741A;}
	.st39{fill:#998675;}
	.st40{fill:#E2E0E0;}
	.st41{fill:#00B2CA;}
	.st42{fill:none;}
	.st43{fill:#AF4A4A;}
	.st44{fill:#FFFFFF;}
	.st45{fill:#FBD2C3;}
	.st46{fill:#B8B9BD;}
</style>
<g>
	<polygon class="st0" points="0,194.8 24.8,208.9 47.5,196.8 22.9,182.8 	"/>
	<polygon class="st0" points="86.4,134.9 111.2,149.1 133.9,136.9 109.3,122.9 	"/>
	<polygon class="st0" points="56.1,198.3 12.8,174.2 79.6,139.3 120.9,160.7 	"/>
	<polygon class="st0" points="128.8,124.6 134.3,125.4 138,128.2 166.9,125.4 154.1,118.8 	"/>
</g>
<title>boardРесурс 9</title>
<g id="Слой_2">
	<g id="Material">
		<g id="board">
			<g>
				<polygon class="st1" points="51.9,139.2 49.3,137.7 49.3,114.5 51.9,115.9 				"/>
				<polyline class="st2" points="34.7,149.1 34.7,125 54.4,113.9 54.4,137.9 51.9,139.2 51.9,117.3 37.3,125.6 37.2,147.7 
					34.7,149.1 				"/>
				<polygon class="st1" points="34.7,149.1 32.1,147.5 32.1,124.3 34.4,125.6 34.7,125.6 				"/>
				<path class="st2" d="M15.9,87.6l0.1,50.8l2.2-1.4l0.2-22l14.7-7.9l2.3-1V76.6L15.9,87.6z M18.5,105.9L33,97.5v6.4l-14.5,8.3
					L18.5,105.9z M18.5,97.4L33,89v6.4l-14.5,8.3L18.5,97.4z M18.5,88.8L33,80.4v6.4l-14.5,8.3V88.8z"/>
				<polygon class="st3" points="18.6,109.3 30.4,102.3 33,103.9 18.5,112.2 				"/>
				<polygon class="st3" points="36.4,125.6 36.3,123.8 54.4,113.6 54.4,115.2 				"/>
				<polygon class="st3" points="34.4,123.7 36.3,123.8 54.4,113.6 54.4,112.7 35.3,102.7 15.9,113.5 				"/>
				<polygon class="st3" points="34.4,123.7 15.9,113.5 15.9,115.4 34.4,125.6 				"/>
				<polygon class="st3" points="35.3,76.5 33.1,75.2 13.7,86.5 15.9,87.6 				"/>
				<polygon class="st3" points="18.6,100.8 30.4,93.8 33,95.3 18.5,103.6 				"/>
				<polygon class="st3" points="18.6,92.2 30.4,85.3 33,86.8 18.5,95.1 				"/>
				<polygon class="st1" points="30.4,102.3 30.4,99 33,97.4 33,103.9 				"/>
				<polygon class="st1" points="30.4,93.7 30.4,90.3 33,88.8 33,95.2 				"/>
				<polygon class="st1" points="30.4,85.3 30.4,81.9 33,80.4 33,86.8 				"/>
				<polygon class="st1" points="16,138.3 13.7,137 13.7,86.5 15.9,87.6 				"/>
				<polygon class="st4" points="34.4,125.6 36.4,125.6 36.3,123.8 34.4,123.7 				"/>
				<polygon class="st1" points="15.9,115.4 32.1,124.3 32.1,126.4 15.9,117.3 				"/>
			</g>
			<g>
				<g>
					<path class="st5" d="M127.5,121.6v2.3c0.5,0.5,1.2,0.8,1.9,0.7c1.3-0.1,1.4-0.5,1.4-0.5v-2.5H127.5z"/>
					<path class="st5" d="M80.7,94.6v2.3c0.5,0.5,1.2,0.8,1.9,0.7c1.3-0.1,1.4-0.5,1.4-0.5v-2.5H80.7z"/>
					<polygon class="st3" points="74.9,70.9 91.5,61.3 154.1,98.4 138,107.8 					"/>
					<polygon class="st3" points="74.9,91.6 74.9,70.9 138,107.8 138,128.2 					"/>
					<polygon class="st1" points="78.5,89.2 78.5,76.7 89.5,83.2 					"/>
					<polygon class="st6" points="134.3,122.3 134.3,109.2 130,106.7 106,92.8 89.5,83.2 78.5,89.2 					"/>
				</g>
				<g>
					<polygon class="st3" points="74.9,50.5 91.5,40.9 154.1,78 138,87.4 					"/>
					<polygon class="st3" points="74.9,71.2 74.9,50.5 138,87.4 138,107.8 					"/>
					<polygon class="st1" points="78.5,68.8 78.5,56.3 89.5,62.8 					"/>
					<polygon class="st6" points="134.3,101.9 134.3,88.8 130,86.3 106,72.4 89.5,62.8 78.5,68.8 					"/>
				</g>
				<g>
					<polygon class="st3" points="74.9,30.1 91.5,20.5 154.1,57.5 138,66.9 					"/>
					<polygon class="st3" points="74.9,50.7 74.9,30.1 138,66.9 138,87.4 					"/>
					<polygon class="st1" points="78.5,48.4 78.5,35.9 89.5,42.4 					"/>
					<polygon class="st6" points="134.3,81.4 134.3,68.4 130,65.8 106,52 89.5,42.4 78.5,48.4 					"/>
				</g>
				<g>
					<polygon class="st6" points="74.9,9.6 91.5,0 154.1,37.1 138,46.5 					"/>
					<polygon class="st3" points="74.9,30.3 74.9,9.6 138,46.5 138,66.9 					"/>
					<polygon class="st1" points="78.5,27.9 78.5,15.4 89.5,21.9 					"/>
					<polygon class="st6" points="134.3,61 134.3,47.9 130,45.4 106,31.5 89.5,21.9 78.5,27.9 					"/>
					<polygon class="st1" points="138,46.5 138,66.9 138,87.4 138,107.8 138,128.2 154.1,118.8 154.1,98.4 154.1,78 154.1,57.5 
						154.1,37.1 					"/>
				</g>
			</g>
			<g>
				<polygon class="st7" points="125.3,92.6 125.3,89 122.5,87.2 122.5,91.1 				"/>
				<polygon class="st8" points="125.3,92.6 125.3,89 128.1,87.2 128.1,91.1 				"/>
				<polygon class="st9" points="122.5,87.2 125.3,89 128.1,87.2 125.3,85.4 				"/>
				<ellipse class="st10" cx="124.6" cy="91.4" rx="0.2" ry="0.4"/>
				<ellipse class="st10" cx="123.1" cy="90.6" rx="0.2" ry="0.4"/>
				<ellipse class="st10" cx="124.6" cy="89.5" rx="0.2" ry="0.4"/>
				<ellipse class="st10" cx="123.1" cy="88.7" rx="0.2" ry="0.4"/>
				<ellipse class="st10" cx="123.9" cy="87.1" rx="0.4" ry="0.2"/>
				<ellipse class="st10" cx="124.6" cy="87.6" rx="0.4" ry="0.2"/>
				<ellipse class="st10" cx="125.4" cy="88.1" rx="0.4" ry="0.2"/>
				<ellipse class="st10" cx="125.2" cy="86.2" rx="0.4" ry="0.2"/>
				<ellipse class="st10" cx="126" cy="86.7" rx="0.4" ry="0.2"/>
				<ellipse class="st10" cx="126.7" cy="87.2" rx="0.4" ry="0.2"/>
				<ellipse class="st10" cx="127.5" cy="88.6" rx="0.2" ry="0.4"/>
				<ellipse class="st10" cx="126" cy="91.4" rx="0.2" ry="0.4"/>
			</g>
			<g>
				<polygon class="st11" points="129.5,113.8 129.5,109.5 122.8,105.4 122.8,109.9 				"/>
				<polygon class="st12" points="129.5,113.8 134.3,111.6 134.3,109.2 132.7,108.3 129.5,109.5 				"/>
				<polygon class="st13" points="122.8,105.4 125.8,104.2 132.7,108.3 129.5,109.5 				"/>
			</g>
			<g>
				<polygon class="st2" points="89.2,136.6 91.8,135 91.8,111.8 89.2,113.3 				"/>
				<polyline class="st1" points="106.5,146.4 106.5,122.4 86.8,111.3 86.8,135.2 89.2,136.6 89.2,114.6 103.9,122.9 103.9,145.1 
					106.5,146.4 				"/>
				<polygon class="st2" points="106.5,146.4 109,144.9 109,121.7 106.7,123 106.5,123 				"/>
				<path class="st1" d="M105.8,73.8v29.5l2.3,1l14.7,7.9l0.2,22l2.2,1.4l0.1-50.8L105.8,73.8z M122.6,109.5l-14.5-8.3v-6.4
					l14.5,8.4V109.5z M122.6,101l-14.5-8.3v-6.4l14.5,8.4V101z M122.6,92.5l-14.5-8.3v-6.4l14.5,8.4V92.5z"/>
				<polygon class="st3" points="122.6,106.6 110.8,99.7 108.1,101.2 122.6,109.5 				"/>
				<polygon class="st3" points="104.8,123 104.8,121.1 86.8,111 86.8,112.5 				"/>
				<polygon class="st3" points="106.7,121.1 104.8,121.1 86.8,111 86.8,110 105.8,100 125.2,110.8 				"/>
				<polygon class="st3" points="106.7,121.1 125.2,110.8 125.2,112.7 106.7,123 				"/>
				<polygon class="st3" points="105.8,73.8 108.1,72.6 127.4,83.8 125.3,84.9 				"/>
				<polygon class="st3" points="122.6,98.1 110.8,91.2 108.1,92.7 122.6,101 				"/>
				<polygon class="st3" points="122.6,89.6 110.8,82.6 108.1,84.2 122.6,92.5 				"/>
				<polygon class="st2" points="110.8,99.7 110.8,96.3 108.1,94.8 108.1,101.2 				"/>
				<polygon class="st2" points="110.8,91.1 110.8,87.7 108.1,86.2 108.1,92.6 				"/>
				<polygon class="st2" points="110.8,82.6 110.8,79.3 108.1,77.7 108.1,84.2 				"/>
				<polygon class="st2" points="125.2,135.7 127.4,134.3 127.4,83.8 125.3,84.9 				"/>
				<polygon class="st4" points="106.7,123 104.8,123 104.8,121.1 106.7,121.1 				"/>
				<polygon class="st2" points="125.2,112.7 109,121.7 109,123.7 125.2,114.6 				"/>
			</g>
			<g>
				<path class="st14" d="M35.6,87.3c-0.9-0.6-1.4-1.3-1.1-2.3c0.5,0.2,1.1,0.2,1.6,0c1.1-1.4,2-2.9,2.5-4.6
					c0.2-1.3,0.3-2.6,0.4-3.9L34.5,76l-2.3,2.5l-1.3-0.8v2.4l-1.4,5l4.2,3.8C33.8,89.2,34.6,87.9,35.6,87.3z"/>
				<path class="st15" d="M44.8,101.6c0.5,0.1,3.6,1.2,4.5,1.1s3.3-1.4,3.1-2.2s-4.1-2.1-4.4-2.2c-0.6-0.2-1.2-0.3-1.8-0.4
					c-0.8,0-1.5,0.2-2.3,0.4C44.3,99.6,44.3,101.5,44.8,101.6z"/>
				<path class="st16" d="M41.8,138.5l1.1-19.6l-7.4-5.3l-3.3-4.6l-8.4,3c2.1,3.5,7,7.5,12.8,11.7l-0.1,14.8H41.8z"/>
				<path class="st17" d="M36.5,102.1c2.9-0.3,5.9-0.3,8.8-0.3c0.5-1.3,0.7-2.6,0.6-4c-2.8,0.5-5.7,0.5-8.5,0L36.5,102.1z"/>
				<path class="st18" d="M40.2,108.3l8.3,4.7l6.1,19.9l-4.1,2.1l-6.4-16.1c-3.3-2-6.8-3.8-10.4-5.3l-1.1-3.7
					C32.6,109.9,38.9,107.6,40.2,108.3z"/>
				<path class="st19" d="M39.8,107.7c0.2-0.7-2.5-3.8-2.5-5.1s1.1-8,1.2-9.5s-0.6-8.8-1.2-8.8s-3.6,4.2-3.6,4.2s-3.8-4.2-4.8-4.2
					s-6.7,4.4-7.1,5s1.3,22.4,1.6,22.9c0.4,0.9,1.2,1.6,2.1,1.8c1.3,0.3,7.3-0.8,9.2-1.7S39.6,108.4,39.8,107.7z"/>
				<path class="st20" d="M26.6,90.5c-0.4-0.7-2.6-1.6-3.1-1.6c-0.8,0-1.6,0.3-2.3,0.8c-0.5,0.5,0.8,17.6,1.3,18.6
					s12.2,5.3,12.2,5.3l1-3.9c0,0-7.6-4.1-8.6-5.1S27,91.2,26.6,90.5z"/>
				<path class="st21" d="M39,77.3c0.7-0.6,1-1.5,1-2.4c-0.1-0.7-4.1-2.9-5.3-2.9s-3.7,0.2-4.6,1s-0.6,5.6-0.6,5.6l0.6,4.3
					c0.5-0.7,0.9-1.4,1.3-2.2c0.1-0.5-1.1-2.1-1-2.3s1.3,1.2,1.8,1.1c0.5-0.1,2.1-2.2,2.5-2.4S38.3,77.7,39,77.3z"/>
				<path class="st15" d="M34.7,113.2c0,0,2.8,1.5,3.9,1.5s3-1,3-1.5s-3.6-3.4-4.6-3.6c-0.6-0.1-1.2-0.1-1.8,0L34.7,113.2z"/>
				<polygon class="st22" points="36,138.6 41.6,143 44.5,143.7 44.1,140.6 41.6,137.9 38.7,137.4 				"/>
				<polygon class="st22" points="49.4,135 54.6,135.9 59,135 59,133.4 55.4,132.6 53,132 49.4,133.3 				"/>
			</g>
			<g>
				<polygon class="st19" points="107.1,62.4 107.1,64.6 121.9,73.4 121.9,71 				"/>
				<polygon class="st23" points="121.9,73.4 121.9,71 130.9,66.4 132.8,67.5 				"/>
			</g>
			<g>
				<polygon class="st24" points="88.6,128.2 85.9,129.9 86.7,131.8 91.1,130.4 95,128.5 95,127.4 				"/>
				<polygon class="st24" points="94.2,134.7 93.8,139.7 95.5,139.7 100.3,132 99.3,130.9 				"/>
				<polygon class="st25" points="88.8,130 94.9,127.7 98.1,114.8 103.7,115.5 102.8,109.1 94.8,111.6 93.3,122.4 91.4,126.7 
					87.9,128.8 				"/>
				<polygon class="st26" points="95,137.1 95,131.8 95.7,123.9 95.3,110.4 98.2,106.2 104.3,106.8 103.7,111 100.9,113 
					100.3,122.2 99.2,129 99.3,132.8 96,137.1 				"/>
				<path class="st15" d="M112.5,90.3l-1.2-5.5c1.5-0.3,2.4-0.9,2.2-2l-3.3-3.1l1.5-5.9l6.6,3.7c0,0-1.4,6.6-0.8,7.1s3.4,0,3.4,0
					L112.5,90.3z"/>
				<path class="st27" d="M96.9,106.8l4.8,0.9l1.7,8.1l9.4,3.2c0,0,3-6.3,3.8-7s2.7-1.1,3.2-2.4s-1.3-9.9-1.7-11.3
					c-0.2-0.6,2.4-4.4,2.6-5.3c1.2,0.3,2.4,0.3,3.5-0.1c0,0-2.2-8.3-3.3-8.3s-3.1,2.2-4.1,2.5c-1.1,0.3-2.3,0.4-3.5,0.3
					c-1-0.6-1.7-1.5-2-2.6c0,0,0.1-0.2-0.7,0s-3,4.1-3,5.5c0.3,2.4,0.8,4.8,1.4,7.2c0,0-0.8,3.3-1.5,4.1S96.9,106.8,96.9,106.8z"/>
				<path class="st15" d="M107.6,91.2c0,0-0.2,5.6-0.8,6.2s-5.7,1.9-7.6,2.2s-0.4,2.5,0.7,2.5s1.1-2,1.4-2.1s6.2,0.4,7,0
					s0.6-2.5,0.6-2.5L107.6,91.2z"/>
				<path class="st15" d="M109.9,106.7c1.1-0.1,11.5-4,12.1-4.6s2.2-9.2,2.2-9.2c-1.1,0.3-2.3,0.4-3.5,0.1c0,0-0.9,6-1.5,6.6
					c-2.4,1.5-4.9,2.8-7.4,4c-1.1,0.2-2.3,0.4-3.4,0.5c-0.3,0-1.9,0.3-2.1,1S108.7,106.8,109.9,106.7z"/>
				<path class="st28" d="M114.3,83.4c0,0-4.4-2-4.8-2.6c-0.4-1.5-0.6-3.1-0.5-4.7c0.2-0.9,2.3-6.3,3.9-6.8s8.3,0.6,9.1,1.7
					s0.6,3.6,0.3,4.5s-1.9,5.2-1.9,5.5c-0.3,0.7-0.7,1.3-1.3,1.8l-2.4,1.8c0.2-1.5,0.4-3,0.5-4.5c-0.1-1.1-0.3-2.1-0.8-3.1
					c-0.5-0.8-4.1-3.1-4.7-2.6s-0.7,4.7-0.7,5.1c0,0.6,0.2,1.2,0.6,1.7C111.9,81.6,114.3,83.4,114.3,83.4z"/>
			</g>
			<g>
				<polygon class="st3" points="55.1,156.6 120.4,118.9 79.2,94.6 13.7,132.7 				"/>
				<polygon class="st2" points="55.1,156.6 55.1,161 120.4,122.6 120.4,118.9 				"/>
				<polygon class="st1" points="55.1,161 55.1,156.6 13.7,132.7 13.7,136.6 				"/>
				<polygon class="st2" points="58,159.3 58,194.5 55.1,196.2 55.1,161 				"/>
				<polygon class="st1" points="52.9,159.7 55.1,161 55.1,196.2 52.9,194.8 				"/>
				<polygon class="st29" points="20.7,140.8 20.7,172.5 17.7,174.2 17.7,138.9 				"/>
				<polygon class="st1" points="15.5,137.6 17.7,138.9 17.7,174.2 15.5,172.8 				"/>
				<polygon class="st2" points="117.4,124.4 117.4,159.7 114.4,161.4 114.4,126.1 				"/>
				<polygon class="st1" points="112.2,127.4 114.4,126.1 114.4,161.4 112.2,160 				"/>
			</g>
			<g>
				<polygon class="st7" points="130.8,96.5 130.8,92.8 128,91.1 128,95 				"/>
				<polygon class="st8" points="130.8,96.5 130.8,92.8 133.6,91.1 133.6,95 				"/>
				<polygon class="st9" points="128,91.1 130.8,92.8 133.6,91.1 130.8,89.3 				"/>
				<ellipse class="st10" cx="130" cy="95.3" rx="0.2" ry="0.4"/>
				<ellipse class="st10" cx="128.6" cy="94.5" rx="0.2" ry="0.4"/>
				<ellipse class="st10" cx="130" cy="93.3" rx="0.2" ry="0.4"/>
				<ellipse class="st10" cx="128.5" cy="92.6" rx="0.2" ry="0.4"/>
				<ellipse class="st10" cx="129.3" cy="91" rx="0.4" ry="0.2"/>
				<ellipse class="st10" cx="130.1" cy="91.5" rx="0.4" ry="0.2"/>
				<ellipse class="st10" cx="130.9" cy="92" rx="0.4" ry="0.2"/>
				<ellipse class="st10" cx="130.7" cy="90.1" rx="0.4" ry="0.2"/>
				<ellipse class="st10" cx="131.4" cy="90.6" rx="0.4" ry="0.2"/>
				<ellipse class="st10" cx="132.2" cy="91.1" rx="0.4" ry="0.2"/>
				<ellipse class="st10" cx="133" cy="92.5" rx="0.2" ry="0.4"/>
				<ellipse class="st10" cx="131.4" cy="95.3" rx="0.2" ry="0.4"/>
			</g>
			<g>
				<g class="st30">
					<polygon class="st31" points="78.8,109.7 82.5,111.5 86,111.8 88.1,109.7 84,106.8 					"/>
				</g>
				<polygon class="st13" points="78,105.7 81,104 84,105.7 84,109.3 81,111 78,109.3 				"/>
				<polygon class="st10" points="78,105.1 81,103.3 84,105.1 84,108.6 81,110.4 78,108.6 				"/>
				<polygon class="st8" points="78,104.2 81,102.4 84,104.2 84,107.7 81,109.4 78,107.7 				"/>
				<polygon class="st18" points="78,103.3 81,101.6 84,103.3 84,106.9 81,108.6 78,106.9 				"/>
				<g>
					<polygon class="st32" points="28.2,126.1 65.8,147.8 102.2,126.8 65.2,104.5 					"/>
					<polygon class="st13" points="30.6,126.1 65.8,146.4 99.8,126.7 65.2,105.9 					"/>
					<polygon class="st10" points="67,128.6 70,126.9 73,128.6 73,132.2 70,133.9 67,132.2 					"/>
					<polygon class="st10" points="66.7,116.6 69.7,114.9 72.7,116.6 72.7,120.2 69.7,121.9 66.7,120.2 					"/>
					<polygon class="st10" points="70.2,122.8 73.2,121 76.2,122.8 76.2,126.3 73.2,128 70.2,126.3 					"/>
					<polygon class="st8" points="63.5,122.8 66.4,121 69.4,122.8 69.4,126.3 66.4,128 63.5,126.3 					"/>
					<polygon class="st8" points="56.6,123 59.6,121.2 62.6,123 62.6,126.5 59.6,128.2 56.6,126.5 					"/>
					<polygon class="st8" points="59.8,117 62.8,115.3 65.8,117 65.8,120.6 62.8,122.3 59.8,120.6 					"/>
					<polygon class="st18" points="77,122.8 80,121 83,122.8 83,126.3 80,128 77,126.3 					"/>
					<polygon class="st18" points="73.6,128.6 76.6,126.9 79.6,128.6 79.6,132.2 76.6,133.9 73.6,132.2 					"/>
					<polygon class="st10" points="63.5,134.2 66.4,132.5 69.4,134.2 69.4,137.8 66.4,139.5 63.5,137.8 					"/>
					<g class="st30">
						<polygon class="st31" points="58.6,125.6 67,128.7 60.9,124 						"/>
					</g>
					<polygon class="st9" points="57.6,125 58.7,119.4 57.8,117.8 59.3,116.7 60.8,118.2 59.8,119.4 61.2,125.1 59.2,126.1 					"/>
					<polygon class="st33" points="54.3,130.8 55.5,125.2 54.5,123.6 56,122.5 57.5,123.9 56.5,125.2 58,130.9 56,131.9 					"/>
					<polygon class="st34" points="78.1,125.5 79.3,119.9 78.3,118.3 79.8,117.2 81.3,118.7 80.3,119.9 81.8,125.6 79.8,126.6 					
						"/>
					<g>
						<polygon class="st7" points="47.5,129.5 47.5,125.9 44.7,124.1 44.7,128 						"/>
						<polygon class="st8" points="47.5,129.5 47.5,125.9 50.3,124.1 50.3,128 						"/>
						<polygon class="st9" points="44.7,124.1 47.5,125.9 50.3,124.1 47.5,122.3 						"/>
						<ellipse class="st10" cx="48.9" cy="127" rx="0.2" ry="0.4"/>
						<ellipse class="st10" cx="46.8" cy="128.3" rx="0.2" ry="0.4"/>
						<ellipse class="st10" cx="46" cy="127" rx="0.2" ry="0.4"/>
						<ellipse class="st10" cx="45.3" cy="125.6" rx="0.2" ry="0.4"/>
						<ellipse class="st10" cx="47.5" cy="124" rx="0.4" ry="0.2"/>
						<ellipse class="st10" cx="49.8" cy="125.4" rx="0.2" ry="0.4"/>
						<ellipse class="st10" cx="48.1" cy="126.2" rx="0.2" ry="0.4"/>
						<ellipse class="st10" cx="48.1" cy="128.4" rx="0.2" ry="0.4"/>
						<ellipse class="st10" cx="49.8" cy="127.6" rx="0.2" ry="0.4"/>
					</g>
					<g>
						<polygon class="st7" points="50.6,122.9 50.6,119.2 47.8,117.4 47.8,121.3 						"/>
						<polygon class="st8" points="50.6,122.9 50.6,119.2 53.4,117.4 53.4,121.3 						"/>
						<polygon class="st9" points="47.8,117.4 50.6,119.2 53.4,117.4 50.6,115.6 						"/>
						<ellipse class="st10" cx="49.8" cy="121.7" rx="0.2" ry="0.4"/>
						<ellipse class="st10" cx="48.4" cy="120.9" rx="0.2" ry="0.4"/>
						<ellipse class="st10" cx="49.8" cy="119.7" rx="0.2" ry="0.4"/>
						<ellipse class="st10" cx="48.3" cy="118.9" rx="0.2" ry="0.4"/>
						<ellipse class="st10" cx="49.1" cy="117.3" rx="0.4" ry="0.2"/>
						<ellipse class="st10" cx="49.9" cy="117.8" rx="0.4" ry="0.2"/>
						<ellipse class="st10" cx="50.6" cy="118.3" rx="0.4" ry="0.2"/>
						<ellipse class="st10" cx="50.5" cy="116.4" rx="0.4" ry="0.2"/>
						<ellipse class="st10" cx="51.2" cy="116.9" rx="0.4" ry="0.2"/>
						<ellipse class="st10" cx="52" cy="117.4" rx="0.4" ry="0.2"/>
						<ellipse class="st10" cx="52.8" cy="118.8" rx="0.2" ry="0.4"/>
						<ellipse class="st10" cx="51.2" cy="121.6" rx="0.2" ry="0.4"/>
					</g>
				</g>
				<polygon class="st13" points="84.5,112.8 90.1,116.3 92.9,114.5 87.3,111 				"/>
				<polygon class="st18" points="88.7,110.1 94.3,113.7 97.1,111.9 91.5,108.3 				"/>
				<polygon class="st8" points="91.3,117.6 97,121.2 99.8,119.4 94.1,115.9 				"/>
				<polygon class="st35" points="97,116.3 103.1,118.8 105.6,116.6 99.4,114 				"/>
				<polygon class="st18" points="30.6,137.4 36.7,140 39.2,137.8 33.1,135.2 				"/>
				<polygon class="st13" points="33.8,133.2 39.1,137.1 42.1,135.5 36.7,131.6 				"/>
			</g>
			<g>
				<polygon class="st36" points="102.5,80.8 104.8,79.7 104.8,71.7 102.5,72.5 				"/>
				<polygon class="st16" points="110.9,42 110.9,46.6 125.7,55.4 125.7,50.6 				"/>
				<polygon class="st35" points="110.9,42 117.4,38.5 132.3,47.2 125.7,50.6 				"/>
				<polygon class="st18" points="125.7,55.4 125.7,50.6 132.3,47.2 132.3,51.6 				"/>
				<polygon class="st16" points="82.1,86.1 82.1,90.8 96.9,99.5 96.9,94.7 				"/>
				<polygon class="st35" points="82.1,86.1 88.6,82.7 103.5,91.3 96.9,94.7 				"/>
				<polygon class="st18" points="96.9,99.5 96.9,94.7 103.5,91.3 103.5,95.7 				"/>
				<polygon class="st16" points="85.5,29.4 85.5,31.6 100.3,40.4 100.3,38 				"/>
				<polygon class="st37" points="85.5,29.4 94.3,24.7 109.3,33.4 100.3,38 				"/>
				<polygon class="st18" points="100.3,40.4 100.3,38 109.3,33.4 111.2,34.5 				"/>
				<polygon class="st36" points="85.5,27 85.5,29.2 100.3,38 100.3,35.6 				"/>
				<polygon class="st10" points="85.5,27 92.4,23.6 107.4,32.3 100.3,35.6 				"/>
				<polygon class="st36" points="100.3,38 100.3,35.6 107.4,32.3 109.3,33.4 				"/>
				<polygon class="st38" points="99.5,35.1 99.5,30.8 92.8,26.8 92.8,31.2 				"/>
				<polygon class="st38" points="99.5,35.1 106.6,31.9 102.7,29.6 99.5,30.8 				"/>
				<polygon class="st13" points="92.8,26.8 95.7,25.5 102.7,29.6 99.5,30.8 				"/>
				<polygon class="st18" points="107.1,60 107.1,62.2 121.9,71 121.9,68.6 				"/>
				<polygon class="st18" points="107.1,60 114,56.6 129,65.3 121.9,68.6 				"/>
				<polygon class="st18" points="121.9,71 121.9,68.6 129,65.3 130.9,66.4 				"/>
				<polygon class="st11" points="118.7,66.7 118.7,62.4 112,58.3 112,62.8 				"/>
				<polygon class="st12" points="118.7,66.7 125.9,63.4 122,61.2 118.7,62.4 				"/>
				<polygon class="st39" points="112,58.3 114.9,57.1 122,61.2 118.7,62.4 				"/>
				<polygon class="st11" points="94.1,93.2 94.1,88.9 87.3,84.8 87.3,89.3 				"/>
				<polygon class="st12" points="94.1,93.2 101.2,89.9 97.3,87.7 94.1,88.9 				"/>
				<polygon class="st39" points="87.3,84.8 90.2,83.6 97.3,87.7 94.1,88.9 				"/>
				<polygon class="st40" points="90.7,53.5 90.7,49.2 84,45.1 84,49.6 				"/>
				<polygon class="st36" points="90.7,53.5 100.1,48.4 96.2,46.2 90.7,49.2 				"/>
				<polygon class="st10" points="84,45.1 89.1,42.1 96.2,46.2 90.7,49.2 				"/>
				<polygon class="st7" points="90,75 90,72.1 83.2,68 83.2,71.1 				"/>
				<polygon class="st8" points="90,75 100.6,69.2 98.2,67.9 90,72.1 				"/>
				<polygon class="st9" points="83.2,68.1 90.9,63.7 98.2,67.9 90,72.1 				"/>
				<polygon class="st13" points="103.1,57.6 103.1,53.3 96.4,49.3 96.4,53.7 				"/>
				<polygon class="st13" points="103.1,57.6 110.2,54.4 106.3,52.1 103.1,53.3 				"/>
				<polygon class="st13" points="96.4,49.3 99.3,48 106.3,52.1 103.1,53.3 				"/>
				<polygon class="st40" points="102.5,80.8 102.5,72.5 95.8,68.4 95.8,76.9 				"/>
				<polygon class="st10" points="85.9,92.6 85.9,88.9 82.8,87 82.8,90.9 				"/>
				<polygon class="st10" points="93.8,92.7 93.8,89 90.7,87.1 90.7,90.9 				"/>
				<polygon class="st18" points="101.9,79.7 101.9,73 96.5,69.7 96.5,76.5 				"/>
				<polygon class="st13" points="89,88.1 89,86.6 87.8,85.8 87.8,87.4 				"/>
				<polygon class="st13" points="90.3,90.6 90.3,89.1 89,88.3 89,89.9 				"/>
				<polygon class="st13" points="90.5,88.8 90.5,87.3 89.2,86.5 89.2,88.1 				"/>
				<polygon class="st10" points="88.8,93.6 88.8,92.1 87.5,91.3 87.5,92.9 				"/>
				<polygon class="st10" points="96.3,98.6 96.3,97.1 95.1,96.3 95.1,97.9 				"/>
				<polygon class="st40" points="96.3,96.5 96.3,95 95.1,94.3 95.1,95.8 				"/>
				<polygon class="st10" points="97.3,96.6 97.3,95 98.5,94.3 98.5,95.8 				"/>
				<polygon class="st13" points="103.1,75.2 103.1,73.7 104.3,72.9 104.3,74.5 				"/>
				<polygon class="st10" points="102.1,96.3 102.1,94.8 103.3,94.1 103.3,95.6 				"/>
				<polygon class="st18" points="102.9,80.2 102.9,78.7 104.1,78 104.1,79.5 				"/>
				<polygon class="st10" points="100.9,56.1 100.9,52.4 97.8,50.5 97.8,54.4 				"/>
				<polygon class="st41" points="114.1,47.2 114.1,45.1 112.4,44.1 112.4,46.2 				"/>
				<polygon class="st19" points="124.1,52.9 124.1,50.9 122.4,49.9 122.4,52 				"/>
				<polygon class="st10" points="95.8,68.4 97.8,67.6 104.8,71.7 102.5,72.5 				"/>
				<polygon class="st36" points="84.7,68 90,71 92.6,69.5 87.7,66.4 				"/>
				<line class="st42" x1="89.5" y1="91.7" x2="94.3" y2="94.6"/>
				<polygon class="st35" points="89.3,91.1 89.3,92 94.5,95.1 94.5,94.1 				"/>
				<polygon class="st40" points="89.3,92.6 89.3,93.5 94.5,96.6 94.5,95.6 				"/>
				<polygon class="st40" points="97.1,71.3 97.1,72.1 101.2,74.5 101.2,73.7 				"/>
				<polygon class="st40" points="84.3,69.8 84.3,70.6 88.5,73 88.5,72.3 				"/>
				<polygon class="st40" points="113.3,61 113.3,61.7 117.4,64.2 117.4,63.4 				"/>
				<polygon class="st40" points="108.2,61.6 108.2,62.3 112.3,64.8 112.3,64 				"/>
				<polygon class="st40" points="112.3,64 112.3,64.8 116.5,67.2 116.5,66.4 				"/>
				<polygon class="st40" points="113.9,67 113.9,67.7 118,70.2 118,69.4 				"/>
				<polygon class="st43" points="85.3,47.7 85.3,48.4 89.4,50.9 89.4,50.1 				"/>
				<polygon class="st10" points="115.4,47.1 115.4,47.8 119.5,50.3 119.5,49.5 				"/>
				<polygon class="st10" points="86.2,30.7 86.2,31.4 90.4,33.9 90.4,33.1 				"/>
				<polygon class="st16" points="90.7,30.8 90.7,31.5 94.9,34 94.9,33.2 				"/>
				<polygon class="st18" points="93.5,28.5 93.5,29.2 97.7,31.7 97.7,30.9 				"/>
				<polygon class="st40" points="93.3,30.1 93.3,30.8 97.5,33.3 97.5,32.5 				"/>
				<polygon class="st10" points="104.2,30.9 104.2,31.6 100.1,34.1 100.1,33.3 				"/>
				<polygon class="st10" points="105.5,36 105.5,36.8 101.4,39.2 101.4,38.4 				"/>
				<polygon class="st35" points="95.6,48.2 95.6,49 91.5,51.5 91.5,50.7 				"/>
			</g>
			<g>
				<polygon class="st3" points="22.5,179.1 2.4,167.7 22.3,158 24.1,158 40.9,167.5 40.9,168.5 				"/>
				<polygon class="st3" points="22.5,180.6 22.5,179.1 2.4,167.7 2.4,169 				"/>
				<polygon class="st3" points="22.5,179.1 40.9,168.5 40.9,170.4 22.5,180.6 				"/>
				<g>
					<path class="st44" d="M42.5,187c-0.1,0.5-0.1,1.1,0,1.6c0.2,0.5,0.4,1.7,0.8,1.7s6.7-3.5,7.2-4.1s0.9-2,0.6-2.3
						c-0.8-0.2-1.6-0.2-2.4,0C46.5,184.8,44.5,185.8,42.5,187z"/>
					<path class="st18" d="M30.4,164.3l-1.3-5c0,0,1.5-5.6,4.2-5.6s3.3,10.1,3.3,10.1l-4.9,3.4l-1-2.6L30.4,164.3z"/>
					<path class="st16" d="M31.2,172.4c0,0,6.9-5.9,8.2-5.4s3.1,20.8,3.1,20.8c3.4-0.8,4.6-1.6,4.3-2.5c0,0,1.2-24.9-2.1-25.6
						s-15,4.5-15,4.5L31.2,172.4z"/>
					<path class="st45" d="M41.7,161.6c1.2,0.3,2.5,0.6,3.8,0.8c0.7,0.1,1.5,0,2.1-0.4c0.4-0.4,0-1.9-0.6-2.3
						c-1.2-0.4-2.4-0.6-3.6-0.7l-1.2,0.7L41.7,161.6z"/>
					<path class="st33" d="M31.7,172.6c0,0-7.2,1-9.7,0s-7.1-4.4-7.5-5.4s-1.9-24.6-1.1-25.2c1.5-0.9,3-1.7,4.6-2.4l5.5,0.8
						c0,0,6.8,2,7.5,2.9s1.1,13.2,2.1,13.7s10.8,1.5,10.8,1.5l-1,3.8H30.4L31.7,172.6z"/>
					<polygon class="st46" points="13.7,141.4 12,151.6 13.7,159.8 					"/>
					<path class="st45" d="M23.3,139.5l0.4-0.9c0,0,0.1,0.1,1-0.3s1.3-5.8,1.3-5.8l-1.4-1.9c-0.8-0.6-1.3-0.2-1.3,1.8l-1.1,6.1h-3.8
						c0.6,1.2,0.6,2.5,0,3.7c1.5,0.9,3.4,0.9,4.9,0C23,141.3,23,140.4,23.3,139.5z"/>
					<path class="st21" d="M18.4,138.7c-1-0.9-3.6-6.2-3.9-6.9s-0.6-4.2,0-4.9s4.6-3.4,6.3-3.4s5.3,2.1,5.8,3s0.4,4.9,0,5.4
						s-0.8,2.7-1.2,1.4c-0.3-0.9-0.9-1.6-1.6-2.2c0,0-0.2,3.4-0.4,4.5s-0.3,2.6-1,3.1S19.4,139.6,18.4,138.7z"/>
				</g>
				<path class="st1" d="M0.9,144.2v50.5l2.4,1.2l-0.1-21.2l14.7,7.9l0.2,22l2.2,1.4l0.1-50.8L0.9,144.2z M17.7,179.9l-14.5-8.3
					v-6.4l14.5,8.4V179.9z M17.7,171.4l-14.5-8.3v-6.4l14.5,8.4V171.4z M17.7,162.9l-14.5-8.3v-6.4l14.5,8.4V162.9z"/>
				<polygon class="st2" points="20.2,206.1 22.8,204.7 22.8,182.6 37.5,174.3 37.5,196.2 39.9,194.9 39.9,170.9 22.5,180.6 
					22.5,154.2 20.3,155.3 				"/>
				<polygon class="st3" points="0.9,144.2 3.1,143 22.5,154.2 20.3,155.3 				"/>
				<polygon class="st3" points="17.6,177 5.8,170.1 3.2,171.6 17.7,179.9 				"/>
				<polygon class="st3" points="17.6,168.5 5.8,161.6 3.2,163.1 17.7,171.4 				"/>
				<polygon class="st3" points="17.6,160 5.8,153 3.2,154.6 17.7,162.9 				"/>
				<polygon class="st2" points="5.8,170.1 5.8,166.7 3.2,165.2 3.2,171.6 				"/>
				<polygon class="st2" points="5.8,161.5 5.8,158.1 3.2,156.6 3.2,163 				"/>
				<polygon class="st2" points="5.8,153 5.8,149.7 3.2,148.1 3.2,154.6 				"/>
				<polygon class="st2" points="3.3,195.9 5.8,194.6 5.8,176.1 3.2,174.7 				"/>
				<polygon class="st1" points="37.5,196.2 34.9,194.7 34.9,175.8 37.5,174.3 				"/>
			</g>
		</g>
	</g>
</g>
<polygon class="st0" points="56,131.9 65.2,135 57.6,129.6 58,130.9 "/>
<polygon class="st0" points="59.2,126.1 68.1,128.9 60.8,123.5 61.2,125.1 "/>
<polygon class="st0" points="79.8,126.6 88.6,129.6 81.4,124.2 81.8,125.6 "/>
</svg>
