<svg xmlns="http://www.w3.org/2000/svg" viewBox="0 0 153.2 206.1">
  <defs>
    <style>
      .cls-1 {
        fill: #825537;
      }

      .cls-2 {
        fill: #704626;
      }

      .cls-3 {
        fill: #bb9469;
      }

      .cls-4 {
        fill: #cbac95;
      }

      .cls-5 {
        fill: #191a0a;
      }

      .cls-6 {
        fill: #c69c73;
      }

      .cls-7 {
        fill: #4d4f54;
      }

      .cls-8 {
        fill: #3a3b3f;
      }

      .cls-9 {
        fill: #696b70;
      }

      .cls-10 {
        fill: #efeded;
      }

      .cls-11 {
        fill: #736357;
      }

      .cls-12 {
        fill: #534741;
      }

      .cls-13 {
        fill: #ea821b;
      }

      .cls-14 {
        fill: #f6e4b6;
      }

      .cls-15 {
        fill: #fce7ba;
      }

      .cls-16 {
        fill: #1d4e89;
      }

      .cls-17 {
        fill: #e27f1b;
      }

      .cls-18 {
        fill: #1b4275;
      }

      .cls-19 {
        fill: #ff931e;
      }

      .cls-20 {
        fill: #ef861d;
      }

      .cls-21 {
        fill: #3f2d23;
      }

      .cls-22 {
        fill: #584f54;
      }

      .cls-23 {
        fill: #d58125;
      }

      .cls-24 {
        fill: #2a1b1a;
      }

      .cls-25 {
        fill: #cea080;
      }

      .cls-26 {
        fill: #edbea1;
      }

      .cls-27 {
        fill: #1099ac;
      }

      .cls-28 {
        fill: #633a12;
      }

      .cls-29 {
        fill: #d3c0aa;
      }

      .cls-30 {
        opacity: 0.2;
      }

      .cls-31 {
        opacity: 0.1;
      }

      .cls-32 {
        fill: #434a55;
      }

      .cls-33 {
        fill: #fff9fd;
      }

      .cls-34 {
        fill: #3fa9f5;
      }

      .cls-35 {
        fill: #255f99;
      }

      .cls-36 {
        fill: #ddd;
      }

      .cls-37 {
        fill: #00ccdb;
      }

      .cls-38 {
        fill: #d8741a;
      }

      .cls-39 {
        fill: #998675;
      }

      .cls-40 {
        fill: #e2e0e0;
      }

      .cls-41 {
        fill: #00b2ca;
      }

      .cls-42 {
        fill: none;
      }

      .cls-43 {
        fill: #af4a4a;
      }

      .cls-44 {
        fill: #fff;
      }

      .cls-45 {
        fill: #fbd2c3;
      }

      .cls-46 {
        fill: #b8b9bd;
      }
    </style>
  </defs>
  <title>boardРесурс 9</title>
  <g id="Слой_2" data-name="Слой 2">
    <g id="Material">
      <g id="board">
        <g>
          <polygon class="cls-1" points="51 139.2 48.4 137.7 48.4 114.5 51 115.9 51 139.2"/>
          <polyline class="cls-2" points="33.8 149.1 33.8 125 53.5 113.9 53.5 137.9 51 139.2 51 117.3 36.4 125.6 36.3 147.7 33.8 149.1"/>
          <polygon class="cls-1" points="33.8 149.1 31.2 147.5 31.2 124.3 33.5 125.6 33.8 125.6 33.8 149.1"/>
          <path class="cls-2" d="M15,87.6l.1,50.8,2.2-1.4.2-22,14.7-7.9,2.3-1V76.6Zm2.6,18.3,14.5-8.4v6.4l-14.5,8.3Zm0-8.5L32.1,89v6.4l-14.5,8.3Zm0-8.6,14.5-8.4v6.4L17.6,95.1Z"/>
          <polygon class="cls-3" points="17.7 109.3 29.5 102.3 32.1 103.9 17.6 112.2 17.7 109.3"/>
          <polygon class="cls-3" points="35.5 125.6 35.4 123.8 53.5 113.6 53.5 115.2 35.5 125.6"/>
          <polygon class="cls-3" points="33.5 123.7 35.4 123.8 53.5 113.6 53.5 112.7 34.4 102.7 15 113.5 33.5 123.7"/>
          <polygon class="cls-3" points="33.5 123.7 15 113.5 15 115.4 33.5 125.6 33.5 123.7"/>
          <polygon class="cls-3" points="34.4 76.5 32.2 75.2 12.8 86.5 15 87.6 34.4 76.5"/>
          <polygon class="cls-3" points="17.7 100.8 29.5 93.8 32.1 95.3 17.6 103.6 17.7 100.8"/>
          <polygon class="cls-3" points="17.7 92.2 29.5 85.3 32.1 86.8 17.6 95.1 17.7 92.2"/>
          <polygon class="cls-1" points="29.5 102.3 29.5 99 32.1 97.4 32.1 103.9 29.5 102.3"/>
          <polygon class="cls-1" points="29.5 93.7 29.5 90.3 32.1 88.8 32.1 95.2 29.5 93.7"/>
          <polygon class="cls-1" points="29.5 85.3 29.5 81.9 32.1 80.4 32.1 86.8 29.5 85.3"/>
          <polygon class="cls-1" points="15.1 138.3 12.8 137 12.8 86.5 15 87.6 15.1 138.3"/>
          <polygon class="cls-4" points="33.5 125.6 35.5 125.6 35.4 123.8 33.5 123.7 33.5 125.6"/>
          <polygon class="cls-1" points="15 115.4 31.2 124.3 31.2 126.4 15 117.3 15 115.4"/>
        </g>
        <g>
          <g>
            <path class="cls-5" d="M126.6,121.6v2.3a2.18,2.18,0,0,0,1.9.7c1.3-.1,1.4-.5,1.4-.5v-2.5Z"/>
            <path class="cls-5" d="M79.8,94.6v2.3a2.18,2.18,0,0,0,1.9.7c1.3-.1,1.4-.5,1.4-.5V94.6Z"/>
            <polygon class="cls-3" points="74 70.9 90.6 61.3 153.2 98.4 137.1 107.8 74 70.9"/>
            <polygon class="cls-3" points="74 91.6 74 70.9 137.1 107.8 137.1 128.2 74 91.6"/>
            <polygon class="cls-1" points="77.6 89.2 77.6 76.7 88.6 83.2 77.6 89.2"/>
            <polygon class="cls-6" points="133.4 122.3 133.4 109.2 129.1 106.7 105.1 92.8 88.6 83.2 77.6 89.2 133.4 122.3"/>
          </g>
          <g>
            <polygon class="cls-3" points="74 50.5 90.6 40.9 153.2 78 137.1 87.4 74 50.5"/>
            <polygon class="cls-3" points="74 71.2 74 50.5 137.1 87.4 137.1 107.8 74 71.2"/>
            <polygon class="cls-1" points="77.6 68.8 77.6 56.3 88.6 62.8 77.6 68.8"/>
            <polygon class="cls-6" points="133.4 101.9 133.4 88.8 129.1 86.3 105.1 72.4 88.6 62.8 77.6 68.8 133.4 101.9"/>
          </g>
          <g>
            <polygon class="cls-3" points="74 30.1 90.6 20.5 153.2 57.5 137.1 66.9 74 30.1"/>
            <polygon class="cls-3" points="74 50.7 74 30.1 137.1 66.9 137.1 87.4 74 50.7"/>
            <polygon class="cls-1" points="77.6 48.4 77.6 35.9 88.6 42.4 77.6 48.4"/>
            <polygon class="cls-6" points="133.4 81.4 133.4 68.4 129.1 65.8 105.1 52 88.6 42.4 77.6 48.4 133.4 81.4"/>
          </g>
          <g>
            <polygon class="cls-6" points="74 9.6 90.6 0 153.2 37.1 137.1 46.5 74 9.6"/>
            <polygon class="cls-3" points="74 30.3 74 9.6 137.1 46.5 137.1 66.9 74 30.3"/>
            <polygon class="cls-1" points="77.6 27.9 77.6 15.4 88.6 21.9 77.6 27.9"/>
            <polygon class="cls-6" points="133.4 61 133.4 47.9 129.1 45.4 105.1 31.5 88.6 21.9 77.6 27.9 133.4 61"/>
            <polygon class="cls-1" points="137.1 46.5 137.1 66.9 137.1 87.4 137.1 107.8 137.1 128.2 153.2 118.8 153.2 98.4 153.2 78 153.2 57.5 153.2 37.1 137.1 46.5"/>
          </g>
        </g>
        <g>
          <polygon class="cls-7" points="124.4 92.6 124.4 89 121.6 87.2 121.6 91.1 124.4 92.6"/>
          <polygon class="cls-8" points="124.4 92.6 124.4 89 127.2 87.2 127.2 91.1 124.4 92.6"/>
          <polygon class="cls-9" points="121.6 87.2 124.4 89 127.2 87.2 124.4 85.4 121.6 87.2"/>
          <ellipse class="cls-10" cx="123.7" cy="91.4" rx="0.2" ry="0.4"/>
          <ellipse class="cls-10" cx="122.2" cy="90.6" rx="0.2" ry="0.4"/>
          <ellipse class="cls-10" cx="123.7" cy="89.5" rx="0.2" ry="0.4"/>
          <ellipse class="cls-10" cx="122.2" cy="88.7" rx="0.2" ry="0.4"/>
          <ellipse class="cls-10" cx="123" cy="87.1" rx="0.4" ry="0.2"/>
          <ellipse class="cls-10" cx="123.7" cy="87.6" rx="0.4" ry="0.2"/>
          <ellipse class="cls-10" cx="124.5" cy="88.1" rx="0.4" ry="0.2"/>
          <ellipse class="cls-10" cx="124.3" cy="86.2" rx="0.4" ry="0.2"/>
          <ellipse class="cls-10" cx="125.1" cy="86.7" rx="0.4" ry="0.2"/>
          <ellipse class="cls-10" cx="125.8" cy="87.2" rx="0.4" ry="0.2"/>
          <ellipse class="cls-10" cx="126.6" cy="88.6" rx="0.2" ry="0.4"/>
          <ellipse class="cls-10" cx="125.1" cy="91.4" rx="0.2" ry="0.4"/>
        </g>
        <g>
          <polygon class="cls-11" points="128.6 113.8 128.6 109.5 121.9 105.4 121.9 109.9 128.6 113.8"/>
          <polygon class="cls-12" points="128.6 113.8 133.4 111.6 133.4 109.2 131.8 108.3 128.6 109.5 128.6 113.8"/>
          <polygon class="cls-13" points="121.9 105.4 124.9 104.2 131.8 108.3 128.6 109.5 121.9 105.4"/>
        </g>
        <g>
          <polygon class="cls-2" points="88.3 136.6 90.9 135 90.9 111.8 88.3 113.3 88.3 136.6"/>
          <polyline class="cls-1" points="105.6 146.4 105.6 122.4 85.9 111.3 85.9 135.2 88.3 136.6 88.3 114.6 103 122.9 103 145.1 105.6 146.4"/>
          <polygon class="cls-2" points="105.6 146.4 108.1 144.9 108.1 121.7 105.8 123 105.6 123 105.6 146.4"/>
          <path class="cls-1" d="M104.9,73.8v29.5l2.3,1,14.7,7.9.2,22,2.2,1.4.1-50.8Zm16.8,35.7-14.5-8.3V94.8l14.5,8.4Zm0-8.5-14.5-8.3V86.3l14.5,8.4Zm0-8.5-14.5-8.3V77.8l14.5,8.4Z"/>
          <polygon class="cls-3" points="121.7 106.6 109.9 99.7 107.2 101.2 121.7 109.5 121.7 106.6"/>
          <polygon class="cls-3" points="103.9 123 103.9 121.1 85.9 111 85.9 112.5 103.9 123"/>
          <polygon class="cls-3" points="105.8 121.1 103.9 121.1 85.9 111 85.9 110 104.9 100 124.3 110.8 105.8 121.1"/>
          <polygon class="cls-3" points="105.8 121.1 124.3 110.8 124.3 112.7 105.8 123 105.8 121.1"/>
          <polygon class="cls-3" points="104.9 73.8 107.2 72.6 126.5 83.8 124.4 84.9 104.9 73.8"/>
          <polygon class="cls-3" points="121.7 98.1 109.9 91.2 107.2 92.7 121.7 101 121.7 98.1"/>
          <polygon class="cls-3" points="121.7 89.6 109.9 82.6 107.2 84.2 121.7 92.5 121.7 89.6"/>
          <polygon class="cls-2" points="109.9 99.7 109.9 96.3 107.2 94.8 107.2 101.2 109.9 99.7"/>
          <polygon class="cls-2" points="109.9 91.1 109.9 87.7 107.2 86.2 107.2 92.6 109.9 91.1"/>
          <polygon class="cls-2" points="109.9 82.6 109.9 79.3 107.2 77.7 107.2 84.2 109.9 82.6"/>
          <polygon class="cls-2" points="124.3 135.7 126.5 134.3 126.5 83.8 124.4 84.9 124.3 135.7"/>
          <polygon class="cls-4" points="105.8 123 103.9 123 103.9 121.1 105.8 121.1 105.8 123"/>
          <polygon class="cls-2" points="124.3 112.7 108.1 121.7 108.1 123.7 124.3 114.6 124.3 112.7"/>
        </g>
        <g>
          <path class="cls-14" d="M34.7,87.3c-.89-.62-1.39-1.35-1.1-2.3a2,2,0,0,0,1.6,0,14.35,14.35,0,0,0,2.5-4.6,38,38,0,0,0,.4-3.9L33.6,76l-2.3,2.5L30,77.7v2.4l-1.4,5,4.17,3.8C32.92,89.15,33.75,87.9,34.7,87.3Z"/>
          <path class="cls-15" d="M43.92,101.6c.48.11,3.64,1.23,4.49,1.08s3.29-1.45,3.08-2.15-4.09-2.09-4.43-2.18a16,16,0,0,0-1.79-.4,8.48,8.48,0,0,0-2.27.39C43.47,99.58,43.44,101.49,43.92,101.6Z"/>
          <path class="cls-16" d="M40.9,138.5,42,118.9l-7.4-5.3L31.3,109l-8.4,3c2.15,3.47,7,7.5,12.8,11.7l-.1,14.8Z"/>
          <path class="cls-17" d="M35.66,102.07a78.67,78.67,0,0,1,8.84-.27,8.2,8.2,0,0,0,.6-4,26.76,26.76,0,0,1-8.5,0Z"/>
          <path class="cls-18" d="M39.3,108.3l8.3,4.7,6.1,19.9L49.6,135l-6.4-16.1a90.39,90.39,0,0,0-10.4-5.3l-1.1-3.7S38.06,107.6,39.3,108.3Z"/>
          <path class="cls-19" d="M38.9,107.7c.19-.73-2.51-3.75-2.5-5.1s1.14-8,1.2-9.5-.59-8.8-1.2-8.8-3.6,4.2-3.6,4.2S29,84.3,28,84.3s-6.7,4.45-7.1,5,1.29,22.41,1.6,22.9a3.17,3.17,0,0,0,2.1,1.8c1.34.29,7.31-.84,9.2-1.7S38.71,108.43,38.9,107.7Z"/>
          <path class="cls-20" d="M25.7,90.5c-.42-.74-2.59-1.6-3.1-1.6a4.21,4.21,0,0,0-2.3.8c-.49.5.76,17.61,1.3,18.6s12.2,5.3,12.2,5.3l1-3.9s-7.56-4.1-8.6-5.1S26.12,91.24,25.7,90.5Z"/>
          <path class="cls-21" d="M38.1,77.3a3,3,0,0,0,1-2.4C39,74.23,35,72,33.8,72s-3.68.21-4.6,1-.6,5.6-.6,5.6l.6,4.3a13.5,13.5,0,0,0,1.3-2.2c.13-.52-1.12-2.09-1-2.3s1.32,1.17,1.8,1.1,2.13-2.21,2.5-2.4S37.47,77.69,38.1,77.3Z"/>
          <path class="cls-15" d="M33.8,113.2s2.85,1.5,3.9,1.5,3-1,3-1.5-3.62-3.38-4.6-3.6a4.18,4.18,0,0,0-1.8,0Z"/>
          <polygon class="cls-22" points="35.1 138.6 40.7 143 43.6 143.7 43.2 140.6 40.7 137.9 37.8 137.4 35.1 138.6"/>
          <polygon class="cls-22" points="48.5 135 53.7 135.9 58.1 135 58.1 133.4 54.5 132.6 52.1 132 48.5 133.3 48.5 135"/>
        </g>
        <g>
          <polygon class="cls-19" points="106.2 62.4 106.2 64.6 121 73.4 121 71 106.2 62.4"/>
          <polygon class="cls-23" points="121 73.4 121 71 130 66.4 131.9 67.5 121 73.4"/>
        </g>
        <g>
          <polygon class="cls-24" points="87.7 128.2 85 129.9 85.8 131.8 90.2 130.4 94.1 128.5 94.1 127.4 87.7 128.2"/>
          <polygon class="cls-24" points="93.3 134.7 92.9 139.7 94.6 139.7 99.4 132 98.4 130.9 93.3 134.7"/>
          <polygon class="cls-25" points="87.9 130 94 127.7 97.2 114.8 102.8 115.5 101.9 109.1 93.9 111.6 92.4 122.4 90.5 126.7 87 128.8 87.9 130"/>
          <polygon class="cls-26" points="94.1 137.1 94.1 131.8 94.8 123.9 94.4 110.4 97.3 106.2 103.4 106.8 102.8 111 100 113 99.4 122.2 98.3 129 98.4 132.8 95.1 137.1 94.1 137.1"/>
          <path class="cls-15" d="M111.6,90.3l-1.2-5.5c1.46-.3,2.36-.88,2.2-2l-3.3-3.1,1.5-5.9,6.6,3.7s-1.4,6.6-.8,7.1,3.4,0,3.4,0Z"/>
          <path class="cls-27" d="M96,106.8l4.8.9,1.7,8.1,9.4,3.2s3-6.3,3.8-7,2.7-1.1,3.2-2.4-1.3-9.91-1.7-11.3c-.16-.57,2.43-4.37,2.6-5.3a6.36,6.36,0,0,0,3.5-.1s-2.15-8.25-3.3-8.3-3.06,2.2-4.1,2.5a9,9,0,0,1-3.5.3,4.46,4.46,0,0,1-2-2.6s.1-.24-.7,0-3,4.1-3,5.5a63,63,0,0,0,1.4,7.2s-.75,3.31-1.5,4.1S96,106.8,96,106.8Z"/>
          <path class="cls-15" d="M106.78,91.2s-.18,5.6-.78,6.2-5.7,1.92-7.6,2.2-.4,2.5.7,2.5,1.07-2,1.4-2.1,6.19.45,7,0,.6-2.5.6-2.5Z"/>
          <path class="cls-15" d="M109,106.7c1.14-.1,11.5-4,12.1-4.6s2.2-9.2,2.2-9.2a6.61,6.61,0,0,1-3.5.1s-.93,6-1.5,6.6a70.5,70.5,0,0,1-7.4,4,24.63,24.63,0,0,1-3.4.5c-.3,0-1.89.34-2.1,1S107.86,106.8,109,106.7Z"/>
          <path class="cls-28" d="M113.4,83.4s-4.43-2-4.8-2.6a13.63,13.63,0,0,1-.5-4.7c.15-.9,2.3-6.3,3.9-6.8s8.3.6,9.1,1.7.6,3.63.3,4.5-1.86,5.19-1.9,5.5a4.76,4.76,0,0,1-1.3,1.8l-2.4,1.8a44.66,44.66,0,0,0,.5-4.5,8.39,8.39,0,0,0-.8-3.1c-.54-.75-4.07-3.07-4.7-2.6s-.7,4.67-.7,5.1a3.11,3.11,0,0,0,.6,1.7C111.08,81.64,113.4,83.4,113.4,83.4Z"/>
        </g>
        <g>
          <polygon class="cls-3" points="54.2 156.6 119.5 118.9 78.3 94.6 12.8 132.7 54.2 156.6"/>
          <polygon class="cls-2" points="54.2 156.6 54.2 161 119.5 122.6 119.5 118.9 54.2 156.6"/>
          <polygon class="cls-1" points="54.2 161 54.2 156.6 12.8 132.7 12.8 136.6 54.2 161"/>
          <polygon class="cls-2" points="57.1 159.3 57.1 194.5 54.2 196.2 54.2 161 57.1 159.3"/>
          <polygon class="cls-1" points="52 159.7 54.2 161 54.2 196.2 52 194.8 52 159.7"/>
          <polygon class="cls-29" points="19.8 140.8 19.8 172.5 16.8 174.2 16.8 138.9 19.8 140.8"/>
          <polygon class="cls-1" points="14.6 137.6 16.8 138.9 16.8 174.2 14.6 172.8 14.6 137.6"/>
          <polygon class="cls-2" points="116.5 124.4 116.5 159.7 113.5 161.4 113.5 126.1 116.5 124.4"/>
          <polygon class="cls-1" points="111.3 127.4 113.5 126.1 113.5 161.4 111.3 160 111.3 127.4"/>
        </g>
        <g>
          <polygon class="cls-7" points="129.9 96.5 129.9 92.8 127.1 91.1 127.1 95 129.9 96.5"/>
          <polygon class="cls-8" points="129.9 96.5 129.9 92.8 132.7 91.1 132.7 95 129.9 96.5"/>
          <polygon class="cls-9" points="127.1 91.1 129.9 92.8 132.7 91.1 129.9 89.3 127.1 91.1"/>
          <ellipse class="cls-10" cx="129.1" cy="95.3" rx="0.2" ry="0.4"/>
          <ellipse class="cls-10" cx="127.7" cy="94.5" rx="0.2" ry="0.4"/>
          <ellipse class="cls-10" cx="129.1" cy="93.3" rx="0.2" ry="0.4"/>
          <ellipse class="cls-10" cx="127.6" cy="92.6" rx="0.2" ry="0.4"/>
          <ellipse class="cls-10" cx="128.4" cy="91" rx="0.4" ry="0.2"/>
          <ellipse class="cls-10" cx="129.2" cy="91.5" rx="0.4" ry="0.2"/>
          <ellipse class="cls-10" cx="130" cy="92" rx="0.4" ry="0.2"/>
          <ellipse class="cls-10" cx="129.8" cy="90.1" rx="0.4" ry="0.2"/>
          <ellipse class="cls-10" cx="130.5" cy="90.6" rx="0.4" ry="0.2"/>
          <ellipse class="cls-10" cx="131.3" cy="91.1" rx="0.4" ry="0.2"/>
          <ellipse class="cls-10" cx="132.1" cy="92.5" rx="0.2" ry="0.4"/>
          <ellipse class="cls-10" cx="130.5" cy="95.3" rx="0.2" ry="0.4"/>
        </g>
        <g>
          <g class="cls-30">
            <polygon class="cls-31" points="77.9 109.7 81.6 111.5 85.1 111.8 87.2 109.7 83.1 106.8 77.9 109.7"/>
          </g>
          <polygon class="cls-13" points="77.1 105.7 80.1 104 83.1 105.7 83.1 109.3 80.1 111 77.1 109.3 77.1 105.7"/>
          <polygon class="cls-10" points="77.1 105.1 80.1 103.3 83.1 105.1 83.1 108.6 80.1 110.4 77.1 108.6 77.1 105.1"/>
          <polygon class="cls-8" points="77.1 104.2 80.1 102.4 83.1 104.2 83.1 107.7 80.1 109.4 77.1 107.7 77.1 104.2"/>
          <polygon class="cls-18" points="77.1 103.3 80.1 101.6 83.1 103.3 83.1 106.9 80.1 108.6 77.1 106.9 77.1 103.3"/>
          <g>
            <polygon class="cls-32" points="27.3 126.1 64.9 147.8 101.3 126.8 64.3 104.5 27.3 126.1"/>
            <polygon class="cls-13" points="29.7 126.1 64.9 146.4 98.9 126.7 64.3 105.9 29.7 126.1"/>
            <polygon class="cls-10" points="66.1 128.6 69.1 126.9 72.1 128.6 72.1 132.2 69.1 133.9 66.1 132.2 66.1 128.6"/>
            <polygon class="cls-10" points="65.8 116.6 68.8 114.9 71.8 116.6 71.8 120.2 68.8 121.9 65.8 120.2 65.8 116.6"/>
            <polygon class="cls-10" points="69.3 122.8 72.3 121 75.3 122.8 75.3 126.3 72.3 128 69.3 126.3 69.3 122.8"/>
            <polygon class="cls-8" points="62.6 122.8 65.5 121 68.5 122.8 68.5 126.3 65.5 128 62.6 126.3 62.6 122.8"/>
            <polygon class="cls-8" points="55.7 123 58.7 121.2 61.7 123 61.7 126.5 58.7 128.2 55.7 126.5 55.7 123"/>
            <polygon class="cls-8" points="58.9 117 61.9 115.3 64.9 117 64.9 120.6 61.9 122.3 58.9 120.6 58.9 117"/>
            <polygon class="cls-18" points="76.1 122.8 79.1 121 82.1 122.8 82.1 126.3 79.1 128 76.1 126.3 76.1 122.8"/>
            <polygon class="cls-18" points="72.7 128.6 75.7 126.9 78.7 128.6 78.7 132.2 75.7 133.9 72.7 132.2 72.7 128.6"/>
            <polygon class="cls-10" points="62.6 134.2 65.5 132.5 68.5 134.2 68.5 137.8 65.5 139.5 62.6 137.8 62.6 134.2"/>
            <g class="cls-30">
              <polygon class="cls-31" points="57.7 125.6 66.1 128.7 60 124 57.7 125.6"/>
            </g>
            <polygon class="cls-9" points="56.7 125 57.8 119.4 56.9 117.8 58.4 116.7 59.9 118.2 58.9 119.4 60.3 125.1 58.3 126.1 56.7 125"/>
            <polygon class="cls-33" points="53.4 130.8 54.6 125.2 53.6 123.6 55.1 122.5 56.6 123.9 55.6 125.2 57.1 130.9 55.1 131.9 53.4 130.8"/>
            <polygon class="cls-34" points="77.2 125.5 78.4 119.9 77.4 118.3 78.9 117.2 80.4 118.7 79.4 119.9 80.9 125.6 78.9 126.6 77.2 125.5"/>
            <g>
              <polygon class="cls-7" points="46.6 129.5 46.6 125.9 43.8 124.1 43.8 128 46.6 129.5"/>
              <polygon class="cls-8" points="46.6 129.5 46.6 125.9 49.4 124.1 49.4 128 46.6 129.5"/>
              <polygon class="cls-9" points="43.8 124.1 46.6 125.9 49.4 124.1 46.6 122.3 43.8 124.1"/>
              <ellipse class="cls-10" cx="48" cy="127" rx="0.2" ry="0.4"/>
              <ellipse class="cls-10" cx="45.9" cy="128.3" rx="0.2" ry="0.4"/>
              <ellipse class="cls-10" cx="45.1" cy="127" rx="0.2" ry="0.4"/>
              <ellipse class="cls-10" cx="44.4" cy="125.6" rx="0.2" ry="0.4"/>
              <ellipse class="cls-10" cx="46.6" cy="124" rx="0.4" ry="0.2"/>
              <ellipse class="cls-10" cx="48.9" cy="125.4" rx="0.2" ry="0.4"/>
              <ellipse class="cls-10" cx="47.2" cy="126.2" rx="0.2" ry="0.4"/>
              <ellipse class="cls-10" cx="47.2" cy="128.4" rx="0.2" ry="0.4"/>
              <ellipse class="cls-10" cx="48.9" cy="127.6" rx="0.2" ry="0.4"/>
            </g>
            <g>
              <polygon class="cls-7" points="49.7 122.9 49.7 119.2 46.9 117.4 46.9 121.3 49.7 122.9"/>
              <polygon class="cls-8" points="49.7 122.9 49.7 119.2 52.5 117.4 52.5 121.3 49.7 122.9"/>
              <polygon class="cls-9" points="46.9 117.4 49.7 119.2 52.5 117.4 49.7 115.6 46.9 117.4"/>
              <ellipse class="cls-10" cx="48.9" cy="121.7" rx="0.2" ry="0.4"/>
              <ellipse class="cls-10" cx="47.5" cy="120.9" rx="0.2" ry="0.4"/>
              <ellipse class="cls-10" cx="48.9" cy="119.7" rx="0.2" ry="0.4"/>
              <ellipse class="cls-10" cx="47.4" cy="118.9" rx="0.2" ry="0.4"/>
              <ellipse class="cls-10" cx="48.2" cy="117.3" rx="0.4" ry="0.2"/>
              <ellipse class="cls-10" cx="49" cy="117.8" rx="0.4" ry="0.2"/>
              <ellipse class="cls-10" cx="49.7" cy="118.3" rx="0.4" ry="0.2"/>
              <ellipse class="cls-10" cx="49.6" cy="116.4" rx="0.4" ry="0.2"/>
              <ellipse class="cls-10" cx="50.3" cy="116.9" rx="0.4" ry="0.2"/>
              <ellipse class="cls-10" cx="51.1" cy="117.4" rx="0.4" ry="0.2"/>
              <ellipse class="cls-10" cx="51.9" cy="118.8" rx="0.2" ry="0.4"/>
              <ellipse class="cls-10" cx="50.3" cy="121.6" rx="0.2" ry="0.4"/>
            </g>
          </g>
          <polygon class="cls-13" points="83.6 112.8 89.2 116.3 92 114.5 86.4 111 83.6 112.8"/>
          <polygon class="cls-18" points="87.8 110.1 93.4 113.7 96.2 111.9 90.6 108.3 87.8 110.1"/>
          <polygon class="cls-8" points="90.4 117.6 96.1 121.2 98.9 119.4 93.2 115.9 90.4 117.6"/>
          <polygon class="cls-35" points="96.1 116.3 102.2 118.8 104.7 116.6 98.5 114 96.1 116.3"/>
          <polygon class="cls-18" points="29.7 137.4 35.8 140 38.3 137.8 32.2 135.2 29.7 137.4"/>
          <polygon class="cls-13" points="32.9 133.2 38.2 137.1 41.2 135.5 35.8 131.6 32.9 133.2"/>
        </g>
        <g>
          <polygon class="cls-36" points="101.6 80.8 103.9 79.7 103.9 71.7 101.6 72.5 101.6 80.8"/>
          <polygon class="cls-16" points="110 42 110 46.6 124.8 55.4 124.8 50.6 110 42"/>
          <polygon class="cls-35" points="110 42 116.5 38.5 131.4 47.2 124.8 50.6 110 42"/>
          <polygon class="cls-18" points="124.8 55.4 124.8 50.6 131.4 47.2 131.4 51.6 124.8 55.4"/>
          <polygon class="cls-16" points="81.2 86.1 81.2 90.8 96 99.5 96 94.7 81.2 86.1"/>
          <polygon class="cls-35" points="81.2 86.1 87.7 82.7 102.6 91.3 96 94.7 81.2 86.1"/>
          <polygon class="cls-18" points="96 99.5 96 94.7 102.6 91.3 102.6 95.7 96 99.5"/>
          <polygon class="cls-16" points="84.6 29.4 84.6 31.6 99.4 40.4 99.4 38 84.6 29.4"/>
          <polygon class="cls-37" points="84.6 29.4 93.4 24.7 108.4 33.4 99.4 38 84.6 29.4"/>
          <polygon class="cls-18" points="99.4 40.4 99.4 38 108.4 33.4 110.3 34.5 99.4 40.4"/>
          <polygon class="cls-36" points="84.6 27 84.6 29.2 99.4 38 99.4 35.6 84.6 27"/>
          <polygon class="cls-10" points="84.6 27 91.5 23.6 106.5 32.3 99.4 35.6 84.6 27"/>
          <polygon class="cls-36" points="99.4 38 99.4 35.6 106.5 32.3 108.4 33.4 99.4 38"/>
          <polygon class="cls-38" points="98.6 35.1 98.6 30.8 91.9 26.8 91.9 31.2 98.6 35.1"/>
          <polygon class="cls-38" points="98.6 35.1 105.7 31.9 101.8 29.6 98.6 30.8 98.6 35.1"/>
          <polygon class="cls-13" points="91.9 26.8 94.8 25.5 101.8 29.6 98.6 30.8 91.9 26.8"/>
          <polygon class="cls-18" points="106.2 60 106.2 62.2 121 71 121 68.6 106.2 60"/>
          <polygon class="cls-18" points="106.2 60 113.1 56.6 128.1 65.3 121 68.6 106.2 60"/>
          <polygon class="cls-18" points="121 71 121 68.6 128.1 65.3 130 66.4 121 71"/>
          <polygon class="cls-11" points="117.8 66.7 117.8 62.4 111.1 58.3 111.1 62.8 117.8 66.7"/>
          <polygon class="cls-12" points="117.8 66.7 125 63.4 121.1 61.2 117.8 62.4 117.8 66.7"/>
          <polygon class="cls-39" points="111.1 58.3 114 57.1 121.1 61.2 117.8 62.4 111.1 58.3"/>
          <polygon class="cls-11" points="93.2 93.2 93.2 88.9 86.4 84.8 86.4 89.3 93.2 93.2"/>
          <polygon class="cls-12" points="93.2 93.2 100.3 89.9 96.4 87.7 93.2 88.9 93.2 93.2"/>
          <polygon class="cls-39" points="86.4 84.8 89.3 83.6 96.4 87.7 93.2 88.9 86.4 84.8"/>
          <polygon class="cls-40" points="89.8 53.5 89.8 49.2 83.1 45.1 83.1 49.6 89.8 53.5"/>
          <polygon class="cls-36" points="89.8 53.5 99.2 48.4 95.3 46.2 89.8 49.2 89.8 53.5"/>
          <polygon class="cls-10" points="83.1 45.1 88.2 42.1 95.3 46.2 89.8 49.2 83.1 45.1"/>
          <polygon class="cls-7" points="89.1 75 89.1 72.1 82.3 68 82.3 71.1 89.1 75"/>
          <polygon class="cls-8" points="89.1 75 99.7 69.2 97.3 67.9 89.1 72.1 89.1 75"/>
          <polygon class="cls-9" points="82.3 68.1 90 63.7 97.3 67.9 89.1 72.1 82.3 68.1"/>
          <polygon class="cls-13" points="102.2 57.6 102.2 53.3 95.5 49.3 95.5 53.7 102.2 57.6"/>
          <polygon class="cls-13" points="102.2 57.6 109.3 54.4 105.4 52.1 102.2 53.3 102.2 57.6"/>
          <polygon class="cls-13" points="95.5 49.3 98.4 48 105.4 52.1 102.2 53.3 95.5 49.3"/>
          <polygon class="cls-40" points="101.6 80.8 101.6 72.5 94.9 68.4 94.9 76.9 101.6 80.8"/>
          <polygon class="cls-10" points="85 92.6 85 88.9 81.9 87 81.9 90.9 85 92.6"/>
          <polygon class="cls-10" points="92.9 92.7 92.9 89 89.8 87.1 89.8 90.9 92.9 92.7"/>
          <polygon class="cls-18" points="101 79.7 101 73 95.6 69.7 95.6 76.5 101 79.7"/>
          <polygon class="cls-13" points="88.1 88.1 88.1 86.6 86.9 85.8 86.9 87.4 88.1 88.1"/>
          <polygon class="cls-13" points="89.4 90.6 89.4 89.1 88.1 88.3 88.1 89.9 89.4 90.6"/>
          <polygon class="cls-13" points="89.6 88.8 89.6 87.3 88.3 86.5 88.3 88.1 89.6 88.8"/>
          <polygon class="cls-10" points="87.9 93.6 87.9 92.1 86.6 91.3 86.6 92.9 87.9 93.6"/>
          <polygon class="cls-10" points="95.4 98.6 95.4 97.1 94.2 96.3 94.2 97.9 95.4 98.6"/>
          <polygon class="cls-40" points="95.4 96.5 95.4 95 94.2 94.3 94.2 95.8 95.4 96.5"/>
          <polygon class="cls-10" points="96.4 96.6 96.4 95 97.6 94.3 97.6 95.8 96.4 96.6"/>
          <polygon class="cls-13" points="102.2 75.2 102.2 73.7 103.4 72.9 103.4 74.5 102.2 75.2"/>
          <polygon class="cls-10" points="101.2 96.3 101.2 94.8 102.4 94.1 102.4 95.6 101.2 96.3"/>
          <polygon class="cls-18" points="102 80.2 102 78.7 103.2 78 103.2 79.5 102 80.2"/>
          <polygon class="cls-10" points="100 56.1 100 52.4 96.9 50.5 96.9 54.4 100 56.1"/>
          <polygon class="cls-41" points="113.2 47.2 113.2 45.1 111.5 44.1 111.5 46.2 113.2 47.2"/>
          <polygon class="cls-19" points="123.2 52.9 123.2 50.9 121.5 49.9 121.5 52 123.2 52.9"/>
          <polygon class="cls-10" points="94.9 68.4 96.9 67.6 103.9 71.7 101.6 72.5 94.9 68.4"/>
          <polygon class="cls-36" points="83.8 68 89.1 71 91.7 69.5 86.8 66.4 83.8 68"/>
          <line class="cls-42" x1="88.6" y1="91.7" x2="93.4" y2="94.6"/>
          <polygon class="cls-35" points="88.4 91.1 88.4 92 93.6 95.1 93.6 94.1 88.4 91.1"/>
          <polygon class="cls-40" points="88.4 92.6 88.4 93.5 93.6 96.6 93.6 95.6 88.4 92.6"/>
          <polygon class="cls-40" points="96.2 71.3 96.2 72.1 100.3 74.5 100.3 73.7 96.2 71.3"/>
          <polygon class="cls-40" points="83.4 69.8 83.4 70.6 87.6 73 87.6 72.3 83.4 69.8"/>
          <polygon class="cls-40" points="112.4 61 112.4 61.7 116.5 64.2 116.5 63.4 112.4 61"/>
          <polygon class="cls-40" points="107.3 61.6 107.3 62.3 111.4 64.8 111.4 64 107.3 61.6"/>
          <polygon class="cls-40" points="111.4 64 111.4 64.8 115.6 67.2 115.6 66.4 111.4 64"/>
          <polygon class="cls-40" points="113 67 113 67.7 117.1 70.2 117.1 69.4 113 67"/>
          <polygon class="cls-43" points="84.4 47.7 84.4 48.4 88.5 50.9 88.5 50.1 84.4 47.7"/>
          <polygon class="cls-10" points="114.5 47.1 114.5 47.8 118.6 50.3 118.6 49.5 114.5 47.1"/>
          <polygon class="cls-10" points="85.3 30.7 85.3 31.4 89.5 33.9 89.5 33.1 85.3 30.7"/>
          <polygon class="cls-16" points="89.8 30.8 89.8 31.5 94 34 94 33.2 89.8 30.8"/>
          <polygon class="cls-18" points="92.6 28.5 92.6 29.2 96.8 31.7 96.8 30.9 92.6 28.5"/>
          <polygon class="cls-40" points="92.4 30.1 92.4 30.8 96.6 33.3 96.6 32.5 92.4 30.1"/>
          <polygon class="cls-10" points="103.3 30.9 103.3 31.6 99.2 34.1 99.2 33.3 103.3 30.9"/>
          <polygon class="cls-10" points="104.6 36 104.6 36.8 100.5 39.2 100.5 38.4 104.6 36"/>
          <polygon class="cls-35" points="94.7 48.2 94.7 49 90.6 51.5 90.6 50.7 94.7 48.2"/>
        </g>
        <g>
          <polygon class="cls-3" points="21.6 179.1 1.5 167.7 21.4 158 23.2 158 40 167.5 40 168.5 21.6 179.1"/>
          <polygon class="cls-3" points="21.6 180.6 21.6 179.1 1.5 167.7 1.5 169 21.6 180.6"/>
          <polygon class="cls-3" points="21.6 179.1 40 168.5 40 170.4 21.6 180.6 21.6 179.1"/>
          <g>
            <path class="cls-44" d="M41.6,187a3.76,3.76,0,0,0,0,1.6c.22.47.43,1.7.8,1.7s6.74-3.46,7.2-4.1.93-2,.6-2.3a4,4,0,0,0-2.4,0A60.34,60.34,0,0,0,41.6,187Z"/>
            <path class="cls-18" d="M29.5,164.3l-1.3-5s1.5-5.6,4.2-5.6,3.3,10.1,3.3,10.1l-4.9,3.4-1-2.6Z"/>
            <path class="cls-16" d="M30.3,172.4s6.91-5.92,8.2-5.4,3.1,20.8,3.1,20.8c3.42-.76,4.56-1.61,4.3-2.5,0,0,1.2-24.9-2.1-25.6s-15,4.5-15,4.5Z"/>
            <path class="cls-45" d="M40.8,161.6a30.84,30.84,0,0,0,3.8.8,3.38,3.38,0,0,0,2.1-.4c.43-.4,0-1.9-.6-2.3a15.88,15.88,0,0,0-3.6-.7l-1.2.7Z"/>
            <path class="cls-33" d="M30.8,172.6s-7.16,1-9.7,0-7.15-4.35-7.5-5.4-1.85-24.6-1.1-25.2a48,48,0,0,1,4.6-2.4l5.5.8s6.81,2,7.5,2.9,1.11,13.16,2.1,13.7S43,158.5,43,158.5l-1,3.8H29.5Z"/>
            <polygon class="cls-46" points="12.8 141.4 11.1 151.6 12.8 159.8 12.8 141.4"/>
            <path class="cls-45" d="M22.4,139.5l.4-.9s.14.13,1-.3,1.29-5.8,1.29-5.8l-1.4-1.9c-.78-.59-1.27-.18-1.3,1.8l-1.1,6.1H17.5a3.88,3.88,0,0,1,0,3.7,4.94,4.94,0,0,0,4.9,0A4.39,4.39,0,0,1,22.4,139.5Z"/>
            <path class="cls-21" d="M17.5,138.7c-1-.94-3.63-6.2-3.9-6.9s-.62-4.15,0-4.9,4.6-3.4,6.3-3.4,5.25,2.1,5.8,3,.39,4.95,0,5.4-.79,2.7-1.2,1.4a5,5,0,0,0-1.6-2.2s-.24,3.4-.4,4.5-.25,2.6-1,3.1S18.53,139.64,17.5,138.7Z"/>
          </g>
          <path class="cls-1" d="M0,144.2v50.5l2.4,1.2-.1-21.2L17,182.6l.2,22,2.2,1.4.1-50.8Zm16.8,35.7L2.3,171.6v-6.4l14.5,8.4Zm0-8.5L2.3,163.1v-6.4l14.5,8.4Zm0-8.5L2.3,154.6v-6.4l14.5,8.4Z"/>
          <polygon class="cls-2" points="19.3 206.1 21.9 204.7 21.9 182.6 36.6 174.3 36.6 196.2 39 194.9 39 170.9 21.6 180.6 21.6 154.2 19.4 155.3 19.3 206.1"/>
          <polygon class="cls-3" points="0 144.2 2.2 143 21.6 154.2 19.4 155.3 0 144.2"/>
          <polygon class="cls-3" points="16.7 177 4.9 170.1 2.3 171.6 16.8 179.9 16.7 177"/>
          <polygon class="cls-3" points="16.7 168.5 4.9 161.6 2.3 163.1 16.8 171.4 16.7 168.5"/>
          <polygon class="cls-3" points="16.7 160 4.9 153 2.3 154.6 16.8 162.9 16.7 160"/>
          <polygon class="cls-2" points="4.9 170.1 4.9 166.7 2.3 165.2 2.3 171.6 4.9 170.1"/>
          <polygon class="cls-2" points="4.9 161.5 4.9 158.1 2.3 156.6 2.3 163 4.9 161.5"/>
          <polygon class="cls-2" points="4.9 153 4.9 149.7 2.3 148.1 2.3 154.6 4.9 153"/>
          <polygon class="cls-2" points="2.4 195.9 4.9 194.6 4.9 176.1 2.3 174.7 2.4 195.9"/>
          <polygon class="cls-1" points="36.6 196.2 34 194.7 34 175.8 36.6 174.3 36.6 196.2"/>
        </g>
      </g>
    </g>
  </g>
</svg>
