<?xml version="1.0" encoding="utf-8"?>
<!-- Generator: Adobe Illustrator 21.0.2, SVG Export Plug-In . SVG Version: 6.00 Build 0)  -->
<svg version="1.1" id="Слой_1" xmlns="http://www.w3.org/2000/svg" xmlns:xlink="http://www.w3.org/1999/xlink" x="0px" y="0px"
	 viewBox="0 0 412.9 323.6" style="enable-background:new 0 0 412.9 323.6;" xml:space="preserve">
<style type="text/css">
	.st0{opacity:0.18;}
	.st1{opacity:0.1;enable-background:new    ;}
	.st2{fill:#EA821B;}
	.st3{fill:#FF931E;}
	.st4{fill:#DD7A22;}
	.st5{fill:#191A0A;}
	.st6{fill:#BB9469;}
	.st7{fill:#825537;}
	.st8{fill:#4D4D4D;}
	.st9{fill:#333333;}
	.st10{fill:#1A1A1A;}
	.st11{fill:#2A1B1A;}
	.st12{fill:#CEA080;}
	.st13{fill:#EDBEA1;}
	.st14{fill:#EABC8C;}
	.st15{fill:#1B4275;}
	.st16{fill:#404C54;}
	.st17{fill:#7E8284;}
	.st18{fill:#633A12;}
	.st19{fill:#589BFE;}
	.st20{fill:#301E1D;}
	.st21{fill:#5F322F;}
	.st22{fill:#3FA9F5;}
	.st23{fill:#D3B5A0;}
	.st24{fill:#00CCDB;}
	.st25{fill:#1099AC;}
	.st26{fill:#00B2CA;}
	.st27{fill:#255F99;}
	.st28{fill:#1D4E89;}
	.st29{fill:#AA5E5E;}
	.st30{fill:#EFF4FA;}
	.st31{fill:#606060;}
	.st32{fill:#3D3D3D;}
	.st33{fill:#1E1E1E;}
	.st34{fill:#59C0ED;}
	.st35{fill:#F7931E;}
	.st36{fill:#434A55;}
	.st37{fill:#E0BFB6;}
	.st38{fill:#464134;}
	.st39{fill:#FBD2C3;}
	.st40{fill:#3C382F;}
	.st41{fill:#666054;}
	.st42{fill:#FFD6CD;}
	.st43{fill:#A0A0A0;}
	.st44{fill:#4D4F54;}
	.st45{fill:#00B6BA;}
	.st46{fill:#F2F2F2;}
	.st47{opacity:0.2;}
	.st48{fill:#F7F7F7;}
	.st49{fill:#3A3B3F;}
	.st50{fill:#009999;}
</style>
<g>
	<ellipse class="st0" cx="34.6" cy="122.5" rx="29.1" ry="11.8"/>
	<ellipse class="st0" cx="185.6" cy="253.8" rx="29.1" ry="11.8"/>
	<ellipse class="st0" cx="228.7" cy="239.8" rx="29.1" ry="11.8"/>
	<ellipse class="st0" cx="355.7" cy="179.1" rx="29.1" ry="11.8"/>
	<ellipse class="st0" cx="104" cy="169" rx="29.1" ry="11.8"/>
	<polygon class="st0" points="170.5,113.7 197.5,112.8 211.1,104.6 141.5,67.2 	"/>
	<polygon class="st0" points="363.6,141.6 412.9,135.3 412.9,122.5 365.7,124.3 	"/>
	<polygon class="st0" points="271.4,323.6 295.6,323.6 361.4,285.8 337.6,271.8 	"/>
</g>
<title>consolesРесурс 5</title>
<g id="Слой_2">
	<g id="Material">
		<g id="consoles">
			<g>
				<polyline class="st1" points="279.4,319.9 274.4,321.3 279.4,319 279.4,319.9 				"/>
				<polyline class="st1" points="330.7,291 324.2,292.8 329.8,289.4 330.7,291 				"/>
				<g>
					<g>
						<path class="st2" d="M200.2,255.2c-10,3.9-22.1,6.6-33,1c-8.3-4.3-12.6-7.8-16.3-12.9c-1.1-2.6-1.9-5.3-2.3-8.1
							c-0.8-6.8-2.4-15,2.7-24.2c5-9.2,7.7-11.9,8.6-12.8c0.9-0.9,6.2-3.3,10.7-0.8c1.9,1.3,3.5,3.1,4.6,5.1
							c-5.4-2.7-12.2-5.8-13.4-4.6c-1.9,2-2.6,2-3.2,3.6s-2,10.2-2,16.2s3,14.7,5.5,18.6c2.5,4,7.4,8.6,17.1,11.9s16.8,2.6,21.8,0.9
							c4.9-1.7,7.6-8,7-14.3l-2.7-5.7l-6.9-6.8c0.8,0.3,1.5,0.7,2.1,1.2c3.4,2.1,8.5,7.5,10.1,13.3c0.6,2.4,0.7,4.9,0.2,7.4
							C209.2,247.9,206.1,253,200.2,255.2z"/>
						<path class="st3" d="M207.3,233.7c0.4,0.9,0.6,1.8,0.6,2.8c0.1,5.7-2,11.1-6.5,12.8c-4.9,1.7-12.5,2.4-22.3-0.8
							c-9.9-3.2-14.6-8.1-17.1-12c-2.5-4-5.5-12.5-5.5-18.6c0.1-5.4,0.8-10.9,2-16.2c0.7-1.5,1.8-2.8,3.2-3.6c1.4-1,7.7,0,13.4,4.6
							c1.7,2.9,2.8,5.9,3.3,6.6c0.8,1.2,1.5,5.4,3.8,6.8c1.9,1.2,11.3,4.3,16.1,6.5l6.3,6.2c0.3,0.3,0.6,0.7,0.8,1.1L207.3,233.7z"
							/>
						<path class="st4" d="M203.7,255.4c-6.9,4.6-15.1,6.7-23.4,5.8c-8.8-0.8-18.9-3-24.9-10.3c-1.9-2.3-3.4-4.9-4.5-7.7
							c3.6,5.1,8,8.6,16.3,12.9c11,5.7,23,2.9,33-1c5.9-2.3,9-7.3,10.6-11C210,248.7,207.5,252.7,203.7,255.4z"/>
					</g>
					<g>
						<path class="st2" d="M239.6,239.8c-9.4,3.6-21.1,6.4-31.6,1c-7.9-4.1-11.9-8-15.3-12.9c-1.1-2.5-1.8-5.1-2.1-7.7
							c-0.6-6.3-2.3-14.3,2.6-23c4.8-8.8,7.3-11.3,8.1-12.1s5.9-3.2,10.2-0.6c1.8,1.3,3.3,3,4.4,4.9c-5-2.6-11.6-5.5-12.8-4.4
							c-1.9,1.9-2.5,1.9-3.1,3.4c-0.6,1.5-1.9,9.6-1.9,15.4s2.9,13.9,5.3,17.7s7,8.3,16.3,11.3s16,2.5,20.7,0.8
							c4.7-1.7,7.2-7.6,6.6-13.5l-2.6-5.5l-6.4-6.3c0.7,0.3,1.4,0.7,2,1.1c3.2,2,8.1,7.2,9.5,12.6c0.6,2.3,0.6,4.7,0.2,7
							C248.1,232.3,245.2,237.5,239.6,239.8z"/>
						<path class="st3" d="M246.3,218.8c0.4,0.8,0.6,1.7,0.6,2.7c0.1,5.4-2.5,10.5-6.8,12c-4.6,1.7-11.4,2.3-20.7-0.8
							s-13.9-7.5-16.3-11.3c-2.4-3.8-5.3-12-5.3-17.7c0.1-5.2,0.7-10.4,1.9-15.4c0.7-1.4,1.8-2.6,3.1-3.4c1.3-1,7.4,0,12.8,4.4
							c1.6,2.8,2.7,5.6,3.1,6.3c0.8,1.1,1.5,5,3.5,6.4c1.8,1.2,10.6,4.1,15.3,6.2l6,5.9c0.3,0.3,0.5,0.6,0.8,1L246.3,218.8z"/>
						<path class="st4" d="M242.8,239.5c-6.5,4.4-14.4,6.3-22.2,5.6c-8.4-0.6-18-2.9-23.6-9.8c-1.7-2.2-3.2-4.7-4.3-7.3
							c3.4,4.8,7.6,8.1,15.4,12.2c10.5,5.5,22,2.8,31.4-0.9c5.7-2.1,8.6-7,10.1-10.5C248.8,233.1,246.3,236.9,242.8,239.5z"/>
					</g>
					<g>
						<path class="st5" d="M282.3,316.8v2.5c-0.5,0.6-1.3,0.8-2,0.8c-1.4-0.1-1.5-0.5-1.5-0.5v-2.7H282.3z"/>
						<path class="st5" d="M332.7,287.7v2.5c-0.5,0.6-1.3,0.8-2,0.8c-1.4-0.1-1.5-0.5-1.5-0.5v-2.7H332.7z"/>
						<polygon class="st6" points="339,262.2 321.2,251.9 254.1,291.5 271.4,301.7 						"/>
						<polygon class="st6" points="339,284.2 339,262.2 271.4,301.7 271.4,323.6 						"/>
						<polygon class="st7" points="254.1,291.5 254.1,313.5 271.4,323.6 271.4,301.7 						"/>
					</g>
					<g>
						<polygon class="st8" points="308.6,270.9 301.3,266.5 286.7,274.7 293.9,279.2 						"/>
						<polygon class="st9" points="308.6,272.2 308.6,270.9 293.9,279.2 293.9,280.8 						"/>
						<polygon class="st10" points="293.9,280.8 286.8,276.4 286.7,274.7 293.9,279.2 						"/>
					</g>
					<g>
						<polygon class="st9" points="321.2,211.1 270,240.8 270,287.1 321.2,257.1 						"/>
						<polygon class="st8" points="318.4,210 321.2,211.1 270,240.8 267.7,239.8 						"/>
						<polygon class="st10" points="270,287.1 267.5,285.4 267.7,239.8 270,240.8 						"/>
					</g>
					<g>
						<path class="st11" d="M216,257c1.2,0.6,2.3,1.3,3.4,2.1c0.5,0.6,0.2,2.4-1,2.4s-4-1.3-5.5-1.7c-1.4-0.4-4.6-1.9-4.8-2.4
							c-0.1-0.5-0.1-0.9,0-1.4L216,257z"/>
						<path class="st11" d="M209.1,265.2c0.8,1.2,0.5,5.2,0.5,6.1c0,0.9-0.4,1.6-2.1,0c-1.7-1.6-5.9-8.6-5.9-9.4s1.2-1.4,1.2-1.4
							S208.3,264,209.1,265.2z"/>
						<path class="st12" d="M215.8,259.3c-1.1,0-7-2.4-7.6-2.8c-0.6-0.4-3.8-16.1-3.8-16.1l-7.1,1l1.2-8l9.9,3.2
							c0,0,1.4,10.9,1.8,13.3c0.4,2.4,1.4,4.7,2.5,5.4c1.1,0.6,4,2,4.3,2.6C217.3,258.3,216.8,259.3,215.8,259.3z"/>
						<path class="st13" d="M208.2,268.1c0.4-0.7-1.9-6.7-1.9-6.7l1-9.6c0.2-5.8,1.1-15.5,0.6-16.7c-1.1-1.9-2.4-3.7-3.8-5.4
							l-7.4,0.9l0.6,5.3c1.2,0.7,2.4,1.5,3.5,2.4c0.5,0.6,0.5,9.9,0.8,11.5c0.3,1.6,1.3,7.3,1.3,8.4s-0.3,3.8,0,4.7
							c1.1,1.9,2.5,3.7,4,5.4C207.3,268.3,207.8,268.8,208.2,268.1z"/>
						<path class="st14" d="M192.5,210.4c0,0,0.5,6.9,1.1,7.5c0.6,0.6,9,2.1,9.5,2.7c0.5,0.5-1,3.1-1,3.1l-1.7-2.6
							c0,0-8.1,0.4-8.7,0c-0.6-0.4-0.8-4.4-0.8-4.4C191.7,215.2,191.8,212.6,192.5,210.4z"/>
						<path class="st14" d="M186.4,210.1l1.6-6.8l-0.8-2.3c3.2-2.2,3.7-5.1,1.8-8.5l-3.2-3.8l-6.5,5.5l-2.4,8.1l4.8,7.9L186.4,210.1
							z"/>
						<path class="st15" d="M205.8,230.6c0,0-4.9,0.2-6,1.2c-1.1,1-0.2,6.8-2,10s-10.3,4.5-11.7,4c-1.4-0.5-3.8-8.1-4.6-8.7
							c-0.9-0.5-3.9-2.4-4.1-3s2.1-14,2.1-14l-3.2-6.5c-1.4,0.1-4.3,0.4-4.4-0.1c-0.1-0.5,3.3-8.9,4.9-10.7c0,0,3.1,2.7,4.3,3.5
							c1.2,0.9,2.9,1.1,4.3,0.4c1.4-0.7,2.6-3.2,2.6-3.2l0.9-0.1c0,0,3.5,6.1,3.6,6.9s-1.6,8.9-1.6,8.9s0.1,4.6,1.8,5.1
							C194.1,224.6,205.3,229.8,205.8,230.6z"/>
						<g>
							<path class="st16" d="M203.2,225.7c0,0,1.3-2.4,0.6-3c-0.6-0.6-1.8-1.4-2.3-1.7c-5.6-3.3-4.6,0.8-4.6,0.8l-0.1,1.5
								c0,0-1.1,0.4-1.4,0.5c-0.3,0.1-2.8,1.5-2.9,1.6c-0.6,0.1-1.2,0.2-1.8,0.2c0,0-3.1-0.3-3.3-0.4c-0.8-0.2-1.6,0.4-1.8,1.2
								c0,0.1,0,0.3,0,0.4l2.8,2.8c0,0,3.5,1.5,3.8,1.5s6-2.4,6-2.4s4.7-2.8,4.8-2.9C203,226,203.2,225.7,203.2,225.7z"/>
							<path class="st3" d="M200.9,225.6l-2.7,0.9c0,0-1.8,1.1-1.8,1.4s0.4,1.2,1.8,0.4c0.9-0.4,1.8-0.9,2.7-1.5
								C201.4,226.4,200.9,225.6,200.9,225.6z"/>
							<path class="st17" d="M198.4,224.5c-0.3,0.5-1.5,1-1.7,0.8s-0.5-0.6-0.2-1c0.3-0.3,0.6-0.5,1-0.5c0.3,0,0.6,0.1,0.9,0.3
								C198.4,224.2,198.4,224.3,198.4,224.5z"/>
							<path class="st17" d="M194.3,225.2c0.5,0,1.3,0.5,1.2,0.9c-0.5,0.5-1.2,0.7-1.9,0.8c-0.4-0.1-0.6-0.6-0.4-1
								C193.3,225.5,194.3,225.2,194.3,225.2z"/>
							<circle class="st17" cx="201.7" cy="223.1" r="0.4"/>
							<circle class="st17" cx="201.1" cy="221.7" r="0.3"/>
							<circle class="st17" cx="200.3" cy="223.6" r="0.3"/>
							<circle class="st17" cx="192.5" cy="227.7" r="0.4"/>
							<circle class="st17" cx="190.9" cy="227" r="0.3"/>
						</g>
						<path class="st14" d="M189.1,229.5c-1.1,0.2-14.1-4.9-15-5.6c-0.9-0.6-2.1-10.7-2.1-10.7c1.4,0.3,2.9,0.4,4.4,0.2
							c0,0,0.6,6.6,1.2,7.3c0.6,0.6,9.1,5,9.1,5s3.7,0.7,4.3,0.6c0.6,0,2.6,0.7,2.6,1.3S190.2,229.3,189.1,229.5z"/>
						<path class="st18" d="M184.2,201.6c0,0,4.6,3.2,5.3,2.5c0.6-0.7,2.2-9.5,1.5-11.5s-2.4-8.2-4.9-8.5c-2.5-0.2-10.8,1.1-11.3,2
							c-0.5,1.8-0.7,3.7-0.4,5.6c0.3,1.3,5.1,18.3,5,19.3c-0.1,1-0.6,5.7-0.5,6.9c0.1,1.2,2.4,2.4,2.4,0.3s1.4-11.9,1.4-13.8
							c0-2-1.4-10.1-1-10.7c0.4-0.6,4.6-3.5,5.4-2.9c1,1.3,1.5,2.9,1.5,4.5c0,1.3-0.3,2.7-1,3.9
							C186.5,200.1,185.4,200.9,184.2,201.6z"/>
					</g>
					<g>
						<path class="st19" d="M225.9,245.1c-0.3,0.2,0,3.6,0.3,4.2c0.3,0.5,9.8,3.6,11,3.3c1.3-0.3,2.8-1.8,2.7-2.7
							c-0.1-0.9-2.8-3.8-4.3-4.1C234.2,245.6,226.3,245,225.9,245.1z"/>
						<path class="st19" d="M249.8,249.2c-1.5,0-10.7-3.3-11-4s-1-3.8,0.2-3.9c3.6,0.3,7.3,0.9,10.8,1.8c0.6,0.4,3.5,4.4,3.1,4.9
							C252.1,248.9,251,249.3,249.8,249.2z"/>
						<path class="st20" d="M244.4,242.7c0,0-0.9-19.9-2-22c-1.1-2.1-18.2-4.5-18.2-4.5l-10.4,4.6c0,0,18.8,1.9,21.1,4.4
							c2.3,2.5,4,17.7,4,17.7C240.8,243.2,242.8,243.5,244.4,242.7z"/>
						<path class="st21" d="M233.8,245.9c-1.8,1.3-4.4,1.4-7.5,0.8c0,0,0.2-17.4-1.3-18.3c-1.5-1-15-3.2-16.4-5.3s-1.4-6.6-1.4-6.6
							l15.1,0.4c0,0,7.7,5.5,8.9,7.4S233.8,245.9,233.8,245.9z"/>
						<path class="st14" d="M208.2,185.2c-0.7-6.4-0.1-7.7,0.8-7.6l2.1,1.4l2.3-4.9l4.9,0.5c0,0,0,8.1,0,8.9s-2.9,2.5-2.9,2.5
							l-1.1,5.4l-7.5-3.9C207.4,187.6,207.9,186.8,208.2,185.2z"/>
						<path class="st19" d="M207.9,220.2c-1.2-1.2-2.4-14.1-2.4-14.1l-0.2-5.8c0,0-7.3-0.6-7.8-2c-0.6-1.4,2.7-10,3.4-10.7
							c0.7-0.8,4.4-1.4,5.3-1.1s6.6,3,6.6,3l2-4.1c0,0,2.7-1.3,3.8-1.2c1.1,0.1,6.1,8.9,6.1,8.9c-0.5,0.9-1.3,1.6-2.1,2l1.8,15.4
							c0,0,3.7,5.9,3.5,6.6C227.8,217.9,209.1,221.3,207.9,220.2z"/>
						<path class="st14" d="M224.8,193.1c0,0,0.4,5.3,1.4,6.1s9,1.8,9,1.8l-0.4,3.9l-10.8-0.4l-1.3-9.3L224.8,193.1z"/>
						<g>
							<path class="st16" d="M235.6,204.3c0,0,1.4-2.4,0.6-3c-0.7-0.6-1.5-1.2-2.3-1.7c-5.7-3.3-4.7,0.8-4.7,0.8l-0.1,1.5
								c0,0-1.2,0.4-1.4,0.5c-0.2,0.1-2.8,1.5-3,1.7c-0.6,0.1-1.2,0.2-1.8,0.2c0,0-3.1-0.3-3.3-0.4c-0.8-0.2-1.6,0.4-1.8,1.2
								c0,0.1,0,0.3,0,0.4l2.8,2.8c0,0,3.6,1.5,3.8,1.5c0.1,0,6.1-2.4,6.1-2.4s4.7-2.9,4.8-2.9C235.4,204.5,235.6,204.3,235.6,204.3
								z"/>
							<path class="st22" d="M233.2,204.2c-0.9,0.2-1.8,0.5-2.7,0.9c0,0-1.8,1.1-1.8,1.4c0,0.3,0.4,1.2,1.8,0.4
								c0.9-0.4,1.8-0.9,2.7-1.5C233.8,205,233.8,204.2,233.2,204.2z"/>
							<path class="st17" d="M230.8,203.1c-0.4,0.5-1.5,1-1.8,0.8c-0.3-0.2-0.5-0.6-0.2-1c0.3-0.3,0.6-0.5,1-0.5
								c0.3,0,0.6,0.1,0.9,0.3C230.9,202.9,230.8,203.1,230.8,203.1z"/>
							<path class="st17" d="M226.6,203.8c0.6,0,1.4,0.5,1.2,0.9c-0.5,0.5-1.2,0.7-1.9,0.8c-0.4-0.1-0.6-0.5-0.5-0.8
								c0,0,0-0.1,0.1-0.1C225.6,204.1,226.6,203.8,226.6,203.8z"/>
							<circle class="st17" cx="234.2" cy="201.6" r="0.4"/>
							<circle class="st17" cx="233.4" cy="200.3" r="0.3"/>
							<circle class="st17" cx="232.7" cy="202.2" r="0.3"/>
							<circle class="st17" cx="224.8" cy="206.3" r="0.4"/>
							<circle class="st17" cx="223.2" cy="205.7" r="0.3"/>
						</g>
						<path class="st14" d="M198.8,198.7c0,0,5.5,10.2,7,11.2c0.9,0.6,4.7-0.4,8.6-0.6c2.9-0.1,3.9,0.4,6.8,0.4
							c2.8,0,3.9-0.9,3.5-1.7c-0.3-0.9-5.7-1.7-5.7-1.7s1.4-1.1,0.8-1.6c-0.6-0.5-3.6,0.2-3.6,0.2s-6.4,1-7.1,0.6
							c-0.7-0.4-3.7-5.2-3.7-5.2L198.8,198.7z"/>
						<path class="st18" d="M208.3,182.5c-0.3,0.5-3.4-6.9-2.1-9.6c1.3-2.7,10.7-4.9,12.2-4.6c1.5,0.3,1.7,3.3,1.5,4.4
							c-0.2,1-0.7,2-1.5,2.7c-0.8,0.7-5,0.1-5.8,0.5c-0.8,0.4-0.9,2.9-1.4,3.2c-0.5,0.4-1.1-1.3-1.9-0.9
							C208.3,178.6,208.6,181.9,208.3,182.5z"/>
					</g>
					<polygon class="st23" points="335.3,277.8 335.3,282.5 275.2,317.6 275.2,313 					"/>
					<polygon class="st7" points="330.9,280.4 335.3,282.5 335.3,277.8 					"/>
					<polygon class="st23" points="335.3,269.5 335.3,274.2 275.2,309.2 275.2,304.6 					"/>
					<polygon class="st7" points="330.9,272 335.3,274.2 335.3,269.5 					"/>
					<g>
						<polygon class="st10" points="285.6,270.1 285.6,261.5 284.3,260.7 284.3,270.9 						"/>
						<polygon class="st9" points="311,247 311,255.8 285.6,270.1 285.6,261.5 						"/>
						<polygon class="st8" points="284.3,260.7 309.7,246 311,247 285.6,261.5 						"/>
					</g>
					<g>
						<polygon class="st24" points="303.9,289.9 295.6,294.7 293.9,293.7 302.2,288.8 						"/>
						<polygon class="st25" points="295.6,295.2 295.6,294.7 293.9,293.7 293.4,294 						"/>
						<polygon class="st26" points="303.9,289.9 303.9,290.2 295.6,295.2 295.6,294.7 						"/>
					</g>
					<g>
						<polygon class="st27" points="295.2,303.3 286.8,308.1 285.1,307.2 293.6,302.2 						"/>
						<polygon class="st15" points="286.8,308.7 286.8,308.1 285.1,307.2 284.7,307.4 						"/>
						<polygon class="st28" points="295.2,303.3 295.2,303.8 286.8,308.7 286.8,308.1 						"/>
					</g>
					<g>
						<polygon class="st2" points="318.1,289.9 309.7,294.7 308,293.7 316.5,288.8 						"/>
						<polygon class="st4" points="309.7,295.2 309.7,294.7 308,293.7 307.6,294 						"/>
						<polygon class="st4" points="318.1,289.9 318.1,290.2 309.7,295.2 309.7,294.7 						"/>
					</g>
				</g>
			</g>
			<g>
				<path class="st29" d="M99.9,149.9c0,0,16.4-16,17-18.1c0.7-2.1-3.6-4.2-4.8-4.2s-19.7,12.5-19.7,12.5L99.9,149.9z"/>
				<path class="st2" d="M115.8,168c0,0,6.9-20.8,3.6-22.5s-19.6,4.3-19.6,4.3l-3.9-7.5c0,0,30-9,34.7-8.4
					c4.7,0.5-9.2,35.9-9.2,35.9L115.8,168z"/>
				<g>
					<polygon class="st30" points="104.8,106.3 111.3,102.7 112.5,101.3 115.6,99.6 117.9,99.1 119.5,98.8 122,100.1 122,101.3 
						125.1,102.8 126.7,102.5 129.3,103.9 129.2,105 129.1,106.8 127,110.3 125.4,111.1 121.4,117.5 118.4,115.4 120.7,108.7 
						115.2,105.7 107.2,108.6 					"/>
					<ellipse class="st31" cx="116.8" cy="104.9" rx="1.4" ry="0.9"/>
					<ellipse class="st32" cx="116.8" cy="104.6" rx="1.4" ry="0.9"/>
					<ellipse class="st31" cx="117.9" cy="101.8" rx="2.1" ry="1.4"/>
					<ellipse class="st31" cx="121.2" cy="107" rx="1.4" ry="0.9"/>
					<ellipse class="st33" cx="124.7" cy="107.1" rx="0.6" ry="0.3"/>
					<ellipse class="st27" cx="126.6" cy="106.7" rx="0.6" ry="0.3"/>
					<ellipse class="st34" cx="124.4" cy="105.8" rx="0.6" ry="0.3"/>
					<ellipse class="st35" cx="126.3" cy="105.4" rx="0.6" ry="0.3"/>
					<ellipse class="st32" cx="121.2" cy="106.6" rx="1.4" ry="0.9"/>
					<polygon class="st36" points="125.5,111.1 121.4,117.5 118.4,115.4 120.7,108.7 115.2,105.7 107.2,108.6 104.7,106.3 
						104.5,108.6 106.8,110.3 115.1,107.1 120.2,110 118.4,115.4 118.4,117 121.2,119.3 125.1,113.6 126.7,112.6 128.6,109.5 
						129.1,106.8 127,110.3 					"/>
				</g>
				<path class="st37" d="M97.6,112.4c-0.5-1.1,13.9-7.7,15-8.1c2.6-1.1,1.7-4.4-1.8-3.2s-17,9.5-17,9.5L97.6,112.4z"/>
				<path class="st38" d="M89.3,95.8c-2.9,1.4,1.9,15.7,3.1,16.6s7.4-0.2,7.9-0.8s4.9-12.9,3-14.4s-7.5-2.3-8.3-2.4
					C93.1,94.6,91.1,94.9,89.3,95.8z"/>
				<path class="st39" d="M123.9,122.1c2.3-4.6,4.6-11.4,4.9-12c2.1-3-1.4-4.6-2.6-1.2c-1.2,3.4-3.1,9-5,11.2L123.9,122.1z"/>
				<path class="st39" d="M103.5,101.5c-0.3-1.8-4,10-5.6,7.7c-2-2.9-3.9,3-3.4,4.2c0.5,1.2,4.7,0.8,5,0.3c0.6-1.3,1.1-2.5,1.5-3.9
					C102.1,107.1,103,104.3,103.5,101.5z"/>
				<path class="st24" d="M92.5,138.2c0,0-5.1-24.1-3.6-25.5c0.7-0.7,4.2,0.6,8,0.9c4.1,0.4,8.6-0.2,9.5,0.6
					c1.8,1.6,9.3,10,10.4,10.1c1.1,0.1,4.4-5.2,4.4-5.2l3.9,2.4c0,0-5.7,8.3-7.7,8.6c-2,0.2-7.7-4-7.7-4s1.1,8.6,2.5,11.9
					c1.4,3.3-7.2,4.9-11,4.5C97.3,142.2,92.5,138.2,92.5,138.2z"/>
				<g>
					<path class="st2" d="M67.3,159.4c0.2,0.9,0.4,1.7,0.6,2.5c3.9,5.8,9.9,12.2,17.3,13.2c12.4,1.6,21.4,1.6,30.3-0.9
						c4.2-2.1,7.5-5.6,9.6-9.8c0.6-1.2,1-2.6,1-4c-0.7,1.8-1.7,3.5-2.9,4.9c-1.6,1.5-7.6,2.6-11.1,2.6c-3.5,0-8.4-3.5-12.9-6
						s-8.1-12.2-10.3-19.5c-2.1-7.3-2.7-14.1-6.1-19.6c-2.3-3.6-6.1-1.7-9,1.1c-2.8,4.7-5.2,9.7-7.2,14.8
						C66.9,138.6,64.3,146.3,67.3,159.4z"/>
					<path class="st3" d="M83,123.9c3.5,5.6,4,12.3,6.1,19.6c2.1,7.3,5.8,16.9,10.3,19.5s9.3,6,12.9,6c3.5,0,9.5-1.1,11.1-2.6
						c1.2-1.5,2.2-3.1,2.9-4.9c0.1-5.7-4.8-10.9-8.6-11.3c-4.6-0.3-13-2.1-16.8-5c-3.9-2.9-7-14.3-11.4-20.9s-12.4-2.9-14.5-0.9
						c-0.4,0.4-0.8,0.9-1.1,1.4C77,122.1,80.7,120.2,83,123.9z"/>
					<path class="st4" d="M85.3,175.1c-7.5-1-13.4-7.4-17.3-13.2c3.8,11.4,14.1,15.2,30,15.5c7.8,0.2,13.5-1.2,17.7-3.3
						C106.7,176.7,97.7,176.6,85.3,175.1z"/>
				</g>
			</g>
			<g>
				<polygon class="st40" points="31.9,105.1 23.6,95.4 45.6,88.7 45,94.9 				"/>
				<path class="st41" d="M55.7,114.2c3.1-4.9,5.5-14.5,7.9-24.6c-4-0.6-17.9,2.4-33,5.8l1.3,10.4c0,0,19.6-4.7,20.4-4.3
					c0.8,0.4-1.2,11.6-1.2,11.6L55.7,114.2z"/>
				<g>
					<polygon class="st30" points="47.5,82 54.1,78.3 55.3,76.9 58.4,75.2 60.6,74.8 62.3,74.5 64.6,75.8 64.6,76.9 67.7,78.4 
						69.3,78.2 72,79.6 72,80.7 71.8,82.5 69.7,85.9 68.2,86.8 64.1,93.2 61.2,91.1 63.5,84.3 58,81.3 49.8,84.2 					"/>
					<ellipse class="st31" cx="59.6" cy="80.6" rx="1.4" ry="0.9"/>
					<ellipse class="st32" cx="59.6" cy="80.3" rx="1.4" ry="0.9"/>
					<ellipse class="st31" cx="60.7" cy="77.5" rx="2.1" ry="1.4"/>
					<ellipse class="st31" cx="64" cy="82.7" rx="1.4" ry="0.9"/>
					<ellipse class="st33" cx="67.4" cy="82.8" rx="0.6" ry="0.3"/>
					<ellipse class="st27" cx="69.2" cy="82.4" rx="0.6" ry="0.3"/>
					<ellipse class="st34" cx="67.1" cy="81.4" rx="0.6" ry="0.3"/>
					<ellipse class="st35" cx="69" cy="81.1" rx="0.6" ry="0.3"/>
					<ellipse class="st32" cx="64" cy="82.3" rx="1.4" ry="0.9"/>
					<polygon class="st36" points="68.2,86.8 64.1,93.2 61.2,91.1 63.5,84.3 57.9,81.3 49.8,84.2 47.5,82 47.2,84.2 49.5,85.9 
						57.9,82.8 62.9,85.7 61.2,91.1 61.1,92.7 64,94.9 67.7,89.3 69.5,88.3 71.3,85.2 71.8,82.5 69.7,85.9 					"/>
				</g>
				<path class="st42" d="M65.5,91.1c1,0.3,4.8-1.4,5.3-1.8c0.4-0.4,1.2-3.6,0.4-3.8c-0.8-0.2-5,1.6-5.7,2.4
					C64.8,88.6,64.5,90.8,65.5,91.1z"/>
				<path class="st42" d="M48.7,72c0.8-2.4,4.1-4.6,4.1-5.9c0-1.3-0.3-3.8-0.3-3.8l-6,5.3c-0.9,0.9-1.8,1.8-2.5,2.9
					C43.6,71.4,47.9,74.4,48.7,72z"/>
				<path class="st27" d="M25.7,94c0,0,8.6-21.2,10.5-22.9c2.6-2.7,17.5,0.9,18.4,1.7c0.9,0.8,5.2,14,6,15c0.8,1,3.6,0.5,4.2,0.4
					c0.5-0.1,0.8,4,0.6,4.2c-0.1,0.2-6.1,2.4-8.1,0.6c-2-1.7-3.5-10.6-5.3-10.6S42,96.8,39.1,97.6C36.2,98.4,25.7,94,25.7,94z"/>
				<path class="st36" d="M47.8,69.6c0.9-1.5,1.6-3.1,2.3-4.7c0.3-0.7,1.4-1.3,2-1.6c0.6-0.3,1.1-6.5-0.5-7.2
					c-1.6-0.7-8,0.1-9.5,0.8s-2.9,4.2-2.9,5.8s3.8,6.3,4.7,7C45.1,70.3,46.6,70.3,47.8,69.6z"/>
			</g>
			<g>
				<path class="st2" d="M1.4,112.1c0.2,0.9,0.4,1.6,0.6,2.4c3.6,5.5,9.2,11.6,16.3,12.4c11.7,1.5,20.3,1.6,28.6-0.9
					c4-2,7.2-5.2,9.1-9.2c0.6-1.1,1-2.4,1-3.8c-0.7,1.7-1.6,3.2-2.8,4.6c-1.5,1.4-7.2,2.4-10.5,2.4c-3.3,0-7.9-3.3-12.1-5.7
					c-4.2-2.4-7.7-11.5-9.8-18.3c-2-6.9-2.5-13.3-5.8-18.5c-2.1-3.4-5.7-1.6-8.5,1C5,82.9,2.8,87.5,0.9,92.4
					C1,92.5-1.5,99.6,1.4,112.1z"/>
				<path class="st3" d="M16.2,77.5c3.3,5.3,3.8,11.7,5.8,18.5c2,6.9,5.5,16,9.8,18.3c4.3,2.4,8.8,5.7,12.1,5.7c3.3,0,9-1,10.5-2.4
					c1.2-1.4,2.1-2.9,2.8-4.6c0.1-5.4-4.6-10.4-8.1-10.6c-4.4-0.3-12.2-2-15.9-4.7c-3.6-2.7-6.5-13.5-10.7-19.8
					c-4.2-6.3-11.8-2.8-13.6-0.9c-0.4,0.4-0.7,0.9-1,1.4C10.5,75.9,14.1,74,16.2,77.5z"/>
				<path class="st4" d="M18.4,126.9c-7.1-0.9-12.6-7-16.3-12.4c3.5,10.7,13.3,14.4,28.3,14.7c7.4,0.1,12.8-1.1,16.7-3.1
					C38.6,128.4,30.1,128.4,18.4,126.9z"/>
			</g>
			<g>
				<g>
					<g>
						<polygon class="st6" points="405.3,112.4 384.3,125 345,102.6 365.4,90.4 						"/>
						<polygon class="st6" points="405.3,127.2 405.3,112.4 384.3,125 384.3,139.1 						"/>
						<polygon class="st7" points="345,102.6 345,116.3 384.3,139.1 384.3,125 						"/>
					</g>
					<g>
						<polygon class="st8" points="376.1,129.1 363.6,136.3 342.2,124.1 355,116.2 						"/>
						<polygon class="st9" points="363.6,141.6 363.6,136.3 376.1,129.1 376.1,134.4 						"/>
						<polygon class="st10" points="342.2,124.1 342.2,129.5 363.6,141.6 363.6,136.3 						"/>
						<path class="st43" d="M368.3,133.7l0.5-0.3c-1.6-1.2-3.4-2-5.4-2.5c-1.9-0.5-3.7-1.3-5.5-2.3c-1.9-1.1-3.6-2.6-4.9-4.3
							c-0.6-0.8-1.4-1.5-2.3-2c-1-0.5-1.9-1.1-2.8-1.8l-0.5,0.3c0.9,0.8,1.9,1.5,3,2c0.8,0.5,1.5,1.2,2,1.9c1.4,1.8,3.1,3.3,5,4.4
							c1.7,1,3.6,1.8,5.6,2.4C365,131.8,366.8,132.5,368.3,133.7z"/>
						<path class="st24" d="M359.9,126.4c-0.6-0.3-1.1-0.9-1.2-1.6c0.4,0,1-0.1,1.6-0.1C360.2,125.2,360.1,125.8,359.9,126.4z"/>
						<path class="st24" d="M362.9,124.4L362.9,124.4c0,1.1-0.8,2-1.9,2c0,0,0,0-0.1,0c-0.2,0-0.4,0-0.5-0.1
							c0.1-0.6,0.3-1.2,0.5-1.8C361.6,124.5,362.3,124.4,362.9,124.4z"/>
						<path class="st24" d="M358.8,124.2c0-1,0.8-1.8,1.8-1.8c0,0,0.1,0,0.1,0h0.3c-0.1,0.5-0.3,1.1-0.5,1.6
							C360,124.1,359.4,124.1,358.8,124.2z"/>
						<path class="st24" d="M361.6,122.5c0.7,0.2,1.2,0.8,1.3,1.5c-0.4,0-1.1,0.1-1.8,0.1L361.6,122.5z"/>
					</g>
					<g>
						<polygon class="st8" points="394,104 378.1,94.4 368.1,100.1 383.8,109.8 						"/>
						<polygon class="st9" points="394,106.1 394,104 383.8,109.8 383.8,112.1 						"/>
						<polygon class="st10" points="383.8,112.1 368.4,102.6 368.1,100.1 383.8,109.8 						"/>
					</g>
					<g>
						<polygon class="st10" points="411.6,75.1 350.7,40.1 350.7,85.3 411.6,121 						"/>
						<g>
							<path class="st24" d="M388.9,76.6c-11-4.1-22.7-3.5-28.4-3.3c-2.4,0.1-5.6-0.8-8.6-1.6V42.5L410.3,76v18.9
								C408,91.9,398.6,80.1,388.9,76.6z"/>
							<path class="st3" d="M351.9,84.4V71.6c3,0.9,6.2,1.7,8.6,1.6c5.7-0.1,17.4-0.6,28.4,3.3c9.6,3.5,19.1,15.2,21.3,18.2v23.8
								L351.9,84.4z"/>
							<path class="st44" d="M396.3,110.4c0,0-6-11.6-5-18.6c0.5-4.1,2.8-7.8,6.3-10c0,0-5.8-4.3-9.5-5.5c-3.8-1.2-6.2,0.6-8.5,2.8
								c-2.3,2.1-23.9,7.5-23.9,7.5L396.3,110.4z"/>
							<polygon class="st45" points="386.4,89.1 381.8,97.8 373.4,94.4 381.1,85.5 							"/>
							<ellipse class="st46" cx="385.6" cy="90.4" rx="0.5" ry="1.1"/>
							<ellipse class="st46" cx="382.8" cy="95.8" rx="0.6" ry="1.2"/>
						</g>
						<polygon class="st9" points="411.6,121 412.9,120.1 412.9,74.5 411.6,75.1 						"/>
						<polygon class="st8" points="350.7,40.1 411.6,75.1 412.9,74.5 351.8,39.7 						"/>
					</g>
					<g class="st47">
						<polygon class="st1" points="383.8,112.1 376.6,112.4 368.1,107.6 368.4,102.6 						"/>
					</g>
				</g>
				<g>
					<path class="st48" d="M363,110.8c-1.1-1.8-0.2-3.6,0.1-5.6c-0.4,0.5-4.2-2-3.8-2.8c-1,1.5-7.8,2.7-5.7-1
						c0.6-1.2,2.9-1.2,3.9-1.8c1.4-1,1.1-2.3,3.1-1.8c1.5,0.7,2.8,1.6,4.1,2.7c1.4,1,3.3,1.5,4.4,2.5c0.8,0.6,1.6,2,1.2,3.1
						c-0.8,1.6-43.9,1.3-2.7,1.3C369.1,107.4,364.4,111.2,363,110.8z"/>
					<path class="st36" d="M360.8,101.8c-0.5-0.1-1.5-0.9-1.2-1c0.3-0.1,1.1-1,1.4-1c0.3,0,0.8,1,0.9,1.1
						C361.5,101.3,361.1,101.6,360.8,101.8z"/>
					<path class="st36" d="M364.8,104.8c-0.8-0.3,0.1-1.1,0.1-1.1s0.4-0.6,1-0.5c0.4,0.1,0.7,0.3,1,0.6l-0.9,1H364.8z"/>
				</g>
			</g>
			<g>
				<polyline class="st1" points="111.1,80.9 118.5,82.1 110.9,78.7 111.1,80.9 				"/>
				<g>
					<path class="st5" d="M159.2,106.5v2.5c0.5,0.6,1.3,0.8,2,0.8c1.4-0.1,1.5-0.5,1.5-0.5v-2.7H159.2z"/>
					<path class="st5" d="M109.1,77.6V80c0.5,0.6,1.3,0.8,2,0.8c1.4-0.1,1.5-0.5,1.5-0.5v-2.7H109.1z"/>
					<polygon class="st6" points="103,52.2 120.8,41.9 187.7,81.6 170.5,91.7 					"/>
					<polygon class="st6" points="103,74.4 103,52.2 170.5,91.7 170.5,113.7 					"/>
					<polygon class="st7" points="106.7,71.9 106.7,58.4 118.5,65.4 					"/>
					<polygon class="st6" points="166.5,107.3 166.5,93.3 161.9,90.5 151.3,96.6 130.8,85 130.8,79.5 136.2,75.7 118.5,65.4 
						106.7,71.9 					"/>
					<polygon class="st7" points="187.7,81.6 187.7,103.6 170.5,113.7 170.5,91.7 					"/>
					<g class="st47">
						<polygon class="st1" points="151.3,96.6 166.5,93.3 161.9,90.5 						"/>
					</g>
				</g>
				<g>
					<polygon class="st25" points="151.3,96.6 151.3,88 154.1,86.3 161.9,90.5 					"/>
					<polygon class="st26" points="138.7,80.8 138.7,89.4 151.3,96.6 151.3,88 					"/>
					<polygon class="st24" points="154.1,86.3 141.5,78.7 138.7,80.8 151.3,88 					"/>
				</g>
				<g>
					<polygon class="st8" points="128.7,61.3 140,54.5 162.2,67.2 151.3,74.1 					"/>
					<polygon class="st9" points="128.7,63.3 128.7,61.3 151.3,74.1 151.3,76.5 					"/>
					<polygon class="st10" points="151.3,76.5 162,69.8 162.2,67.2 151.3,74.1 					"/>
				</g>
				<g>
					<polygon class="st9" points="120.8,1.1 172,30.9 172,77.3 120.8,47.1 					"/>
					<polygon class="st8" points="123.5,0 120.8,1.1 172,30.9 174.1,29.8 					"/>
					<polygon class="st10" points="172,77.3 174.3,75.4 174.1,29.8 172,30.9 					"/>
				</g>
				<polygon class="st36" points="123,2.4 123,44 170.9,72.2 170.9,30.7 				"/>
				<polygon class="st49" points="123,25.7 170.9,51.4 170.9,72.2 123,44 				"/>
				<polygon class="st9" points="138.7,89.4 138.7,84 130.8,79.5 130.8,85 				"/>
				<polygon class="st8" points="130.8,79.5 136.2,75.7 141.5,78.7 138.7,80.8 138.7,84 				"/>
				<polygon class="st3" points="123.9,7.5 123.9,9.1 143.1,20.7 143.1,19 				"/>
				<polygon class="st22" points="148.6,22.2 148.6,23.8 167.8,35.4 167.8,33.7 				"/>
				<polygon class="st27" points="127.4,45.3 131.8,38.4 130.8,32.5 130,35.9 132.2,35.6 132.2,37 128.8,36.8 130,31.4 130.8,30.3 
					130.8,29.3 130.7,28.9 128.9,30.1 130.8,26.9 134.3,27.6 132.2,28.3 132.7,29 132.5,29.3 133.4,29.6 135.8,31.7 139.3,33.1 
					139.2,34.1 137.2,33.5 135.3,33.3 133.8,31.7 135.3,36.8 144.9,36.5 144.9,37.7 133.8,38.9 128.6,46 				"/>
				<polygon class="st24" points="145.7,54.5 149.7,50.8 155.2,52.1 160.3,49.3 164.3,49.3 168.3,45.8 167.6,45.1 164,48 
					161.1,48.2 162.8,46.9 162,45.5 159.6,46.3 159,47 158,45.8 157.4,40.1 156.6,40.1 156.7,45.8 157.6,47.5 154.7,49.6 150.5,47 
					144.7,44.3 144.2,45.3 148.2,47.3 151.3,49.3 148.3,48.7 145.2,53.7 				"/>
			</g>
			<g>
				<path class="st2" d="M324.2,152.1c-10.1,3.9-22.4,6.8-33.5,1c-8.5-4.4-12.9-7.9-16.5-13.1c-1.1-2.6-1.9-5.4-2.3-8.3
					c-0.8-6.8-2.4-15.2,2.8-24.5c5.1-9.3,7.8-12,8.7-13c0.9-1,6.3-3.4,10.8-0.8c2,1.4,3.6,3.2,4.7,5.3c-5.4-2.7-12.3-5.9-13.5-4.7
					c-2,2-2.7,2.1-3.2,3.6c-0.5,1.5-2.1,10.3-2.1,16.4s3.1,14.9,5.6,18.9c2.5,4,7.5,8.8,17.4,12c9.9,3.2,17,2.7,22.1,0.9
					s7.7-8.1,7.1-14.5l-2.8-5.8l-7-6.8c0.9,0.4,1.7,0.9,2.3,1.2c3.4,2.3,8.7,7.6,10.2,13.4c0.6,2.5,0.7,5,0.2,7.5
					C333.4,144.7,330.3,149.8,324.2,152.1z"/>
				<path class="st3" d="M331.4,130.2c0.4,0.9,0.6,1.8,0.6,2.8c0.1,5.8-2.6,11.1-7.2,12.9c-4.9,1.8-12.1,2.5-22.1-0.9
					c-10-3.3-14.9-8-17.4-12s-5.6-12.8-5.6-18.9s1.5-14.9,2.1-16.4c0.7-1.5,1.8-2.8,3.2-3.6c1.4-1.1,7.8,0,13.5,4.7
					c1.7,3,2.9,6,3.3,6.6c0.8,1.2,1.6,5.5,3.9,6.9c1.9,1.2,11.4,4.3,16.3,6.6l6.4,6.3c0.3,0.3,0.6,0.7,0.8,1.1L331.4,130.2z"/>
				<path class="st4" d="M327.8,152.3c-7,4.6-15.3,6.7-23.7,5.9c-8.9-0.8-19.2-3.1-25.2-10.4c-1.9-2.4-3.5-5-4.6-7.8
					c3.6,5.1,8.1,8.7,16.5,13.1c11.1,5.8,23.4,3,33.5-1c5-2.1,8.9-6.2,10.7-11.3C334.2,145.5,331.6,149.6,327.8,152.3z"/>
			</g>
			<g>
				<path class="st45" d="M317.7,169.8c0.2,0.9,0.4,1.8,0.8,2.7c4.2,6.2,10.6,13.2,18.6,14.1c13.3,1.7,23,1.8,32.7-1
					c4.5-2.3,8.2-6,10.4-10.5c0.7-1.3,1.1-2.8,1.1-4.3c-0.4,1-1.7,4-3.1,5.3c-1.7,1.6-8.1,2.7-12,2.7c-3.9,0-9-3.8-13.8-6.5
					c-4.8-2.8-8.8-13.1-11.1-21c-2.4-7.9-2.8-15.2-6.6-21.2c-2.5-3.9-6.5-1.8-9.6,1.2c-3,5.1-5.6,10.4-7.7,16
					C317.1,147.4,314.4,155.5,317.7,169.8z"/>
				<path class="st24" d="M334.5,130.3c3.8,6,4.3,13.3,6.6,21.2s6.3,18.2,11.1,21c4.8,2.8,10.1,6.5,13.8,6.5s10.3-1.2,12-2.7
					c1.3-1.6,2.4-3.3,3.1-5.3c0.1-6.1-5.3-11.8-9.2-12.1c-4.9-0.3-14-2.4-18.1-5.5c-4.1-3.1-7.5-15.4-12.2-22.6s-13.4-3.1-15.5-1
					c-0.4,0.5-0.8,1-1.2,1.5C328,128.4,332,126.4,334.5,130.3z"/>
				<path class="st50" d="M337.1,186.6c-8-1.1-14.5-8-18.6-14.1c4.1,12.2,15.2,16.4,32.3,16.7c8.5,0.2,14.6-1.3,19.1-3.5
					C360.1,188.4,350.4,188.3,337.1,186.6z"/>
			</g>
		</g>
	</g>
</g>
</svg>
