<svg xmlns="http://www.w3.org/2000/svg" viewBox="0 0 544.21 331.41">
  <defs>
    <style>
      .cls-1 {
        opacity: 0.1;
      }

      .cls-2 {
        fill: #ea821b;
      }

      .cls-3 {
        fill: #ff931e;
      }

      .cls-4 {
        fill: #dd7a22;
      }

      .cls-5 {
        fill: #191a0a;
      }

      .cls-6 {
        fill: #bb9469;
      }

      .cls-7 {
        fill: #825537;
      }

      .cls-8 {
        fill: #4d4d4d;
      }

      .cls-9 {
        fill: #333;
      }

      .cls-10 {
        fill: #1a1a1a;
      }

      .cls-11 {
        fill: #2a1b1a;
      }

      .cls-12 {
        fill: #cea080;
      }

      .cls-13 {
        fill: #edbea1;
      }

      .cls-14 {
        fill: #eabc8c;
      }

      .cls-15 {
        fill: #1b4275;
      }

      .cls-16 {
        fill: #404c54;
      }

      .cls-17 {
        fill: #7e8284;
      }

      .cls-18 {
        fill: #633a12;
      }

      .cls-19 {
        fill: #589bfe;
      }

      .cls-20 {
        fill: #301e1d;
      }

      .cls-21 {
        fill: #5f322f;
      }

      .cls-22 {
        fill: #3fa9f5;
      }

      .cls-23 {
        fill: #d3b5a0;
      }

      .cls-24 {
        fill: #00ccdb;
      }

      .cls-25 {
        fill: #1099ac;
      }

      .cls-26 {
        fill: #00b2ca;
      }

      .cls-27 {
        fill: #255f99;
      }

      .cls-28 {
        fill: #1d4e89;
      }

      .cls-29 {
        fill: #aa5e5e;
      }

      .cls-30 {
        fill: #eff4fa;
      }

      .cls-31 {
        fill: #606060;
      }

      .cls-32 {
        fill: #3d3d3d;
      }

      .cls-33 {
        fill: #1e1e1e;
      }

      .cls-34 {
        fill: #59c0ed;
      }

      .cls-35 {
        fill: #f7931e;
      }

      .cls-36 {
        fill: #434a55;
      }

      .cls-37 {
        fill: #e0bfb6;
      }

      .cls-38 {
        fill: #464134;
      }

      .cls-39 {
        fill: #fbd2c3;
      }

      .cls-40 {
        fill: #3c382f;
      }

      .cls-41 {
        fill: #666054;
      }

      .cls-42 {
        fill: #ffd6cd;
      }

      .cls-43 {
        fill: #a0a0a0;
      }

      .cls-44 {
        fill: #4d4f54;
      }

      .cls-45 {
        fill: #00b6ba;
      }

      .cls-46 {
        fill: #f2f2f2;
      }

      .cls-47 {
        opacity: 0.2;
      }

      .cls-48 {
        fill: #f7f7f7;
      }

      .cls-49 {
        fill: #3a3b3f;
      }

      .cls-50 {
        fill: #099;
      }
    </style>
  </defs>
  <title>consolesРесурс 5</title>
  <g id="Слой_2" data-name="Слой 2">
    <g id="Material">
      <g id="consoles">
        <g>
          <polyline class="cls-1" points="488.61 328.01 483.91 329.31 488.61 327.12 488.61 328.01"/>
          <polyline class="cls-1" points="536.51 301.01 530.41 302.71 535.61 299.51 536.51 301.01"/>
          <g>
            <g>
              <path class="cls-2" d="M414.71,267.61c-9.3,3.6-20.6,6.2-30.8.9-7.7-4-11.8-7.3-15.2-12a27.55,27.55,0,0,1-2.1-7.6c-.7-6.3-2.2-14,2.5-22.6s7.2-11.1,8-11.9,5.8-3.1,10-.7a13.4,13.4,0,0,1,4.3,4.8c-5-2.5-11.4-5.4-12.5-4.3-1.8,1.9-2.4,1.9-3,3.4s-1.9,9.5-1.9,15.1,2.8,13.7,5.1,17.4,6.9,8,16,11.1,15.7,2.4,20.3.8,7.1-7.5,6.5-13.3l-2.5-5.3-6.4-6.3a12,12,0,0,1,2,1.1c3.2,2,7.9,7,9.4,12.4a15.81,15.81,0,0,1,.2,6.9C423.11,260.81,420.21,265.51,414.71,267.61Z"/>
              <path class="cls-3" d="M421.31,247.51a5.83,5.83,0,0,1,.6,2.6c.1,5.3-1.9,10.4-6.1,11.9-4.6,1.6-11.64,2.23-20.84-.77s-13.66-7.53-16-11.23-5.1-11.7-5.1-17.4a72.77,72.77,0,0,1,1.9-15.1,8.08,8.08,0,0,1,3-3.4c1.3-.9,7.2,0,12.5,4.3,1.6,2.7,2.6,5.5,3.1,6.2.7,1.1,1.4,5,3.5,6.3,1.8,1.1,10.5,4,15,6.1l5.9,5.8a3.59,3.59,0,0,1,.7,1Z"/>
              <path class="cls-4" d="M417.91,267.81a32.92,32.92,0,0,1-21.8,5.4c-8.2-.7-17.6-2.8-23.2-9.6a28.54,28.54,0,0,1-4.2-7.2c3.4,4.8,7.5,8,15.2,12,10.3,5.3,21.5,2.7,30.8-.9,5.5-2.1,8.4-6.8,9.9-10.3A16.33,16.33,0,0,1,417.91,267.81Z"/>
            </g>
            <g>
              <path class="cls-2" d="M451.48,253.21c-8.8,3.4-19.65,6-29.45.9-7.4-3.8-11.11-7.5-14.31-12a26.83,26.83,0,0,1-2-7.2c-.6-5.9-2.1-13.3,2.4-21.5s6.8-10.5,7.6-11.3,5.5-3,9.5-.6a14.13,14.13,0,0,1,4.1,4.6c-4.7-2.4-10.8-5.1-11.9-4.1-1.8,1.8-2.3,1.8-2.9,3.2s-1.8,9-1.8,14.4,2.7,13,4.9,16.5,6.5,7.7,15.2,10.5,14.9,2.3,19.3.7,6.7-7.1,6.2-12.6l-2.4-5.1-6-5.9a15.43,15.43,0,0,1,1.9,1c3,1.9,7.6,6.7,8.9,11.8a15.6,15.6,0,0,1,.2,6.5C459.41,246.21,456.68,251.11,451.48,253.21Z"/>
              <path class="cls-3" d="M457.71,233.61a5.42,5.42,0,0,1,.6,2.5c.1,5-2.3,9.8-6.3,11.2-4.3,1.6-10.6,2.1-19.3-.7s-13-7-15.2-10.5-4.9-11.2-4.9-16.5a69.07,69.07,0,0,1,1.8-14.4,7.43,7.43,0,0,1,2.9-3.2c1.2-.9,6.9,0,11.9,4.1,1.5,2.6,2.5,5.2,2.9,5.9.7,1,1.4,4.7,3.3,6,1.7,1.1,9.9,3.8,14.3,5.8l5.6,5.5a5.49,5.49,0,0,1,.7.9Z"/>
              <path class="cls-4" d="M454.41,252.91a31.59,31.59,0,0,1-20.7,5.2c-7.8-.6-16.8-2.7-22-9.1a30.78,30.78,0,0,1-4-6.8c3.2,4.5,7.1,7.6,14.4,11.4,9.8,5.1,20.5,2.6,29.3-.8,5.3-2,8-6.5,9.4-9.8A15.82,15.82,0,0,1,454.41,252.91Z"/>
            </g>
            <g>
              <path class="cls-5" d="M491.31,325.11v2.3a2.18,2.18,0,0,1-1.9.7c-1.3-.1-1.4-.5-1.4-.5v-2.5Z"/>
              <path class="cls-5" d="M538.31,297.91v2.3a2.18,2.18,0,0,1-1.9.7c-1.3-.1-1.4-.5-1.4-.5v-2.5Z"/>
              <polygon class="cls-6" points="544.21 274.12 527.61 264.51 465.01 301.51 481.11 311.01 544.21 274.12"/>
              <polygon class="cls-6" points="544.21 294.71 544.21 274.12 481.11 311.01 481.11 331.42 544.21 294.71"/>
              <polygon class="cls-7" points="465.01 301.51 465.01 322.01 481.11 331.42 481.11 311.01 465.01 301.51"/>
            </g>
            <g>
              <polygon class="cls-8" points="515.81 282.21 509.01 278.12 495.41 285.81 502.11 290.01 515.81 282.21"/>
              <polygon class="cls-9" points="515.81 283.51 515.81 282.21 502.11 290.01 502.11 291.51 515.81 283.51"/>
              <polygon class="cls-10" points="502.11 291.51 495.51 287.42 495.41 285.81 502.11 290.01 502.11 291.51"/>
            </g>
            <g>
              <polygon class="cls-9" points="527.61 226.41 479.81 254.12 479.81 297.42 527.61 269.42 527.61 226.41"/>
              <polygon class="cls-8" points="525.01 225.41 527.61 226.41 479.81 254.12 477.71 253.22 525.01 225.41"/>
              <polygon class="cls-10" points="479.81 297.42 477.51 295.81 477.71 253.22 479.81 254.12 479.81 297.42"/>
            </g>
            <g>
              <path class="cls-11" d="M429.41,269.31a22.89,22.89,0,0,1,3.2,2c.46.53.21,2.2-.9,2.2s-3.75-1.21-5.1-1.6-4.3-1.78-4.5-2.2a2.73,2.73,0,0,1,0-1.3Z"/>
              <path class="cls-11" d="M423,276.91c.76,1.09.5,4.89.5,5.7s-.4,1.48-2,0-5.5-8-5.5-8.8,1.1-1.3,1.1-1.3S422.26,275.83,423,276.91Z"/>
              <path class="cls-12" d="M429.21,271.41c-1,0-6.51-2.2-7.1-2.6s-3.5-15-3.5-15l-6.6.9,1.1-7.5,9.2,3s1.32,10.13,1.7,12.4,1.3,4.4,2.3,5,3.71,1.87,4,2.4S430.2,271.41,429.21,271.41Z"/>
              <path class="cls-13" d="M422.11,279.61c.37-.67-1.8-6.26-1.8-6.26l.9-8.94c.21-5.37,1.07-14.47.6-15.6a46,46,0,0,0-3.5-5l-6.9.8.6,4.9a27,27,0,0,1,3.3,2.2c.5.56.45,9.25.7,10.7s1.2,6.83,1.2,7.8-.32,3.55,0,4.4a31,31,0,0,0,3.7,5C421.28,279.83,421.75,280.29,422.11,279.61Z"/>
              <path class="cls-14" d="M407.52,225.81s.47,6.44,1.07,7,8.39,2,8.9,2.5-.9,2.9-.9,2.9l-1.6-2.4s-7.52.38-8.1,0-.71-4.07-.71-4.07C406.76,230.29,406.84,227.84,407.52,225.81Z"/>
              <path class="cls-14" d="M401.81,225.51l1.5-6.3-.7-2.1c2.94-2.08,3.41-4.74,1.7-7.9l-3-3.5-6.1,5.1-2.2,7.6,4.5,7.4Z"/>
              <path class="cls-15" d="M419.91,244.61s-4.61.18-5.6,1.1-.22,6.35-1.9,9.3-9.62,4.19-10.9,3.7-3.5-7.6-4.3-8.1-3.6-2.2-3.8-2.8,2-13.1,2-13.1l-3-6.1c-1.28.13-4,.4-4.1-.1s3.05-8.32,4.56-10c0,0,2.92,2.51,4,3.29a4,4,0,0,0,4,.4c1.28-.67,2.4-3,2.4-3l.8-.1s3.22,5.7,3.4,6.4-1.5,8.3-1.5,8.3.11,4.33,1.7,4.8C409,239,419.42,243.88,419.91,244.61Z"/>
              <g>
                <path class="cls-16" d="M417.51,240.11s1.2-2.2.6-2.8-1.7-1.3-2.1-1.6c-5.2-3.1-4.3.7-4.3.7l-.1,1.4s-1,.4-1.3.5-2.6,1.4-2.7,1.5a12.77,12.77,0,0,1-1.7.2s-2.9-.3-3.1-.4a1.42,1.42,0,0,0-1.7,1.5l2.6,2.6s3.3,1.4,3.5,1.4,5.6-2.2,5.6-2.2,4.4-2.6,4.5-2.7C417.31,240.31,417.51,240.11,417.51,240.11Z"/>
                <path class="cls-3" d="M415.31,240l-2.5.8s-1.7,1-1.7,1.3.4,1.1,1.7.4a20.18,20.18,0,0,0,2.5-1.4C415.81,240.71,415.31,240,415.31,240Z"/>
                <path class="cls-17" d="M413,238.91c-.3.5-1.4.9-1.6.7s-.5-.6-.2-.9a1.65,1.65,0,0,1,.9-.5,1.6,1.6,0,0,1,.8.3A1,1,0,0,1,413,238.91Z"/>
                <path class="cls-17" d="M409.21,239.61c.5,0,1.2.5,1.1.8a2.88,2.88,0,0,1-1.8.7.7.7,0,0,1-.4-.9C408.21,239.91,409.21,239.61,409.21,239.61Z"/>
                <circle class="cls-17" cx="416.11" cy="237.61" r="0.4"/>
                <circle class="cls-17" cx="415.51" cy="236.31" r="0.3"/>
                <circle class="cls-17" cx="414.81" cy="238.11" r="0.3"/>
                <circle class="cls-17" cx="407.51" cy="241.91" r="0.4"/>
                <circle class="cls-17" cx="406.01" cy="241.31" r="0.3"/>
              </g>
              <path class="cls-14" d="M404.31,243.61c-1.06.2-13.16-4.6-14-5.2s-2-10-2-10a13.31,13.31,0,0,0,4.1.2s.58,6.2,1.1,6.8,8.5,4.7,8.5,4.7,3.48.63,4,.6,2.4.62,2.4,1.2S405.38,243.41,404.31,243.61Z"/>
              <path class="cls-18" d="M399.71,217.61s4.3,2.94,4.9,2.3,2.07-8.89,1.4-10.7-2.28-7.68-4.6-7.9-10.1,1-10.5,1.9a12.47,12.47,0,0,0-.4,5.2c.31,1.2,4.77,17.05,4.7,18s-.6,5.29-.5,6.4,2.24,2.2,2.2.3,1.31-11.06,1.3-12.9-1.28-9.44-.9-10,4.31-3.28,5-2.69a7.31,7.31,0,0,1,1.43,4.19,7.94,7.94,0,0,1-.9,3.6A18.51,18.51,0,0,1,399.71,217.61Z"/>
            </g>
            <g>
              <path class="cls-19" d="M438.71,258.21c-.28.15,0,3.4.3,3.9s9.11,3.37,10.3,3.1,2.58-1.65,2.5-2.5-2.58-3.58-4-3.8S439,258.06,438.71,258.21Z"/>
              <path class="cls-19" d="M461,262c-1.43,0-10-3.12-10.3-3.7s-.89-3.5.2-3.6a64.5,64.5,0,0,1,10.1,1.7c.59.36,3.29,4.15,2.9,4.6A4.09,4.09,0,0,1,461,262Z"/>
              <path class="cls-20" d="M455.91,255.91s-.83-18.55-1.9-20.5-17-4.2-17-4.2l-9.7,4.3s17.59,1.8,19.7,4.1,3.7,16.5,3.7,16.5C452.61,256.45,454.47,256.73,455.91,255.91Z"/>
              <path class="cls-21" d="M446,258.91c-1.7,1.21-4.13,1.3-7,.7,0,0,.2-16.2-1.2-17.1s-14-3-15.3-4.9-1.3-6.2-1.3-6.2l14.1.4s7.2,5.1,8.3,6.9S446,258.91,446,258.91Z"/>
              <path class="cls-14" d="M422.19,202.3c-.66-6-.13-7.21.72-7.08l2,1.3,2.1-4.6,4.6.5s0,7.6,0,8.3-2.7,2.3-2.7,2.3l-1,5-7-3.6C421.45,204.52,421.86,203.73,422.19,202.3Z"/>
              <path class="cls-19" d="M421.91,234.91c-1.1-1.08-2.2-13.2-2.2-13.2l-.2-5.4s-6.77-.57-7.3-1.9,2.55-9.3,3.2-10,4.07-1.3,4.9-1,6.2,2.8,6.2,2.8l1.9-3.8s2.52-1.2,3.5-1.1,5.7,8.3,5.7,8.3a5,5,0,0,1-2,1.9l1.7,14.4s3.47,5.48,3.3,6.2S423,236,421.91,234.91Z"/>
              <path class="cls-14" d="M437.61,209.61s.4,4.9,1.3,5.7,8.4,1.7,8.4,1.7l-.4,3.6-10.1-.4-1.2-8.7Z"/>
              <g>
                <path class="cls-16" d="M447.71,220.11s1.3-2.2.6-2.8a16.74,16.74,0,0,0-2.1-1.6c-5.3-3.1-4.4.7-4.4.7l-.1,1.4s-1.1.4-1.3.5-2.6,1.4-2.8,1.6a12.77,12.77,0,0,1-1.7.2s-2.9-.3-3.1-.4a1.42,1.42,0,0,0-1.7,1.5l2.6,2.6s3.4,1.4,3.5,1.4,5.7-2.2,5.7-2.2,4.4-2.7,4.5-2.7S447.71,220.11,447.71,220.11Z"/>
                <path class="cls-22" d="M445.51,220a14.8,14.8,0,0,0-2.5.8s-1.7,1-1.7,1.3.4,1.1,1.7.4a20.18,20.18,0,0,0,2.5-1.4C446,220.71,446,220,445.51,220Z"/>
                <path class="cls-17" d="M443.21,219c-.4.5-1.4.9-1.7.7s-.5-.6-.2-.9a1.65,1.65,0,0,1,.9-.5,1.6,1.6,0,0,1,.8.3C443.31,218.81,443.21,219,443.21,219Z"/>
                <path class="cls-17" d="M439.31,219.61c.6,0,1.3.5,1.1.8a2.88,2.88,0,0,1-1.8.7.63.63,0,0,1-.4-.9C438.41,219.91,439.31,219.61,439.31,219.61Z"/>
                <circle class="cls-17" cx="446.41" cy="217.61" r="0.4"/>
                <circle class="cls-17" cx="445.71" cy="216.41" r="0.3"/>
                <circle class="cls-17" cx="445.01" cy="218.11" r="0.3"/>
                <circle class="cls-17" cx="437.61" cy="222.01" r="0.4"/>
                <circle class="cls-17" cx="436.11" cy="221.41" r="0.3"/>
              </g>
              <path class="cls-14" d="M413.41,214.91s5.1,9.51,6.5,10.41c.8.52,4.41-.35,8.05-.54,2.7-.14,3.67.39,6.31.36s3.62-.8,3.3-1.6-5.35-1.6-5.35-1.6,1.3-1,.75-1.5-3.37.17-3.37.17-6,.94-6.61.59-3.49-4.89-3.49-4.89Z"/>
              <path class="cls-18" d="M422.21,199.71c-.3.5-3.19-6.46-2-9s10-4.56,11.38-4.26,1.6,3.07,1.4,4.1a4.3,4.3,0,0,1-1.4,2.5c-.72.62-4.67.09-5.4.5s-.87,2.67-1.3,3-1-1.17-1.8-.8S422.51,199.21,422.21,199.71Z"/>
            </g>
            <polygon class="cls-23" points="540.81 288.71 540.81 293.12 484.71 325.81 484.71 321.51 540.81 288.71"/>
            <polygon class="cls-7" points="536.71 291.12 540.81 293.12 540.81 288.71 536.71 291.12"/>
            <polygon class="cls-23" points="540.81 280.92 540.81 285.31 484.71 318.01 484.71 313.71 540.81 280.92"/>
            <polygon class="cls-7" points="536.71 283.31 540.81 285.31 540.81 280.92 536.71 283.31"/>
            <g>
              <polygon class="cls-10" points="494.41 281.51 494.41 273.51 493.21 272.71 493.21 282.21 494.41 281.51"/>
              <polygon class="cls-9" points="518.11 259.92 518.11 268.12 494.41 281.51 494.41 273.51 518.11 259.92"/>
              <polygon class="cls-8" points="493.21 272.71 516.91 259.01 518.11 259.92 494.41 273.51 493.21 272.71"/>
            </g>
            <g>
              <polygon class="cls-24" points="511.51 300.01 503.71 304.51 502.11 303.51 509.91 298.92 511.51 300.01"/>
              <polygon class="cls-25" points="503.71 304.92 503.71 304.51 502.11 303.51 501.71 303.81 503.71 304.92"/>
              <polygon class="cls-26" points="511.51 300.01 511.51 300.31 503.71 304.92 503.71 304.51 511.51 300.01"/>
            </g>
            <g>
              <polygon class="cls-27" points="503.31 312.51 495.51 317.01 493.91 316.12 501.81 311.51 503.31 312.51"/>
              <polygon class="cls-15" points="495.51 317.51 495.51 317.01 493.91 316.12 493.51 316.31 495.51 317.51"/>
              <polygon class="cls-28" points="503.31 312.51 503.31 312.92 495.51 317.51 495.51 317.01 503.31 312.51"/>
            </g>
            <g>
              <polygon class="cls-2" points="524.71 300.01 516.91 304.51 515.31 303.51 523.21 298.92 524.71 300.01"/>
              <polygon class="cls-4" points="516.91 304.92 516.91 304.51 515.31 303.51 514.91 303.81 516.91 304.92"/>
              <polygon class="cls-4" points="524.71 300.01 524.71 300.31 516.91 304.92 516.91 304.51 524.71 300.01"/>
            </g>
          </g>
        </g>
        <g>
          <path class="cls-29" d="M165.21,162s15.28-14.92,15.9-16.9-3.37-3.9-4.5-3.9-18.4,11.7-18.4,11.7Z"/>
          <path class="cls-2" d="M180.11,178.91s6.4-19.44,3.37-21-18.27,4-18.27,4l-3.6-7s28-8.38,32.37-7.88-8.57,33.48-8.57,33.48Z"/>
          <g>
            <polygon class="cls-30" points="169.81 121.31 175.91 117.92 177.01 116.61 179.91 115.02 182.01 114.61 183.51 114.31 185.81 115.52 185.81 116.61 188.71 118.02 190.21 117.81 192.71 119.11 192.61 120.11 192.51 121.81 190.51 125.02 189.01 125.81 185.31 131.81 182.51 129.81 184.61 123.52 179.51 120.72 172.01 123.42 169.81 121.31"/>
            <ellipse class="cls-31" cx="181.01" cy="120.01" rx="1.3" ry="0.8"/>
            <ellipse class="cls-32" cx="181.01" cy="119.71" rx="1.3" ry="0.8"/>
            <ellipse class="cls-31" cx="182.01" cy="117.11" rx="2" ry="1.3"/>
            <ellipse class="cls-31" cx="185.11" cy="122.01" rx="1.3" ry="0.8"/>
            <ellipse class="cls-33" cx="188.41" cy="122.11" rx="0.6" ry="0.3"/>
            <ellipse class="cls-27" cx="190.11" cy="121.71" rx="0.6" ry="0.3"/>
            <ellipse class="cls-34" cx="188.11" cy="120.81" rx="0.6" ry="0.3"/>
            <ellipse class="cls-35" cx="189.91" cy="120.51" rx="0.6" ry="0.3"/>
            <ellipse class="cls-32" cx="185.11" cy="121.61" rx="1.3" ry="0.8"/>
            <polygon class="cls-36" points="189.11 125.81 185.31 131.81 182.51 129.81 184.61 123.52 179.51 120.72 172.01 123.42 169.71 121.31 169.51 123.42 171.71 125.02 179.41 122.11 184.21 124.81 182.51 129.81 182.51 131.31 185.11 133.41 188.71 128.12 190.21 127.22 192.01 124.31 192.51 121.81 190.51 125.02 189.11 125.81"/>
          </g>
          <path class="cls-37" d="M163.11,127c-.45-1,13-7.14,14-7.59,2.42-1,1.54-4.09-1.71-3s-15.82,8.86-15.82,8.86Z"/>
          <path class="cls-38" d="M155.31,111.51c-2.75,1.27,1.8,14.63,2.9,15.5s6.91-.18,7.4-.7,4.61-12,2.8-13.4-7-2.11-7.7-2.2A8.89,8.89,0,0,0,155.31,111.51Z"/>
          <path class="cls-39" d="M187.66,136.06c2.11-4.26,4.26-10.66,4.57-11.22,2-2.83-1.33-4.29-2.42-1.12s-2.86,8.41-4.7,10.41Z"/>
          <path class="cls-39" d="M168.62,116.81c-.26-1.72-3.76,9.32-5.27,7.15-1.86-2.67-3.6,2.84-3.18,3.95s4.37.71,4.71.3a29.46,29.46,0,0,0,1.44-3.6A47.66,47.66,0,0,0,168.62,116.81Z"/>
          <path class="cls-24" d="M158.31,151.11s-4.79-22.47-3.37-23.77c.69-.63,3.88.55,7.5.87,3.79.34,8-.16,8.88.6,1.67,1.48,8.7,9.34,9.7,9.46s4.1-4.86,4.1-4.86l3.6,2.24s-5.29,7.77-7.2,8-7.2-3.7-7.2-3.7,1,8,2.3,11.1-6.74,4.58-10.3,4.2S158.31,151.11,158.31,151.11Z"/>
          <g>
            <path class="cls-2" d="M134.81,170.91c.2.8.4,1.6.6,2.3,3.6,5.4,9.2,11.4,16.1,12.3,11.6,1.5,20,1.5,28.3-.8a20.7,20.7,0,0,0,9-9.1,8.39,8.39,0,0,0,.9-3.7,16.43,16.43,0,0,1-2.7,4.6c-1.5,1.4-7.1,2.4-10.4,2.4s-7.8-3.3-12-5.6-7.6-11.4-9.6-18.2-2.5-13.2-5.7-18.3c-2.1-3.4-5.7-1.6-8.4,1a91.06,91.06,0,0,0-6.7,13.8C134.41,151.51,132,158.61,134.81,170.91Z"/>
            <path class="cls-3" d="M149.41,137.71c3.3,5.2,3.7,11.5,5.7,18.3s5.4,15.8,9.6,18.2,8.7,5.6,12,5.6,8.9-1,10.4-2.4a16.43,16.43,0,0,0,2.7-4.6c.1-5.3-4.5-10.2-8-10.5-4.3-.3-12.1-2-15.7-4.7s-6.5-13.3-10.6-19.5-11.6-2.7-13.5-.8a8.51,8.51,0,0,0-1,1.3C143.81,136.11,147.31,134.31,149.41,137.71Z"/>
            <path class="cls-4" d="M151.61,185.51c-7-.9-12.5-6.9-16.1-12.3,3.5,10.6,13.2,14.2,28,14.5,7.3.2,12.6-1.1,16.5-3.1C171.61,187,163.21,186.91,151.61,185.51Z"/>
          </g>
        </g>
        <g>
          <polygon class="cls-40" points="101.81 120.22 94.01 111.11 114.51 104.92 114.01 110.72 101.81 120.22"/>
          <path class="cls-41" d="M124,128.71c2.86-4.57,5.16-13.52,7.4-23-3.69-.57-16.74,2.23-30.8,5.4l1.2,9.7s18.25-4.4,19-4-1.1,10.8-1.1,10.8Z"/>
          <g>
            <polygon class="cls-30" points="116.31 98.61 122.51 95.22 123.61 93.92 126.51 92.31 128.51 91.92 130.11 91.61 132.31 92.81 132.31 93.92 135.21 95.31 136.71 95.11 139.21 96.42 139.21 97.42 139.01 99.11 137.01 102.31 135.61 103.11 131.81 109.11 129.11 107.11 131.21 100.81 126.11 98.02 118.51 100.72 116.31 98.61"/>
            <ellipse class="cls-31" cx="127.61" cy="97.31" rx="1.3" ry="0.8"/>
            <ellipse class="cls-32" cx="127.61" cy="97.01" rx="1.3" ry="0.8"/>
            <ellipse class="cls-31" cx="128.61" cy="94.41" rx="2" ry="1.3"/>
            <ellipse class="cls-31" cx="131.71" cy="99.31" rx="1.3" ry="0.8"/>
            <ellipse class="cls-33" cx="134.91" cy="99.41" rx="0.6" ry="0.3"/>
            <ellipse class="cls-27" cx="136.61" cy="99.01" rx="0.6" ry="0.3"/>
            <ellipse class="cls-34" cx="134.61" cy="98.11" rx="0.6" ry="0.3"/>
            <ellipse class="cls-35" cx="136.41" cy="97.81" rx="0.6" ry="0.3"/>
            <ellipse class="cls-32" cx="131.71" cy="98.91" rx="1.3" ry="0.8"/>
            <polygon class="cls-36" points="135.61 103.11 131.81 109.11 129.11 107.11 131.21 100.81 126.01 98.02 118.51 100.72 116.31 98.61 116.01 100.72 118.21 102.31 126.01 99.42 130.71 102.11 129.11 107.11 129.01 108.61 131.71 110.72 135.21 105.42 136.81 104.52 138.51 101.61 139.01 99.11 137.01 102.31 135.61 103.11"/>
          </g>
          <path class="cls-42" d="M133.11,107.11c.9.27,4.5-1.29,4.9-1.7s1.13-3.34.4-3.5-4.69,1.52-5.3,2.2S132.21,106.85,133.11,107.11Z"/>
          <path class="cls-42" d="M117.41,89.31c.73-2.2,3.8-4.32,3.8-5.5s-.3-3.5-.3-3.5l-5.6,4.9a15,15,0,0,0-2.3,2.7C112.69,88.71,116.68,91.51,117.41,89.31Z"/>
          <path class="cls-27" d="M96,109.81s8-19.77,9.84-21.39c2.38-2.54,16.36.85,17.16,1.59s4.86,13.1,5.6,14,3.4.45,3.9.4.7,3.69.6,3.9-5.69,2.22-7.6.6-3.27-9.9-4.9-9.9-9.4,13.45-12.1,14.2S96,109.81,96,109.81Z"/>
          <path class="cls-36" d="M116.61,87.11a27.47,27.47,0,0,0,2.1-4.4c.24-.68,1.3-1.2,1.9-1.5s1-6.07-.5-6.7-7.5.12-8.9.7-2.7,3.93-2.7,5.4,3.58,5.86,4.4,6.5A4.12,4.12,0,0,0,116.61,87.11Z"/>
        </g>
        <g>
          <path class="cls-2" d="M73.31,126.71c.2.8.4,1.5.6,2.2,3.4,5.1,8.6,10.8,15.2,11.6,10.9,1.4,18.9,1.5,26.7-.8a19,19,0,0,0,8.5-8.6,7.3,7.3,0,0,0,.9-3.5,14.84,14.84,0,0,1-2.6,4.3c-1.4,1.3-6.7,2.2-9.8,2.2s-7.4-3.1-11.3-5.3-7.2-10.7-9.1-17.1-2.3-12.4-5.4-17.3c-2-3.2-5.3-1.5-7.9.9a90.07,90.07,0,0,0-6.3,13C72.91,108.41,70.61,115.11,73.31,126.71Z"/>
          <path class="cls-3" d="M87.11,94.41c3.1,4.9,3.5,10.9,5.4,17.3s5.1,14.9,9.1,17.1,8.2,5.3,11.3,5.3,8.4-.9,9.8-2.2a14.83,14.83,0,0,0,2.6-4.3c.1-5-4.3-9.7-7.6-9.9-4.1-.3-11.4-1.9-14.8-4.4s-6.1-12.6-10-18.5-11-2.6-12.7-.8a4.85,4.85,0,0,0-.9,1.3C81.81,92.91,85.11,91.21,87.11,94.41Z"/>
          <path class="cls-4" d="M89.21,140.51c-6.6-.8-11.8-6.5-15.2-11.6,3.3,10,12.4,13.4,26.4,13.7,6.9.1,11.9-1,15.6-2.9C108,141.91,100.11,141.91,89.21,140.51Z"/>
        </g>
        <g>
          <g>
            <g>
              <polygon class="cls-6" points="364.81 167.62 345.21 179.31 308.51 158.41 327.51 147.01 364.81 167.62"/>
              <polygon class="cls-6" points="364.81 181.41 364.81 167.62 345.21 179.31 345.21 192.51 364.81 181.41"/>
              <polygon class="cls-7" points="308.51 158.41 308.51 171.22 345.21 192.51 345.21 179.31 308.51 158.41"/>
            </g>
            <g>
              <polygon class="cls-8" points="337.51 183.12 325.91 189.91 305.91 178.51 317.81 171.12 337.51 183.12"/>
              <polygon class="cls-9" points="325.91 194.81 325.91 189.91 337.51 183.12 337.51 188.12 325.91 194.81"/>
              <polygon class="cls-10" points="305.91 178.51 305.91 183.51 325.91 194.81 325.91 189.91 305.91 178.51"/>
              <path class="cls-43" d="M330.21,187.41l.5-.3a14,14,0,0,0-5-2.3,23,23,0,0,1-5.1-2.1,17.45,17.45,0,0,1-4.6-4,7.4,7.4,0,0,0-2.1-1.9,14.34,14.34,0,0,1-2.6-1.7l-.5.3a15,15,0,0,0,2.8,1.9,6.3,6.3,0,0,1,1.9,1.8,16.66,16.66,0,0,0,4.7,4.1,21.67,21.67,0,0,0,5.2,2.2A10.27,10.27,0,0,1,330.21,187.41Z"/>
              <path class="cls-24" d="M322.41,180.61a1.92,1.92,0,0,1-1.1-1.5c.4,0,.9-.1,1.5-.1A9.35,9.35,0,0,1,322.41,180.61Z"/>
              <path class="cls-24" d="M325.21,178.81h0a1.82,1.82,0,0,1-1.8,1.9.9.9,0,0,1-.5-.1,15.43,15.43,0,0,1,.5-1.7C324,178.91,324.61,178.81,325.21,178.81Z"/>
              <path class="cls-24" d="M321.41,178.61a1.71,1.71,0,0,1,1.8-1.7h.3a13.14,13.14,0,0,1-.5,1.5C322.51,178.51,321.91,178.51,321.41,178.61Z"/>
              <path class="cls-24" d="M324,177a1.74,1.74,0,0,1,1.2,1.4c-.4,0-1,.1-1.7.1Z"/>
            </g>
            <g>
              <polygon class="cls-8" points="354.21 159.72 339.41 150.81 330.11 156.12 344.71 165.12 354.21 159.72"/>
              <polygon class="cls-9" points="354.21 161.72 354.21 159.72 344.71 165.12 344.71 167.31 354.21 161.72"/>
              <polygon class="cls-10" points="344.71 167.31 330.31 158.41 330.11 156.12 344.71 165.12 344.71 167.31"/>
            </g>
            <g>
              <polygon class="cls-10" points="370.71 132.81 313.81 100.11 313.81 142.31 370.71 175.62 370.71 132.81"/>
              <g>
                <path class="cls-24" d="M349.51,134.21c-10.3-3.8-21.2-3.3-26.5-3.1-2.2.1-5.2-.7-8-1.5v-27.3l54.4,31.3v17.6C367.31,148.41,358.51,137.41,349.51,134.21Z"/>
                <path class="cls-3" d="M314.91,141.41v-11.9c2.8.8,5.8,1.6,8,1.5,5.3-.1,16.2-.6,26.5,3.1,9,3.3,17.8,14.2,19.9,17v22.2Z"/>
                <path class="cls-44" d="M356.41,165.71s-5.6-10.8-4.7-17.4a12.81,12.81,0,0,1,5.9-9.3s-5.4-4-8.9-5.1-5.8.6-7.9,2.6-22.3,7-22.3,7Z"/>
                <polygon class="cls-45" points="347.11 145.81 342.81 153.91 335.01 150.81 342.21 142.51 347.11 145.81"/>
                <ellipse class="cls-46" cx="346.41" cy="147.01" rx="0.5" ry="1"/>
                <ellipse class="cls-46" cx="343.81" cy="152.11" rx="0.6" ry="1.1"/>
              </g>
              <polygon class="cls-9" points="370.71 175.62 371.91 174.72 371.91 132.22 370.71 132.81 370.71 175.62"/>
              <polygon class="cls-8" points="313.81 100.11 370.71 132.81 371.91 132.22 314.81 99.72 313.81 100.11"/>
            </g>
            <g class="cls-47">
              <polygon class="cls-1" points="344.71 167.31 338.01 167.62 330.11 163.12 330.31 158.41 344.71 167.31"/>
            </g>
          </g>
          <g>
            <path class="cls-48" d="M325.31,166.11c-1-1.7-.2-3.4.1-5.2-.4.5-3.9-1.9-3.5-2.6-.9,1.4-7.3,2.5-5.3-.9.6-1.1,2.7-1.1,3.6-1.7,1.3-.9,1-2.1,2.9-1.7a20.68,20.68,0,0,1,3.8,2.5c1.3.9,3.1,1.4,4.1,2.3.7.6,1.5,1.9,1.1,2.9-.7,1.5-1.3.5-2.5,1.2S326.61,166.41,325.31,166.11Z"/>
            <path class="cls-36" d="M323.21,157.71c-.5-.1-1.4-.8-1.1-.9s1-.9,1.3-.9.7.9.8,1A7,7,0,0,1,323.21,157.71Z"/>
            <path class="cls-36" d="M327,160.51c-.7-.3.1-1,.1-1s.4-.6.9-.5a1.84,1.84,0,0,1,.9.6l-.8.9Z"/>
          </g>
        </g>
        <g>
          <polyline class="cls-1" points="175.71 97.61 182.61 98.72 175.51 95.52 175.71 97.61"/>
          <g>
            <path class="cls-5" d="M220.61,121.51v2.3a2.18,2.18,0,0,0,1.9.7c1.3-.1,1.4-.5,1.4-.5v-2.5Z"/>
            <path class="cls-5" d="M173.81,94.51v2.3a2.18,2.18,0,0,0,1.9.7c1.3-.1,1.4-.5,1.4-.5v-2.5Z"/>
            <polygon class="cls-6" points="168.11 70.81 184.71 61.22 247.21 98.31 231.11 107.72 168.11 70.81"/>
            <polygon class="cls-6" points="168.11 91.52 168.11 70.81 231.11 107.72 231.11 128.22 168.11 91.52"/>
            <polygon class="cls-7" points="171.61 89.22 171.61 76.61 182.61 83.11 171.61 89.22"/>
            <polygon class="cls-6" points="227.41 122.22 227.41 109.22 223.11 106.61 213.21 112.22 194.11 101.42 194.11 96.31 199.11 92.72 182.61 83.11 171.61 89.22 227.41 122.22"/>
            <polygon class="cls-7" points="247.21 98.31 247.21 118.81 231.11 128.22 231.11 107.72 247.21 98.31"/>
            <g class="cls-47">
              <polygon class="cls-1" points="213.21 112.22 227.41 109.22 223.11 106.61 213.21 112.22"/>
            </g>
          </g>
          <g>
            <polygon class="cls-25" points="213.21 112.22 213.21 104.22 215.81 102.61 223.11 106.61 213.21 112.22"/>
            <polygon class="cls-26" points="201.41 97.52 201.41 105.52 213.21 112.22 213.21 104.22 201.41 97.52"/>
            <polygon class="cls-24" points="215.81 102.61 204.01 95.52 201.41 97.52 213.21 104.22 215.81 102.61"/>
          </g>
          <g>
            <polygon class="cls-8" points="192.11 79.31 202.61 73.02 223.41 84.81 213.21 91.22 192.11 79.31"/>
            <polygon class="cls-9" points="192.11 81.22 192.11 79.31 213.21 91.22 213.21 93.52 192.11 81.22"/>
            <polygon class="cls-10" points="213.21 93.52 223.21 87.22 223.41 84.81 213.21 91.22 213.21 93.52"/>
          </g>
          <g>
            <polygon class="cls-9" points="184.71 23.11 232.51 50.91 232.51 94.22 184.71 66.11 184.71 23.11"/>
            <polygon class="cls-8" points="187.21 22.11 184.71 23.11 232.51 50.91 234.51 49.91 187.21 22.11"/>
            <polygon class="cls-10" points="232.51 94.22 234.71 92.52 234.51 49.91 232.51 50.91 232.51 94.22"/>
          </g>
          <polygon class="cls-36" points="186.81 24.32 186.81 63.22 231.51 89.52 231.51 50.72 186.81 24.32"/>
          <polygon class="cls-49" points="186.81 46.12 231.51 70.11 231.51 89.52 186.81 63.22 186.81 46.12"/>
          <polygon class="cls-9" points="201.41 105.52 201.41 100.52 194.11 96.31 194.11 101.42 201.41 105.52"/>
          <polygon class="cls-8" points="194.11 96.31 199.11 92.72 204.01 95.52 201.41 97.52 201.41 100.52 194.11 96.31"/>
          <polygon class="cls-3" points="187.61 29.11 187.61 30.61 205.51 41.41 205.51 39.81 187.61 29.11"/>
          <polygon class="cls-22" points="210.71 42.81 210.71 44.31 228.61 55.12 228.61 53.52 210.71 42.81"/>
          <polygon class="cls-27" points="190.91 64.42 195.01 57.91 194.11 52.41 193.31 55.62 195.41 55.31 195.41 56.62 192.21 56.41 193.31 51.41 194.11 50.41 194.11 49.41 194.01 49.12 192.31 50.22 194.11 47.22 197.31 47.91 195.41 48.52 195.81 49.22 195.61 49.41 196.51 49.72 198.71 51.72 202.01 53.02 201.91 53.91 200.01 53.41 198.31 53.22 196.91 51.72 198.31 56.41 207.21 56.22 207.21 57.31 196.91 58.41 192.01 65.02 190.91 64.42"/>
          <polygon class="cls-24" points="208.01 73.02 211.71 69.52 216.81 70.72 221.61 68.11 225.31 68.11 229.11 64.81 228.41 64.22 225.01 66.92 222.31 67.11 223.91 65.92 223.21 64.61 220.91 65.31 220.41 66.02 219.41 64.81 218.91 59.52 218.11 59.52 218.21 64.81 219.11 66.42 216.41 68.42 212.41 66.02 207.01 63.41 206.61 64.42 210.31 66.22 213.21 68.11 210.41 67.52 207.51 72.22 208.01 73.02"/>
        </g>
        <g>
          <path class="cls-2" d="M289.11,204.61c-9.4,3.6-20.9,6.3-31.3.9-7.9-4.1-12-7.4-15.4-12.2a28.63,28.63,0,0,1-2.1-7.7c-.7-6.3-2.2-14.2,2.6-22.9s7.3-11.2,8.1-12.1,5.9-3.2,10.1-.7a14.07,14.07,0,0,1,4.4,4.9c-5-2.5-11.5-5.5-12.6-4.4-1.9,1.9-2.5,2-3,3.4s-2,9.6-2,15.3,2.9,13.9,5.2,17.6,7,8.2,16.2,11.2,15.9,2.5,20.6.8,7.2-7.6,6.6-13.5l-2.6-5.4-6.5-6.3c.8.4,1.6.8,2.1,1.1,3.2,2.1,8.1,7.1,9.5,12.5a16.33,16.33,0,0,1,.2,7C297.71,197.71,294.81,202.51,289.11,204.61Z"/>
          <path class="cls-3" d="M295.81,184.21a5.83,5.83,0,0,1,.6,2.6c.1,5.4-2.4,10.4-6.7,12-4.6,1.7-11.3,2.3-20.6-.8s-13.9-7.5-16.2-11.2-5.2-11.9-5.2-17.6,1.4-13.9,2-15.3a8.17,8.17,0,0,1,3-3.4c1.3-1,7.3,0,12.6,4.4,1.6,2.8,2.7,5.6,3.1,6.2.7,1.1,1.5,5.1,3.6,6.4,1.8,1.1,10.6,4,15.2,6.2l6,5.9a3.59,3.59,0,0,1,.7,1Z"/>
          <path class="cls-4" d="M292.41,204.81a33.82,33.82,0,0,1-22.1,5.5c-8.3-.7-17.9-2.9-23.5-9.7a29.58,29.58,0,0,1-4.3-7.3c3.4,4.8,7.6,8.1,15.4,12.2,10.4,5.4,21.8,2.8,31.3-.9a18.09,18.09,0,0,0,10-10.5A16.68,16.68,0,0,1,292.41,204.81Z"/>
        </g>
        <g>
          <path class="cls-45" d="M40.91,46.81c-7.8,3-17.2,5.2-25.8.7-6.5-3.4-9.9-6.1-12.7-10.1A24.43,24.43,0,0,1,.61,31c-.5-5.2-1.8-11.7,2.1-19s6-9.3,6.7-10,4.9-2.6,8.4-.5a12.74,12.74,0,0,1,3.6,4c-4.2-2.1-9.5-4.5-10.5-3.6-1.5,1.6-2,1.6-2.5,2.8a56.36,56.36,0,0,0-1.6,12.7c0,4.7,2.4,11.5,4.3,14.5s5.8,6.7,13.4,9.3,13.2,2,17,.7,5.9-6.3,5.4-11.1l-2.1-4.5-5.3-5.2a8.71,8.71,0,0,1,1.7.9c2.7,1.7,6.7,5.9,7.9,10.4a12.12,12.12,0,0,1,.1,5.7A15.16,15.16,0,0,1,40.91,46.81Z"/>
          <path class="cls-24" d="M46.51,30a5.45,5.45,0,0,1,.5,2.2c0,4.4-2,8.6-5.5,9.9-3.8,1.4-9.3,1.9-17-.7s-11.5-6.2-13.4-9.3-4.3-9.8-4.3-14.5a56.36,56.36,0,0,1,1.6-12.7,6.71,6.71,0,0,1,2.5-2.8c1.1-.8,6.1,0,10.5,3.6,1.3,2.3,2.2,4.6,2.6,5.2.6.9,1.2,4.2,2.9,5.3,1.5.9,8.8,3.3,12.6,5.1l5,4.9a5.55,5.55,0,0,1,.6.8Z"/>
          <path class="cls-50" d="M43.61,47a28.27,28.27,0,0,1-18.3,4.6c-6.9-.5-14.8-2.4-19.4-8a25.76,25.76,0,0,1-3.6-6c2.8,4,6.2,6.7,12.7,10.1,8.6,4.5,18,2.3,25.8-.7a15.3,15.3,0,0,0,8.3-8.6A13.08,13.08,0,0,1,43.61,47Z"/>
        </g>
        <g>
          <path class="cls-45" d="M70.51,43.81c7.4,2.9,16.4,4.9,24.6.7,6.2-3.2,9.4-5.8,12.1-9.6a25,25,0,0,0,1.7-6c.5-5,1.7-11.1-2-18s-5.7-8.8-6.4-9.5a7.47,7.47,0,0,0-7.9-.5,10.47,10.47,0,0,0-3.4,3.8c3.9-2,9.1-4.3,9.9-3.4,1.5,1.5,1.9,1.5,2.4,2.7s1.5,7.6,1.5,12.1a30.69,30.69,0,0,1-4.1,13.8c-1.9,2.9-5.5,6.4-12.8,8.8s-12.5,1.9-16.2.6-5.6-6-5.2-10.6l2-4.3,5.1-5c-.7.3-1.2.6-1.6.8a19.13,19.13,0,0,0-7.5,9.9,12.61,12.61,0,0,0-.1,5.5A15.16,15.16,0,0,0,70.51,43.81Z"/>
          <path class="cls-24" d="M65.21,27.71a5,5,0,0,0-.5,2.1c0,4.2,1.9,8.2,5.2,9.4,3.6,1.3,8.9,1.8,16.2-.6s10.9-5.9,12.8-8.8A31.08,31.08,0,0,0,103,16a60.52,60.52,0,0,0-1.5-12.1,6.92,6.92,0,0,0-2.4-2.7c-1-.8-5.8,0-9.9,3.4-1.3,2.2-2.1,4.4-2.4,4.9-.6.9-1.1,4-2.8,5-1.4.9-8.3,3.2-12,4.8l-4.7,4.6a5.55,5.55,0,0,0-.6.8Z"/>
          <path class="cls-50" d="M67.91,43.91a26.3,26.3,0,0,0,17.4,4.3c6.6-.5,14.1-2.2,18.5-7.7a26.74,26.74,0,0,0,3.4-5.7c-2.7,3.8-5.9,6.4-12.1,9.6-8.2,4.3-17.2,2.2-24.6-.7-4.4-1.7-6.7-5.5-7.9-8.2A13,13,0,0,0,67.91,43.91Z"/>
        </g>
        <g>
          <path class="cls-45" d="M283,221.11a18.24,18.24,0,0,0,.7,2.5c3.9,5.8,9.9,12.3,17.4,13.2,12.4,1.6,21.5,1.7,30.5-.9a21.76,21.76,0,0,0,9.7-9.8,8.19,8.19,0,0,0,1-4c-.4.9-1.6,3.7-2.9,4.9-1.6,1.5-7.6,2.5-11.2,2.5s-8.4-3.5-12.9-6.1-8.2-12.2-10.4-19.6-2.6-14.2-6.2-19.8c-2.3-3.6-6.1-1.7-9,1.1a100.71,100.71,0,0,0-7.2,14.9C282.51,200.21,279.91,207.81,283,221.11Z"/>
          <path class="cls-24" d="M298.71,184.31c3.5,5.6,4,12.4,6.2,19.8s5.9,17,10.4,19.6,9.4,6.1,12.9,6.1,9.6-1.1,11.2-2.5a16.37,16.37,0,0,0,2.9-4.9c.1-5.7-4.9-11-8.6-11.3-4.6-.3-13.1-2.2-16.9-5.1s-7-14.4-11.4-21.1-12.5-2.9-14.5-.9a9.76,9.76,0,0,0-1.1,1.4C292.61,182.51,296.41,180.61,298.71,184.31Z"/>
          <path class="cls-50" d="M301.11,236.81c-7.5-1-13.5-7.5-17.4-13.2,3.8,11.4,14.2,15.3,30.1,15.6,7.9.2,13.6-1.2,17.8-3.3C322.61,238.51,313.51,238.41,301.11,236.81Z"/>
        </g>
      </g>
    </g>
  </g>
</svg>
