<?xml version="1.0" encoding="utf-8"?>
<!-- Generator: Adobe Illustrator 21.0.2, SVG Export Plug-In . SVG Version: 6.00 Build 0)  -->
<svg version="1.1" id="Слой_1" xmlns="http://www.w3.org/2000/svg" xmlns:xlink="http://www.w3.org/1999/xlink" x="0px" y="0px"
	 viewBox="0 0 177.4 172.5" style="enable-background:new 0 0 177.4 172.5;" xml:space="preserve">
<style type="text/css">
	.st0{opacity:0.18;}
	.st1{fill:#825537;}
	.st2{fill:#704626;}
	.st3{fill:#BB9469;}
	.st4{fill:#CBAC95;}
	.st5{fill:#1B4275;}
	.st6{fill:#4D4D4D;}
	.st7{fill:#1A1A1A;}
	.st8{fill:#F7F1E4;}
	.st9{fill:#F7BC93;}
	.st10{fill:#434A55;}
	.st11{fill:#FFF9FD;}
	.st12{fill:#BBC7D4;}
	.st13{fill:#4A2814;}
	.st14{fill:#A8B4BF;}
	.st15{fill:#F0E7E8;}
	.st16{fill:#BE8245;}
	.st17{fill:#DDDCD6;}
	.st18{fill:#D4D4D4;}
	.st19{fill:#2A1B1A;}
	.st20{fill:#CEA080;}
	.st21{fill:#EDBEA1;}
	.st22{fill:#EABC8C;}
	.st23{fill:#633A12;}
	.st24{fill:#333333;}
	.st25{fill:#00B2CA;}
	.st26{fill:#EFEDED;}
	.st27{opacity:0.2;}
	.st28{opacity:0.1;enable-background:new    ;}
	.st29{fill:#CDCCCC;}
	.st30{fill:#DDDDDD;}
	.st31{fill:#FF931E;}
	.st32{opacity:0.1;}
</style>
<polygon class="st0" points="0.8,90.2 54.5,121.9 90.1,101.8 75,94.1 90.1,85.1 65.7,71.3 48.5,79.9 35.7,72.3 "/>
<polygon class="st0" points="88.2,140.8 141.9,172.5 177.1,152.3 162.6,144.8 177.4,135.7 153.1,121.9 135.8,130.5 123.1,122.8 "/>
<title>koworkingРесурс 6</title>
<g id="Слой_2">
	<g id="Material">
		<g id="koworking">
			<g>
				<polygon class="st1" points="128.7,135.5 131.3,134 131.3,110.8 128.7,112.2 				"/>
				<polyline class="st2" points="145.9,145.4 145.9,121.3 126.2,110.2 126.2,134.2 128.7,135.5 128.7,113.6 143.3,121.9 143.4,144 
					145.9,145.4 				"/>
				<polygon class="st1" points="145.9,145.4 148.5,143.8 148.5,120.6 146.2,121.9 145.9,121.9 				"/>
				<path class="st2" d="M145.3,72.8v29.5l2.3,1l14.7,7.9l0.2,22l2.2,1.4l0.1-50.8L145.3,72.8z M162.1,108.5l-14.5-8.3v-6.4
					l14.5,8.4V108.5z M162.1,100l-14.5-8.3v-6.4l14.5,8.4V100z M162.1,91.5l-14.5-8.3v-6.4l14.5,8.4V91.5z"/>
				<polygon class="st3" points="162,105.6 150.2,98.6 147.6,100.2 162.1,108.5 				"/>
				<polygon class="st3" points="144.2,121.9 144.3,120.1 126.2,109.9 126.2,111.5 				"/>
				<polygon class="st3" points="146.2,120 144.3,120.1 126.2,109.9 126.2,109 145.3,99 164.7,109.8 				"/>
				<polygon class="st3" points="146.2,120 164.7,109.8 164.7,111.7 146.2,121.9 				"/>
				<polygon class="st3" points="145.3,72.8 147.5,71.5 166.9,82.8 164.7,83.9 				"/>
				<polygon class="st3" points="162,97.1 150.2,90.1 147.6,91.6 162.1,100 				"/>
				<polygon class="st3" points="162,88.5 150.2,81.6 147.6,83.1 162.1,91.4 				"/>
				<polygon class="st1" points="150.2,98.6 150.2,95.3 147.6,93.7 147.6,100.2 				"/>
				<polygon class="st1" points="150.2,90 150.2,86.6 147.6,85.1 147.6,91.5 				"/>
				<polygon class="st1" points="150.2,81.6 150.2,78.2 147.6,76.7 147.6,83.1 				"/>
				<polygon class="st1" points="164.6,134.6 166.9,133.3 166.9,82.8 164.7,83.9 				"/>
				<polygon class="st4" points="146.2,121.9 144.2,121.9 144.3,120.1 146.2,120 				"/>
				<polygon class="st1" points="164.7,111.7 148.5,120.6 148.5,122.7 164.7,113.6 				"/>
			</g>
			<path class="st5" d="M140.5,137.7c0,0-5.5,5.1-6.1,5.4s-3.3,1-4.5,0s0.1-3.2,0.4-3.4s7.3-4.4,7.3-4.4L140.5,137.7z"/>
			<path class="st5" d="M133.5,130c0,0-5.2,5-6.1,5.4s-3.6,0.8-4.4,0s-0.1-2.8,0.4-3.3s7.2-4.4,7.2-4.4L133.5,130z"/>
			<g>
				<polygon class="st3" points="140.8,137.9 86.3,106.4 120.6,86.1 175.4,117.9 				"/>
				<polygon class="st2" points="140.8,137.9 140.8,141.5 86.3,109.5 86.3,106.4 				"/>
				<polygon class="st1" points="140.8,141.5 140.8,137.9 175.4,117.9 175.4,121.2 				"/>
				<polygon class="st2" points="138.3,140 138.3,169.5 140.8,171 140.8,141.5 				"/>
				<polygon class="st1" points="142.7,140.4 140.8,141.5 140.8,171 142.7,169.8 				"/>
				<polygon class="st2" points="169.5,124.6 169.5,151.1 172,152.5 172,123.1 				"/>
				<polygon class="st1" points="173.9,122 172,123.1 172,152.5 173.9,151.4 				"/>
				<polygon class="st2" points="88.8,111 88.8,140.4 91.3,141.8 91.3,112.4 				"/>
				<polygon class="st1" points="93.1,113.5 91.3,112.4 91.3,141.8 93.1,140.7 				"/>
			</g>
			<g>
				<polygon class="st6" points="146.1,104.6 134.8,111.1 117,100.8 128.2,94.1 				"/>
				<polygon class="st7" points="134.8,111.2 131.1,101.8 113.2,91.5 116.9,100.8 				"/>
				<polygon class="st7" points="146.1,104.6 146.1,105 134.8,111.5 134.8,111.1 				"/>
				<polygon class="st7" points="134.8,111.5 134.8,111.1 117,100.8 117,101.1 				"/>
				
					<ellipse transform="matrix(0.9186 -0.3952 0.3952 0.9186 -29.9026 57.0203)" class="st8" cx="123.4" cy="101.1" rx="0.5" ry="1.3"/>
			</g>
			<g>
				<path class="st9" d="M126.4,95.4c2.4-0.2,4.8-0.5,7.2-1l-0.7-2.1c0,0-4.2-0.8-5.4-0.5s-3.9,2.3-3.5,2.9S124.5,95.4,126.4,95.4z"
					/>
				<polygon class="st10" points="158.3,103.7 159.6,108.8 141.7,98.3 141.7,98 				"/>
				<polygon class="st11" points="147.2,76 148.5,78.9 155.2,76.3 151.2,103 146.5,101.3 142.7,98 146,77.5 				"/>
				<path class="st5" d="M156.4,106.9c1.1,0,2.1-2,2.5-3.3c0.4-2.2,0.6-4.4,0.7-6.6l1.9-17.1c0,0-5.6-3.8-6.3-3.6s-5.2,15-5.2,15
					l-0.6,11.5L156.4,106.9z"/>
				<path class="st5" d="M147,75.1c0,0-2.2-1.8-2.7-1.3s-1.9,6.4-2,8.1s-0.6,16.5-0.6,16.5l2.1,1.2l2.4-19.6L147,75.1z"/>
				<path class="st12" d="M132.1,94.5c0.8,0.3,10.8,0,10.8,0v-6.2c0,0-11.4,2.7-12.1,3.1S131.3,94.2,132.1,94.5z"/>
				<path class="st9" d="M147.7,101.8c0-0.7-1.7-3.6-2.7-3.7s-7.6,2.6-7.3,3.3s3.5,1.4,5.3,1.4S147.7,102.5,147.7,101.8z"/>
				<path class="st9" d="M151,79.2l3.4-2.5c-1.1-1.9-0.1-6,1.1-10.3l-3.1-3.3l-7.2,0.4l0.4,8.9l2.5,2.9v3.4L151,79.2z"/>
				<path class="st13" d="M154,72.6c0,0,4.3-7.3,4-9.1s-2.9-4.2-4.1-4.8s-6.8-0.5-7.7,0s-1.6,4.1-1.3,4.7s3.6,1.6,4.5,1.6
					c1.3-0.3,2.5-0.6,3.7-1.1c0.3,0.5,0.2,1.8-0.2,3.5c0,0-2.3,4.4-2.7,4.9c-0.5,0.5-1.3,0.8-2,0.7c-0.9-0.4-1.7-0.8-2.5-1.4
					c-0.4-0.5,0.2,4,0.5,4.9s0.2,2.1,0.6,2.4c0.5,0.4,1.1,0.7,1.8,0.8c1,0.1,2.1-0.3,2.8-1.1c0.7-1,0.1-4.9,0.4-5.8s1.2-2.5,1.5-3.3
					s1.1-2.7,1.4-2.8s0.5,0.5,0.5,0.8C154.7,69.2,154.3,70.9,154,72.6z"/>
				<path class="st14" d="M160.8,78.9c1.2,1.2,2.3,3.2,2.3,3.8c-0.1,0.9-2.9,18.8-4.6,19.2s-12.4-0.7-12.4-0.7l-1.1-2.3
					c0,0,7.6-1.7,9.8-2.5s4-16.9,4.4-17.5S160.2,78.3,160.8,78.9z"/>
			</g>
			<g>
				<ellipse class="st15" cx="150" cy="112" rx="3.5" ry="2"/>
				<path class="st15" d="M152.8,118.9l0.7-6.5c-0.9,1.1-2.2,1.7-3.6,1.6c-2.4-0.1-3.1-1.1-3.4-1.6s-0.1-0.5-0.1-0.5l0.2,7
					c1,0.7,2.1,1.1,3.3,1.1C151,120.1,152,119.7,152.8,118.9z"/>
				<path class="st16" d="M153.1,112.7c-2.2-2-4.3-2-6.1,0c0.7,0.9,1.8,1.3,2.9,1.2C151.1,114.1,152.3,113.6,153.1,112.7z"/>
				<path class="st17" d="M152.2,114.2v4.8c1.1-0.1,1.8-0.7,2-2.2C153.8,115.8,153.1,114.9,152.2,114.2z M152.5,115
					c0.6,0.5,1,1.1,1.2,1.8c0,0.8-0.5,1.5-1.2,1.8V115z"/>
				<path class="st18" d="M152.2,114.2l0.2-0.1c0.9,0.6,1.6,1.5,2,2.5c0,0.9-0.4,1.7-1.1,2.2c-0.4,0.1-0.7,0.1-1.1,0.2v-0.2
					c0.3,0.1,0.7,0,1-0.2c0.7-0.4,1.1-1.1,0.9-1.9C153.7,115.7,153.1,114.8,152.2,114.2z"/>
			</g>
			<g>
				<g>
					<polygon class="st1" points="50.1,86.8 52.7,85.2 52.7,62 50.1,63.5 					"/>
					<polyline class="st2" points="67.3,96.6 67.3,72.6 47.6,61.5 47.6,85.4 50.1,86.8 50.1,64.8 64.7,73.1 64.8,95.3 67.3,96.6 
											"/>
					<polygon class="st1" points="67.3,96.6 69.9,95.1 69.9,71.9 67.6,73.2 67.3,73.2 					"/>
					<path class="st2" d="M66.7,24v29.5l2.3,1l14.7,7.9l0.2,22l2.2,1.4L86.2,35L66.7,24z M83.4,59.7l-14.5-8.3V45l14.5,8.4V59.7z
						 M83.4,51.2l-14.5-8.3v-6.4l14.5,8.4V51.2z M83.4,42.7l-14.5-8.3V28l14.5,8.4V42.7z"/>
					<polygon class="st3" points="83.4,56.8 71.6,49.9 68.9,51.4 83.4,59.7 					"/>
					<polygon class="st3" points="65.6,73.2 65.7,71.3 47.6,61.2 47.6,62.8 					"/>
					<polygon class="st3" points="67.6,71.3 65.7,71.3 47.6,61.2 47.6,60.2 66.7,50.2 86.1,61 					"/>
					<polygon class="st3" points="67.6,71.3 86.1,61 86,62.9 67.6,73.2 					"/>
					<polygon class="st3" points="66.7,24 68.9,22.8 88.3,34 86.1,35.1 					"/>
					<polygon class="st3" points="83.4,48.3 71.6,41.4 68.9,42.9 83.4,51.2 					"/>
					<polygon class="st3" points="83.4,39.8 71.6,32.8 68.9,34.4 83.4,42.7 					"/>
					<polygon class="st1" points="71.6,49.9 71.6,46.5 68.9,45 68.9,51.4 					"/>
					<polygon class="st1" points="71.6,41.3 71.6,37.9 68.9,36.4 68.9,42.8 					"/>
					<polygon class="st1" points="71.6,32.8 71.6,29.5 68.9,27.9 68.9,34.4 					"/>
					<polygon class="st1" points="86,85.9 88.3,84.5 88.3,34 86.1,35.1 					"/>
					<polygon class="st4" points="67.6,73.2 65.6,73.2 65.7,71.3 67.6,71.3 					"/>
					<polygon class="st1" points="86.1,62.9 69.9,71.9 69.9,73.9 86.1,64.8 					"/>
				</g>
				<g>
					<path class="st19" d="M42.8,83.8c-1.2,0.4-2.2,1.1-3.1,2c-0.3,0.5,0.4,2.2,0.9,2.2s3.9-1.3,5-1.6c1.6-0.6,3.1-1.4,4.6-2.2v-1.3
						C50.2,82.9,43.6,83.6,42.8,83.8z"/>
					<path class="st19" d="M49.2,91.3c-0.7,0.8-1,5.6-0.5,5.8c0.6,0.4,1.5,0.4,2.1,0c0.6-0.5,5.5-8.9,5.5-8.9l-1.2-1.3
						C53.1,88.3,51.1,89.7,49.2,91.3z"/>
					<path class="st20" d="M43.1,85.8c0.5,0,7-2.5,7-2.5l3.6-15l6.5,0.9l-1.1-7.5l-9.1,3l-1.8,12.4c-0.6,1.7-1.4,3.4-2.2,5
						c-0.7,1.1-3.9,2.1-4.1,2.4S42.6,85.8,43.1,85.8z"/>
					<path class="st21" d="M50.1,94c-0.3-0.4,0-6,0-6l0.9-9.1l-0.5-15.6l3.4-5l7,0.8L60.2,64L57,66.2l-0.8,10.6L55,84.7l0.1,4.4
						c0,0-3.5,4.6-3.8,4.9C51,94.3,50.5,94.4,50.1,94C50.1,94,50.1,94,50.1,94z"/>
					<polygon class="st22" points="70.4,40 69,33.7 69.7,31.6 68,23.7 70.9,20.2 77.1,25.2 79.3,32.9 74.8,40.2 					"/>
					<path class="st5" d="M52.4,59.1l5.6,1.1l1.8,9.3l10.9,3.7l4.4-8.1l3.8-2.8c0,0-2.1-11.8-2-13.1c0.1-1.1,3-5,2.9-6.1
						c1.3,0.4,2.8,0.4,4.1-0.1c0.4-0.2-3.7-8.5-5-9.5s-3,2.5-3.5,2.8c-1.3,0.4-2.7,0.5-4.1,0.3c-1-0.2-2.3-2.9-2.3-2.9
						s-0.6-0.3-0.8-0.1S64.7,40,64.7,40c-0.5,2.5,1.6,7.4,1.6,8.3c0.1,1.2-1.7,4.8-1.7,4.8L52.4,59.1z"/>
					<path class="st23" d="M72.5,32.1c-0.3,0.2-3.9,1.4-3.5,1.6c-1.3-3.2-2.2-6.6-2.7-10c0-1.4,3.3-7.7,4.5-7.9s7.9,2.2,9,2.8
						s1.9,3.2,1.9,4.3s-2.6,6.9-2.8,7.8s0.9,2.7,0.9,2.7s0.1,0-0.5,0.3s-3.2-0.6-3.6-1.4s0.7-7.4,0.2-8s-5.4-2.1-6.1-1.8
						s-0.9,4.2-0.8,4.9c0.2,1.1,0.5,2.2,0.9,3.2C70.3,31,72.8,32,72.5,32.1z"/>
				</g>
				<g>
					<polygon class="st3" points="54.5,86.6 0,55.1 34.4,34.8 59.7,49.5 89.1,66.7 					"/>
					<polygon class="st2" points="54.5,86.6 54.5,90.3 0,58.2 0,55.1 					"/>
					<polygon class="st1" points="54.5,90.3 54.5,86.6 89.1,66.7 89.1,69.9 					"/>
					<polygon class="st2" points="52.1,88.8 52.1,118.3 54.5,119.7 54.5,90.3 					"/>
					<polygon class="st1" points="56.4,89.2 54.5,90.3 54.5,119.7 56.4,118.5 					"/>
					<polygon class="st2" points="83.3,73.4 83.3,99.8 85.7,101.3 85.7,71.8 					"/>
					<polygon class="st1" points="87.6,70.7 85.7,71.8 85.7,101.3 87.6,100.1 					"/>
					<polygon class="st2" points="2.5,59.7 2.5,89.1 5,90.6 5,61.2 					"/>
					<polygon class="st1" points="6.9,62.2 5,61.2 5,90.6 6.9,89.4 					"/>
				</g>
				<path class="st22" d="M68,58.1c1.7-0.2,13.1-4.6,14-5.3s1.9-9.8,1.9-9.8c-1.3,0.5-2.8,0.5-4.1,0.1c0,0,0.1,5.9-1,6.8
					c-2.7,1.8-5.6,3.4-8.5,4.7c-0.7,0.2-3.4,0.3-4,0.5s-2.7,0.5-2.4,1.3S66.3,58.3,68,58.1z"/>
				<path class="st22" d="M64.7,40.2c0,0-2.3,5.5-2.9,6s-9.2-0.1-9.2-0.1c-0.5-0.4-1.1-0.7-1.7-1c-0.3,0.1-0.5,0.2-0.8,0.3l2.5,3.7
					c0,0,1.8-1.8,2.2-1.8s6.8,2.7,7.8,2.3s2.8-4.6,2.8-4.6C64.9,43.4,64.7,41.8,64.7,40.2z"/>
				<g>
					<polygon class="st24" points="53.2,46.1 52.6,49.1 45.3,47.2 46.2,44.2 					"/>
					<polygon class="st25" points="52.3,46 51.7,48.7 45.6,47.2 46.5,44.4 					"/>
					<polygon class="st26" points="52.6,47.8 52.1,47.7 52.2,47.1 52.7,47.2 					"/>
				</g>
				<path class="st22" d="M50.6,45.2c-0.4,0.1-0.8,0.3-1.2,0.5c-0.1,0.1,0.4,0.3,0.5,0.3c0.4-0.1,0.7-0.3,1.1-0.5L50.6,45.2z"/>
				<g>
					<g class="st27">
						<ellipse class="st28" cx="33" cy="51.1" rx="5" ry="2.9"/>
					</g>
					<g>
						<path class="st26" d="M34.1,51.4c-2.6-0.5-4-2.3-4.2-5.3c2.8,3,5.6,3,8.5,0C38,49.1,36.5,50.8,34.1,51.4z"/>
						<ellipse class="st29" cx="34.1" cy="46.1" rx="3.8" ry="2.2"/>
						<path class="st1" d="M37.8,46.3c-2.3-2.3-5.2-2.2-7.5,0c0.3,1.1,0.3,1.9,3.6,2.3C37.2,48.2,37.2,47.6,37.8,46.3z"/>
						<path class="st29" d="M31.2,44.2c-0.7-0.4-1.3-0.5-1.7-0.1c-0.2,0.5-0.2,1.1-0.1,1.6l0.5,0.9l0.2-1.2
							c-0.1-0.2-0.2-0.5-0.2-0.7l0.2-0.2c0.2,0,0.4,0,0.6,0.1L31.2,44.2z"/>
						<path class="st30" d="M29.9,46.1c0,1.5,1.9,2.6,4.2,2.6s4.2-1.2,4.2-2.6s-1.9-2.6-4.2-2.6S29.9,44.7,29.9,46.1z M30.5,46.1
							c0-1.2,1.6-2.2,3.6-2.2s3.6,1,3.6,2.2s-1.6,2.2-3.6,2.2S30.5,47.3,30.5,46.1z"/>
					</g>
				</g>
				<g>
					<g>
						<g>
							<polygon class="st6" points="73,62 61.7,68.5 43.8,58.2 55.1,51.6 							"/>
							<polygon class="st7" points="61.7,68.7 57.9,59.3 40.1,49 43.8,58.2 							"/>
							<polygon class="st7" points="73,62 73,62.4 61.7,68.9 61.7,68.5 							"/>
							<polygon class="st7" points="61.7,68.9 61.7,68.5 43.8,58.2 43.8,58.6 							"/>
							
								<ellipse transform="matrix(0.9186 -0.3952 0.3952 0.9186 -17.5151 21.5924)" class="st31" cx="43.7" cy="53.3" rx="0.5" ry="1.3"/>
							
								<ellipse transform="matrix(0.9186 -0.3952 0.3952 0.9186 -17.8273 22.4788)" class="st25" cx="45.6" cy="54.5" rx="0.5" ry="1.3"/>
							
								<ellipse transform="matrix(0.9186 -0.3952 0.3952 0.9186 -20.841 28.2494)" class="st5" cx="58.1" cy="64.7" rx="0.5" ry="1.3"/>
						</g>
						<g class="st32">
							<polygon class="st28" points="43.8,58.6 39.5,65.5 51.5,73.4 61.7,68.5 							"/>
						</g>
					</g>
					<polygon class="st31" points="56.2,63.1 56.8,65.1 55.3,64.3 54.7,62.3 					"/>
				</g>
			</g>
		</g>
	</g>
</g>
</svg>
