<svg xmlns="http://www.w3.org/2000/svg" viewBox="0 0 222.7 171">
  <defs>
    <style>
      .cls-1 {
        fill: #825537;
      }

      .cls-2 {
        fill: #704626;
      }

      .cls-3 {
        fill: #bb9469;
      }

      .cls-4 {
        fill: #cbac95;
      }

      .cls-5 {
        fill: #1b4275;
      }

      .cls-6 {
        fill: #4d4d4d;
      }

      .cls-7 {
        fill: #1a1a1a;
      }

      .cls-8 {
        fill: #f7f1e4;
      }

      .cls-9 {
        fill: #f7bc93;
      }

      .cls-10 {
        fill: #434a55;
      }

      .cls-11 {
        fill: #fff9fd;
      }

      .cls-12 {
        fill: #bbc7d4;
      }

      .cls-13 {
        fill: #4a2814;
      }

      .cls-14 {
        fill: #a8b4bf;
      }

      .cls-15 {
        fill: #f0e7e8;
      }

      .cls-16 {
        fill: #be8245;
      }

      .cls-17 {
        fill: #dddcd6;
      }

      .cls-18 {
        fill: #d4d4d4;
      }

      .cls-19 {
        fill: #2a1b1a;
      }

      .cls-20 {
        fill: #cea080;
      }

      .cls-21 {
        fill: #edbea1;
      }

      .cls-22 {
        fill: #eabc8c;
      }

      .cls-23 {
        fill: #633a12;
      }

      .cls-24 {
        fill: #333;
      }

      .cls-25 {
        fill: #00b2ca;
      }

      .cls-26 {
        fill: #efeded;
      }

      .cls-27 {
        opacity: 0.2;
      }

      .cls-28 {
        opacity: 0.1;
      }

      .cls-29 {
        fill: #cdcccc;
      }

      .cls-30 {
        fill: #ddd;
      }

      .cls-31 {
        fill: #ff931e;
      }

      .cls-32 {
        opacity: 0.1;
      }
    </style>
  </defs>
  <title>koworkingРесурс 6</title>
  <g id="Слой_2" data-name="Слой 2">
    <g id="Material">
      <g id="koworking">
        <g>
          <polygon class="cls-1" points="128.7 135.5 131.3 134 131.3 110.8 128.7 112.2 128.7 135.5"/>
          <polyline class="cls-2" points="145.9 145.4 145.9 121.3 126.2 110.2 126.2 134.2 128.7 135.5 128.7 113.6 143.3 121.9 143.4 144 145.9 145.4"/>
          <polygon class="cls-1" points="145.9 145.4 148.5 143.8 148.5 120.6 146.2 121.9 145.9 121.9 145.9 145.4"/>
          <path class="cls-2" d="M145.3,72.8v29.5l2.3,1,14.7,7.9.2,22,2.2,1.4.1-50.8Zm16.8,35.7-14.5-8.3V93.8l14.5,8.4Zm0-8.5-14.5-8.3V85.3l14.5,8.4Zm0-8.5-14.5-8.3V76.8l14.5,8.4Z"/>
          <polygon class="cls-3" points="162 105.6 150.2 98.6 147.6 100.2 162.1 108.5 162 105.6"/>
          <polygon class="cls-3" points="144.2 121.9 144.3 120.1 126.2 109.9 126.2 111.5 144.2 121.9"/>
          <polygon class="cls-3" points="146.2 120 144.3 120.1 126.2 109.9 126.2 109 145.3 99 164.7 109.8 146.2 120"/>
          <polygon class="cls-3" points="146.2 120 164.7 109.8 164.7 111.7 146.2 121.9 146.2 120"/>
          <polygon class="cls-3" points="145.3 72.8 147.5 71.5 166.9 82.8 164.7 83.9 145.3 72.8"/>
          <polygon class="cls-3" points="162 97.1 150.2 90.1 147.6 91.6 162.1 100 162 97.1"/>
          <polygon class="cls-3" points="162 88.5 150.2 81.6 147.6 83.1 162.1 91.4 162 88.5"/>
          <polygon class="cls-1" points="150.2 98.6 150.2 95.3 147.6 93.7 147.6 100.2 150.2 98.6"/>
          <polygon class="cls-1" points="150.2 90 150.2 86.6 147.6 85.1 147.6 91.5 150.2 90"/>
          <polygon class="cls-1" points="150.2 81.6 150.2 78.2 147.6 76.7 147.6 83.1 150.2 81.6"/>
          <polygon class="cls-1" points="164.6 134.6 166.9 133.3 166.9 82.8 164.7 83.9 164.6 134.6"/>
          <polygon class="cls-4" points="146.2 121.9 144.2 121.9 144.3 120.1 146.2 120 146.2 121.9"/>
          <polygon class="cls-1" points="164.7 111.7 148.5 120.6 148.5 122.7 164.7 113.6 164.7 111.7"/>
        </g>
        <g>
          <polygon class="cls-1" points="184.5 158.6 187.1 157.1 187.1 133.9 184.5 135.3 184.5 158.6"/>
          <polyline class="cls-2" points="201.7 168.4 201.7 144.4 182 133.3 182 157.3 184.5 158.6 184.5 136.6 199.1 145 199.2 167.1 201.7 168.4"/>
          <polygon class="cls-1" points="201.7 168.4 204.3 166.9 204.3 143.7 202 145 201.7 145 201.7 168.4"/>
          <path class="cls-2" d="M201.1,95.9v29.5l2.3,1,14.7,7.9.2,22,2.2,1.4.1-50.8Zm16.8,35.7-14.5-8.3v-6.4l14.5,8.4Zm0-8.5-14.5-8.3v-6.5l14.5,8.4Zm0-8.6-14.5-8.3V99.8l14.5,8.4Z"/>
          <polygon class="cls-3" points="217.8 128.7 206 121.7 203.4 123.2 217.9 131.6 217.8 128.7"/>
          <polygon class="cls-2" points="200 145 200.1 143.1 182 133 182 134.6 200 145"/>
          <polygon class="cls-3" points="202 143.1 200.1 143.1 182 133 182 132.1 201.1 122.1 220.5 132.8 202 143.1"/>
          <polygon class="cls-1" points="202 143.1 220.5 132.8 220.5 134.8 202 145 202 143.1"/>
          <polygon class="cls-3" points="201.1 95.9 203.3 94.6 222.7 105.8 220.5 107 201.1 95.9"/>
          <polygon class="cls-3" points="217.8 120.1 206 113.2 203.4 114.7 217.9 123 217.8 120.1"/>
          <polygon class="cls-3" points="217.8 111.6 206 104.7 203.4 106.2 217.9 114.5 217.8 111.6"/>
          <polygon class="cls-1" points="206 121.7 206 118.3 203.4 116.8 203.4 123.2 206 121.7"/>
          <polygon class="cls-1" points="206 113.1 206 109.7 203.4 108.2 203.4 114.6 206 113.1"/>
          <polygon class="cls-1" points="206 104.7 206 101.3 203.4 99.7 203.4 106.2 206 104.7"/>
          <polygon class="cls-1" points="220.4 157.7 222.7 156.3 222.7 105.8 220.5 107 220.4 157.7"/>
          <polygon class="cls-2" points="202 145 200 145 200.1 143.1 202 143.1 202 145"/>
          <polygon class="cls-1" points="220.5 134.8 204.3 143.7 204.3 145.7 220.5 136.7 220.5 134.8"/>
        </g>
        <polygon class="cls-5" points="140.5 137.7 134.4 143.1 129.9 143.1 130.3 139.7 137.6 135.3 140.5 137.7"/>
        <polygon class="cls-5" points="133.5 130 127.4 135.4 123 135.4 123.4 132.1 130.6 127.7 133.5 130"/>
        <g>
          <polygon class="cls-3" points="140.8 137.9 86.3 106.4 120.6 86.1 175.4 117.9 140.8 137.9"/>
          <polygon class="cls-2" points="140.8 137.9 140.8 141.5 86.3 109.5 86.3 106.4 140.8 137.9"/>
          <polygon class="cls-1" points="140.8 141.5 140.8 137.9 175.4 117.9 175.4 121.2 140.8 141.5"/>
          <polygon class="cls-2" points="138.3 140.1 138.3 169.5 140.8 171 140.8 141.5 138.3 140.1"/>
          <polygon class="cls-1" points="142.7 140.4 140.8 141.5 140.8 171 142.7 169.8 142.7 140.4"/>
          <polygon class="cls-2" points="169.5 124.6 169.5 151.1 172 152.5 172 123.1 169.5 124.6"/>
          <polygon class="cls-1" points="173.9 122 172 123.1 172 152.5 173.9 151.4 173.9 122"/>
          <polygon class="cls-2" points="88.8 111 88.8 140.4 91.3 141.8 91.3 112.4 88.8 111"/>
          <polygon class="cls-1" points="93.1 113.5 91.3 112.4 91.3 141.8 93.1 140.7 93.1 113.5"/>
        </g>
        <g>
          <polygon class="cls-6" points="146.1 104.6 134.8 111.1 117 100.8 128.2 94.1 146.1 104.6"/>
          <polygon class="cls-7" points="134.8 111.2 131.1 101.8 113.2 91.5 116.9 100.8 134.8 111.2"/>
          <polygon class="cls-7" points="146.1 104.6 146.1 105 134.8 111.5 134.8 111.1 146.1 104.6"/>
          <polygon class="cls-7" points="134.8 111.5 134.8 111.1 117 100.8 117 101.1 134.8 111.5"/>
          <ellipse class="cls-8" cx="123.45" cy="101.08" rx="0.5" ry="1.3" transform="translate(-29.9 57.03) rotate(-23.28)"/>
        </g>
        <g>
          <path class="cls-9" d="M126.4,95.4a65.59,65.59,0,0,0,7.2-1l-.7-2.1s-4.24-.81-5.4-.5-3.94,2.33-3.5,2.9S124.52,95.4,126.4,95.4Z"/>
          <polygon class="cls-10" points="158.3 103.7 159.6 108.8 141.7 98.3 141.7 98 158.3 103.7"/>
          <polygon class="cls-11" points="147.2 76 148.5 78.9 155.2 76.3 151.2 103 146.5 101.3 142.7 98 146 77.5 147.2 76"/>
          <path class="cls-5" d="M156.37,106.91c1.11,0,2.14-2,2.53-3.31a57.83,57.83,0,0,0,.7-6.6l1.94-17.1s-5.58-3.76-6.34-3.6-5.2,15-5.2,15l-.63,11.5Z"/>
          <path class="cls-5" d="M147,75.05s-2.24-1.85-2.7-1.35-1.94,6.38-2,8.1-.6,16.5-.6,16.5l2.07,1.22L146.2,79.9Z"/>
          <path class="cls-12" d="M132.1,94.5c.81.3,10.8,0,10.8,0V88.3s-11.36,2.7-12.1,3.1S131.29,94.2,132.1,94.5Z"/>
          <path class="cls-9" d="M147.7,101.8c0-.7-1.66-3.6-2.7-3.7s-7.55,2.57-7.3,3.3,3.47,1.4,5.3,1.4S147.7,102.5,147.7,101.8Z"/>
          <path class="cls-9" d="M151,79.2l3.4-2.5c-1.14-1.94-.14-6,1.1-10.3l-3.1-3.3-7.2.4.4,8.9,2.5,2.9v3.4Z"/>
          <path class="cls-13" d="M154,72.57s4.34-7.31,4-9.07-2.95-4.21-4.1-4.8-6.8-.5-7.7,0-1.6,4.08-1.3,4.7,3.55,1.64,4.5,1.6a21.06,21.06,0,0,0,3.7-1.1c.28.54.18,1.76-.2,3.5,0,0-2.34,4.4-2.7,4.9a2.52,2.52,0,0,1-2,.7,11.8,11.8,0,0,1-2.5-1.4c-.4-.46.21,4,.5,4.9s.2,2.1.6,2.4a3.85,3.85,0,0,0,1.8.8,3.61,3.61,0,0,0,2.8-1.1c.72-1,.1-4.93.4-5.8s1.19-2.54,1.5-3.3,1.05-2.67,1.4-2.8.5.46.5.8A48,48,0,0,0,154,72.57Z"/>
          <path class="cls-14" d="M160.8,78.9c1.16,1.21,2.34,3.22,2.3,3.8-.07.95-2.93,18.76-4.6,19.2s-12.4-.7-12.4-.7L145,98.9s7.64-1.69,9.8-2.5,4-16.93,4.4-17.5S160.24,78.31,160.8,78.9Z"/>
        </g>
        <g>
          <ellipse class="cls-15" cx="150" cy="112" rx="3.5" ry="2"/>
          <path class="cls-15" d="M152.8,118.9l.7-6.5a4.31,4.31,0,0,1-3.6,1.6c-2.4-.1-3.1-1.1-3.4-1.6s-.1-.5-.1-.5l.2,7a5.47,5.47,0,0,0,3.3,1.1A3.79,3.79,0,0,0,152.8,118.9Z"/>
          <path class="cls-16" d="M153.1,112.7c-2.2-2-4.3-2-6.1,0a3.19,3.19,0,0,0,2.9,1.2A3.65,3.65,0,0,0,153.1,112.7Z"/>
          <path class="cls-17" d="M152.2,114.2V119c1.1-.1,1.8-.7,2-2.2A5.72,5.72,0,0,0,152.2,114.2Zm.3.8a3.82,3.82,0,0,1,1.2,1.8,1.84,1.84,0,0,1-1.2,1.8Z"/>
          <path class="cls-18" d="M152.2,114.2l.2-.1a5,5,0,0,1,2,2.5,2.88,2.88,0,0,1-1.1,2.2c-.4.1-.7.1-1.1.2v-.2a1.16,1.16,0,0,0,1-.2,1.75,1.75,0,0,0,.9-1.9A5.11,5.11,0,0,0,152.2,114.2Z"/>
        </g>
        <g>
          <g>
            <polygon class="cls-1" points="50.1 86.8 52.7 85.2 52.7 62 50.1 63.5 50.1 86.8"/>
            <polyline class="cls-2" points="67.3 96.6 67.3 72.6 47.6 61.5 47.6 85.4 50.1 86.8 50.1 64.8 64.7 73.1 64.8 95.3 67.3 96.6"/>
            <polygon class="cls-1" points="67.3 96.6 69.9 95.1 69.9 71.9 67.6 73.2 67.3 73.2 67.3 96.6"/>
            <path class="cls-2" d="M66.7,24V53.5l2.3,1,14.7,7.9.2,22,2.2,1.4L86.2,35ZM83.4,59.7,68.9,51.4V45l14.5,8.4Zm0-8.5L68.9,42.9V36.5l14.5,8.4Zm0-8.5L68.9,34.4V28l14.5,8.4Z"/>
            <polygon class="cls-3" points="83.4 56.8 71.6 49.9 68.9 51.4 83.4 59.7 83.4 56.8"/>
            <polygon class="cls-3" points="65.6 73.2 65.7 71.3 47.6 61.2 47.6 62.8 65.6 73.2"/>
            <polygon class="cls-3" points="67.6 71.3 65.7 71.3 47.6 61.2 47.6 60.2 66.7 50.2 86.1 61 67.6 71.3"/>
            <polygon class="cls-3" points="67.6 71.3 86.1 61 86 62.9 67.6 73.2 67.6 71.3"/>
            <polygon class="cls-3" points="66.7 24 68.9 22.8 88.3 34 86.1 35.1 66.7 24"/>
            <polygon class="cls-3" points="83.4 48.3 71.6 41.4 68.9 42.9 83.4 51.2 83.4 48.3"/>
            <polygon class="cls-3" points="83.4 39.8 71.6 32.8 68.9 34.4 83.4 42.7 83.4 39.8"/>
            <polygon class="cls-1" points="71.6 49.9 71.6 46.5 68.9 45 68.9 51.4 71.6 49.9"/>
            <polygon class="cls-1" points="71.6 41.3 71.6 37.9 68.9 36.4 68.9 42.8 71.6 41.3"/>
            <polygon class="cls-1" points="71.6 32.8 71.6 29.5 68.9 27.9 68.9 34.4 71.6 32.8"/>
            <polygon class="cls-1" points="86 85.9 88.3 84.5 88.3 34 86.1 35.1 86 85.9"/>
            <polygon class="cls-4" points="67.6 73.2 65.6 73.2 65.7 71.3 67.6 71.3 67.6 73.2"/>
            <polygon class="cls-1" points="86.1 62.9 69.9 71.9 69.9 73.9 86.1 64.8 86.1 62.9"/>
          </g>
          <g>
            <polygon class="cls-1" points="18.7 64 21.3 62.5 21.3 39.3 18.7 40.7 18.7 64"/>
            <polyline class="cls-2" points="35.9 73.9 35.9 49.8 16.2 38.7 16.2 62.7 18.7 64 18.7 42.1 33.3 50.4 33.4 72.5 35.9 73.9"/>
            <polygon class="cls-1" points="35.9 73.9 38.5 72.3 38.5 49.1 36.2 50.4 35.9 50.4 35.9 73.9"/>
            <path class="cls-2" d="M35.3,1.3V30.8l2.3,1,14.7,7.9.2,22,2.2,1.4.1-50.8ZM52.1,37,37.6,28.7V22.3l14.5,8.4Zm0-8.5L37.6,20.2V13.8l14.5,8.4Zm0-8.5L37.6,11.7V5.3l14.5,8.4Z"/>
            <polygon class="cls-3" points="52 34.1 40.2 27.2 37.6 28.7 52.1 37 52 34.1"/>
            <polygon class="cls-3" points="34.2 50.4 34.3 48.6 16.2 38.4 16.2 40 34.2 50.4"/>
            <polygon class="cls-3" points="36.2 48.5 34.3 48.6 16.2 38.4 16.2 37.5 35.3 27.5 54.7 38.3 36.2 48.5"/>
            <polygon class="cls-3" points="36.2 48.5 54.7 38.3 54.7 40.2 36.2 50.4 36.2 48.5"/>
            <polygon class="cls-3" points="35.3 1.3 37.5 0 56.9 11.3 54.7 12.4 35.3 1.3"/>
            <polygon class="cls-3" points="52 25.6 40.2 18.6 37.6 20.1 52.1 28.5 52 25.6"/>
            <polygon class="cls-3" points="52 17 40.2 10.1 37.6 11.6 52.1 19.9 52 17"/>
            <polygon class="cls-1" points="40.2 27.2 40.2 23.8 37.6 22.2 37.6 28.7 40.2 27.2"/>
            <polygon class="cls-1" points="40.2 18.5 40.2 15.2 37.6 13.6 37.6 20.1 40.2 18.5"/>
            <polygon class="cls-1" points="40.2 10.1 40.2 6.7 37.6 5.2 37.6 11.6 40.2 10.1"/>
            <polygon class="cls-1" points="54.6 63.1 56.9 61.8 56.9 11.3 54.7 12.4 54.6 63.1"/>
            <polygon class="cls-4" points="36.2 50.4 34.2 50.4 34.3 48.6 36.2 48.5 36.2 50.4"/>
            <polygon class="cls-1" points="54.7 40.2 38.5 49.1 38.5 51.2 54.7 42.1 54.7 40.2"/>
          </g>
          <g>
            <path class="cls-19" d="M42.8,83.8a8.44,8.44,0,0,0-3.1,2c-.26.5.4,2.2.9,2.2s3.93-1.29,5-1.6a46.4,46.4,0,0,0,4.6-2.2V82.9S43.58,83.61,42.8,83.8Z"/>
            <path class="cls-19" d="M49.2,91.3c-.68.85-1,5.59-.5,5.8a2,2,0,0,0,2.1,0c.6-.5,5.5-8.9,5.5-8.9l-1.2-1.3A64.93,64.93,0,0,0,49.2,91.3Z"/>
            <path class="cls-20" d="M43.1,85.8c.46,0,7-2.5,7-2.5l3.6-15,6.5.9-1.1-7.5-9.1,3L48.2,77.1a54.49,54.49,0,0,1-2.2,5c-.67,1.07-3.87,2.08-4.1,2.4S42.64,85.8,43.1,85.8Z"/>
            <path class="cls-21" d="M50.1,94c-.27-.41,0-6,0-6l.9-9.1-.5-15.6,3.4-5,7,.8L60.2,64,57,66.2l-.8,10.6L55,84.7l.1,4.4s-3.55,4.6-3.8,4.9A.81.81,0,0,1,50.1,94Z"/>
            <polygon class="cls-22" points="70.4 40 69 33.7 69.7 31.6 68 23.7 70.9 20.2 77.1 25.2 79.3 32.9 74.8 40.2 70.4 40"/>
            <path class="cls-5" d="M52.4,59.1,58,60.2l1.8,9.3,10.9,3.7,4.4-8.1,3.8-2.8s-2.06-11.78-2-13.1c.05-1.13,3-5,2.9-6.1a6.13,6.13,0,0,0,4.1-.1c.36-.23-3.66-8.52-5-9.5s-3,2.49-3.5,2.8a10.41,10.41,0,0,1-4.1.3c-1-.2-2.3-2.9-2.3-2.9s-.6-.25-.8-.1S64.7,40,64.7,40c-.49,2.45,1.55,7.42,1.6,8.3.07,1.15-1.7,4.8-1.7,4.8Z"/>
            <path class="cls-23" d="M72.5,32.1c-.31.18-3.86,1.42-3.5,1.6a45.34,45.34,0,0,1-2.7-10c0-1.36,3.26-7.73,4.5-7.9s7.88,2.2,9,2.8,1.9,3.2,1.9,4.3-2.61,6.87-2.8,7.8.9,2.7.9,2.7.09,0-.5.3-3.15-.63-3.6-1.4.71-7.37.16-8-5.37-2.06-6.11-1.77-.94,4.18-.75,4.85a17.14,17.14,0,0,0,.9,3.2C70.25,31.05,72.76,31.95,72.5,32.1Z"/>
          </g>
          <g>
            <polygon class="cls-3" points="54.5 86.6 0 55.1 34.4 34.8 59.7 49.5 89.1 66.7 54.5 86.6"/>
            <polygon class="cls-2" points="54.5 86.6 54.5 90.3 0 58.2 0 55.1 54.5 86.6"/>
            <polygon class="cls-1" points="54.5 90.3 54.5 86.6 89.1 66.7 89.1 69.9 54.5 90.3"/>
            <polygon class="cls-2" points="52.1 88.8 52.1 118.3 54.5 119.7 54.5 90.3 52.1 88.8"/>
            <polygon class="cls-1" points="56.4 89.2 54.5 90.3 54.5 119.7 56.4 118.5 56.4 89.2"/>
            <polygon class="cls-2" points="83.3 73.4 83.3 99.8 85.7 101.3 85.7 71.8 83.3 73.4"/>
            <polygon class="cls-1" points="87.6 70.7 85.7 71.8 85.7 101.3 87.6 100.1 87.6 70.7"/>
            <polygon class="cls-2" points="2.5 59.7 2.5 89.1 5 90.6 5 61.2 2.5 59.7"/>
            <polygon class="cls-1" points="6.9 62.2 5 61.2 5 90.6 6.9 89.4 6.9 62.2"/>
          </g>
          <path class="cls-22" d="M68,58.1c1.69-.22,13.1-4.57,14-5.3S83.9,43,83.9,43a6.28,6.28,0,0,1-4.1.1s.07,5.86-1,6.8a64.13,64.13,0,0,1-8.5,4.7c-.74.2-3.4.34-4,.5s-2.67.48-2.4,1.3S66.31,58.32,68,58.1Z"/>
          <path class="cls-22" d="M64.67,40.2s-2.29,5.55-2.87,6-9.2-.1-9.2-.1a10.22,10.22,0,0,0-1.7-1,3.38,3.38,0,0,0-.8.3l2.5,3.7s1.81-1.8,2.2-1.8,6.77,2.7,7.8,2.3S65.37,45,65.37,45A16.25,16.25,0,0,1,64.67,40.2Z"/>
          <g>
            <polygon class="cls-24" points="53.2 46.1 52.6 49.1 45.3 47.2 46.2 44.2 53.2 46.1"/>
            <polygon class="cls-25" points="52.3 46 51.7 48.7 45.6 47.2 46.5 44.4 52.3 46"/>
            <polygon class="cls-26" points="52.6 47.8 52.1 47.7 52.2 47.1 52.7 47.2 52.6 47.8"/>
          </g>
          <path class="cls-22" d="M50.6,45.2a8.48,8.48,0,0,0-1.2.5c-.14.1.36.3.5.3a8.29,8.29,0,0,0,1.1-.5Z"/>
          <g>
            <g class="cls-27">
              <ellipse class="cls-28" cx="33" cy="51.1" rx="5" ry="2.9"/>
            </g>
            <g>
              <path class="cls-26" d="M34.1,51.4c-2.6-.5-4-2.3-4.2-5.3,2.8,3,5.6,3,8.5,0C38,49.1,36.5,50.8,34.1,51.4Z"/>
              <ellipse class="cls-29" cx="34.1" cy="46.1" rx="3.8" ry="2.2"/>
              <path class="cls-1" d="M37.8,46.3c-2.3-2.3-5.2-2.2-7.5,0,.3,1.1.3,1.9,3.6,2.3C37.2,48.2,37.2,47.6,37.8,46.3Z"/>
              <path class="cls-29" d="M31.2,44.2c-.7-.4-1.3-.5-1.7-.1a2.92,2.92,0,0,0-.1,1.6l.5.9.2-1.2a1.17,1.17,0,0,1-.2-.7l.2-.2a1.08,1.08,0,0,1,.6.1Z"/>
              <path class="cls-30" d="M29.9,46.1c0,1.5,1.9,2.6,4.2,2.6s4.2-1.2,4.2-2.6-1.9-2.6-4.2-2.6S29.9,44.7,29.9,46.1Zm.6,0c0-1.2,1.6-2.2,3.6-2.2s3.6,1,3.6,2.2-1.6,2.2-3.6,2.2S30.5,47.3,30.5,46.1Z"/>
            </g>
          </g>
          <g>
            <g>
              <g>
                <polygon class="cls-6" points="73 62 61.7 68.5 43.8 58.2 55.1 51.6 73 62"/>
                <polygon class="cls-7" points="61.7 68.7 57.9 59.3 40.1 49 43.8 58.2 61.7 68.7"/>
                <polygon class="cls-7" points="73 62 73 62.4 61.7 68.9 61.7 68.5 73 62"/>
                <polygon class="cls-7" points="61.7 68.9 61.7 68.5 43.8 58.2 43.8 58.6 61.7 68.9"/>
                <ellipse class="cls-31" cx="43.65" cy="53.3" rx="0.5" ry="1.3" transform="translate(-17.51 21.6) rotate(-23.28)"/>
                <ellipse class="cls-25" cx="45.65" cy="54.51" rx="0.5" ry="1.3" transform="translate(-17.83 22.48) rotate(-23.28)"/>
                <ellipse class="cls-5" cx="58.15" cy="64.7" rx="0.5" ry="1.3" transform="translate(-20.84 28.26) rotate(-23.28)"/>
              </g>
              <g class="cls-32">
                <polygon class="cls-28" points="43.8 58.6 39.5 65.5 51.5 73.4 61.7 68.5 43.8 58.6"/>
              </g>
            </g>
            <polygon class="cls-31" points="56.2 63.1 56.8 65.1 55.3 64.3 54.7 62.3 56.2 63.1"/>
          </g>
        </g>
      </g>
    </g>
  </g>
</svg>
