<svg xmlns="http://www.w3.org/2000/svg" viewBox="0 0 213.4 173.45">
  <defs>
    <style>
      .cls-1 {
        fill: #825537;
      }

      .cls-2 {
        fill: #bb9469;
      }

      .cls-3 {
        fill: #704626;
      }

      .cls-4 {
        fill: #cbac95;
      }

      .cls-5 {
        fill: #00b6ba;
      }

      .cls-6 {
        fill: #00ccdb;
      }

      .cls-7 {
        fill: #f7bc93;
      }

      .cls-8 {
        fill: #3a3b3f;
      }

      .cls-9 {
        fill: #552c2a;
      }

      .cls-10 {
        fill: #fce7ba;
      }

      .cls-11 {
        fill: #ff931e;
      }

      .cls-12 {
        fill: #af6100;
      }

      .cls-13 {
        fill: #4d4f54;
      }

      .cls-14 {
        fill: #343438;
      }

      .cls-15 {
        fill: #1d4e89;
      }

      .cls-16 {
        fill: #efc4b6;
      }

      .cls-17 {
        fill: #1b4275;
      }

      .cls-18 {
        fill: #255f99;
      }

      .cls-19 {
        fill: #dba884;
      }

      .cls-20 {
        fill: #fff9fd;
      }

      .cls-21 {
        fill: #434a55;
      }

      .cls-22 {
        fill: #4a2814;
      }

      .cls-23 {
        fill: #eabc8c;
      }

      .cls-24 {
        fill: #633a12;
      }

      .cls-25 {
        fill: #2a1b1a;
      }

      .cls-26 {
        fill: #cea080;
      }

      .cls-27 {
        fill: #edbea1;
      }

      .cls-28 {
        fill: #3c382f;
      }

      .cls-29 {
        fill: #ea821b;
      }

      .cls-30 {
        fill: #f4e295;
      }

      .cls-31 {
        fill: #2a2a2d;
      }

      .cls-32 {
        fill: #fff;
      }

      .cls-33 {
        fill: #9dc6d8;
      }

      .cls-34 {
        fill: #87aab9;
      }

      .cls-35 {
        fill: #fbd2c3;
      }

      .cls-36 {
        fill: #b8b9bd;
      }

      .cls-37 {
        fill: #3f2d23;
      }

      .cls-38 {
        fill: #aa5e5e;
      }

      .cls-39 {
        fill: #464134;
      }

      .cls-40 {
        fill: #efeded;
      }

      .cls-41 {
        fill: #ffd6cd;
      }

      .cls-42 {
        fill: #666054;
      }
    </style>
  </defs>
  <title>mafiaРесурс 5</title>
  <g id="Слой_2" data-name="Слой 2">
    <g id="Material">
      <g id="mafia">
        <g>
          <path class="cls-1" d="M98.4,17l.1,50.8,2.2-1.4.2-22,14.7-7.9,2.3-1V6Zm2.7,18.3,14.5-8.4v6.4l-14.5,8.3Zm0-8.5,14.5-8.4v6.4l-14.5,8.3Zm0-8.5,14.5-8.4v6.4l-14.5,8.3Z"/>
          <polygon class="cls-2" points="101.1 38.65 112.9 31.75 115.6 33.25 101.1 41.55 101.1 38.65"/>
          <polygon class="cls-2" points="116.9 53.15 118.9 53.15 136.9 42.95 136.9 42.05 117.9 32.05 98.5 42.85 116.9 53.15"/>
          <polygon class="cls-2" points="116.9 53.15 98.5 42.85 98.5 44.75 116.9 54.95 116.9 53.15"/>
          <polygon class="cls-2" points="117.9 5.85 115.6 4.55 96.3 15.85 98.4 16.95 117.9 5.85"/>
          <polygon class="cls-2" points="101.1 30.15 112.9 23.15 115.6 24.65 101.1 33.05 101.1 30.15"/>
          <polygon class="cls-2" points="101.1 21.55 112.9 14.65 115.6 16.15 101.1 24.45 101.1 21.55"/>
          <polygon class="cls-3" points="112.9 31.75 112.9 28.35 115.6 26.75 115.6 33.25 112.9 31.75"/>
          <polygon class="cls-3" points="112.9 23.05 112.9 19.75 115.6 18.15 115.6 24.65 112.9 23.05"/>
          <polygon class="cls-3" points="112.9 14.65 112.9 11.25 115.6 9.75 115.6 16.15 112.9 14.65"/>
          <polygon class="cls-3" points="98.5 67.65 96.3 66.35 96.3 15.85 98.4 16.95 98.5 67.65"/>
          <polygon class="cls-3" points="98.5 44.75 114.6 53.65 114.6 55.75 98.5 46.65 98.5 44.75"/>
        </g>
        <g>
          <polygon class="cls-3" points="38.2 130.55 35.6 128.95 35.6 105.75 38.2 107.25 38.2 130.55"/>
          <polyline class="cls-1" points="21 140.35 21 116.25 40.7 105.25 40.7 129.15 38.2 130.55 38.2 108.55 23.6 116.85 23.5 139.05 21 140.35"/>
          <polygon class="cls-3" points="21 140.35 18.4 138.75 18.4 115.65 20.7 116.85 21 116.85 21 140.35"/>
          <path class="cls-1" d="M2.2,78.85l.1,50.8,2.2-1.4.2-22,14.7-7.9,2.3-1V67.85Zm2.6,18.3,14.5-8.4v6.4l-14.5,8.3Zm0-8.5,14.5-8.4v6.4L4.8,95Zm0-8.5,14.5-8.4v6.4L4.8,86.45Z"/>
          <polygon class="cls-2" points="4.9 100.55 16.7 93.65 19.3 95.15 4.8 103.45 4.9 100.55"/>
          <polygon class="cls-2" points="22.7 116.85 22.6 115.05 40.7 104.95 40.7 106.45 22.7 116.85"/>
          <polygon class="cls-2" points="20.7 115.05 22.6 115.05 40.7 104.95 40.7 103.95 21.6 93.95 2.2 104.75 20.7 115.05"/>
          <polygon class="cls-2" points="20.7 115.05 2.2 104.75 2.2 106.65 20.7 116.85 20.7 115.05"/>
          <polygon class="cls-2" points="21.6 67.75 19.4 66.55 0 77.75 2.2 78.85 21.6 67.75"/>
          <polygon class="cls-2" points="4.9 92.05 16.7 85.05 19.3 86.65 4.8 94.95 4.9 92.05"/>
          <polygon class="cls-2" points="4.9 83.55 16.7 76.55 19.3 78.05 4.8 86.35 4.9 83.55"/>
          <polygon class="cls-3" points="16.7 93.65 16.7 90.25 19.3 88.75 19.3 95.15 16.7 93.65"/>
          <polygon class="cls-3" points="16.7 85.05 16.7 81.65 19.3 80.05 19.3 86.55 16.7 85.05"/>
          <polygon class="cls-3" points="16.7 76.55 16.7 73.15 19.3 71.65 19.3 78.05 16.7 76.55"/>
          <polygon class="cls-3" points="2.3 129.65 0 128.25 0 77.75 2.2 78.85 2.3 129.65"/>
          <polygon class="cls-4" points="20.7 116.85 22.7 116.85 22.6 115.05 20.7 115.05 20.7 116.85"/>
          <polygon class="cls-3" points="2.2 106.65 18.4 115.65 18.4 117.65 2.2 108.55 2.2 106.65"/>
        </g>
        <g id="_2" data-name="2">
          <polygon class="cls-5" points="115.1 33.55 121.9 42.55 122.8 39.05 117.6 26.05 115.1 33.55"/>
          <path class="cls-6" d="M119,38.75s-2.32-4.1-2.4-5.2,1.2-9.4,1.2-9.4-.19-8.93-1.2-8.8-3.6,4.2-3.6,4.2-3.9-3.77-4.9-4.2-7,5-7,5l1.6,22.9,6.1,3.9,5.2-3.8Z"/>
          <path class="cls-5" d="M105.8,21.55a4.75,4.75,0,0,0-3-1.6c-.94,0-1.62-.27-2.3.8s.55,16.85,1.3,18.6,9.1,8.6,9.1,8.6l1.2-3.4s-5.12-7.07-5.7-9S106.24,22.24,105.8,21.55Z"/>
          <path class="cls-7" d="M114.9,18.25c-.66-.3-.87-.92-.7-1.8a1.77,1.77,0,0,0,1.2-.4c.63-.48,2.5-4.6,2.5-4.6l-.4-3.7-3.7-.7-2.4,2.5-1.2-.8v2.3c-.3,2.35-.45,5.34-1.4,5.1l4,3.2C113.56,20.3,114.24,19.42,114.9,18.25Z"/>
          <path class="cls-8" d="M109.5,12.35a3.66,3.66,0,0,1,2.9.2,14.57,14.57,0,0,0,1.6,1.5,1.9,1.9,0,0,0,1.5.3,5.17,5.17,0,0,0,1.3-1l.2.1.2.3a6.16,6.16,0,0,0,.8-3,.4.4,0,0,0-.4.2s-.23,0-.3-.1a2.76,2.76,0,0,0-.7-.8,9.3,9.3,0,0,0-2.9-.4,6.73,6.73,0,0,0-1.3.7,19.51,19.51,0,0,1-2.8.7Z"/>
          <path class="cls-9" d="M117.7,9.65s1.7-2.54,1.5-3.7-3.64-2.72-5.3-3-4.1.42-4.6,1.1-.57,4.26-.5,5.6.5,4.3.5,4.3a4.74,4.74,0,0,1,1.3-2.2,7.68,7.68,0,0,1,0-2.5c.27-.43.9,1.3.9,1.3s1.41-2.24,2.5-2.5S117.7,9.65,117.7,9.65Z"/>
          <polygon class="cls-7" points="121.9 42.55 126.3 44.75 129.8 43.55 126.2 40.15 124.7 39.35 122.3 39.05 121.9 42.55"/>
          <polygon class="cls-7" points="110.9 47.95 114.8 49.45 117.8 47.95 113.2 44.35 111.3 44.35 110.9 47.95"/>
        </g>
        <g>
          <path class="cls-1" d="M62.2,34.55l.1,50.8L64.5,84l.2-22,14.7-7.9,2.3-1V23.45Zm2.7,18.3,14.5-8.4v6.4l-14.5,8.3Zm0-8.5L79.4,36v6.4l-14.5,8.3Zm0-8.5,14.5-8.4v6.4l-14.5,8.3Z"/>
          <polygon class="cls-2" points="64.9 56.25 76.7 49.35 79.4 50.85 64.9 59.15 64.9 56.25"/>
          <polygon class="cls-2" points="80.7 70.75 82.7 70.75 100.7 60.65 100.7 59.65 81.6 49.65 62.3 60.45 80.7 70.75"/>
          <polygon class="cls-2" points="80.7 70.75 62.3 60.45 62.3 62.35 80.7 72.65 80.7 70.75"/>
          <polygon class="cls-2" points="81.6 23.45 79.4 22.25 60.1 33.45 62.2 34.55 81.6 23.45"/>
          <polygon class="cls-2" points="64.9 47.75 76.7 40.85 79.4 42.35 64.9 50.65 64.9 47.75"/>
          <polygon class="cls-2" points="64.9 39.25 76.7 32.25 79.4 33.85 64.9 42.15 64.9 39.25"/>
          <polygon class="cls-3" points="76.7 49.35 76.7 45.95 79.4 44.45 79.4 50.85 76.7 49.35"/>
          <polygon class="cls-3" points="76.7 40.75 76.7 37.35 79.4 35.85 79.4 42.25 76.7 40.75"/>
          <polygon class="cls-3" points="76.7 32.25 76.7 28.95 79.4 27.35 79.4 33.85 76.7 32.25"/>
          <polygon class="cls-3" points="62.3 85.35 60.1 83.95 60.1 33.45 62.2 34.55 62.3 85.35"/>
          <polygon class="cls-3" points="62.3 62.35 78.4 71.35 78.4 73.35 62.3 64.25 62.3 62.35"/>
        </g>
        <g>
          <path class="cls-1" d="M33.7,49.45l.1,50.8,2.2-1.4.2-22L50.9,69l2.3-1V38.45Zm2.6,18.3,14.5-8.4v6.4l-14.5,8.3Zm0-8.5,14.5-8.4v6.4l-14.5,8.3Zm0-8.5,14.5-8.4v6.4l-14.5,8.3Z"/>
          <polygon class="cls-2" points="36.3 71.15 48.2 64.25 50.8 65.75 36.3 74.05 36.3 71.15"/>
          <polygon class="cls-2" points="52.2 85.65 54.1 85.65 72.2 75.55 72.2 74.55 53.1 64.55 33.7 75.35 52.2 85.65"/>
          <polygon class="cls-2" points="52.2 85.65 33.7 75.35 33.7 77.25 52.2 87.45 52.2 85.65"/>
          <polygon class="cls-2" points="53.1 38.35 50.8 37.05 31.5 48.35 33.7 49.45 53.1 38.35"/>
          <polygon class="cls-2" points="36.3 62.65 48.2 55.65 50.8 57.25 36.3 65.55 36.3 62.65"/>
          <polygon class="cls-2" points="36.3 54.15 48.2 47.15 50.8 48.65 36.3 56.95 36.3 54.15"/>
          <polygon class="cls-3" points="48.2 64.25 48.2 60.85 50.8 59.35 50.8 65.75 48.2 64.25"/>
          <polygon class="cls-3" points="48.2 55.55 48.2 52.25 50.8 50.65 50.8 57.15 48.2 55.55"/>
          <polygon class="cls-3" points="48.2 47.15 48.2 43.75 50.8 42.25 50.8 48.65 48.2 47.15"/>
          <polygon class="cls-3" points="33.7 100.25 31.5 98.85 31.5 48.35 33.7 49.45 33.7 100.25"/>
          <polygon class="cls-3" points="33.7 77.25 49.9 86.15 49.9 88.25 33.7 79.15 33.7 77.25"/>
        </g>
        <g id="_3" data-name="3">
          <path class="cls-10" d="M44.65,55.45l1.85-6.6c-.18.18-2-2-2-2.5,0-.33,1.46-.83,1.9-1.3s.9-8.3.9-8.3L39,38.15s2.16,7.38,2.2,8.2.13,1.63-.6,1.8a10.72,10.72,0,0,1-2.3,0Z"/>
          <path class="cls-11" d="M61.1,70.35s-3.94,0-4.8,1-1.7,8-1.7,8l-9.4,3.2s-2.27-5.75-3.7-7a29.09,29.09,0,0,0-3.3-2.4s2-9.65,1.7-11.3-2.6-5.3-2.6-5.3l-3.5-.1s2.65-7.24,3.1-7.54a14.36,14.36,0,0,1,1.4-.76A24.46,24.46,0,0,0,44.1,53c1.18-.81,1.94-2.54,2.6-4.5a1.51,1.51,0,0,1,.8-.1c.3.1,3.21,5.1,2.9,5.5s-1.3,7.2-1.3,7.2.62,3.31,1.5,4.1C51.91,66.34,61.3,70.75,61.1,70.35Z"/>
          <path class="cls-10" d="M50.42,53.9s1,6.53,1.5,7.3,7.28,5.15,7.44,5.9a1.24,1.24,0,0,1-1.29,1.5c-.92,0-1.56-1.7-2-2.1s-5.53-3-6-3.7-1.2-4.3-1.2-4.3A11,11,0,0,1,50.42,53.9Z"/>
          <path class="cls-10" d="M46.6,71.75c-1.45-.15-10.09-5.37-10.6-6.1s-2.2-9.2-2.2-9.2a5.33,5.33,0,0,1,3.5.1s.72,5.83,1.6,7.1A33.28,33.28,0,0,0,44.6,69c1,.56,1.79.2,2.4.3s2.58,1,2.3,1.7S48.05,71.91,46.6,71.75Z"/>
          <path class="cls-8" d="M39.3,43.45a4.73,4.73,0,0,1,2.9-.7,14.71,14.71,0,0,0,1.8,1.1,2.24,2.24,0,0,0,1.5-.1,9.53,9.53,0,0,0,1.1-1.3h.2l.3.2v-3l-.4.3-.3-.1a4.86,4.86,0,0,0-.9-.5,9.3,9.3,0,0,0-2.9.3l-1,1a6.12,6.12,0,0,1-2.6,1.5Z"/>
          <path class="cls-12" d="M47.5,46.55a27.11,27.11,0,0,1,1.8-9.8c.46-1-4.12-4-5.4-3.7a19.64,19.64,0,0,0-5.8,3.3c-.49.7.18,2.23,0,3.1s-3,1.81-2.2,2,2.54,4,2.3,6.5a5.8,5.8,0,0,0,1.4-3.3,18.69,18.69,0,0,1,.2-3.6l.2.7,1.1,2.1c-.33-1.32-1-3.24-.7-3.3,1-.27,1.5-.16,1.6.3a12.75,12.75,0,0,1,.6-2.9,3.38,3.38,0,0,1,2.9-.7c.61.35,1.2,2.6,1.2,2.6Z"/>
        </g>
        <g>
          <g>
            <polygon class="cls-13" points="77.6 59.85 77.2 54.95 84.7 51.35 99.1 59.15 92.6 67.25 77.6 59.85"/>
            <path class="cls-14" d="M80.9,72.35s-12.18-8.48-12.9-10,.6-8,.6-8l8.6.6L93.9,68Z"/>
            <path class="cls-15" d="M85.5,51.15,87.8,53s-5.51,4.75-8.5,5.6-8.49-1.22-9.4-1.3a8.22,8.22,0,0,0-1.9.1,18.86,18.86,0,0,1-.1-3L70,36.45l-3.5-8.6,5.4-3.8,7.5,4.2,3.1-3.5C84.56,36.13,84.8,46.13,85.5,51.15Z"/>
            <path class="cls-16" d="M97.6,39.55a49,49,0,0,1,6.8-.3c1.67.23,1.44,3.32,0,3.9s-7.3-.9-7.3-.9Z"/>
            <path class="cls-16" d="M73.5,52.65s4.46.9,4.9,1.3.07.77-.3.9-.35.24-.2.4,1.3.18,1.4.7-.77,3.4-2.1,3.4-5.7-4.7-5.7-4.7Z"/>
            <path class="cls-17" d="M72,55.05a3.34,3.34,0,0,1,2.1-2.3s-4.05-4.94-5.2-6.9S70,39,70,36.45s-3.5-8.6-3.5-8.6a26.24,26.24,0,0,0-2.4,4.5c-.5,1.6-.74,11-.5,12.1s5.78,9.11,6.4,9.6A9.46,9.46,0,0,0,72,55.05Z"/>
            <path class="cls-18" d="M82.5,24.75s5.72,8.35,7,9.4,8.9,5.5,8.9,5.5c-.88.54-1,1.61-.5,3.2,0,0-8.29-3.36-10.1-4.6s-4.3-4.9-4.3-4.9Z"/>
            <path class="cls-19" d="M75.5,24.35c-.17.59-1.28.48-2.9,0,1.89,1.79,3.58,3.83,6.8,3.9,1.2-.92,2.3-1.83,2.4-2.7-1,.22-2.32-1.84-3.6-3.4Z"/>
            <path class="cls-7" d="M82.4,16.05s-1,6.79-1.28,7.4S79.38,26,78.21,25.92s-2.66-1.27-3.41-1.87a22.59,22.59,0,0,1-2.5-3.7l.7-3.6,1.5,1.5Z"/>
          </g>
          <path d="M82.1,18.75a35.33,35.33,0,0,0,.4-4.1c-.1-.61-2.75-2.7-3.6-2.9a18.56,18.56,0,0,0-6,.9c-1,.49-1.8,3.2-1.8,4.3s.15,3.71.5,4.2a3.44,3.44,0,0,0,.9,1c.23.1.59.05.6-.2s-.76-1.33-.8-1.6a15.4,15.4,0,0,1,.7-3.6c.21,0,.72,1.1,1.5,1.5s6.3-2.09,6.8-1.9S82.1,18.75,82.1,18.75Z"/>
        </g>
        <g id="_4" data-name="4">
          <polygon class="cls-20" points="27.6 127.75 26.9 130.95 31.3 131.95 34.7 130.25 34 128.55 27.6 127.75"/>
          <path class="cls-21" d="M15.3,104.05s-.64,2.7.5,4.2,13.4,6.4,13.4,6.4l-1.6,14.7A13.75,13.75,0,0,0,33,129l2.1-15.8-8.5-8.7-1.8-1.8Z"/>
          <path class="cls-21" d="M32.2,98.45l6.3,4.2,9.5,8.5-5.6,4.5s-9.87-8.49-11.2-9a6,6,0,0,0-2.9-.2l-3.8-4.1Z"/>
          <polygon class="cls-20" points="26.7 76.45 25.4 79.35 18.7 76.75 22.7 103.45 27.4 101.75 31.2 98.45 27.9 77.95 26.7 76.45"/>
          <path class="cls-6" d="M18.2,105.65a10.67,10.67,0,0,1-3.2-1.6c-.52-.39-.7-6.6-.7-6.6l-3.5-16.3c1.67-2,7-5.94,7.4-5.8s5.6,16.4,5.6,16.4,1.33,12.4.8,12.8S18.83,105.65,18.2,105.65Z"/>
          <path class="cls-7" d="M13.1,79.35a8.69,8.69,0,0,0-2.3,3.8c-.21,1.18,3.89,18.9,4.6,19.2s12.4-.7,12.4-.7l1.1-2.3s-9-1.33-9.8-2.5-4-17.13-4.4-17.5A1.39,1.39,0,0,0,13.1,79.35Z"/>
          <path class="cls-6" d="M26.2,77.55s.26-1.7,1-1.7,4.4,6.4,4.4,6.4l.6,16.2-2.1,1.3-2.4-19.4Z"/>
          <path class="cls-7" d="M39.8,77.15l-1.2,17.7-6.5.1-.3-6s2.54,1.28,2.9,1,3.1-13.7,3.1-13.7Z"/>
          <path class="cls-7" d="M26.2,102.25c-.42-.3,1.41-3.6,2.7-3.7s7.3,2.5,7.3,3.3-4.14,1.2-5.3,1.4A12,12,0,0,1,26.2,102.25Z"/>
          <path class="cls-7" d="M22.9,79.65c-.92-.26-3.4-2.5-3.4-2.5a6.13,6.13,0,0,0,.8-2.6c0-1.12-1.9-7.7-1.9-7.7l3.1-3.3,7.2.4s.15,8.49-.5,9.1-2.9.8-2.9.8a42.31,42.31,0,0,1,.5,5.3C25.63,79.71,23.82,79.92,22.9,79.65Z"/>
          <path class="cls-22" d="M19,72.45s-3.58-7-3.1-8.5,2.76-4.33,4.1-4.8,6.68-.65,7.7,0,1.3,4.7,1.3,4.7l-4.5,1.6-3.7-1.1.2,3.5L20.6,70l-1.4-2.8-.5.8C18.23,68.87,18.61,70.66,19,72.45Z"/>
          <path class="cls-8" d="M19.4,70.55a27.47,27.47,0,0,1,2.8-.6c.39,0,1.54.92,1.9,1a3.56,3.56,0,0,0,1.5-.1,8.25,8.25,0,0,0,1-1.3h.3a3.28,3.28,0,0,0,.4.7,3.8,3.8,0,0,0,1.1,0c.47-.93.8-3.15.2-4.2a8.55,8.55,0,0,0-1.1.2c-.32.11-.7.8-.7.8l-.3-.1a2,2,0,0,0-.9-.5c-.4,0-2.9.3-2.9.3l-1.1,1L19,69.25Z"/>
          <path class="cls-7" d="M40.8,72c.27.66-1,5.2-1,5.2l-2-.9c-.51-.27-.67-3.23-.4-4.1s.18-5.54.3-5.7a.66.66,0,0,1,1,.3c.18.56-.09,3.42,0,3.8S40.53,71.3,40.8,72Z"/>
        </g>
        <g>
          <path class="cls-3" d="M162.3,4.35v29.5l2.3,1,14.7,7.9.2,22,2.2,1.4.1-50.8ZM179,40.05l-14.5-8.3v-6.4l14.5,8.4Zm0-8.5-14.5-8.3v-6.4l14.5,8.4Zm0-8.5-14.5-8.3V8.35l14.5,8.4Z"/>
          <polygon class="cls-2" points="179 37.15 167.2 30.25 164.5 31.75 179 40.05 179 37.15"/>
          <polygon class="cls-2" points="163.2 51.65 161.2 51.65 143.2 41.55 143.2 40.55 162.3 30.55 181.6 41.35 163.2 51.65"/>
          <polygon class="cls-2" points="163.2 51.65 181.6 41.35 181.6 43.25 163.2 53.55 163.2 51.65"/>
          <polygon class="cls-2" points="162.3 4.35 164.5 3.15 183.8 14.35 181.7 15.45 162.3 4.35"/>
          <polygon class="cls-2" points="179 28.65 167.2 21.75 164.5 23.25 179 31.55 179 28.65"/>
          <polygon class="cls-2" points="179 20.15 167.2 13.15 164.5 14.75 179 23.05 179 20.15"/>
          <polygon class="cls-1" points="167.2 30.25 167.2 26.85 164.5 25.35 164.5 31.75 167.2 30.25"/>
          <polygon class="cls-1" points="167.2 21.65 167.2 18.25 164.5 16.75 164.5 23.15 167.2 21.65"/>
          <polygon class="cls-1" points="167.2 13.15 167.2 9.85 164.5 8.25 164.5 14.75 167.2 13.15"/>
          <polygon class="cls-1" points="181.6 66.25 183.8 64.85 183.8 14.35 181.7 15.45 181.6 66.25"/>
        </g>
        <g id="_1" data-name="1">
          <path class="cls-23" d="M172.8,13.35a53.7,53.7,0,0,1-.5-5.7l-1.7,1.1-1.8-3.9-3.9.5s-.25,6.5,0,7a14.33,14.33,0,0,0,2.3,2l.9,4.1,5.8-3A12,12,0,0,1,172.8,13.35Z"/>
          <path class="cls-8" d="M172.6,10.45a7.7,7.7,0,0,0-2.9-.6,5.65,5.65,0,0,0-1.8,1.1,2.89,2.89,0,0,1-1.5-.2c-.33-.13-1.1-1.3-1.1-1.3h-.2l-.3.2a6.64,6.64,0,0,1,0-3l.4.3h.3a2.94,2.94,0,0,1,.9-.6,4.28,4.28,0,0,1,2.9.3,7.31,7.31,0,0,1,1,1l2.6,1.5Z"/>
          <path class="cls-20" d="M173.4,42.35l1.5-12.3.3-4.6c2.45-.25,4.74-.61,6.1-1.6,0,0-1.71-8-2.7-8.4a24.15,24.15,0,0,0-4.2-.8L169.2,17s-.42-2.6-1.6-3.2-2.27-1.2-3-.9-3.76,4.08-4.8,7l1.7,1.6-1.4,12.2-2.8,5.2Z"/>
          <path class="cls-23" d="M159.8,19.85s-1,5-1.1,4.9-1.1-11.9-1.1-11.9a12.11,12.11,0,0,0-.5-2.8c-.26-.2-.4,0-.4,0s-.1,2.2-.15,2.38-.94.35-.94,1a3.13,3.13,0,0,0,.4,1.5,11.88,11.88,0,0,1,.49,1.86s-.22,12.53-.16,13.05-.14,1.23,1,1.35,3.45-3.2,3.45-3.2l.75-6.5Z"/>
          <path class="cls-23" d="M180.3,24.35s-1.07,7.31-1.5,8.4-12.51,11.59-12.7,11.5L163.7,43l2.8-3.1,2-1.1s6.71-8.08,6.9-8.2-.2-1.3-.2-1.3v-3.8Z"/>
          <path class="cls-24" d="M173.9,10.45c.08-.67.85-6.93,0-8.3s-8.12-2.59-9-2a4.53,4.53,0,0,0-1.2,3.5c.2.7.7,2,1.2,2.2s3.91,0,4.6.4.84,1.68,1.1,2.5a9.48,9.48,0,0,0,2.9,3.2C173.9,12,173.82,11.12,173.9,10.45Z"/>
        </g>
        <g>
          <polygon class="cls-1" points="175.2 81.85 177.8 80.35 177.8 57.15 175.2 58.55 175.2 81.85"/>
          <polyline class="cls-3" points="192.4 91.75 192.4 67.65 172.7 56.55 172.7 80.55 175.2 81.85 175.2 59.95 189.8 68.25 189.9 90.35 192.4 91.75"/>
          <polygon class="cls-1" points="192.4 91.75 195 90.15 195 66.95 192.7 68.25 192.4 68.25 192.4 91.75"/>
          <path class="cls-3" d="M191.8,19.15v29.5l2.3,1,14.7,7.9.2,22,2.2,1.4.1-50.8Zm16.8,35.7-14.5-8.3v-6.4l14.5,8.4Zm0-8.5-14.5-8.3v-6.4l14.5,8.4Zm0-8.5-14.5-8.3v-6.4l14.5,8.4Z"/>
          <polygon class="cls-2" points="208.5 51.95 196.7 45.05 194.1 46.55 208.6 54.85 208.5 51.95"/>
          <polygon class="cls-2" points="190.7 68.25 190.8 66.45 172.7 56.25 172.7 57.85 190.7 68.25"/>
          <polygon class="cls-2" points="192.7 66.45 190.8 66.45 172.7 56.25 172.7 55.35 191.8 45.35 211.2 56.15 192.7 66.45"/>
          <polygon class="cls-2" points="192.7 66.45 211.2 56.15 211.2 58.05 192.7 68.25 192.7 66.45"/>
          <polygon class="cls-2" points="191.8 19.15 194 17.85 213.4 29.15 211.2 30.25 191.8 19.15"/>
          <polygon class="cls-2" points="208.5 43.45 196.7 36.45 194.1 37.95 208.6 46.35 208.5 43.45"/>
          <polygon class="cls-2" points="208.5 34.85 196.7 27.95 194.1 29.45 208.6 37.75 208.5 34.85"/>
          <polygon class="cls-1" points="196.7 45.05 196.7 41.65 194.1 40.05 194.1 46.55 196.7 45.05"/>
          <polygon class="cls-1" points="196.7 36.35 196.7 33.05 194.1 31.45 194.1 37.95 196.7 36.35"/>
          <polygon class="cls-1" points="196.7 27.95 196.7 24.55 194.1 23.05 194.1 29.45 196.7 27.95"/>
          <polygon class="cls-1" points="211.1 80.95 213.4 79.65 213.4 29.15 211.2 30.25 211.1 80.95"/>
          <polygon class="cls-4" points="192.7 68.25 190.7 68.25 190.8 66.45 192.7 66.45 192.7 68.25"/>
          <polygon class="cls-1" points="211.2 58.05 195 66.95 195 69.05 211.2 59.95 211.2 58.05"/>
        </g>
        <g id="_10" data-name="10">
          <polygon class="cls-25" points="171.5 75.05 168.7 76.75 169.5 78.65 173.9 77.25 177.8 75.35 177.8 74.25 171.5 75.05"/>
          <polygon class="cls-25" points="177 81.55 176.6 86.55 178.3 86.55 183.1 78.85 182.1 77.75 177 81.55"/>
          <polygon class="cls-26" points="171.7 76.85 177.8 74.55 180.9 61.65 186.5 62.35 185.6 55.95 177.6 58.45 176.1 69.25 174.2 73.55 170.7 75.65 171.7 76.85"/>
          <polygon class="cls-27" points="177.8 83.85 177.8 78.65 178.6 70.75 178.1 57.25 181.1 52.95 187.1 53.65 186.5 57.85 183.7 59.85 183.1 69.05 182 75.85 182.1 79.65 178.8 83.85 177.8 83.85"/>
          <path class="cls-7" d="M195.4,37.15l-1.3-5.5c1.14-.39,2.26-.79,2.2-2.1l-3.2-3c-.11-2.47,0-4.77,1.4-6,2.37,0,4.54,1.52,6.6,3.8l-.8,7.1h3.4Z"/>
          <path class="cls-18" d="M179.7,53.65l-7.1,10.2,7.5,13.9,15.5-11.9s3.24-6.2,3.8-7,2.76-1.15,3.3-2.4-2.44-9.69-1.8-11.3a10.84,10.84,0,0,0,1.7-3.5,20.24,20.24,0,0,1-.9,4.9,9.15,9.15,0,0,0,3.5,1.8l1.6-6s.3-2.17.3-2.6-3.4-8.3-3.4-8.3h-3.4c-1.32,1.38-2.61,2.9-4.1,3.2-1-.72-1.15-2.2-1.2-3.8a11.25,11.25,0,0,0-1.6.8c-.59.39-2.66,4.7-3,5.5a48.39,48.39,0,0,0-1,5.1l.1.5,1.7,2.4-.1.4-.8,2.9Z"/>
          <path class="cls-7" d="M192.7,53.55s11.9-4.41,12.1-4.6.2-.7.2-.7L202.5,47l-.7-.3c-.59,1-4.15,2.44-7.2,3.8l-3.4.5-2.1,1Z"/>
          <path class="cls-7" d="M189.5,42.75a4.11,4.11,0,0,1-.2,1.2c-.2.56-3,4.3-3,4.3l-2.9,1.2.5,2,2.3-1,4.6-3.9.4-1.4Z"/>
          <path class="cls-8" d="M202.4,27a15.88,15.88,0,0,0-2.8-.7c-.7,0-1.68,1-1.9,1.1a2,2,0,0,1-1.5-.1c-.36-.26-.84-1.24-1-1.3s-.11,0-.3,0-.57.51-.7.6a3,3,0,0,1-.8.1c.12-1.74.09-4.11.7-3.9l.6.3c.12.06.22.26.3.3a.47.47,0,0,0,.3,0,8.07,8.07,0,0,1,.9-.5c.62-.27,2.9.3,2.9.3l1.1,1,2.6,1.4Z"/>
          <path class="cls-28" d="M195.6,30.35l-4.8,1.1a25.75,25.75,0,0,1,1-8.5c.62-2.4,1.85-6.47,3.9-6.8s6.77,1.35,7.8,2,1.6,4.1,1.6,4.1a16.74,16.74,0,0,1,.7,3.6c0,1.31.08,4.87-.9,5.5s-6.1,1.1-6.1,1.1a8.46,8.46,0,0,0,1.3-5.5l-.9-3.1c-.64-1.79-2.25-2.61-4.7-2.6-.55.21-.62,2.64-.7,5a7.56,7.56,0,0,0,.9,1.8Z"/>
        </g>
        <g>
          <polygon class="cls-3" points="82.2 112.15 82.2 139.75 53.3 122.65 53.3 94.95 82.2 112.15"/>
          <polygon class="cls-1" points="82.2 139.75 98.9 128.55 98.9 101.95 82.2 112.15 82.2 139.75"/>
          <path class="cls-8" d="M120.1,37s-53.1,28.7-80,46.5c-20.4,26.1,21.3,49.3,60,35l82-48.5C209.6,43.85,152.9,23.45,120.1,37Z"/>
          <path class="cls-29" d="M121.8,39S68.4,67.45,43.5,84c-18.9,24.2,19.7,45.6,55.6,32.4l80.2-46.8C204.8,45.25,152.3,26.35,121.8,39Z"/>
          <path class="cls-30" d="M81.7,105.75c-7.9,0-14.4-2.2-17.4-6.4s-2.2-9.7,2.3-15.5l.1-.1c17.2-11.4,54.4-31.3,54.8-31.5h0c14.5-6,34.4-4.2,39.3,3.5,1.8,2.7,2.4,7.3-4.3,13.6l-.1.1-56,32.7A52,52,0,0,1,81.7,105.75ZM67.3,84.55c-4.2,5.4-5,10.5-2.3,14.2,4.3,5.9,18,8.8,35,2.5l55.9-32.7c4.9-4.7,6.3-8.9,4.1-12.3-4.8-7.3-24-8.9-38.1-3.1C120.9,53.85,84.4,73.25,67.3,84.55Z"/>
          <path class="cls-31" d="M189.4,55.75a52.9,52.9,0,0,1,0,6.9,29.67,29.67,0,0,1-7.1,8.9l-82.4,48.7c-20.4,6.5-35.2,5.6-50.9-2.3-8.1-3.5-13.1-9.8-14.4-19.6,1.3,8.1,6.2,14.4,15.1,18.7q23.4,10.65,50.4,1.2l81.8-48.4a26.29,26.29,0,0,0,6-8.1C188.8,60.25,189.1,58.15,189.4,55.75Z"/>
          <rect class="cls-30" x="132.93" y="82.54" width="1" height="13.7" transform="translate(-16.29 147.5) rotate(-55.03)"/>
          <rect class="cls-30" x="109.92" y="43.9" width="1" height="15" transform="translate(8.04 117.37) rotate(-57.76)"/>
          <rect class="cls-30" x="75.11" y="63.46" width="1" height="15.1" transform="matrix(0.51, -0.86, 0.86, 0.51, -23.89, 100.34)"/>
          <rect class="cls-30" x="151.6" y="44.55" width="18.4" height="1" transform="translate(14.79 126.09) rotate(-44.68)"/>
          <rect class="cls-30" x="135.2" y="34.45" width="1" height="14.6"/>
          <rect class="cls-30" x="161.08" y="59.35" width="25.6" height="1" transform="translate(-5.22 18.14) rotate(-5.88)"/>
          <rect class="cls-30" x="154.86" y="69.67" width="1" height="13.6" transform="translate(9.82 170.29) rotate(-59.02)"/>
          <rect class="cls-30" x="44.11" y="105.26" width="23.3" height="1" transform="translate(-35.76 28.83) rotate(-22.15)"/>
          <rect class="cls-30" x="52.57" y="74.33" width="1" height="24.5" transform="matrix(0.04, -1, 1, 0.04, -35.49, 136.27)"/>
          <rect class="cls-30" x="73.03" y="112.64" width="16.7" height="1" transform="translate(-48.57 163.52) rotate(-75.46)"/>
          <rect class="cls-30" x="109.06" y="97.07" width="1" height="12.6" transform="translate(-40.64 92.09) rotate(-39.04)"/>
        </g>
        <g>
          <polygon class="cls-2" points="183.7 95.85 203.8 84.75 183.9 75.05 182.1 75.05 165.4 84.55 165.4 85.65 183.7 95.85"/>
          <polygon class="cls-2" points="183.7 97.75 183.7 95.85 203.8 84.75 203.8 86.15 183.7 97.75"/>
          <polygon class="cls-2" points="183.7 95.85 165.4 85.65 165.4 87.55 183.7 97.75 183.7 95.85"/>
          <g id="_9" data-name="9">
            <polygon class="cls-32" points="171.6 103.35 171.6 104.95 170.8 106.65 163.6 102.55 163 100.25 165.5 100.25 171.6 103.35"/>
            <polygon class="cls-33" points="181.4 81.25 179 73.85 178.3 74.25 174.9 83.35 179.8 86.75 180.8 84.05 181.4 81.25"/>
            <polygon class="cls-34" points="180.4 91.85 172.1 86.45 170.6 103.45 166.3 101.15 166.8 79.25 181.8 83.65 189.7 89.15 188.4 92.55 180.4 91.85"/>
            <polygon class="cls-35" points="169.8 81.15 166.1 81.95 163.9 81.55 164.6 79.25 168.1 78.45 169.3 79.25 169.8 81.15"/>
            <path class="cls-11" d="M180.6,89.45s6.45,3.4,8.9,2.6,7-4.4,7.5-5.4,2.68-24,1.1-25.1a41.58,41.58,0,0,0-4.5-2.4l-5.5.8s-6.44,2-7.6,2.9-2.1,13.7-2.1,13.7L167.6,78l1.1,3.9h12.4Z"/>
            <path class="cls-36" d="M197.8,60.85s1.8,8.3,1.8,10.3-1.8,8.2-1.8,8.2Z"/>
            <path class="cls-35" d="M188.1,60a6.85,6.85,0,0,0-.7-1.8c-.3-.28-1.63-1-1.7-1.5s-.1-4.6-.1-4.6l2.5-2.3.2,2.1,1.1,6.1,3.7.1v1.4a3.27,3.27,0,0,1-2.5,2.8C189.1,62.61,188.8,61,188.1,60Z"/>
            <path class="cls-37" d="M191.9,59.25a3.91,3.91,0,0,0,2.5-1.2c.6-.73,3.61-7.45,3.4-9.2s-3.38-5.1-4.5-5.1-7.76,1.25-8.3,2.3,0,5.4,0,5.4a1.79,1.79,0,0,0,.6.7,11.32,11.32,0,0,0,1.7.3c.35.08,1.2,1,1.2,1,.41.78.46,2.9.6,4.7A12.53,12.53,0,0,0,191.9,59.25Z"/>
            <path class="cls-8" d="M188.9,56.45c-.6-.64-1.21-1.17-1.9-1.1a.77.77,0,0,1-.5.4,1.21,1.21,0,0,1-.7-.1l-.2-.1a9.88,9.88,0,0,1-.1-3.4l.5.1a8.84,8.84,0,0,1,1,.6,2.85,2.85,0,0,1,.4.9l1.4.8C189.09,55.81,189.1,56.39,188.9,56.45Z"/>
          </g>
          <path class="cls-1" d="M185.9,72.45l.1,50.8,2.2-1.4.2-22L203.1,92l-.1,21.2,2.4-1.2V61.45Zm2.6,18.3,14.5-8.4v6.4l-14.5,8.3Zm0-8.5,14.5-8.4v6.4l-14.5,8.3Zm0-8.5,14.5-8.4v6.4l-14.5,8.3Z"/>
          <polygon class="cls-3" points="186 123.15 183.5 121.85 183.4 99.75 168.8 91.35 168.8 113.35 166.3 112.05 166.3 88.05 183.7 97.75 183.7 71.35 185.9 72.45 186 123.15"/>
          <polygon class="cls-2" points="205.3 61.35 203.1 60.05 183.7 71.35 185.9 72.45 205.3 61.35"/>
          <polygon class="cls-2" points="188.6 94.15 200.4 87.25 203 88.75 188.5 97.05 188.6 94.15"/>
          <polygon class="cls-2" points="188.6 85.65 200.4 78.65 203 80.25 188.5 88.55 188.6 85.65"/>
          <polygon class="cls-2" points="188.6 77.05 200.4 70.15 203 71.65 188.5 79.95 188.6 77.05"/>
          <polygon class="cls-3" points="200.4 87.25 200.4 83.85 203 82.35 203 88.75 200.4 87.25"/>
          <polygon class="cls-3" points="200.4 78.55 200.4 75.25 203 73.65 203 80.15 200.4 78.55"/>
          <polygon class="cls-3" points="200.4 70.15 200.4 66.75 203 65.25 203 71.65 200.4 70.15"/>
          <polygon class="cls-3" points="202.9 113.05 200.4 111.75 200.4 93.25 203 91.85 202.9 113.05"/>
          <polygon class="cls-1" points="168.8 113.35 171.4 111.85 171.4 92.95 168.8 91.35 168.8 113.35"/>
        </g>
        <g>
          <polygon class="cls-2" points="158.7 110.65 178.7 99.55 158.9 89.85 157.1 89.85 140.3 99.35 140.3 100.35 158.7 110.65"/>
          <polygon class="cls-2" points="158.7 112.45 158.7 110.65 178.7 99.55 178.7 100.85 158.7 112.45"/>
          <polygon class="cls-2" points="158.7 110.65 140.3 100.35 140.3 102.35 158.7 112.45 158.7 110.65"/>
          <g id="_8" data-name="8">
            <path class="cls-38" d="M150.5,97.35l-2.6-5,3-1.8,7.8,1.4,13,8.4s-2.2,4-3.3,4.7a28.78,28.78,0,0,1-4.8,2.3c-1.2.43-10.5-11.6-10.5-11.6Z"/>
            <path class="cls-39" d="M150.6,123.35c.3,1.6-.1,2.1-.1,2.1l-7.9,2.1-1.5-.8.8-1.1,2.6-1.3,5.2-1.4Z"/>
            <polygon class="cls-29" points="149.4 123.35 150.2 104.55 160.5 108.65 163.6 107.35 167 100.65 142.3 96.05 144.4 125.05 149.4 123.35"/>
            <path class="cls-40" d="M170.2,97s4.65-19.51,4.5-20.9-2.6-2.9-2.6-2.9c.79.5-8.72,3.3-13.4,4.74-1.45,0-7.59,14.58-9.8,15.36a5.44,5.44,0,0,1-3.3.4l-4.9,3s9,1.4,11.2.4,7-12.2,7-12.2-1.92,3-2,4.7.8,3.9.8,4.9-1.21,4.38-.9,5,3,1.4,5.8,1.4S170.2,97,170.2,97Z"/>
            <path class="cls-35" d="M162.2,70.75c-.5-1.1-.5-6.4-.5-6.4l4.3,5.4,1.3,4.2-3.4.3s-.15-2.55-.5-2.8"/>
            <path class="cls-8" d="M165.2,69l-1.9-1s-.18.42-.5.5a1.66,1.66,0,0,1-.8-.1l-.1-.1a8.84,8.84,0,0,1-.3-3.4l.5.1,1,.5.5.9,1.4.7Z"/>
            <path class="cls-39" d="M173,59.25c1.31.59,1.54,16.64,0,18.2s-8.39,4.56-9.2,3,.32-7.56.1-9.7-3.69-9.7-3.3-10.2,5.4-1.91,7.3-2.1A10.41,10.41,0,0,1,173,59.25Z"/>
          </g>
          <path class="cls-1" d="M160.9,87.15,161,138l2.2-1.4.2-22,14.7-7.9-.1,21.2,2.4-1.2V76.15Zm2.6,18.3,14.5-8.4v6.4l-14.5,8.3Zm0-8.5,14.5-8.4V95l-14.5,8.3Zm0-8.5,14.5-8.4v6.4l-14.5,8.3Z"/>
          <polygon class="cls-3" points="161 137.95 158.4 136.65 158.4 114.45 143.7 106.15 143.7 128.15 141.3 126.75 141.3 102.85 158.7 112.45 158.7 86.05 160.9 87.15 161 137.95"/>
          <polygon class="cls-2" points="180.3 76.15 178 74.85 158.7 86.05 160.9 87.15 180.3 76.15"/>
          <polygon class="cls-2" points="163.5 108.95 175.4 101.95 178 103.45 163.5 111.85 163.5 108.95"/>
          <polygon class="cls-2" points="163.5 100.35 175.4 93.45 178 94.95 163.5 103.25 163.5 100.35"/>
          <polygon class="cls-2" points="163.5 91.85 175.4 84.95 178 86.45 163.5 94.75 163.5 91.85"/>
          <polygon class="cls-3" points="175.4 101.95 175.4 98.55 178 97.05 178 103.45 175.4 101.95"/>
          <polygon class="cls-3" points="175.4 93.35 175.4 89.95 178 88.45 178 94.85 175.4 93.35"/>
          <polygon class="cls-3" points="175.4 84.95 175.4 81.55 178 79.95 178 86.45 175.4 84.95"/>
          <polygon class="cls-3" points="177.9 127.75 175.4 126.45 175.4 108.05 178 106.65 177.9 127.75"/>
          <polygon class="cls-1" points="143.7 128.15 146.3 126.55 146.3 107.75 143.7 106.15 143.7 128.15"/>
          <polygon class="cls-29" points="149.4 123.35 150.2 104.55 153.2 98.05 142.3 96.05 144.4 125.05 149.4 123.35"/>
        </g>
        <g>
          <polygon class="cls-2" points="129.1 127.75 149.1 116.65 129.2 106.95 127.4 106.95 110.7 116.45 110.7 117.55 129.1 127.75"/>
          <polygon class="cls-2" points="129.1 129.55 129.1 127.75 149.1 116.65 149.1 117.95 129.1 129.55"/>
          <polygon class="cls-2" points="129.1 127.75 110.7 117.55 110.7 119.45 129.1 129.55 129.1 127.75"/>
          <g id="_7" data-name="7">
            <path class="cls-28" d="M141.2,120.35c1.1-1.65,0-6,0-6s-19.78-6-20.9-6-2.69,1.36-3.2,1.7-.74,1.39-.9,1.8-.16,1.43.2,1.3c1.11-.39,21.64,9,21,9.5C137.4,122.65,140.1,122,141.2,120.35Z"/>
            <path class="cls-41" d="M105.47,113c-1.1.27-4.25-1.1-4.9-1.6s-1.61-3.26-.3-3.6,4.5,1.5,5.2,2.3S106.57,112.72,105.47,113Z"/>
            <path class="cls-18" d="M142.4,115.45s-7.9-22.12-9.5-22.7-16.22,2.16-17.6,2.9-4.05,13.4-5.6,14a10.68,10.68,0,0,1-3.9.4l-.6,3.8s6.17,1.1,7.6.7,4.9-9.9,4.9-9.9l12.2,14.2Z"/>
            <path class="cls-41" d="M122.1,95.25a4.45,4.45,0,0,1-3-1.2,51,51,0,0,1-1.7-5.4l7.1,2.4,3.8,2.9S122.93,95.09,122.1,95.25Z"/>
            <path class="cls-8" d="M121.9,92.65a8.87,8.87,0,0,0-2.1-.5c-.19.14-.21.5-.4.7s-.7.1-.7.1h-.2a12,12,0,0,1-1.3-3.2,2,2,0,0,1,.5-.1,4.51,4.51,0,0,1,1.1.3c.29.12.4.48.8.7a4.87,4.87,0,0,0,1.6.2Z"/>
            <path class="cls-21" d="M123.4,94.65c-.55-.57-3-4-3.7-4.5a6.82,6.82,0,0,0-2.4-.7s-1.3-4.81-.7-5.8,5.56-3.2,7.2-3.2,4,2.7,4.5,3.9-.32,7.9-.9,9.1S124,95.23,123.4,94.65Z"/>
            <polygon class="cls-28" points="113.7 138.05 113.2 140.85 104.6 140.15 102 138.75 104 137.55 107.8 137.55 112.8 137.55 113.7 138.05"/>
            <path class="cls-31" d="M127.7,134.15c-.5.61-.49,1-1.8.8s-5.2-3.5-5.2-3.5-1.06-.9-.4-1.2a4.9,4.9,0,0,1,2.2,0c.78,0,4.5,2.19,4.9,2.6S128.2,133.54,127.7,134.15Z"/>
          </g>
          <path class="cls-42" d="M105.9,137.25l1.4-19.4,21.1-.8,1.5,1.8,7.8-2.1-.3,5.9a6.72,6.72,0,0,1-2.7,2.2c-3.46.66-21.76-.94-22.1-.2l-1.2,13Z"/>
          <path class="cls-1" d="M131.2,104.35l.1,50.8,2.2-1.4.2-22,14.7-7.9-.1,21.2,2.4-1.2V93.35Zm2.7,18.3,14.5-8.4v6.4L133.9,129Zm0-8.5,14.5-8.4v6.4l-14.5,8.3Zm0-8.6,14.5-8.4v6.4l-14.5,8.3Z"/>
          <polygon class="cls-3" points="131.3 155.05 128.8 153.75 128.7 131.55 114.1 123.25 114.1 145.25 111.6 143.85 111.6 119.95 129.1 129.55 129.1 103.25 131.2 104.35 131.3 155.05"/>
          <polygon class="cls-2" points="150.6 93.25 148.4 91.95 129.1 103.25 131.2 104.35 150.6 93.25"/>
          <polygon class="cls-2" points="133.9 126.05 145.7 119.05 148.4 120.65 133.9 128.95 133.9 126.05"/>
          <polygon class="cls-2" points="133.9 117.55 145.7 110.55 148.4 112.05 133.9 120.35 133.9 117.55"/>
          <polygon class="cls-2" points="133.9 108.95 145.7 102.05 148.4 103.55 133.9 111.85 133.9 108.95"/>
          <polygon class="cls-3" points="145.7 119.05 145.7 115.75 148.4 114.15 148.4 120.65 145.7 119.05"/>
          <polygon class="cls-3" points="145.7 110.45 145.7 107.05 148.4 105.55 148.4 111.95 145.7 110.45"/>
          <polygon class="cls-3" points="145.7 102.05 145.7 98.65 148.4 97.15 148.4 103.55 145.7 102.05"/>
          <polygon class="cls-3" points="148.2 144.95 145.7 143.65 145.7 125.15 148.3 123.75 148.2 144.95"/>
          <polygon class="cls-1" points="114.1 145.25 116.7 143.65 116.7 124.85 114.1 123.25 114.1 145.25"/>
          <path class="cls-42" d="M123.8,124.85s-6.3-.6-8-.1-4.7,16-4.7,16v-21.6Z"/>
        </g>
        <g>
          <polygon class="cls-2" points="91.1 146.05 111.1 134.95 91.3 125.25 89.5 125.25 72.7 134.75 72.7 135.85 91.1 146.05"/>
          <polygon class="cls-2" points="91.1 147.85 91.1 146.05 111.1 134.95 111.1 136.25 91.1 147.85"/>
          <polygon class="cls-2" points="91.1 146.05 72.7 135.85 72.7 137.75 91.1 147.85 91.1 146.05"/>
          <g id="_6" data-name="6">
            <path class="cls-17" d="M85.7,134.75l1.3-5-1.4-.5s-2.11-.74-3.3-1a11.19,11.19,0,0,0-4.9.4c-1.56.5-3,4.6-3,4.6l11,1.8Z"/>
            <path class="cls-35" d="M75.68,103.6s-.65-2.22-.3-2.9,1.71,0,2-.5.15-4.14.3-4.4.17-.24.4,0a33.82,33.82,0,0,1,.4,6.5,2.88,2.88,0,0,1-.9,1.1Z"/>
            <path class="cls-20" d="M84.4,143.05s6.61,1,9.7,0,7-4.37,7.4-5.4,1.54-24.4,1.2-25.2-3.57-2.3-4.6-2.4a40.85,40.85,0,0,0-5.5.8s-6.8,2.27-7.5,3,.82,16.91.6,18.9C85.47,134.89,84.24,143.15,84.4,143.05Z"/>
            <path class="cls-36" d="M102.7,112.45s1.7,8.49,1.7,10.2-2.5,8.2-2.5,8.2C101.45,124.91,102.31,118.75,102.7,112.45Z"/>
            <path class="cls-35" d="M92.8,110l-1.1.1s-1.4.19-1.6-.1,0-7,0-7l1.4-1.9,1.3,1.8,1.1,6.1h3.8a4.9,4.9,0,0,0,0,3.7c-1.85.52-3.59.79-4.9,0A5.69,5.69,0,0,0,92.8,110Z"/>
            <path class="cls-8" d="M96.3,107l-2.9-.7s-1.5.94-1.9,1.1a3.88,3.88,0,0,1-1.5-.1v-4.5l3,.4,1,1,2.6,1.4Z"/>
            <path class="cls-37" d="M97.7,109.15c1.65-.58,3.4-5.3,3.8-6.9s.85-3.88,0-4.9S96.7,93.8,95.3,94s-5.08,2-5.8,3.1-.28,4.61,0,5.3a4.34,4.34,0,0,0,1.2,1.4s1.2-2.6,1.6-2.2.24,3.83.4,4.5a10.94,10.94,0,0,0,1,3.1C94.12,109.58,96.05,109.73,97.7,109.15Z"/>
          </g>
          <path class="cls-1" d="M93.3,122.65l.1,50.8,2.2-1.4.2-22,14.7-7.9-.1,21.2,2.4-1.2v-50.5Zm2.6,18.2,14.5-8.4v6.4l-14.5,8.3Zm0-8.5,14.5-8.4v6.4l-14.5,8.3Zm0-8.5,14.5-8.4v6.4l-14.5,8.3Z"/>
          <polygon class="cls-3" points="93.4 173.35 90.8 172.05 90.8 149.85 76.1 141.55 76.1 163.55 73.7 162.15 73.7 138.25 91.1 147.85 91.1 121.45 93.3 122.65 93.4 173.35"/>
          <polygon class="cls-2" points="112.7 111.55 110.5 110.25 91.1 121.45 93.3 122.65 112.7 111.55"/>
          <polygon class="cls-2" points="96 144.35 107.8 137.35 110.4 138.85 95.9 147.25 96 144.35"/>
          <polygon class="cls-2" points="96 135.75 107.8 128.85 110.4 130.35 95.9 138.65 96 135.75"/>
          <polygon class="cls-2" points="96 127.25 107.8 120.35 110.4 121.85 95.9 130.15 96 127.25"/>
          <polygon class="cls-3" points="107.8 137.35 107.8 134.05 110.4 132.45 110.4 138.85 107.8 137.35"/>
          <polygon class="cls-3" points="107.8 128.75 107.8 125.35 110.4 123.85 110.4 130.25 107.8 128.75"/>
          <polygon class="cls-3" points="107.8 120.35 107.8 116.95 110.4 115.35 110.4 121.85 107.8 120.35"/>
          <polygon class="cls-3" points="110.3 163.15 107.8 161.85 107.8 143.45 110.4 142.05 110.3 163.15"/>
          <polygon class="cls-1" points="76.1 163.55 78.7 161.95 78.7 143.15 76.1 141.55 76.1 163.55"/>
          <path class="cls-32" d="M73.7,157.85c.41.4,0,1.6,0,1.6s.14,1.7-.8,1.7-6.54-3.5-7.2-4.1a2.21,2.21,0,0,1-.6-2.3c.3-.55,1.37-.4,2.4,0A57.92,57.92,0,0,1,73.7,157.85Z"/>
          <path class="cls-32" d="M87.3,149.35a3,3,0,0,1-.2,1.6c0,.2-.13.9-.6.9s-6.6-2.93-7.2-3.6-.77-3-.1-3a6.32,6.32,0,0,1,2.4.3C82.87,145.93,87.11,148.75,87.3,149.35Z"/>
          <path class="cls-15" d="M84.47,142.63s-6.07-3.18-8.07-3.48-3,19.1-3,19.1a4.67,4.67,0,0,1-4-2s-.9-22.6,1.2-24,14.89,2.16,14.89,2.16C85.39,135.85,84.7,139.21,84.47,142.63Z"/>
        </g>
        <g>
          <polygon class="cls-2" points="44.3 145.55 24.2 134.45 44.1 124.65 45.9 124.65 62.6 134.15 62.6 135.25 44.3 145.55"/>
          <polygon class="cls-2" points="44.3 147.35 44.3 145.55 24.2 134.45 24.2 135.75 44.3 147.35"/>
          <polygon class="cls-2" points="44.3 145.55 62.6 135.25 62.6 137.15 44.3 147.35 44.3 145.55"/>
          <g id="_5" data-name="5">
            <path class="cls-35" d="M62.65,122.85c.18.43,9.5-3.1,9.6-4.3s-7.45-1.08-7.58.28-3.91,2-4.13,1.53Z"/>
            <path class="cls-17" d="M39.9,142.05c1.41.18,10.25-12.5,11.1-12a6.23,6.23,0,0,1,1.6,2.4l5.8-1a32.73,32.73,0,0,0-4.5-8l-3.7-.3c-1.79.34-10.26,6.38-16.6,10.6C35.59,137.09,38.49,141.87,39.9,142.05Z"/>
            <path class="cls-18" d="M53.3,157.25c-.3-.8,6.74-19,5.4-19.2s-17.49,4.3-18.8,4-2.27-3.86-3.2-6.5c-.92-.36,24.65-6,27.5-5.3a3,3,0,0,1,2.2,2.7c0,1.34-7.88,25.6-8.3,25.9S53.6,158.05,53.3,157.25Z"/>
            <path class="cls-11" d="M33.6,132.15c-.78-6.26-1.64-12.16-3-16l-1.6-2.5s1.7-3.92,3.1-4.3,12,2.06,13.3,2.6,7.93,9.1,8.8,9.3,8.4-1.5,8.4-1.5l3.24,2.3s-9.09,3.7-11.24,3.3-6.5-3.3-6.5-3.3,2.37,8.8,2.1,10-7.62,3.53-9.4,3.8S33.6,132.15,33.6,132.15Z"/>
            <path class="cls-35" d="M41.8,108.15c.85-.62.4-7.6.4-7.6-2.28-.89-3.21,2.72-4.3,5.8l-1.2,3.9,2.9.6a2.66,2.66,0,0,1,.2-2.2"/>
            <path class="cls-8" d="M36,106.05l2.9-.7a13.57,13.57,0,0,0,1.8,1.1,2.66,2.66,0,0,0,1.5-.1c.35-1.62.45-4.15,0-4.4s-2.9.3-2.9.3l-1,1-2.6,1.5Z"/>
            <path class="cls-39" d="M30.5,98.25c-.89,1.16,2.1,11.25,3.1,12.1s5.13.32,5.6,0,.5-5.9.8-6.8,1.6-2.84,2.2-3,.92-2.34.6-3-5.22-2-7-2A8.49,8.49,0,0,0,30.5,98.25Z"/>
          </g>
          <path class="cls-3" d="M22.7,111v50.5l2.4,1.2-.1-21.2,14.7,7.9.2,22,2.2,1.4.1-50.8Zm16.8,35.7L25,138.35V132l14.5,8.4Zm0-8.5L25,129.85v-6.4l14.5,8.4Zm0-8.5L25,121.35V115l14.5,8.4Z"/>
          <polygon class="cls-1" points="42 172.85 44.5 171.45 44.6 149.35 59.2 141.05 59.2 162.95 61.7 161.65 61.7 137.65 44.3 147.35 44.3 120.95 42.1 122.05 42 172.85"/>
          <polygon class="cls-2" points="22.7 110.95 24.9 109.75 44.3 120.95 42.1 122.05 22.7 110.95"/>
          <polygon class="cls-2" points="39.4 143.75 27.6 136.85 25 138.35 39.5 146.65 39.4 143.75"/>
          <polygon class="cls-2" points="39.4 135.25 27.6 128.35 25 129.85 39.5 138.15 39.4 135.25"/>
          <polygon class="cls-2" points="39.4 126.75 27.6 119.75 25 121.25 39.5 129.65 39.4 126.75"/>
          <polygon class="cls-1" points="27.6 136.85 27.6 133.45 25 131.95 25 138.35 27.6 136.85"/>
          <polygon class="cls-1" points="27.6 128.25 27.6 124.85 25 123.25 25 129.75 27.6 128.25"/>
          <polygon class="cls-1" points="27.6 119.75 27.6 116.35 25 114.85 25 121.25 27.6 119.75"/>
          <polygon class="cls-1" points="25.1 162.65 27.6 161.35 27.6 142.85 25 141.45 25.1 162.65"/>
          <polygon class="cls-3" points="59.2 162.95 56.6 161.45 56.6 142.55 59.2 141.05 59.2 162.95"/>
          <path class="cls-11" d="M53,156.45c-1.26,0-1.66,2.15-1.3,2.7s6.49,2.4,7.5,2.7a7.06,7.06,0,0,0,3.1,0c.3-.15,1.1-.36.7-1.3s-4.6-2.6-4.6-2.6S54.26,156.45,53,156.45Z"/>
          <path class="cls-18" d="M58.87,138.43c-1.06,4.53-3.22,11.47-5.57,18.82l4.8,1.6c2.48-6.5,5.12-15,7.8-24.1Z"/>
        </g>
        <path class="cls-40" d="M91.5,111.15c.86.5,1.2,3.2,1.2,3.8a3.71,3.71,0,0,1-1.2,2.7c-.95.76-15.77,3.3-16.3,2.3s-.1-16.6-.1-16.6a6.91,6.91,0,0,0,3.8-1s.47,10.29.9,11.8S90.64,110.65,91.5,111.15Z"/>
        <path class="cls-17" d="M76.6,149.25l-.1-1.8-3.8-2.2.5,2A9,9,0,0,0,76.6,149.25Z"/>
        <path class="cls-28" d="M113.6,132.25c-.42-.39-1.3-4.3-1.3-4.3l4.4,2.5.5,3.1A21.22,21.22,0,0,1,113.6,132.25Z"/>
      </g>
    </g>
  </g>
</svg>
