<?xml version="1.0" encoding="utf-8"?>
<!-- Generator: Adobe Illustrator 21.0.2, SVG Export Plug-In . SVG Version: 6.00 Build 0)  -->
<svg version="1.1" id="Слой_1" xmlns="http://www.w3.org/2000/svg" xmlns:xlink="http://www.w3.org/1999/xlink" x="0px" y="0px"
	 viewBox="0 0 213.4 173.4" style="enable-background:new 0 0 213.4 173.4;" xml:space="preserve">
<style type="text/css">
	.st0{opacity:0.18;}
	.st1{fill:#825537;}
	.st2{fill:#BB9469;}
	.st3{fill:#704626;}
	.st4{fill:#CBAC95;}
	.st5{fill:#00B6BA;}
	.st6{fill:#00CCDB;}
	.st7{fill:#F7BC93;}
	.st8{fill:#3A3B3F;}
	.st9{fill:#552C2A;}
	.st10{fill:#FCE7BA;}
	.st11{fill:#FF931E;}
	.st12{fill:#AF6100;}
	.st13{fill:#4D4F54;}
	.st14{fill:#343438;}
	.st15{fill:#1D4E89;}
	.st16{fill:#EFC4B6;}
	.st17{fill:#1B4275;}
	.st18{fill:#255F99;}
	.st19{fill:#DBA884;}
	.st20{fill:#FFF9FD;}
	.st21{fill:#434A55;}
	.st22{fill:#4A2814;}
	.st23{fill:#EABC8C;}
	.st24{fill:#633A12;}
	.st25{fill:#2A1B1A;}
	.st26{fill:#CEA080;}
	.st27{fill:#EDBEA1;}
	.st28{fill:#3C382F;}
	.st29{fill:#EA821B;}
	.st30{fill:#F4E295;}
	.st31{fill:#2A2A2D;}
	.st32{fill:#FFFFFF;}
	.st33{fill:#9DC6D8;}
	.st34{fill:#87AAB9;}
	.st35{fill:#FBD2C3;}
	.st36{fill:#B8B9BD;}
	.st37{fill:#3F2D23;}
	.st38{fill:#464134;}
	.st39{fill:#EFEDED;}
	.st40{fill:#666054;}
	.st41{fill:#FFD6CD;}
</style>
<polygon class="st0" points="0,128.3 21.7,141.6 38.3,131.9 41.6,147.9 21.7,161.2 42,172.9 61.7,161.6 73.7,162.1 92.7,173.4 
	113.7,162 93.9,151.4 110.4,143.5 131.3,155.1 152.1,143.5 130.5,131.9 141.3,126.8 161,137.9 206.5,112 186.7,101.8 195,90.2 
	213.4,79.7 179.5,59.8 21.6,116.4 "/>
<title>mafiaРесурс 5</title>
<g id="Слой_2">
	<g id="Material">
		<g id="mafia">
			<g>
				<path class="st1" d="M98.4,17l0.1,50.8l2.2-1.4l0.2-22l14.7-7.9l2.3-1V6L98.4,17z M101.1,35.3l14.5-8.4v6.4l-14.5,8.3V35.3z
					 M101.1,26.8l14.5-8.4v6.4l-14.5,8.3V26.8z M101.1,18.3l14.5-8.4v6.4l-14.5,8.3V18.3z"/>
				<polygon class="st2" points="101.1,38.7 112.9,31.8 115.6,33.3 101.1,41.5 				"/>
				<polygon class="st2" points="116.9,53.2 118.9,53.2 136.9,43 136.9,42 117.9,32 98.5,42.8 				"/>
				<polygon class="st2" points="116.9,53.2 98.5,42.8 98.5,44.8 116.9,55 				"/>
				<polygon class="st2" points="117.9,5.8 115.6,4.6 96.3,15.9 98.4,17 				"/>
				<polygon class="st2" points="101.1,30.1 112.9,23.1 115.6,24.6 101.1,33 				"/>
				<polygon class="st2" points="101.1,21.5 112.9,14.6 115.6,16.1 101.1,24.5 				"/>
				<polygon class="st3" points="112.9,31.8 112.9,28.4 115.6,26.8 115.6,33.3 				"/>
				<polygon class="st3" points="112.9,23 112.9,19.8 115.6,18.1 115.6,24.6 				"/>
				<polygon class="st3" points="112.9,14.6 112.9,11.3 115.6,9.8 115.6,16.1 				"/>
				<polygon class="st3" points="98.5,67.7 96.3,66.3 96.3,15.9 98.4,17 				"/>
				<polygon class="st3" points="98.5,44.8 114.6,53.7 114.6,55.8 98.5,46.7 				"/>
			</g>
			<g>
				<polygon class="st3" points="38.2,130.6 35.6,128.9 35.6,105.8 38.2,107.3 				"/>
				<polyline class="st1" points="21,140.4 21,116.3 40.7,105.3 40.7,129.1 38.2,130.6 38.2,108.6 23.6,116.8 23.5,139.1 21,140.4 
									"/>
				<polygon class="st3" points="21,140.4 18.4,138.8 18.4,115.7 20.7,116.8 21,116.8 				"/>
				<path class="st1" d="M2.2,78.8l0.1,50.8l2.2-1.4l0.2-22l14.7-7.9l2.3-1V67.8L2.2,78.8z M4.8,97.1l14.5-8.4v6.4l-14.5,8.3
					L4.8,97.1z M4.8,88.6l14.5-8.4v6.4L4.8,95V88.6z M4.8,80.1l14.5-8.4v6.4L4.8,86.4V80.1z"/>
				<polygon class="st2" points="4.9,100.6 16.7,93.7 19.3,95.2 4.8,103.4 				"/>
				<polygon class="st2" points="22.7,116.8 22.6,115.1 40.7,104.9 40.7,106.4 				"/>
				<polygon class="st2" points="20.7,115.1 22.6,115.1 40.7,104.9 40.7,103.9 21.6,93.9 2.2,104.8 				"/>
				<polygon class="st2" points="20.7,115.1 2.2,104.8 2.2,106.7 20.7,116.8 				"/>
				<polygon class="st2" points="21.6,67.8 19.4,66.6 0,77.8 2.2,78.8 				"/>
				<polygon class="st2" points="4.9,92.1 16.7,85.1 19.3,86.7 4.8,94.9 				"/>
				<polygon class="st2" points="4.9,83.6 16.7,76.6 19.3,78.1 4.8,86.3 				"/>
				<polygon class="st3" points="16.7,93.7 16.7,90.3 19.3,88.8 19.3,95.2 				"/>
				<polygon class="st3" points="16.7,85.1 16.7,81.7 19.3,80.1 19.3,86.6 				"/>
				<polygon class="st3" points="16.7,76.6 16.7,73.2 19.3,71.7 19.3,78.1 				"/>
				<polygon class="st3" points="2.3,129.6 0,128.3 0,77.8 2.2,78.8 				"/>
				<polygon class="st4" points="20.7,116.8 22.7,116.8 22.6,115.1 20.7,115.1 				"/>
				<polygon class="st3" points="2.2,106.7 18.4,115.7 18.4,117.7 2.2,108.6 				"/>
			</g>
			<g id="_2">
				<polygon class="st5" points="115.1,33.5 121.9,42.5 122.8,39 117.6,26 				"/>
				<path class="st6" d="M119,38.8c0,0-2.3-4.1-2.4-5.2s1.2-9.4,1.2-9.4s-0.2-8.9-1.2-8.8s-3.6,4.2-3.6,4.2s-3.9-3.8-4.9-4.2
					s-7,5-7,5l1.6,22.9l6.1,3.9l5.2-3.8L119,38.8z"/>
				<path class="st5" d="M105.8,21.5c-0.8-0.9-1.8-1.5-3-1.6c-0.9,0-1.6-0.3-2.3,0.8s0.6,16.9,1.3,18.6s9.1,8.6,9.1,8.6l1.2-3.4
					c0,0-5.1-7.1-5.7-9S106.2,22.2,105.8,21.5z"/>
				<path class="st7" d="M114.9,18.3c-0.7-0.3-0.9-0.9-0.7-1.8c0.4,0,0.9-0.1,1.2-0.4c0.6-0.5,2.5-4.6,2.5-4.6l-0.4-3.7l-3.7-0.7
					l-2.4,2.5l-1.2-0.8v2.3c-0.3,2.4-0.4,5.3-1.4,5.1l4,3.2C113.6,20.3,114.2,19.4,114.9,18.3z"/>
				<path class="st8" d="M109.5,12.4c1-0.3,2-0.3,2.9,0.2c0.5,0.5,1,1,1.6,1.5c0.4,0.3,1,0.4,1.5,0.3c0.5-0.3,0.9-0.6,1.3-1l0.2,0.1
					l0.2,0.3c0.5-0.9,0.8-1.9,0.8-3c-0.2,0-0.3,0.1-0.4,0.2c0,0-0.2,0-0.3-0.1c-0.2-0.3-0.4-0.6-0.7-0.8c-0.9-0.3-1.9-0.4-2.9-0.4
					c-0.5,0.2-0.9,0.4-1.3,0.7c-0.9,0.3-1.9,0.5-2.8,0.7L109.5,12.4z"/>
				<path class="st9" d="M117.7,9.6c0,0,1.7-2.5,1.5-3.7s-3.6-2.7-5.3-3s-4.1,0.4-4.6,1.1s-0.6,4.3-0.5,5.6s0.5,4.3,0.5,4.3
					c0.2-0.8,0.7-1.6,1.3-2.2c-0.1-0.8-0.1-1.7,0-2.5c0.3-0.4,0.9,1.3,0.9,1.3s1.4-2.2,2.5-2.5S117.7,9.6,117.7,9.6z"/>
				<polygon class="st7" points="121.9,42.5 126.3,44.8 129.8,43.5 126.2,40.2 124.7,39.3 122.3,39 				"/>
				<polygon class="st7" points="110.9,48 114.8,49.5 117.8,48 113.2,44.3 111.3,44.3 				"/>
			</g>
			<g>
				<path class="st1" d="M62.2,34.5l0.1,50.8l2.2-1.3l0.2-22l14.7-7.9l2.3-1V23.5L62.2,34.5z M64.9,52.8l14.5-8.4v6.4l-14.5,8.3
					V52.8z M64.9,44.3L79.4,36v6.4l-14.5,8.3V44.3z M64.9,35.8l14.5-8.4v6.4l-14.5,8.3V35.8z"/>
				<polygon class="st2" points="64.9,56.3 76.7,49.3 79.4,50.8 64.9,59.2 				"/>
				<polygon class="st2" points="80.7,70.8 82.7,70.8 100.7,60.7 100.7,59.7 81.6,49.7 62.3,60.5 				"/>
				<polygon class="st2" points="80.7,70.8 62.3,60.5 62.3,62.3 80.7,72.7 				"/>
				<polygon class="st2" points="81.6,23.5 79.4,22.3 60.1,33.5 62.2,34.5 				"/>
				<polygon class="st2" points="64.9,47.8 76.7,40.8 79.4,42.3 64.9,50.7 				"/>
				<polygon class="st2" points="64.9,39.3 76.7,32.3 79.4,33.8 64.9,42.2 				"/>
				<polygon class="st3" points="76.7,49.3 76.7,46 79.4,44.5 79.4,50.8 				"/>
				<polygon class="st3" points="76.7,40.8 76.7,37.3 79.4,35.8 79.4,42.3 				"/>
				<polygon class="st3" points="76.7,32.3 76.7,29 79.4,27.4 79.4,33.8 				"/>
				<polygon class="st3" points="62.3,85.3 60.1,83.9 60.1,33.5 62.2,34.5 				"/>
				<polygon class="st3" points="62.3,62.3 78.4,71.3 78.4,73.3 62.3,64.3 				"/>
			</g>
			<g>
				<path class="st1" d="M33.7,49.5l0.1,50.8l2.2-1.4l0.2-22L50.9,69l2.3-1V38.5L33.7,49.5z M36.3,67.8l14.5-8.4v6.4l-14.5,8.3V67.8
					z M36.3,59.3l14.5-8.4v6.4l-14.5,8.3V59.3z M36.3,50.8l14.5-8.4v6.4L36.3,57V50.8z"/>
				<polygon class="st2" points="36.3,71.2 48.2,64.3 50.8,65.8 36.3,74.1 				"/>
				<polygon class="st2" points="52.2,85.7 54.1,85.7 72.2,75.6 72.2,74.6 53.1,64.6 33.7,75.3 				"/>
				<polygon class="st2" points="52.2,85.7 33.7,75.3 33.7,77.3 52.2,87.4 				"/>
				<polygon class="st2" points="53.1,38.3 50.8,37 31.5,48.3 33.7,49.5 				"/>
				<polygon class="st2" points="36.3,62.7 48.2,55.7 50.8,57.3 36.3,65.6 				"/>
				<polygon class="st2" points="36.3,54.2 48.2,47.2 50.8,48.7 36.3,57 				"/>
				<polygon class="st3" points="48.2,64.3 48.2,60.8 50.8,59.3 50.8,65.8 				"/>
				<polygon class="st3" points="48.2,55.5 48.2,52.3 50.8,50.7 50.8,57.2 				"/>
				<polygon class="st3" points="48.2,47.2 48.2,43.8 50.8,42.3 50.8,48.7 				"/>
				<polygon class="st3" points="33.7,100.3 31.5,98.8 31.5,48.3 33.7,49.5 				"/>
				<polygon class="st3" points="33.7,77.3 49.9,86.2 49.9,88.3 33.7,79.2 				"/>
			</g>
			<g id="_3">
				<path class="st10" d="M44.7,55.5l1.8-6.6c-0.2,0.2-2-2-2-2.5c0-0.3,1.5-0.8,1.9-1.3s0.9-8.3,0.9-8.3L39,38.2
					c0,0,2.2,7.4,2.2,8.2s0.1,1.6-0.6,1.8c-0.8,0.1-1.5,0.1-2.3,0L44.7,55.5z"/>
				<path class="st11" d="M61.1,70.3c0,0-3.9,0-4.8,1s-1.7,8-1.7,8l-9.4,3.2c0,0-2.3-5.8-3.7-7c-1-0.9-2.1-1.7-3.3-2.4
					c0,0,2-9.7,1.7-11.3s-2.6-5.3-2.6-5.3l-3.5-0.1c0,0,2.7-7.2,3.1-7.5c0.5-0.3,0.9-0.5,1.4-0.8c1.7,1.9,3.6,3.5,5.8,4.9
					c1.2-0.8,1.9-2.5,2.6-4.5c0.3-0.1,0.5-0.1,0.8-0.1c0.3,0.1,3.2,5.1,2.9,5.5s-1.3,7.2-1.3,7.2s0.6,3.3,1.5,4.1
					C51.9,66.3,61.3,70.8,61.1,70.3z"/>
				<path class="st10" d="M50.4,53.9c0,0,1,6.5,1.5,7.3s7.3,5.1,7.4,5.9c0.1,0.7-0.3,1.3-0.9,1.5c-0.1,0-0.2,0-0.3,0
					c-0.9,0-1.6-1.7-2-2.1s-5.5-3-6-3.7s-1.2-4.3-1.2-4.3C49,56.9,49.6,55.3,50.4,53.9z"/>
				<path class="st10" d="M46.6,71.8c-1.5-0.2-10.1-5.4-10.6-6.1s-2.2-9.2-2.2-9.2c1.1-0.4,2.4-0.3,3.5,0.1c0,0,0.7,5.8,1.6,7.1
					c1.7,2,3.6,3.8,5.7,5.4c1,0.6,1.8,0.2,2.4,0.3s2.6,1,2.3,1.7S48,71.9,46.6,71.8z"/>
				<path class="st8" d="M39.3,43.5c0.9-0.5,1.9-0.8,2.9-0.7c0.6,0.4,1.2,0.8,1.8,1.1c0.5,0.1,1,0.1,1.5-0.1
					c0.4-0.4,0.8-0.8,1.1-1.3h0.2l0.3,0.2v-3L46.7,40l-0.3-0.1c-0.3-0.2-0.6-0.4-0.9-0.5c-1-0.1-2,0-2.9,0.3l-1,1
					c-0.7,0.7-1.6,1.2-2.6,1.5L39.3,43.5z"/>
				<path class="st12" d="M47.5,46.5c0-3.3,0.6-6.7,1.8-9.8c0.5-1-4.1-4-5.4-3.7c-2.1,0.8-4.1,1.9-5.8,3.3c-0.5,0.7,0.2,2.2,0,3.1
					s-3,1.8-2.2,2s2.5,4,2.3,6.5c0.8-0.9,1.3-2.1,1.4-3.3c0-1.2,0-2.4,0.2-3.6l0.2,0.7l1.1,2.1c-0.3-1.3-1-3.2-0.7-3.3
					c1-0.3,1.5-0.2,1.6,0.3c0.1-1,0.3-2,0.6-2.9c0.8-0.7,1.9-0.9,2.9-0.7c0.6,0.3,1.2,2.6,1.2,2.6L47.5,46.5z"/>
			</g>
			<g>
				<g>
					<polygon class="st13" points="77.6,59.8 77.2,55 84.7,51.3 99.1,59.2 92.6,67.3 					"/>
					<path class="st14" d="M80.9,72.3c0,0-12.2-8.5-12.9-10s0.6-8,0.6-8l8.6,0.6L93.9,68L80.9,72.3z"/>
					<path class="st15" d="M85.5,51.2l2.3,1.8c0,0-5.5,4.8-8.5,5.6s-8.5-1.2-9.4-1.3c-0.6,0-1.3,0-1.9,0.1c-0.1-1-0.1-2-0.1-3
						L70,36.5l-3.5-8.6l5.4-3.8l7.5,4.2l3.1-3.5C84.6,36.1,84.8,46.1,85.5,51.2z"/>
					<path class="st16" d="M97.6,39.5c2.3-0.3,4.5-0.4,6.8-0.3c1.7,0.2,1.4,3.3,0,3.9s-7.3-0.9-7.3-0.9L97.6,39.5z"/>
					<path class="st16" d="M73.5,52.7c0,0,4.5,0.9,4.9,1.3s0.1,0.8-0.3,0.9s-0.3,0.2-0.2,0.4s1.3,0.2,1.4,0.7s-0.8,3.4-2.1,3.4
						s-5.7-4.7-5.7-4.7L73.5,52.7z"/>
					<path class="st17" d="M72,55c0.3-1.1,1.1-1.9,2.1-2.3c0,0-4.1-4.9-5.2-6.9S70,39,70,36.5s-3.5-8.6-3.5-8.6
						c-0.9,1.4-1.7,2.9-2.4,4.5c-0.5,1.6-0.7,11-0.5,12.1s5.8,9.1,6.4,9.6C70.6,54.5,71.3,54.8,72,55z"/>
					<path class="st18" d="M82.5,24.8c0,0,5.7,8.3,7,9.4s8.9,5.5,8.9,5.5c-0.9,0.5-1,1.6-0.5,3.2c0,0-8.3-3.4-10.1-4.6
						s-4.3-4.9-4.3-4.9L82.5,24.8z"/>
					<path class="st19" d="M75.5,24.4c-0.2,0.6-1.3,0.5-2.9,0c1.9,1.8,3.6,3.8,6.8,3.9c1.2-0.9,2.3-1.8,2.4-2.7
						c-1,0.2-2.3-1.8-3.6-3.4L75.5,24.4z"/>
					<path class="st7" d="M82.4,16c0,0-1,6.8-1.3,7.4s-1.7,2.6-2.9,2.5s-2.7-1.3-3.4-1.9c-1-1.1-1.8-2.4-2.5-3.7l0.7-3.6l1.5,1.5
						L82.4,16z"/>
				</g>
				<path d="M82.1,18.8c0.2-1.4,0.3-2.7,0.4-4.1c-0.1-0.6-2.8-2.7-3.6-2.9c-2,0-4.1,0.3-6,0.9c-1,0.5-1.8,3.2-1.8,4.3
					s0.2,3.7,0.5,4.2c0.2,0.4,0.5,0.7,0.9,1c0.2,0.1,0.6,0,0.6-0.2s-0.8-1.3-0.8-1.6c0.1-1.2,0.3-2.4,0.7-3.6c0.2,0,0.7,1.1,1.5,1.5
					s6.3-2.1,6.8-1.9S82.1,18.8,82.1,18.8z"/>
			</g>
			<g id="_4">
				<polygon class="st20" points="27.6,127.8 26.9,130.9 31.3,131.9 34.7,130.3 34,128.6 				"/>
				<path class="st21" d="M15.3,104.1c0,0-0.6,2.7,0.5,4.2s13.4,6.4,13.4,6.4l-1.6,14.7c1.8,0.2,3.6,0.1,5.4-0.4l2.1-15.8l-8.5-8.7
					l-1.8-1.8L15.3,104.1z"/>
				<path class="st21" d="M32.2,98.4l6.3,4.2l9.5,8.5l-5.6,4.5c0,0-9.9-8.5-11.2-9c-0.9-0.3-1.9-0.4-2.9-0.2l-3.8-4.1L32.2,98.4z"/>
				<polygon class="st20" points="26.7,76.4 25.4,79.3 18.7,76.8 22.7,103.4 27.4,101.8 31.2,98.4 27.9,77.9 				"/>
				<path class="st6" d="M18.2,105.7c-1.1-0.3-2.2-0.9-3.2-1.6c-0.5-0.4-0.7-6.6-0.7-6.6l-3.5-16.3c1.7-2,7-5.9,7.4-5.8
					s5.6,16.4,5.6,16.4s1.3,12.4,0.8,12.8S18.8,105.7,18.2,105.7z"/>
				<path class="st7" d="M13.1,79.3c-1.1,1-1.9,2.4-2.3,3.8c-0.2,1.2,3.9,18.9,4.6,19.2s12.4-0.7,12.4-0.7l1.1-2.3
					c0,0-9-1.3-9.8-2.5s-4-17.1-4.4-17.5C14.2,79,13.6,79,13.1,79.3z"/>
				<path class="st6" d="M26.2,77.6c0,0,0.3-1.7,1-1.7s4.4,6.4,4.4,6.4l0.6,16.2l-2.1,1.3l-2.4-19.4L26.2,77.6z"/>
				<path class="st7" d="M39.8,77.2l-1.2,17.7L32.1,95l-0.3-6c0,0,2.5,1.3,2.9,1s3.1-13.7,3.1-13.7L39.8,77.2z"/>
				<path class="st7" d="M26.2,102.3c-0.4-0.3,1.4-3.6,2.7-3.7s7.3,2.5,7.3,3.3s-4.1,1.2-5.3,1.4C29.3,103.2,27.7,102.9,26.2,102.3z
					"/>
				<path class="st7" d="M22.9,79.7c-0.9-0.3-3.4-2.5-3.4-2.5c0.5-0.8,0.7-1.7,0.8-2.6c0-1.1-1.9-7.7-1.9-7.7l3.1-3.3l7.2,0.4
					c0,0,0.1,8.5-0.5,9.1s-2.9,0.8-2.9,0.8c0.3,1.8,0.4,3.5,0.5,5.3C25.6,79.7,23.8,79.9,22.9,79.7z"/>
				<path class="st22" d="M19,72.4c0,0-3.6-7-3.1-8.5s2.8-4.3,4.1-4.8s6.7-0.7,7.7,0s1.3,4.7,1.3,4.7l-4.5,1.6l-3.7-1.1l0.2,3.5
					L20.6,70l-1.4-2.8L18.7,68C18.2,68.9,18.6,70.7,19,72.4z"/>
				<path class="st8" d="M19.4,70.6c0.9-0.2,1.9-0.4,2.8-0.6c0.4,0,1.5,0.9,1.9,1c0.5,0.1,1,0,1.5-0.1c0.4-0.4,0.7-0.8,1-1.3h0.3
					c0.1,0.2,0.2,0.5,0.4,0.7c0.4,0.1,0.7,0.1,1.1,0c0.5-0.9,0.8-3.2,0.2-4.2c-0.4,0-0.7,0.1-1.1,0.2c-0.3,0.1-0.7,0.8-0.7,0.8
					L26.5,67c-0.3-0.2-0.6-0.4-0.9-0.5c-0.4,0-2.9,0.3-2.9,0.3l-1.1,1L19,69.3L19.4,70.6z"/>
				<path class="st7" d="M40.8,72c0.3,0.7-1,5.2-1,5.2l-2-0.9c-0.5-0.3-0.7-3.2-0.4-4.1s0.2-5.5,0.3-5.7c0.3-0.2,0.7-0.1,0.9,0.2
					c0,0,0.1,0.1,0.1,0.1c0.2,0.6-0.1,3.4,0,3.8S40.5,71.3,40.8,72z"/>
			</g>
			<g>
				<path class="st3" d="M162.3,4.3v29.5l2.3,1l14.7,7.9l0.2,22l2.2,1.4l0.1-50.8L162.3,4.3z M179,40l-14.5-8.3v-6.4l14.5,8.4V40z
					 M179,31.5l-14.5-8.3v-6.4l14.5,8.4V31.5z M179,23l-14.5-8.3V8.4l14.5,8.4V23z"/>
				<polygon class="st2" points="179,37.2 167.2,30.3 164.5,31.8 179,40 				"/>
				<polygon class="st2" points="163.2,51.7 161.2,51.7 143.2,41.5 143.2,40.5 162.3,30.5 181.6,41.3 				"/>
				<polygon class="st2" points="163.2,51.7 181.6,41.3 181.6,43.3 163.2,53.5 				"/>
				<polygon class="st2" points="162.3,4.3 164.5,3.2 183.8,14.4 181.7,15.4 				"/>
				<polygon class="st2" points="179,28.6 167.2,21.8 164.5,23.3 179,31.5 				"/>
				<polygon class="st2" points="179,20.1 167.2,13.1 164.5,14.8 179,23 				"/>
				<polygon class="st1" points="167.2,30.3 167.2,26.9 164.5,25.4 164.5,31.8 				"/>
				<polygon class="st1" points="167.2,21.6 167.2,18.3 164.5,16.8 164.5,23.1 				"/>
				<polygon class="st1" points="167.2,13.1 167.2,9.9 164.5,8.3 164.5,14.8 				"/>
				<polygon class="st1" points="181.6,66.3 183.8,64.8 183.8,14.4 181.7,15.4 				"/>
			</g>
			<g id="_1">
				<path class="st23" d="M172.8,13.4c-0.3-1.9-0.4-3.8-0.5-5.7l-1.7,1.1l-1.8-3.9l-3.9,0.5c0,0-0.3,6.5,0,7c0.7,0.7,1.5,1.4,2.3,2
					l0.9,4.1l5.8-3C173.5,14.8,173.1,14.1,172.8,13.4z"/>
				<path class="st8" d="M172.6,10.4c-0.9-0.4-1.9-0.6-2.9-0.6c-0.7,0.3-1.3,0.6-1.8,1.1c-0.5,0.1-1,0-1.5-0.2
					c-0.3-0.1-1.1-1.3-1.1-1.3h-0.2l-0.3,0.2c-0.2-1-0.2-2,0-3l0.4,0.3h0.3c0.3-0.3,0.6-0.5,0.9-0.6c1-0.2,2-0.1,2.9,0.3
					c0.4,0.3,0.7,0.6,1,1l2.6,1.5L172.6,10.4z"/>
				<path class="st20" d="M173.4,42.3l1.5-12.3l0.3-4.6c2.4-0.3,4.7-0.6,6.1-1.6c0,0-1.7-8-2.7-8.4c-1.4-0.4-2.8-0.7-4.2-0.8
					l-5.2,2.4c0,0-0.4-2.6-1.6-3.2s-2.3-1.2-3-0.9s-3.8,4.1-4.8,7l1.7,1.6l-1.4,12.2l-2.8,5.2L173.4,42.3z"/>
				<path class="st23" d="M159.8,19.9c0,0-1,5-1.1,4.9s-1.1-11.9-1.1-11.9c-0.1-0.9-0.2-1.9-0.5-2.8c-0.3-0.2-0.4,0-0.4,0
					s-0.1,2.2-0.1,2.4s-0.9,0.4-0.9,1c0,0.5,0.1,1,0.4,1.5c0.2,0.6,0.4,1.2,0.5,1.9c0,0-0.2,12.5-0.2,13s-0.1,1.2,1,1.4
					s3.4-3.2,3.4-3.2l0.8-6.5L159.8,19.9z"/>
				<path class="st23" d="M180.3,24.4c0,0-1.1,7.3-1.5,8.4s-12.5,11.6-12.7,11.5l-2.4-1.3l2.8-3.1l2-1.1c0,0,6.7-8.1,6.9-8.2
					s-0.2-1.3-0.2-1.3v-3.8L180.3,24.4z"/>
				<path class="st24" d="M173.9,10.4c0.1-0.7,0.9-6.9,0-8.3s-8.1-2.6-9-2c-0.9,0.9-1.3,2.2-1.2,3.5c0.2,0.7,0.7,2,1.2,2.2
					s3.9,0,4.6,0.4s0.8,1.7,1.1,2.5c0.7,1.3,1.7,2.4,2.9,3.2C173.9,12,173.8,11.1,173.9,10.4z"/>
			</g>
			<g>
				<polygon class="st1" points="175.2,81.8 177.8,80.3 177.8,57.2 175.2,58.5 				"/>
				<polyline class="st3" points="192.4,91.8 192.4,67.7 172.7,56.5 172.7,80.6 175.2,81.8 175.2,60 189.8,68.3 189.9,90.3 
					192.4,91.8 				"/>
				<polygon class="st1" points="192.4,91.8 195,90.2 195,66.9 192.7,68.3 192.4,68.3 				"/>
				<path class="st3" d="M191.8,19.1v29.5l2.3,1l14.7,7.9l0.2,22l2.2,1.4l0.1-50.8L191.8,19.1z M208.6,54.8l-14.5-8.3v-6.4l14.5,8.4
					V54.8z M208.6,46.3L194.1,38v-6.4l14.5,8.4V46.3z M208.6,37.8l-14.5-8.3v-6.4l14.5,8.4V37.8z"/>
				<polygon class="st2" points="208.5,52 196.7,45 194.1,46.5 208.6,54.8 				"/>
				<polygon class="st2" points="190.7,68.3 190.8,66.4 172.7,56.3 172.7,57.8 				"/>
				<polygon class="st2" points="192.7,66.4 190.8,66.4 172.7,56.3 172.7,55.3 191.8,45.3 211.2,56.2 				"/>
				<polygon class="st2" points="192.7,66.4 211.2,56.2 211.2,58 192.7,68.3 				"/>
				<polygon class="st2" points="191.8,19.1 194,17.9 213.4,29.1 211.2,30.3 				"/>
				<polygon class="st2" points="208.5,43.5 196.7,36.5 194.1,38 208.6,46.3 				"/>
				<polygon class="st2" points="208.5,34.8 196.7,28 194.1,29.5 208.6,37.8 				"/>
				<polygon class="st1" points="196.7,45 196.7,41.7 194.1,40 194.1,46.5 				"/>
				<polygon class="st1" points="196.7,36.3 196.7,33 194.1,31.5 194.1,38 				"/>
				<polygon class="st1" points="196.7,28 196.7,24.5 194.1,23 194.1,29.5 				"/>
				<polygon class="st1" points="211.1,80.9 213.4,79.7 213.4,29.1 211.2,30.3 				"/>
				<polygon class="st4" points="192.7,68.3 190.7,68.3 190.8,66.4 192.7,66.4 				"/>
				<polygon class="st1" points="211.2,58 195,66.9 195,69.1 211.2,60 				"/>
			</g>
			<g id="_10">
				<polygon class="st25" points="171.5,75.1 168.7,76.8 169.5,78.7 173.9,77.3 177.8,75.3 177.8,74.3 				"/>
				<polygon class="st25" points="177,81.6 176.6,86.6 178.3,86.6 183.1,78.8 182.1,77.8 				"/>
				<polygon class="st26" points="171.7,76.8 177.8,74.6 180.9,61.7 186.5,62.3 185.6,56 177.6,58.5 176.1,69.3 174.2,73.6 
					170.7,75.7 				"/>
				<polygon class="st27" points="177.8,83.8 177.8,78.7 178.6,70.8 178.1,57.3 181.1,53 187.1,53.7 186.5,57.8 183.7,59.8 
					183.1,69.1 182,75.8 182.1,79.7 178.8,83.8 				"/>
				<path class="st7" d="M195.4,37.2l-1.3-5.5c1.1-0.4,2.3-0.8,2.2-2.1l-3.2-3c-0.1-2.5,0-4.8,1.4-6c2.4,0,4.5,1.5,6.6,3.8l-0.8,7.1
					h3.4L195.4,37.2z"/>
				<path class="st18" d="M179.7,53.7l-7.1,10.2l7.5,13.9l15.5-11.9c0,0,3.2-6.2,3.8-7s2.8-1.2,3.3-2.4s-2.4-9.7-1.8-11.3
					c0.8-1.1,1.3-2.2,1.7-3.5c-0.1,1.7-0.4,3.3-0.9,4.9c1,0.8,2.2,1.5,3.5,1.8l1.6-6c0,0,0.3-2.2,0.3-2.6s-3.4-8.3-3.4-8.3h-3.4
					c-1.3,1.4-2.6,2.9-4.1,3.2c-1-0.7-1.1-2.2-1.2-3.8c-0.6,0.2-1.1,0.5-1.6,0.8c-0.6,0.4-2.7,4.7-3,5.5c-0.4,1.7-0.8,3.4-1,5.1
					l0.1,0.5l1.7,2.4l-0.1,0.4l-0.8,2.9L179.7,53.7z"/>
				<path class="st7" d="M192.7,53.5c0,0,11.9-4.4,12.1-4.6s0.2-0.7,0.2-0.7l-2.5-1.3l-0.7-0.3c-0.6,1-4.1,2.4-7.2,3.8l-3.4,0.5
					l-2.1,1L192.7,53.5z"/>
				<path class="st7" d="M189.5,42.8c0,0.4-0.1,0.8-0.2,1.2c-0.2,0.6-3,4.3-3,4.3l-2.9,1.2l0.5,2l2.3-1l4.6-3.9l0.4-1.4L189.5,42.8z
					"/>
				<path class="st8" d="M202.4,27c-0.9-0.3-1.8-0.6-2.8-0.7c-0.7,0-1.7,1-1.9,1.1c-0.5,0.2-1,0.1-1.5-0.1c-0.4-0.3-0.8-1.2-1-1.3
					s-0.1,0-0.3,0s-0.6,0.5-0.7,0.6c-0.3,0.1-0.5,0.1-0.8,0.1c0.1-1.7,0.1-4.1,0.7-3.9l0.6,0.3c0.1,0.1,0.2,0.3,0.3,0.3
					c0.1,0,0.2,0,0.3,0c0.3-0.2,0.6-0.4,0.9-0.5c0.6-0.3,2.9,0.3,2.9,0.3l1.1,1l2.6,1.4L202.4,27z"/>
				<path class="st28" d="M195.6,30.4l-4.8,1.1c-0.1-2.9,0.2-5.7,1-8.5c0.6-2.4,1.9-6.5,3.9-6.8s6.8,1.4,7.8,2s1.6,4.1,1.6,4.1
					c0.4,1.2,0.6,2.4,0.7,3.6c0,1.3,0.1,4.9-0.9,5.5s-6.1,1.1-6.1,1.1c1.1-1.6,1.5-3.6,1.3-5.5l-0.9-3.1c-0.6-1.8-2.3-2.6-4.7-2.6
					c-0.6,0.2-0.6,2.6-0.7,5c0.2,0.6,0.5,1.2,0.9,1.8L195.6,30.4z"/>
			</g>
			<g>
				<polygon class="st3" points="82.2,112.2 82.2,139.8 53.3,122.7 53.3,94.9 				"/>
				<polygon class="st1" points="82.2,139.8 98.9,128.6 98.9,101.9 82.2,112.2 				"/>
				<path class="st8" d="M120.1,37c0,0-53.1,28.7-80,46.5c-20.4,26.1,21.3,49.3,60,35l82-48.5C209.6,43.8,152.9,23.5,120.1,37z"/>
				<path class="st29" d="M121.8,39c0,0-53.4,28.4-78.3,45c-18.9,24.2,19.7,45.6,55.6,32.4l80.2-46.8
					C204.8,45.3,152.3,26.4,121.8,39z"/>
				<path class="st30" d="M81.7,105.8c-7.9,0-14.4-2.2-17.4-6.4s-2.2-9.7,2.3-15.5l0.1-0.1c17.2-11.4,54.4-31.3,54.8-31.5l0,0
					c14.5-6,34.4-4.2,39.3,3.5c1.8,2.7,2.4,7.3-4.3,13.6l-0.1,0.1l-56,32.7C94.4,104.5,88.1,105.7,81.7,105.8z M67.3,84.6
					c-4.2,5.4-5,10.5-2.3,14.2c4.3,5.9,18,8.8,35,2.5l55.9-32.7c4.9-4.7,6.3-8.9,4.1-12.3c-4.8-7.3-24-8.9-38.1-3.1
					C120.9,53.8,84.4,73.3,67.3,84.6z"/>
				<path class="st31" d="M189.4,55.8c0.2,2.3,0.2,4.6,0,6.9c-1.8,3.4-4.2,6.4-7.1,8.9l-82.4,48.7c-20.4,6.5-35.2,5.6-50.9-2.3
					c-8.1-3.5-13.1-9.8-14.4-19.6c1.3,8.1,6.2,14.4,15.1,18.7c15.6,7.1,32.4,7.5,50.4,1.2l81.8-48.4c2.5-2.3,4.5-5,6-8.1
					C188.8,60.3,189.1,58.2,189.4,55.8z"/>
				
					<rect x="132.9" y="82.5" transform="matrix(0.5731 -0.8195 0.8195 0.5731 -16.2968 147.5025)" class="st30" width="1" height="13.7"/>
				
					<rect x="109.9" y="43.9" transform="matrix(0.5335 -0.8458 0.8458 0.5335 8.0442 117.3734)" class="st30" width="1" height="15"/>
				
					<rect x="75.2" y="64" transform="matrix(0.5101 -0.8601 0.8601 0.5101 -24.4188 100.1904)" class="st30" width="1" height="15.1"/>
				
					<rect x="151.6" y="44.6" transform="matrix(0.711 -0.7031 0.7031 0.711 14.7834 126.0873)" class="st30" width="18.4" height="1"/>
				<rect x="135.2" y="34.5" class="st30" width="1" height="14.6"/>
				
					<rect x="161.1" y="59.4" transform="matrix(0.9947 -0.1024 0.1024 0.9947 -5.2177 18.1278)" class="st30" width="25.6" height="1"/>
				
					<rect x="154.9" y="69.7" transform="matrix(0.5147 -0.8573 0.8573 0.5147 9.8377 170.2903)" class="st30" width="1" height="13.6"/>
				
					<rect x="44.1" y="105.3" transform="matrix(0.9262 -0.377 0.377 0.9262 -35.7605 28.8285)" class="st30" width="23.3" height="1"/>
				
					<rect x="52.7" y="74.4" transform="matrix(3.996804e-02 -0.9992 0.9992 3.996804e-02 -35.508 136.3697)" class="st30" width="1" height="24.5"/>
				
					<rect x="73" y="112.7" transform="matrix(0.2511 -0.968 0.968 0.2511 -48.5798 163.5147)" class="st30" width="16.7" height="1"/>
				
					<rect x="109.1" y="97.1" transform="matrix(0.7767 -0.6299 0.6299 0.7767 -40.644 92.0928)" class="st30" width="1" height="12.6"/>
			</g>
			<g>
				<polygon class="st2" points="183.7,95.8 203.8,84.8 183.9,75.1 182.1,75.1 165.4,84.6 165.4,85.7 				"/>
				<polygon class="st2" points="183.7,97.8 183.7,95.8 203.8,84.8 203.8,86.2 				"/>
				<polygon class="st2" points="183.7,95.8 165.4,85.7 165.4,87.6 183.7,97.8 				"/>
				<g id="_9">
					<polygon class="st32" points="171.6,103.3 171.6,104.9 170.8,106.7 163.6,102.6 163,100.3 165.5,100.3 					"/>
					<polygon class="st33" points="181.4,81.3 179,73.8 178.3,74.3 174.9,83.3 179.8,86.8 180.8,84.1 					"/>
					<polygon class="st34" points="180.4,91.8 172.1,86.4 170.6,103.4 166.3,101.2 166.8,79.3 181.8,83.7 189.7,89.2 188.4,92.6 
											"/>
					<polygon class="st35" points="169.8,81.2 166.1,81.9 163.9,81.6 164.6,79.3 168.1,78.4 169.3,79.3 					"/>
					<path class="st11" d="M180.6,89.4c0,0,6.4,3.4,8.9,2.6s7-4.4,7.5-5.4s2.7-24,1.1-25.1c-1.4-0.9-3-1.7-4.5-2.4l-5.5,0.8
						c0,0-6.4,2-7.6,2.9s-2.1,13.7-2.1,13.7L167.6,78l1.1,3.9h12.4L180.6,89.4z"/>
					<path class="st36" d="M197.8,60.8c0,0,1.8,8.3,1.8,10.3s-1.8,8.2-1.8,8.2V60.8z"/>
					<path class="st35" d="M188.1,60c-0.1-0.6-0.4-1.2-0.7-1.8c-0.3-0.3-1.6-1-1.7-1.5s-0.1-4.6-0.1-4.6l2.5-2.3l0.2,2.1l1.1,6.1
						l3.7,0.1v1.4c-0.2,1.4-1.2,2.5-2.5,2.8C189.1,62.6,188.8,61,188.1,60z"/>
					<path class="st37" d="M191.9,59.3c1-0.1,1.8-0.5,2.5-1.2c0.6-0.7,3.6-7.5,3.4-9.2s-3.4-5.1-4.5-5.1S185.5,45,185,46
						s0,5.4,0,5.4c0.1,0.3,0.3,0.5,0.6,0.7c0.6,0.1,1.1,0.2,1.7,0.3c0.4,0.1,1.2,1,1.2,1c0.4,0.8,0.5,2.9,0.6,4.7
						C190,58.6,190.9,59,191.9,59.3z"/>
					<path class="st8" d="M188.9,56.5c-0.6-0.6-1.2-1.2-1.9-1.1c-0.1,0.2-0.3,0.3-0.5,0.4c-0.2,0-0.5,0-0.7-0.1l-0.2-0.1
						c-0.2-1.1-0.3-2.3-0.1-3.4l0.5,0.1c0.3,0.2,0.7,0.4,1,0.6c0.2,0.3,0.3,0.6,0.4,0.9l1.4,0.8C189.1,55.8,189.1,56.4,188.9,56.5z"
						/>
				</g>
				<path class="st1" d="M185.9,72.4l0.1,50.8l2.2-1.4l0.2-22l14.7-7.8l-0.1,21.2l2.4-1.2V61.5L185.9,72.4z M188.5,90.8l14.5-8.4
					v6.4l-14.5,8.3V90.8z M188.5,82.3l14.5-8.4v6.4l-14.5,8.3V82.3z M188.5,73.8l14.5-8.4v6.4l-14.5,8.3V73.8z"/>
				<polygon class="st3" points="186,123.2 183.5,121.8 183.4,99.8 168.8,91.3 168.8,113.3 166.3,112.1 166.3,88.1 183.7,97.8 
					183.7,71.3 185.9,72.4 				"/>
				<polygon class="st2" points="205.3,61.3 203.1,60 183.7,71.3 185.9,72.4 				"/>
				<polygon class="st2" points="188.6,94.2 200.4,87.3 203,88.8 188.5,97.1 				"/>
				<polygon class="st2" points="188.6,85.7 200.4,78.7 203,80.3 188.5,88.6 				"/>
				<polygon class="st2" points="188.6,77.1 200.4,70.2 203,71.7 188.5,79.9 				"/>
				<polygon class="st3" points="200.4,87.3 200.4,83.8 203,82.3 203,88.8 				"/>
				<polygon class="st3" points="200.4,78.6 200.4,75.3 203,73.7 203,80.2 				"/>
				<polygon class="st3" points="200.4,70.2 200.4,66.8 203,65.3 203,71.7 				"/>
				<polygon class="st3" points="203,113.2 200.4,111.8 200.4,93.3 203.1,92 				"/>
				<polygon class="st1" points="168.8,113.3 171.4,111.8 171.4,92.9 168.8,91.3 				"/>
			</g>
			<g>
				<polygon class="st2" points="158.7,110.7 178.7,99.6 158.9,89.8 157.1,89.8 140.3,99.3 140.3,100.3 				"/>
				<polygon class="st2" points="158.7,112.4 158.7,110.7 178.7,99.6 178.7,100.8 				"/>
				<polygon class="st2" points="158.7,110.7 140.3,100.3 140.3,102.3 158.7,112.4 				"/>
				<g id="_8">
					<path class="st29" d="M150.5,97.3l-2.6-5l3-1.8l7.8,1.4l13,8.4c0,0-2.2,4-3.3,4.7c-1.5,0.9-3.1,1.7-4.8,2.3
						c-1.2,0.4-10.5-11.6-10.5-11.6L150.5,97.3z"/>
					<path class="st38" d="M150.6,123.3c0.3,1.6-0.1,2.1-0.1,2.1l-7.9,2.1l-1.5-0.8l0.8-1.1l2.6-1.3l5.2-1.4L150.6,123.3z"/>
					<polygon class="st29" points="149.4,123.3 150.2,104.6 160.5,108.7 163.6,107.3 167,100.7 142.3,96.1 144.4,125.1 					"/>
					<path class="st39" d="M170.2,97c0,0,4.6-19.5,4.5-20.9s-2.6-2.9-2.6-2.9c0.8,0.5-8.7,3.3-13.4,4.7c-1.4,0-7.6,14.6-9.8,15.4
						c-1,0.5-2.2,0.6-3.3,0.4l-4.9,3c0,0,9,1.4,11.2,0.4s7-12.2,7-12.2s-1.9,3-2,4.7s0.8,3.9,0.8,4.9s-1.2,4.4-0.9,5s3,1.4,5.8,1.4
						S170.2,97,170.2,97z"/>
					<path class="st35" d="M162.2,70.8c-0.5-1.1-0.5-6.4-0.5-6.4l4.3,5.4l1.3,4.2l-3.4,0.3c0,0-0.1-2.6-0.5-2.8"/>
					<path class="st8" d="M165.2,69l-1.9-1c0,0-0.2,0.4-0.5,0.5c-0.3,0-0.5,0-0.8-0.1l-0.1-0.1c-0.3-1.1-0.4-2.3-0.3-3.4l0.5,0.1
						l1,0.5l0.5,0.9l1.4,0.7L165.2,69z"/>
					<path class="st38" d="M173,59.3c1.3,0.6,1.5,16.6,0,18.2s-8.4,4.6-9.2,3s0.3-7.6,0.1-9.7s-3.7-9.7-3.3-10.2s5.4-1.9,7.3-2.1
						C169.6,58.3,171.4,58.6,173,59.3z"/>
				</g>
				<path class="st1" d="M160.9,87.2L161,138l2.2-1.4l0.2-22l14.7-7.9l-0.1,21.2l2.4-1.2V76.2L160.9,87.2z M163.5,105.4L178,97v6.4
					l-14.5,8.3V105.4z M163.5,96.9l14.5-8.4V95l-14.5,8.3V96.9z M163.5,88.4L178,80v6.4l-14.5,8.3V88.4z"/>
				<polygon class="st3" points="161,137.9 158.4,136.6 158.4,114.4 143.7,106.2 143.7,128.1 141.3,126.8 141.3,102.8 158.7,112.4 
					158.7,86.1 160.9,87.2 				"/>
				<polygon class="st2" points="180.3,76.2 178,74.8 158.7,86.1 160.9,87.2 				"/>
				<polygon class="st2" points="163.5,108.9 175.4,101.9 178,103.4 163.5,111.8 				"/>
				<polygon class="st2" points="163.5,100.3 175.4,93.4 178,94.9 163.5,103.3 				"/>
				<polygon class="st2" points="163.5,91.8 175.4,84.9 178,86.4 163.5,94.8 				"/>
				<polygon class="st3" points="175.4,101.9 175.4,98.6 178,97.1 178,103.4 				"/>
				<polygon class="st3" points="175.4,93.3 175.4,89.9 178,88.4 178,94.8 				"/>
				<polygon class="st3" points="175.4,84.9 175.4,81.6 178,79.9 178,86.4 				"/>
				<polygon class="st3" points="178,127.9 175.4,126.4 175.4,108.1 178.1,106.7 				"/>
				<polygon class="st1" points="143.7,128.1 146.3,126.6 146.3,107.8 143.7,106.2 				"/>
				<polygon class="st29" points="149.4,123.3 150.2,104.6 153.2,98.1 142.3,96.1 144.4,125.1 				"/>
			</g>
			<g>
				<polygon class="st2" points="129.1,127.8 149.1,116.7 129.2,106.9 127.4,106.9 110.7,116.4 110.7,117.6 				"/>
				<polygon class="st2" points="129.1,129.6 129.1,127.8 149.1,116.7 149.1,117.9 				"/>
				<polygon class="st2" points="129.1,127.8 110.7,117.6 110.7,119.4 129.1,129.6 				"/>
				<g id="_7">
					<path class="st40" d="M141.2,120.3c1.1-1.7,0-6,0-6s-19.8-6-20.9-6s-2.7,1.4-3.2,1.7s-0.7,1.4-0.9,1.8s-0.2,1.4,0.2,1.3
						c1.1-0.4,21.6,9,21,9.5C137.4,122.7,140.1,122,141.2,120.3z"/>
					<path class="st41" d="M105.5,113c-1.1,0.3-4.3-1.1-4.9-1.6s-1.6-3.3-0.3-3.6s4.5,1.5,5.2,2.3S106.6,112.7,105.5,113z"/>
					<path class="st18" d="M142.4,115.4c0,0-7.9-22.1-9.5-22.7s-16.2,2.2-17.6,2.9s-4.1,13.4-5.6,14c-1.3,0.4-2.6,0.5-3.9,0.4
						l-0.6,3.8c0,0,6.2,1.1,7.6,0.7s4.9-9.9,4.9-9.9l12.2,14.2L142.4,115.4z"/>
					<path class="st41" d="M122.1,95.3c-1.1,0-2.2-0.4-3-1.2c-0.7-1.8-1.2-3.6-1.7-5.4l7.1,2.4l3.8,2.9
						C128.3,94,122.9,95.1,122.1,95.3z"/>
					<path class="st8" d="M121.9,92.7c-0.7-0.3-1.4-0.4-2.1-0.5c-0.2,0.1-0.2,0.5-0.4,0.7s-0.7,0.1-0.7,0.1h-0.2
						c-0.6-1-1-2.1-1.3-3.2c0.2-0.1,0.3-0.1,0.5-0.1c0.4,0.1,0.7,0.2,1.1,0.3c0.3,0.1,0.4,0.5,0.8,0.7c0.5,0.2,1.1,0.2,1.6,0.2
						L121.9,92.7z"/>
					<path class="st21" d="M123.4,94.7c-0.6-0.6-3-4-3.7-4.5c-0.8-0.4-1.6-0.6-2.4-0.7c0,0-1.3-4.8-0.7-5.8s5.6-3.2,7.2-3.2
						s4,2.7,4.5,3.9s-0.3,7.9-0.9,9.1S124,95.2,123.4,94.7z"/>
					<polygon class="st28" points="113.7,138.1 113.2,140.9 104.6,140.1 102,138.8 104,137.6 107.8,137.6 112.8,137.6 					"/>
				</g>
				<path class="st40" d="M105.9,137.3l1.4-19.4l21.1-0.8l1.5,1.8l7.8-2.1l2.1,4.9c-1.1,0.8-4.5,3.2-5.1,3.2
					c-3.5,0.7-21.8-0.9-22.1-0.2l-1.2,13L105.9,137.3z"/>
				<path class="st1" d="M131.2,104.3l0.1,50.8l2.2-1.4l0.2-22l14.7-7.9l-0.1,21.2l2.4-1.2V93.3L131.2,104.3z M133.9,122.6l14.5-8.4
					v6.4l-14.5,8.4V122.6z M133.9,114.1l14.5-8.4v6.4l-14.5,8.3V114.1z M133.9,105.5l14.5-8.4v6.4l-14.5,8.3V105.5z"/>
				<polygon class="st3" points="131.3,155.1 128.8,153.8 128.7,131.6 114.1,123.3 114.1,145.3 111.6,143.9 111.6,119.9 
					129.1,129.6 129.1,103.3 131.2,104.3 				"/>
				<polygon class="st2" points="150.6,93.3 148.4,91.9 129.1,103.3 131.2,104.3 				"/>
				<polygon class="st2" points="133.9,126.1 145.7,119.1 148.4,120.7 133.9,128.9 				"/>
				<polygon class="st2" points="133.9,117.6 145.7,110.6 148.4,112.1 133.9,120.3 				"/>
				<polygon class="st2" points="133.9,108.9 145.7,102.1 148.4,103.6 133.9,111.8 				"/>
				<polygon class="st3" points="145.7,119.1 145.7,115.8 148.4,114.2 148.4,120.7 				"/>
				<polygon class="st3" points="145.7,110.4 145.7,107.1 148.4,105.6 148.4,111.9 				"/>
				<polygon class="st3" points="145.7,102.1 145.7,98.7 148.4,97.2 148.4,103.6 				"/>
				<polygon class="st3" points="148.3,145.1 145.7,143.6 145.7,125.2 148.4,123.8 				"/>
				<polygon class="st1" points="114.1,145.3 116.7,143.6 116.7,124.7 114.1,123.3 				"/>
				<path class="st40" d="M123.7,124.8c0,0-5.9-0.4-7.9,0c-1.7,0.3-4.7,16-4.7,16v-21.6L123.7,124.8z"/>
			</g>
			<g>
				<polygon class="st2" points="91.1,146.1 111.1,134.9 91.3,125.3 89.5,125.3 72.7,134.8 72.7,135.9 				"/>
				<polygon class="st2" points="91.1,147.9 91.1,146.1 111.1,134.9 111.1,136.3 				"/>
				<polygon class="st2" points="91.1,146.1 72.7,135.9 72.7,137.8 91.1,147.9 				"/>
				<g id="_6">
					<path class="st17" d="M85.7,134.8l1.3-5l-1.4-0.5c0,0-2.1-0.7-3.3-1c-1.6-0.2-3.3-0.1-4.9,0.4c-1.6,0.5-3,4.6-3,4.6l11,1.8
						L85.7,134.8z"/>
					<path class="st35" d="M75.7,103.6c0,0-0.7-2.2-0.3-2.9s1.7,0,2-0.5s0.2-4.1,0.3-4.4s0.2-0.2,0.4,0c0.3,2.1,0.5,4.3,0.4,6.5
						c-0.2,0.4-0.5,0.8-0.9,1.1L75.7,103.6z"/>
					<path class="st20" d="M84.4,143.1c0,0,6.6,1,9.7,0s7-4.4,7.4-5.4s1.5-24.4,1.2-25.2s-3.6-2.3-4.6-2.4c-1.8,0.1-3.7,0.4-5.5,0.8
						c0,0-6.8,2.3-7.5,3s0.8,16.9,0.6,18.9C85.5,134.9,84.2,143.1,84.4,143.1z"/>
					<path class="st39" d="M102.7,112.4c0,0,1.7,8.5,1.7,10.2s-2.5,8.2-2.5,8.2C101.4,124.9,102.3,118.8,102.7,112.4z"/>
					<path class="st35" d="M92.8,110l-1.1,0.1c0,0-1.4,0.2-1.6-0.1s0-7,0-7l1.4-1.9l1.3,1.8l1.1,6.1h3.8c-0.5,1.2-0.5,2.5,0,3.7
						c-1.8,0.5-3.6,0.8-4.9,0C93,111.8,93,110.9,92.8,110z"/>
					<path class="st8" d="M96.3,107l-2.9-0.7c0,0-1.5,0.9-1.9,1.1c-0.5,0.1-1,0-1.5-0.1v-4.5l3,0.4l1,1l2.6,1.4L96.3,107z"/>
					<path class="st37" d="M97.7,109.2c1.7-0.6,3.4-5.3,3.8-6.9s0.8-3.9,0-4.9s-4.8-3.5-6.2-3.3s-5.1,2-5.8,3.1s-0.3,4.6,0,5.3
						c0.3,0.5,0.7,1,1.2,1.4c0,0,1.2-2.6,1.6-2.2s0.2,3.8,0.4,4.5c0.2,1.1,0.5,2.1,1,3.1C94.1,109.6,96.1,109.7,97.7,109.2z"/>
				</g>
				<path class="st1" d="M93.3,122.7l0.1,50.8l2.2-1.4l0.2-22l14.7-7.9l-0.1,21.2l2.4-1.2v-50.5L93.3,122.7z M95.9,140.9l14.5-8.4
					v6.4l-14.5,8.3V140.9z M95.9,132.4l14.5-8.4v6.4l-14.5,8.3V132.4z M95.9,123.9l14.5-8.4v6.4l-14.5,8.3V123.9z"/>
				<polygon class="st3" points="93.4,173.4 90.8,172.1 90.8,149.9 76.1,141.6 76.1,163.6 73.7,162.1 73.7,138.3 91.1,147.9 
					91.1,121.4 93.3,122.7 				"/>
				<polygon class="st2" points="112.7,111.6 110.5,110.3 91.1,121.4 93.3,122.7 				"/>
				<polygon class="st2" points="96,144.4 107.8,137.4 110.4,138.9 95.9,147.3 				"/>
				<polygon class="st2" points="96,135.8 107.8,128.9 110.4,130.4 95.9,138.6 				"/>
				<polygon class="st2" points="96,127.3 107.8,120.3 110.4,121.8 95.9,130.1 				"/>
				<polygon class="st3" points="107.8,137.4 107.8,134.1 110.4,132.4 110.4,138.9 				"/>
				<polygon class="st3" points="107.8,128.8 107.8,125.3 110.4,123.8 110.4,130.3 				"/>
				<polygon class="st3" points="107.8,120.3 107.8,116.9 110.4,115.3 110.4,121.8 				"/>
				<polygon class="st3" points="110.4,163.4 107.8,161.9 107.8,143.4 110.5,142.2 				"/>
				<polygon class="st1" points="76.1,163.6 78.7,161.9 78.7,143 76.1,141.6 				"/>
				<path class="st32" d="M73.7,157.9c0.4,0.4,0,1.6,0,1.6s0.1,1.7-0.8,1.7s-6.5-3.5-7.2-4.1c-0.6-0.6-0.9-1.5-0.6-2.3
					c0.3-0.6,1.4-0.4,2.4,0C69.6,155.7,71.7,156.7,73.7,157.9z"/>
				<path class="st32" d="M87.3,149.4c0.1,0.5,0,1.1-0.2,1.6c0,0.2-0.1,0.9-0.6,0.9s-6.6-2.9-7.2-3.6s-0.8-3-0.1-3
					c0.8-0.1,1.6,0,2.4,0.3C82.9,145.9,87.1,148.8,87.3,149.4z"/>
				<path class="st15" d="M84.5,142.6c0,0-6.1-3.2-8.1-3.5s-3,19.1-3,19.1c-1.6,0.1-3.1-0.7-4-2c0,0-0.9-22.6,1.2-24
					s14.9,2.2,14.9,2.2C85.4,135.9,84.7,139.2,84.5,142.6z"/>
			</g>
			<g>
				<polygon class="st2" points="44.3,145.6 24.2,134.4 44.1,124.7 45.9,124.7 62.6,134.1 62.6,135.3 				"/>
				<polygon class="st2" points="44.3,147.4 44.3,145.6 24.2,134.4 24.2,135.8 				"/>
				<polygon class="st2" points="44.3,145.6 62.6,135.3 62.6,137.1 44.3,147.4 				"/>
				<g id="_5">
					<path class="st35" d="M62.7,122.8c0.2,0.4,9.5-3.1,9.6-4.3s-7.4-1.1-7.6,0.3s-3.9,2-4.1,1.5L62.7,122.8z"/>
					<path class="st17" d="M39.9,142.1c1.4,0.2,10.3-12.5,11.1-12c0.7,0.7,1.3,1.5,1.6,2.4l5.8-1c-1.1-2.9-2.6-5.6-4.5-8l-3.7-0.3
						c-1.8,0.3-10.3,6.4-16.6,10.6C35.6,137.1,38.5,141.9,39.9,142.1z"/>
					<path class="st18" d="M53.3,157.3c-0.3-0.8,6.7-19,5.4-19.2s-17.5,4.3-18.8,4s-2.3-3.9-3.2-6.5c-0.9-0.4,24.6-6,27.5-5.3
						c1.2,0.3,2.1,1.4,2.2,2.7c0,1.3-7.9,25.6-8.3,25.9S53.6,158.1,53.3,157.3z"/>
					<path class="st11" d="M33.6,132.1c-0.8-6.3-1.6-12.2-3-16l-1.6-2.5c0,0,1.7-3.9,3.1-4.3c1.4-0.4,12,2.1,13.3,2.6
						s7.9,9.1,8.8,9.3s8.4-1.5,8.4-1.5l3.2,2.3c0,0-9.1,3.7-11.2,3.3s-6.5-3.3-6.5-3.3s2.4,8.8,2.1,10s-7.6,3.5-9.4,3.8
						S33.6,132.1,33.6,132.1z"/>
					<path class="st35" d="M41.8,108.2c0.8-0.6,0.4-7.6,0.4-7.6c-2.3-0.9-3.2,2.7-4.3,5.8l-1.2,3.9l2.9,0.6
						c-0.3-0.7-0.2-1.5,0.2-2.2"/>
					<path class="st8" d="M36,106.1l2.9-0.7c0.6,0.4,1.2,0.8,1.8,1.1c0.5,0.1,1,0.1,1.5-0.1c0.3-1.6,0.5-4.2,0-4.4s-2.9,0.3-2.9,0.3
						l-1,1l-2.6,1.5L36,106.1z"/>
					<path class="st38" d="M30.5,98.3c-0.9,1.2,2.1,11.3,3.1,12.1s5.1,0.3,5.6,0s0.5-5.9,0.8-6.8s1.6-2.8,2.2-3s0.9-2.3,0.6-3
						s-5.2-2-7-2C33.8,95.8,31.9,96.7,30.5,98.3z"/>
				</g>
				<path class="st3" d="M22.7,111v50.5l2.4,1.2L25,141.5l14.7,7.9l0.2,22l2.2,1.4l0.1-50.8L22.7,111z M39.5,146.7L25,138.4V132
					l14.5,8.4V146.7z M39.5,138.2L25,129.9v-6.4l14.5,8.4V138.2z M39.5,129.7L25,121.3V115l14.5,8.4V129.7z"/>
				<polygon class="st1" points="42,172.9 44.5,171.4 44.6,149.4 59.2,141.1 59.2,162.9 61.7,161.6 61.7,137.6 44.3,147.4 
					44.3,120.9 42.1,122.1 				"/>
				<polygon class="st2" points="22.7,110.9 24.9,109.8 44.3,120.9 42.1,122.1 				"/>
				<polygon class="st2" points="39.4,143.8 27.6,136.9 25,138.4 39.5,146.6 				"/>
				<polygon class="st2" points="39.4,135.3 27.6,128.4 25,129.9 39.5,138.1 				"/>
				<polygon class="st2" points="39.4,126.8 27.6,119.8 25,121.3 39.5,129.6 				"/>
				<polygon class="st1" points="27.6,136.9 27.6,133.4 25,131.9 25,138.4 				"/>
				<polygon class="st1" points="27.6,128.3 27.6,124.8 25,123.3 25,129.8 				"/>
				<polygon class="st1" points="27.6,119.8 27.6,116.3 25,114.8 25,121.3 				"/>
				<polygon class="st1" points="25.1,162.6 27.6,161.4 27.6,142.9 25,141.4 				"/>
				<polygon class="st3" points="59.2,162.9 56.6,161.4 56.6,142.6 59.2,141.1 				"/>
				<path class="st11" d="M53,156.4c-1.3,0-1.7,2.1-1.3,2.7s6.5,2.4,7.5,2.7c1,0.2,2.1,0.2,3.1,0c0.3-0.1,1.1-0.4,0.7-1.3
					s-4.6-2.6-4.6-2.6S54.3,156.4,53,156.4z"/>
				<path class="st18" d="M58.9,138.4c-1.1,4.5-3.2,11.5-5.6,18.8l4.8,1.6c2.5-6.5,5.1-15,7.8-24.1L58.9,138.4z"/>
			</g>
			<path class="st39" d="M91.5,111.2c0.9,0.5,1.2,3.2,1.2,3.8c0,1-0.4,2-1.2,2.7c-0.9,0.8-15.8,3.3-16.3,2.3s-0.1-16.6-0.1-16.6
				c1.3,0,2.7-0.3,3.8-1c0,0,0.5,10.3,0.9,11.8S90.6,110.7,91.5,111.2z"/>
		</g>
	</g>
</g>
</svg>
