<?xml version="1.0" encoding="utf-8"?>
<!-- Generator: Adobe Illustrator 21.0.2, SVG Export Plug-In . SVG Version: 6.00 Build 0)  -->
<svg version="1.1" id="Слой_1" xmlns="http://www.w3.org/2000/svg" xmlns:xlink="http://www.w3.org/1999/xlink" x="0px" y="0px"
	 viewBox="0 0 212.4 163.6" style="enable-background:new 0 0 212.4 163.6;" xml:space="preserve">
<style type="text/css">
	.st0{opacity:0.18;}
	.st1{fill:#2671A5;}
	.st2{fill:#FACEB3;}
	.st3{fill:#1D4E89;}
	.st4{fill:#1B4275;}
	.st5{fill:#FDD9A4;}
	.st6{fill:#EA821B;}
	.st7{fill:#FFF9FD;}
	.st8{fill:#33322B;}
	.st9{fill:#FFFFFF;}
	.st10{fill:#1C1C1C;}
	.st11{fill:#FCFBF0;}
	.st12{fill:#00B2CA;}
	.st13{fill:#CDCCCC;}
	.st14{fill:#BDBEBD;}
	.st15{fill:#4D4F54;}
	.st16{fill:#3A3B3F;}
	.st17{fill:#EABC8C;}
	.st18{fill:#FF931E;}
	.st19{fill:#2A1206;}
	.st20{fill:#212121;}
</style>
<ellipse class="st0" cx="25.1" cy="72" rx="20.1" ry="8.3"/>
<ellipse class="st0" cx="174.2" cy="155.3" rx="20.1" ry="8.3"/>
<polygon class="st0" points="36.8,114.8 121.8,160.9 187.4,126.3 99.7,76.7 "/>
<title>tennisРесурс 8</title>
<g id="Слой_2">
	<g id="Material">
		<g id="tennis">
			<g>
				<path class="st1" d="M9.8,71.2c0-0.7,3.6-4.4,4.3-4.2s0.7,2.4,0.7,2.4s3.1,0.6,3.7,0.8s0.1,2.6,0.6,3.1s4,2.9,3.7,3.5
					s-3.6,0.4-4.6,0.4s-3.5-2-4.3-2.6S9.8,71.8,9.8,71.2z"/>
				<path class="st1" d="M36,72.6c0.2-0.8,0.2-1.6,0-2.4c-0.3-0.9-3.7-2.8-3.9-3.3c-0.1-0.8-0.1-1.6,0-2.4c-1.3-0.7-2.7-1.3-4.1-1.8
					c-0.6,0-2.9,2.4-2.9,2.9s1.6,1.6,2.3,2s3.8,4.6,4.6,5C32.8,73,36,72.6,36,72.6z"/>
				<path class="st2" d="M32.1,65.2l13.2-16c0.7-1.6,0.7-3.3,0-4.9c-0.9-1.4-7.4-6.2-7.4-6.2L32,44.6c0,0,6.9,2.8,7,3.1
					s-5,5-5.7,5.9s-5.5,10-5.5,10L32.1,65.2z"/>
				<path class="st2" d="M17.5,70.6c1.3-0.4,15.2-14.7,15.8-17s-2.4-10.3-2.4-10.3l-9,4.1c0,0,4.9,6.1,4.4,6.5s-5,3.5-6,4.5
					S14,68.6,14,69.3S16.2,70.9,17.5,70.6z"/>
				<path class="st3" d="M21.8,47.5c0,0-2.5-8.7-2.5-9.9c0-1.5,0.4-2.9,1.2-4.2c0.7-0.8,7.8,0.6,7.8,0.6l2,0.4l1.2,8.9
					C28.7,45.5,25.3,46.9,21.8,47.5z"/>
				<path class="st2" d="M33.3,14.6c0-0.4-1.8-2.1-1.9-2.2s0.5,0.2,1,0c0.5-0.2,1.5-3.6,1.6-4.4s0-4.9,0-4.9h-6.4l-1.1,4.5L25.3,6
					c0,0-1,0.8-0.9,1.2c0.3,0.9,0.7,1.7,1.2,2.4c0.6,1.1,1.1,2.2,1.4,3.3c-0.4,0.3-1.8,0.1-3,0l6.1,7.5"/>
				<path class="st4" d="M31.8,44.5c2.7-1.4,5.1-3.4,6.9-5.8c-1.8-1.2-3.5-2.4-5.2-3.8c-0.6-0.7-0.1-2.8-0.1-2.8l-4.3,2L31.8,44.5z"
					/>
				<g>
					<path class="st5" d="M5.8,23.9c-0.7-0.7-1.8-0.8-2.6-0.2c-1.4,1-2.4,2.5-2.9,4.1c-0.1,0.8-0.6,3.2,0,4.7c0.6,1.5,1,1.8,1.6,1.9
						c0.5,0.1,0.9,0.1,1.4,0L5.8,23.9z"/>
					<path class="st6" d="M6.2,29.3c0.6-3,0.6-5.4-1.1-5.8S1.6,25.3,1,28.3s0.2,5.7,1.9,6.1S5.5,32.3,6.2,29.3z"/>
					<path class="st5" d="M9.5,31.4l-2.3-0.5c-1,0.9-2,1.9-2.9,2.9l2-8.8c0.3,0.8,0.6,1.7,0.8,2.5c0.2,0.6,0.3,1.3,0.3,2l3.9,0.8
						L11.1,32L9.5,31.4z"/>
				</g>
				<path class="st7" d="M20.9,32.9c-0.4-0.5,0.3-7.2,0-7.5s-5.5-0.1-5.8-0.9S19,16,19,16s4.9-3.4,5.5-3.4s4.3,6.5,5.4,6.5
					s2.4-4.9,2.9-5.1s2.3,1.5,2.7,1.8c1.3,2.3,2.5,4.6,3.5,7c0,0.4-4.2,1.1-4.5,1.7s-0.8,7.9-1.4,8.4s-4.1,2.3-6,2.3
					C24.8,34.9,22.7,34.1,20.9,32.9z"/>
				<path class="st2" d="M20.9,25.4c0,0-2.2,7.8-3.3,8.3s-5-1-5.5-1.3c-0.6-0.3-1.2-0.5-1.9-0.7c-0.8-0.2-1.3,0.3-2.3-0.3
					s-0.3-1.8,0.5-2s5.8,1,6.7,0.6s1-5.4,1-5.4L20.9,25.4z"/>
				<path class="st2" d="M35.1,24.2c0,0,2.8,5.5,3.9,5.5s3.2-2.3,4.3-3.5s5.3-11.5,5.1-12.4s-2.8-2.3-3.4-1.9
					c-0.9,0.7-1.5,1.7-1.8,2.8c-0.3,1.3,0.6,4.1,0.2,4.9c-1.2,1.6-2.6,3-4.2,4.2c-0.3,0-0.6-0.9-0.6-0.9L35.1,24.2z"/>
				<path class="st8" d="M24.4,6.7C24.8,7,26,7.6,26.5,7.3s0.8-4,1.3-4.2s5.8,0.8,6.2,0.5S33.7,2,33.7,2c-1-0.9-2.1-1.5-3.4-1.9
					c-1.6-0.2-3.2,0.1-4.7,0.8c-1.2,1-2,2.3-2.3,3.8C23.2,5.6,24,6.3,24.4,6.7z"/>
				<circle class="st9" cx="42.2" cy="9.6" r="1.8"/>
			</g>
			<g>
				<path class="st10" d="M44,113.3L44.1,80l2.3,1.3V93l9.9-6l2.1,1.2l-12.1,7.2l-0.1,17.9c-0.3,0.4-0.7,0.6-1.1,0.6
					C44.6,113.9,44.2,113.7,44,113.3z"/>
				<path class="st10" d="M86.4,137.9l0.1-33.3l2.3,1.3v11.7l9.9-6l2.1,1.2L88.7,120l-0.1,17.9c-0.3,0.4-0.7,0.6-1.1,0.6
					C87.1,138.4,86.7,138.2,86.4,137.9z"/>
				<path class="st10" d="M118.2,155.6l0.1-33.3l2.3,1.3v11.7l9.9-6l2.1,1.2l-12.1,7.2l-0.1,17.9c-0.3,0.4-0.7,0.6-1.1,0.6
					C118.9,156.1,118.5,155.9,118.2,155.6z"/>
				<path class="st10" d="M168.4,128.7l0.1-33.3l2.3,1.3l-0.2,32c-0.3,0.4-0.7,0.6-1.1,0.6C169.1,129.2,168.7,129,168.4,128.7z"/>
				<path class="st10" d="M73.9,131.1L74,97.8l2.3,1.3v11.7l9.9-6l2.1,1.2l-12.1,7.2l-0.1,17.9c-0.4,0.6-1.2,0.8-1.8,0.4
					C74.1,131.3,74,131.2,73.9,131.1L73.9,131.1z"/>
				<polygon class="st11" points="33.1,71.3 134,129.3 196.6,93 95.6,34.5 				"/>
				<polygon class="st12" points="35.2,71.3 65.3,53.8 163.9,110.8 134.1,128.1 				"/>
				<polygon class="st12" points="65.5,53.6 95.4,35.7 194.6,92.8 164.4,110.4 				"/>
				<polygon class="st13" points="33.1,71.3 33.1,73.8 134,131.6 134,129.3 				"/>
				<polygon class="st14" points="134,131.6 196.6,95.7 196.6,93 134,129.3 				"/>
				<polygon class="st15" points="81.5,102.6 81.5,99.7 80.6,100.2 80.7,102.3 				"/>
				<polygon class="st16" points="141.1,65.1 145,63 145,63.5 145.6,63.8 145.8,62.6 146.5,62.1 146.6,53.2 145.9,53.7 145.8,61.1 
					141.1,64.5 				"/>
				<polygon class="st15" points="146.6,53.2 145.1,53 144.6,53.7 144.8,61.1 139.9,64.4 140.1,64.9 141.1,65.1 141.1,64.5 
					145.8,61.1 145.9,53.7 				"/>
				<polygon class="st9" points="79.2,92.2 79.6,93.1 145.7,55 145.7,53.3 				"/>
				<polygon class="st15" points="79.7,91.9 78.6,91.8 78.7,100.3 79.5,100.8 				"/>
				<rect x="74.7" y="76" transform="matrix(0.8672 -0.498 0.498 0.8672 -23.0999 66.3062)" class="st9" width="76.1" height="1"/>
				
					<rect x="74.7" y="77.9" transform="matrix(0.8672 -0.498 0.498 0.8672 -24.0505 66.5651)" class="st9" width="76.1" height="1"/>
				
					<rect x="74.7" y="79.8" transform="matrix(0.8672 -0.498 0.498 0.8672 -24.9997 66.8189)" class="st9" width="76.1" height="1"/>
				<rect x="74.7" y="74.1" transform="matrix(0.8672 -0.498 0.498 0.8672 -22.1543 66.056)" class="st9" width="76.1" height="1"/>
				<polygon class="st16" points="79.7,91.9 79.5,100.8 81.5,99.7 81.5,102.6 82.6,102.2 82.3,101.9 82.3,99.4 85.4,97.6 85.4,96.6 
					80.6,99.2 80.7,92.7 				"/>
				<rect x="81.5" y="91.3" class="st9" width="1" height="6.6"/>
				<rect x="83.4" y="90.4" class="st9" width="1" height="6.6"/>
				<rect x="85.2" y="89.2" class="st9" width="1" height="6.6"/>
				<rect x="87.1" y="88" class="st9" width="1" height="6.6"/>
				<rect x="89" y="86.9" class="st9" width="1" height="6.6"/>
				<rect x="90.9" y="85.9" class="st9" width="1" height="6.6"/>
				<rect x="92.7" y="84.7" class="st9" width="1" height="6.6"/>
				<rect x="94.6" y="83.8" class="st9" width="1" height="6.6"/>
				<rect x="96.5" y="82.8" class="st9" width="1" height="6.6"/>
				<rect x="98.3" y="81.6" class="st9" width="1" height="6.6"/>
				<rect x="100.2" y="80.6" class="st9" width="1" height="6.6"/>
				<rect x="102.1" y="79.4" class="st9" width="1" height="6.6"/>
				<rect x="104" y="78.4" class="st9" width="1" height="6.6"/>
				<rect x="105.8" y="77.3" class="st9" width="1" height="6.6"/>
				<rect x="107.7" y="76.3" class="st9" width="1" height="6.6"/>
				<rect x="109.6" y="75.1" class="st9" width="1" height="6.6"/>
				<rect x="111.4" y="74" class="st9" width="1" height="6.6"/>
				<rect x="113.3" y="73.1" class="st9" width="1" height="6.6"/>
				<rect x="115.2" y="72" class="st9" width="1" height="6.6"/>
				<rect x="117" y="70.9" class="st9" width="1" height="6.6"/>
				<rect x="118.9" y="69.8" class="st9" width="1" height="6.6"/>
				<rect x="120.8" y="68.8" class="st9" width="1" height="6.6"/>
				<rect x="122.7" y="67.6" class="st9" width="1" height="6.6"/>
				<rect x="124.5" y="66.6" class="st9" width="1" height="6.6"/>
				<rect x="126.4" y="65.6" class="st9" width="1" height="6.6"/>
				<rect x="128.3" y="64.5" class="st9" width="1" height="6.6"/>
				<rect x="130.1" y="63.4" class="st9" width="1" height="6.6"/>
				<rect x="132" y="62.3" class="st9" width="1" height="6.6"/>
				<rect x="133.9" y="61.4" class="st9" width="1" height="6.6"/>
				<rect x="135.7" y="60.1" class="st9" width="1" height="6.6"/>
				<rect x="137.6" y="59.1" class="st9" width="1" height="6.6"/>
				<rect x="139.5" y="58" class="st9" width="1" height="6.6"/>
				<rect x="141.4" y="56.9" class="st9" width="1" height="6.6"/>
				<rect x="143.2" y="55.8" class="st9" width="1" height="6.6"/>
			</g>
			<g>
				<g>
					<path class="st5" d="M202.3,114.8l-1.1-0.7l2.6-1.8l-0.8-1.1l0.3-1l8.9-0.2c0.3,0.9-0.1,1.9-1,2.4c-1,0.6-2.1,1-3.2,1.3
						c-0.4,0-2.9-0.6-2.9-0.6c-0.3,0.2-0.7,0.4-1,0.7C203.6,114.2,202.9,114.5,202.3,114.8z"/>
					<path class="st6" d="M203.2,110.9c0,0,0-1.3,1.8-2.1s4.5-1.6,6.4-0.1s0.7,2.7-0.3,3.4c-1.1,0.7-2.3,1.1-3.6,1.2
						C206.8,113.3,203.2,110.9,203.2,110.9z"/>
				</g>
				<path class="st6" d="M180.3,158.8c-0.7,0-1.8-4.7-1.1-4.9s1.3,0.9,2,0.6s1.3-2.8,2.2-2.3c0.7,0.6,1.6,0.9,2.5,0.9
					c1.2,0,3.5-1.5,4.1-1.1s-1,2.9-1.8,3.5c-1.2,0.8-2.4,1.4-3.7,1.9C183.1,157.9,181.7,158.4,180.3,158.8z"/>
				<path class="st6" d="M165.2,160.6c0.6,0.5,3.5,0.4,4.1,0s1.3-4.1,1.1-4.5s-4.4-4-5.1-4.1s-2.7-0.4-3,0c-0.4,1.4-0.5,2.9-0.3,4.3
					C162.2,157.2,164.6,160.1,165.2,160.6z"/>
				<path class="st2" d="M169.5,157.5l2.2-14.8l1.3-8.7l-7.7-0.8c0,0,2.5,8.4,2.3,10.3l-1.5,13.1
					C166.9,157.8,168.2,157.6,169.5,157.5z"/>
				<path class="st17" d="M175.9,131.9c0,0,4.3,7,4.7,7.9s-0.8,14.7-0.8,14.7l3.3-0.5c0,0,2.3-13.4,2.3-15.4s-3.1-10.1-3.1-10.1
					L175.9,131.9z"/>
				<path class="st1" d="M165.9,123.5c0,0-2,9.4-1.6,10.3s8.1,4.2,8.6,3.5s0.9-6.9,0.9-6.9s2.7,4.9,3.4,5.2s6.9-4.6,6.9-5.3
					s-4.1-6.8-4.1-6.8l-8.8,2.2L165.9,123.5z"/>
				<polygon class="st2" points="171.6,104.2 166.4,107.3 166.4,109.4 170.5,114 171.6,110.7 170.9,108.8 171.6,108.4 				"/>
				<path class="st18" d="M191.6,110.1c0,0-2.3-7-3-7.2l-2.7-0.9l-4.2-0.9c-1.3-0.1-2.7-0.1-4,0c-2.1,0.7-4.2,1.7-6.1,2.8
					c-0.7,0.5,0,4.2,0,4.8s-6.4,14-6.4,14.8s4.4,2.6,6.6,2.8s8-1.8,8.9-2.8s-0.5-2.9,0.2-4.8s4.5-8.3,4.9-8.3s1.6,1.7,1.6,1.7
					C189,111.8,190.4,111.1,191.6,110.1z"/>
				<polygon class="st2" points="203.5,114.3 200.3,115.8 190.7,117.7 187.4,112.1 191,110.4 192.7,114 202.6,112.9 203.9,113.7 
									"/>
				<path class="st2" d="M185.5,101.9l0.3-1.1l1.6-0.5l-2-2.8l-1.1-2.5l-1.6-3.4l-1,0.3c0,0-0.9,6.4-0.8,6.9s1.7,0.6,1.7,0.6
					c-0.1,0.8-0.6,1.6-1.4,2L185.5,101.9z"/>
				<path class="st19" d="M191.6,92.8c0.1-0.9-0.2-1.8-0.8-2.5c-0.7-0.7-4-2.4-4.9-2.2s-3.9,1.7-4.2,2.3c-0.3,0.8-0.3,1.6,0,2.4
					c0.7,0.7,1.3,1.4,1.9,2.2c0.3,0.5-0.3,2.9,0,3.3s1.5-0.8,1.8-0.8s0.4,0.5,0.2,0.9s-1.3,1.6-1.2,2.1s2.9,1.6,3.6,1.4
					s2.8-4.1,3.1-4.9C191.4,95.6,191.6,94.2,191.6,92.8z"/>
			</g>
			<g>
				<path class="st20" d="M77.2,124.7l0.2-0.3l-0.9-0.4l0,0c-0.6-0.2-1.3-0.1-1.9,0.3c-1.7,1.1-2.8,3-2.9,5.1
					c-0.1,0.7,0.2,1.4,0.8,1.8l0,0c0.1,0.1,0.2,0.1,0.3,0.1l0.8,0.3l0.2-0.3l0.9-0.3c1.7-1.1,2.8-3,2.9-5.1
					C77.5,125.4,77.4,125,77.2,124.7z"/>
				<path class="st10" d="M78.4,126.3c-0.1,2.1-1.2,3.9-2.9,5.1c-1.6,1-2.9,0.2-2.9-1.7c0.1-2.1,1.2-3.9,2.9-5.1
					C77.1,123.6,78.4,124.4,78.4,126.3z"/>
			</g>
			<g>
				<path class="st20" d="M90.4,132l0.2-0.3l-0.9-0.4l0,0c-0.6-0.2-1.3-0.1-1.9,0.3c-1.7,1.1-2.8,3-2.9,5.1
					c-0.1,0.7,0.2,1.4,0.8,1.8l0,0c0.1,0.1,0.2,0.1,0.3,0.1l0.8,0.3l0.2-0.3l0.9-0.3c1.7-1.1,2.8-3,2.9-5.1
					C90.7,132.8,90.6,132.4,90.4,132z"/>
				<path class="st10" d="M91.5,133.6c-0.1,2.1-1.2,3.9-2.9,5.1c-1.6,1-2.9,0.2-2.9-1.7c0.1-2.1,1.2-3.9,2.9-5.1
					C90.2,130.9,91.5,131.8,91.5,133.6z"/>
			</g>
		</g>
	</g>
</g>
</svg>
