<svg xmlns="http://www.w3.org/2000/svg" viewBox="0 0 212.35 160.89">
  <defs>
    <style>
      .cls-1 {
        fill: #2671a5;
      }

      .cls-2 {
        fill: #faceb3;
      }

      .cls-3 {
        fill: #1d4e89;
      }

      .cls-4 {
        fill: #1b4275;
      }

      .cls-5 {
        fill: #fdd9a4;
      }

      .cls-6 {
        fill: #ea821b;
      }

      .cls-7 {
        fill: #fff9fd;
      }

      .cls-8 {
        fill: #33322b;
      }

      .cls-9 {
        fill: #fff;
      }

      .cls-10 {
        fill: #1c1c1c;
      }

      .cls-11 {
        fill: #fcfbf0;
      }

      .cls-12 {
        fill: #00b2ca;
      }

      .cls-13 {
        fill: #cdcccc;
      }

      .cls-14 {
        fill: #bdbebd;
      }

      .cls-15 {
        fill: #4d4f54;
      }

      .cls-16 {
        fill: #3a3b3f;
      }

      .cls-17 {
        fill: #eabc8c;
      }

      .cls-18 {
        fill: #ff931e;
      }

      .cls-19 {
        fill: #2a1206;
      }

      .cls-20 {
        fill: #212121;
      }
    </style>
  </defs>
  <title>tennisРесурс 8</title>
  <g id="Слой_2" data-name="Слой 2">
    <g id="Material">
      <g id="tennis">
        <g>
          <path class="cls-1" d="M9.79,71.16c0-.66,3.64-4.36,4.3-4.2s.7,2.4.7,2.4,3.07.62,3.7.8.08,2.61.6,3.1,4,2.89,3.7,3.5-3.63.36-4.6.4-3.47-2-4.3-2.6S9.79,71.82,9.79,71.16Z"/>
          <path class="cls-1" d="M36,72.56a5.86,5.86,0,0,0,0-2.4c-.31-.88-3.71-2.84-3.9-3.3a10.07,10.07,0,0,1,0-2.4,26.67,26.67,0,0,0-4.1-1.8c-.62,0-2.9,2.4-2.9,2.9s1.63,1.63,2.3,2,3.81,4.56,4.6,5S36,72.56,36,72.56Z"/>
          <path class="cls-2" d="M32.09,65.16l13.2-16a6,6,0,0,0,0-4.9c-.86-1.36-7.4-6.2-7.4-6.2L32,44.56s6.93,2.76,7,3.1-5,5-5.7,5.9-5.5,10-5.5,10Z"/>
          <path class="cls-2" d="M17.49,70.56c1.31-.37,15.2-14.67,15.8-17s-2.4-10.3-2.4-10.3l-9,4.1s4.88,6.14,4.4,6.5-5,3.51-6,4.5S14,68.62,14,69.26,16.18,70.93,17.49,70.56Z"/>
          <path class="cls-3" d="M21.79,47.46s-2.5-8.65-2.5-9.9a8,8,0,0,1,1.2-4.2c.72-.84,7.8.6,7.8.6l2,.4,1.2,8.9A20.13,20.13,0,0,1,21.79,47.46Z"/>
          <path class="cls-2" d="M33.28,14.56c0-.35-1.82-2.05-1.89-2.2s.51.24,1,0S33.88,8.73,34,8s0-4.9,0-4.9h-6.4l-1.1,4.5L25.29,6s-1,.8-.9,1.2a9.47,9.47,0,0,0,1.2,2.4A18.06,18.06,0,0,1,27,12.9c-.44.31-1.76.11-3,0l6.14,7.53"/>
          <path class="cls-4" d="M31.79,44.46a19.74,19.74,0,0,0,6.9-5.8,56.06,56.06,0,0,1-5.2-3.8c-.57-.72-.1-2.8-.1-2.8l-4.3,2Z"/>
          <g>
            <path class="cls-5" d="M5.79,23.86a2.07,2.07,0,0,0-2.6-.2,8.44,8.44,0,0,0-2.9,4.1c-.1.8-.6,3.2,0,4.7s1,1.8,1.6,1.9a5.88,5.88,0,0,0,1.4,0Z"/>
            <path class="cls-6" d="M6.19,29.26c.6-3,.6-5.4-1.1-5.8s-3.5,1.8-4.1,4.8.2,5.7,1.9,6.1S5.49,32.26,6.19,29.26Z"/>
            <path class="cls-5" d="M9.49,31.36l-2.3-.5a25.73,25.73,0,0,0-2.9,2.9l2-8.8a22.73,22.73,0,0,1,.8,2.5,5.24,5.24,0,0,1,.3,2l3.9.8-.2,1.7Z"/>
          </g>
          <path class="cls-7" d="M20.89,32.86c-.36-.46.3-7.23,0-7.5s-5.5-.09-5.8-.9S19,16,19,16s4.92-3.4,5.5-3.4,4.26,6.5,5.4,6.5,2.38-4.92,2.85-5.13,2.28,1.46,2.65,1.83a60.59,60.59,0,0,1,3.5,7c0,.38-4.15,1.14-4.5,1.7s-.81,7.9-1.4,8.4-4.13,2.3-6,2.3A14.67,14.67,0,0,1,20.89,32.86Z"/>
          <path class="cls-2" d="M20.89,25.36s-2.2,7.82-3.3,8.3-5-1-5.54-1.29a9.08,9.08,0,0,0-1.86-.67c-.75-.17-1.32.33-2.28-.28s-.34-1.77.5-2,5.82,1,6.67.6,1-5.45,1-5.45Z"/>
          <path class="cls-2" d="M35.06,24.2s2.77,5.45,3.93,5.45,3.16-2.27,4.3-3.5,5.34-11.51,5.1-12.4-2.79-2.3-3.4-1.9a5.44,5.44,0,0,0-1.8,2.8c-.35,1.31.63,4.07.2,4.9a22,22,0,0,1-4.2,4.2c-.3,0-.63-.92-.63-.92Z"/>
          <path class="cls-8" d="M24.39,6.66c.37.32,1.6.9,2.1.6s.83-4,1.3-4.2,5.83.85,6.2.5-.3-1.6-.3-1.6a8.44,8.44,0,0,0-3.4-1.9,8.26,8.26,0,0,0-4.7.8,6.89,6.89,0,0,0-2.3,3.8C23.17,5.58,24,6.34,24.39,6.66Z"/>
          <circle class="cls-9" cx="42.19" cy="9.56" r="1.8"/>
        </g>
        <g>
          <path class="cls-10" d="M44,113.26l.1-33.3,2.3,1.3V93l9.9-6,2.1,1.2-12.1,7.2-.1,17.9a1.43,1.43,0,0,1-1.1.6A1.23,1.23,0,0,1,44,113.26Z"/>
          <path class="cls-10" d="M86.39,137.86l.1-33.3,2.3,1.3v11.7l9.9-6,2.1,1.2L88.69,120l-.1,17.9a1.43,1.43,0,0,1-1.1.6A1.85,1.85,0,0,1,86.39,137.86Z"/>
          <path class="cls-10" d="M118.19,155.56l.1-33.3,2.3,1.3v11.7l9.9-6,2.1,1.2-12.1,7.2-.1,17.9a1.43,1.43,0,0,1-1.1.6A1.5,1.5,0,0,1,118.19,155.56Z"/>
          <path class="cls-10" d="M168.39,128.66l.1-33.3,2.3,1.3-.2,32a1.43,1.43,0,0,1-1.1.6A1.5,1.5,0,0,1,168.39,128.66Z"/>
          <path class="cls-10" d="M73.89,131.06l.1-33.3,2.3,1.3v11.7l9.9-6,2.1,1.2-12.1,7.2-.1,17.9a1.31,1.31,0,0,1-2.2,0Z"/>
          <polygon class="cls-11" points="33.09 71.26 133.99 129.26 196.59 92.96 95.59 34.46 33.09 71.26"/>
          <polygon class="cls-12" points="35.19 71.26 65.29 53.76 163.89 110.76 134.09 128.06 35.19 71.26"/>
          <polygon class="cls-12" points="65.49 53.56 95.39 35.66 194.59 92.76 164.39 110.36 65.49 53.56"/>
          <polygon class="cls-13" points="33.09 71.26 33.09 73.76 133.99 131.56 133.99 129.26 33.09 71.26"/>
          <polygon class="cls-14" points="133.99 131.56 196.59 95.66 196.59 92.96 133.99 129.26 133.99 131.56"/>
          <polygon class="cls-15" points="81.49 102.56 81.49 99.66 80.59 100.16 80.69 102.26 81.49 102.56"/>
          <polygon class="cls-16" points="141.09 65.06 144.99 62.96 144.99 63.46 145.59 63.76 145.79 62.56 146.49 62.06 146.59 53.16 145.89 53.66 145.79 61.06 141.09 64.46 141.09 65.06"/>
          <polygon class="cls-15" points="146.59 53.16 145.09 52.96 144.59 53.66 144.79 61.06 139.89 64.36 140.09 64.86 141.09 65.06 141.09 64.46 145.79 61.06 145.89 53.66 146.59 53.16"/>
          <polygon class="cls-9" points="79.19 92.16 79.59 93.06 145.69 54.96 145.69 53.26 79.19 92.16"/>
          <polygon class="cls-15" points="79.69 91.86 78.59 91.76 78.69 100.26 79.49 100.76 79.69 91.86"/>
          <rect class="cls-9" x="74.69" y="75.96" width="76.1" height="1" transform="translate(-23.1 66.3) rotate(-29.87)"/>
          <rect class="cls-9" x="74.7" y="77.87" width="76.1" height="1" transform="translate(-24.05 66.56) rotate(-29.87)"/>
          <rect class="cls-9" x="74.7" y="79.78" width="76.1" height="1" transform="translate(-25 66.81) rotate(-29.87)"/>
          <rect class="cls-9" x="74.69" y="74.06" width="76.1" height="1" transform="translate(-22.15 66.05) rotate(-29.87)"/>
          <polygon class="cls-16" points="79.69 91.86 79.49 100.76 81.49 99.66 81.49 102.56 82.59 102.16 82.29 101.86 82.29 99.36 85.39 97.56 85.39 96.56 80.59 99.16 80.69 92.66 79.69 91.86"/>
          <rect class="cls-9" x="81.49" y="91.26" width="1" height="6.6"/>
          <rect class="cls-9" x="83.39" y="90.36" width="1" height="6.6"/>
          <rect class="cls-9" x="85.19" y="89.16" width="1" height="6.6"/>
          <rect class="cls-9" x="87.09" y="87.96" width="1" height="6.6"/>
          <rect class="cls-9" x="88.99" y="86.86" width="1" height="6.6"/>
          <rect class="cls-9" x="90.89" y="85.86" width="1" height="6.6"/>
          <rect class="cls-9" x="92.69" y="84.66" width="1" height="6.6"/>
          <rect class="cls-9" x="94.59" y="83.76" width="1" height="6.6"/>
          <rect class="cls-9" x="96.49" y="82.76" width="1" height="6.6"/>
          <rect class="cls-9" x="98.29" y="81.56" width="1" height="6.6"/>
          <rect class="cls-9" x="100.19" y="80.56" width="1" height="6.6"/>
          <rect class="cls-9" x="102.09" y="79.36" width="1" height="6.6"/>
          <rect class="cls-9" x="103.99" y="78.36" width="1" height="6.6"/>
          <rect class="cls-9" x="105.79" y="77.26" width="1" height="6.6"/>
          <rect class="cls-9" x="107.69" y="76.26" width="1" height="6.6"/>
          <rect class="cls-9" x="109.59" y="75.06" width="1" height="6.6"/>
          <rect class="cls-9" x="111.39" y="73.96" width="1" height="6.6"/>
          <rect class="cls-9" x="113.29" y="73.06" width="1" height="6.6"/>
          <rect class="cls-9" x="115.19" y="71.96" width="1" height="6.6"/>
          <rect class="cls-9" x="116.99" y="70.86" width="1" height="6.6"/>
          <rect class="cls-9" x="118.89" y="69.76" width="1" height="6.6"/>
          <rect class="cls-9" x="120.79" y="68.76" width="1" height="6.6"/>
          <rect class="cls-9" x="122.69" y="67.56" width="1" height="6.6"/>
          <rect class="cls-9" x="124.49" y="66.56" width="1" height="6.6"/>
          <rect class="cls-9" x="126.39" y="65.56" width="1" height="6.6"/>
          <rect class="cls-9" x="128.29" y="64.46" width="1" height="6.6"/>
          <rect class="cls-9" x="130.09" y="63.36" width="1" height="6.6"/>
          <rect class="cls-9" x="131.99" y="62.26" width="1" height="6.6"/>
          <rect class="cls-9" x="133.89" y="61.36" width="1" height="6.6"/>
          <rect class="cls-9" x="135.69" y="60.06" width="1" height="6.6"/>
          <rect class="cls-9" x="137.59" y="59.06" width="1" height="6.6"/>
          <rect class="cls-9" x="139.49" y="57.96" width="1" height="6.6"/>
          <rect class="cls-9" x="141.39" y="56.86" width="1" height="6.6"/>
          <rect class="cls-9" x="143.19" y="55.76" width="1" height="6.6"/>
        </g>
        <g>
          <g>
            <path class="cls-5" d="M202.29,114.76l-1.1-.7,2.6-1.8-.8-1.1.3-1,8.9-.2a2.05,2.05,0,0,1-1,2.4,11.23,11.23,0,0,1-3.2,1.3c-.4,0-2.9-.6-2.9-.6a9.45,9.45,0,0,0-1,.7A5.48,5.48,0,0,1,202.29,114.76Z"/>
            <path class="cls-6" d="M203.19,110.86s0-1.3,1.8-2.1,4.5-1.6,6.4-.1.7,2.7-.3,3.4a7.59,7.59,0,0,1-3.6,1.2C206.79,113.26,203.19,110.86,203.19,110.86Z"/>
          </g>
          <path class="cls-6" d="M180.29,158.76c-.7,0-1.77-4.67-1.1-4.9s1.31.92,2,.6,1.29-2.82,2.2-2.3a3.84,3.84,0,0,0,2.5.9c1.2,0,3.54-1.49,4.1-1.1s-1,2.9-1.8,3.5a19.93,19.93,0,0,1-3.7,1.9A29.54,29.54,0,0,1,180.29,158.76Z"/>
          <path class="cls-6" d="M165.19,160.56c.55.5,3.51.4,4.1,0s1.25-4.08,1.1-4.5-4.36-4-5.1-4.1-2.7-.43-3,0a11.1,11.1,0,0,0-.3,4.3C162.22,157.2,164.64,160.06,165.19,160.56Z"/>
          <path class="cls-2" d="M169.49,157.46l2.2-14.8L173,134l-7.7-.8s2.52,8.4,2.3,10.3l-1.5,13.1C166.86,157.76,168.18,157.6,169.49,157.46Z"/>
          <path class="cls-17" d="M175.89,131.86s4.33,7,4.7,7.9-.8,14.7-.8,14.7l3.3-.5s2.3-13.36,2.3-15.4-3.1-10.1-3.1-10.1Z"/>
          <path class="cls-1" d="M165.89,123.46s-2,9.38-1.6,10.3,8.07,4.16,8.6,3.5.9-6.9.9-6.9,2.67,4.87,3.4,5.2,6.9-4.56,6.9-5.3-4.1-6.8-4.1-6.8l-8.8,2.2Z"/>
          <polygon class="cls-2" points="171.59 104.16 166.39 107.26 166.39 109.36 170.49 113.96 171.59 110.66 170.89 108.76 171.59 108.36 171.59 104.16"/>
          <path class="cls-18" d="M191.59,110.06s-2.32-7-3-7.2l-2.7-.9-4.2-.9a23.5,23.5,0,0,0-4,0,33.11,33.11,0,0,0-6.1,2.8c-.66.54,0,4.15,0,4.8s-6.4,14-6.4,14.8,4.43,2.59,6.6,2.8,8-1.84,8.9-2.8-.47-2.92.2-4.8,4.54-8.3,4.9-8.3,1.6,1.7,1.6,1.7A8,8,0,0,0,191.59,110.06Z"/>
          <polygon class="cls-2" points="203.49 114.26 200.29 115.76 190.69 117.66 187.39 112.06 190.99 110.36 192.69 113.96 202.59 112.86 203.89 113.66 203.49 114.26"/>
          <path class="cls-2" d="M185.49,101.86l.3-1.1,1.6-.5-2-2.8-1.1-2.5-1.6-3.4-1,.3s-.94,6.37-.8,6.9,1.7.6,1.7.6a2.75,2.75,0,0,1-1.4,2Z"/>
          <path class="cls-19" d="M191.59,92.76a3.54,3.54,0,0,0-.8-2.5c-.73-.67-4-2.39-4.9-2.2s-3.85,1.66-4.2,2.3a2.91,2.91,0,0,0,0,2.4,14.81,14.81,0,0,1,1.9,2.2c.25.54-.27,2.92,0,3.3s1.5-.8,1.8-.8.35.49.2.9-1.25,1.6-1.2,2.1,2.94,1.62,3.6,1.4,2.81-4.1,3.1-4.9A22.63,22.63,0,0,0,191.59,92.76Z"/>
        </g>
        <g>
          <path class="cls-20" d="M77.19,124.66l.2-.3-.9-.4h0a2.28,2.28,0,0,0-1.9.3,6.44,6.44,0,0,0-2.9,5.1,2,2,0,0,0,.8,1.8h0a.37.37,0,0,0,.3.1l.8.3.2-.3.9-.3a6.44,6.44,0,0,0,2.9-5.1A4.23,4.23,0,0,0,77.19,124.66Z"/>
          <path class="cls-10" d="M78.39,126.26a6.59,6.59,0,0,1-2.9,5.1c-1.6,1-2.9.2-2.9-1.7a6.59,6.59,0,0,1,2.9-5.1C77.09,123.56,78.39,124.36,78.39,126.26Z"/>
        </g>
        <g>
          <path class="cls-20" d="M90.39,132l.2-.3-.9-.4h0a2.28,2.28,0,0,0-1.9.3,6.44,6.44,0,0,0-2.9,5.1,2,2,0,0,0,.8,1.8h0a.37.37,0,0,0,.3.1l.8.3.2-.3.9-.3a6.44,6.44,0,0,0,2.9-5.1A5.64,5.64,0,0,0,90.39,132Z"/>
          <path class="cls-10" d="M91.49,133.56a6.59,6.59,0,0,1-2.9,5.1c-1.6,1-2.9.2-2.9-1.7a6.59,6.59,0,0,1,2.9-5.1C90.19,130.86,91.49,131.76,91.49,133.56Z"/>
        </g>
      </g>
    </g>
  </g>
</svg>
