<?xml version="1.0" encoding="utf-8"?>
<!-- Generator: Adobe Illustrator 21.0.2, SVG Export Plug-In . SVG Version: 6.00 Build 0)  -->
<svg version="1.1" id="Слой_1" xmlns="http://www.w3.org/2000/svg" xmlns:xlink="http://www.w3.org/1999/xlink" x="0px" y="0px"
	 viewBox="0 0 169 169.8" style="enable-background:new 0 0 169 169.8;" xml:space="preserve">
<style type="text/css">
	.st0{opacity:0.18;}
	.st1{fill:#BB9469;}
	.st2{fill:#825537;}
	.st3{fill:#4D4D4D;}
	.st4{fill:#333333;}
	.st5{fill:#1A1A1A;}
	.st6{fill:#A0A0A0;}
	.st7{fill:#EA821B;}
	.st8{opacity:0.2;}
	.st9{opacity:0.1;enable-background:new    ;}
	.st10{fill:#00B2CA;}
	.st11{fill:#FCFCFC;}
	.st12{fill:#3A3B3F;}
	.st13{fill:#EFF4FA;}
	.st14{fill:#606060;}
	.st15{fill:#3D3D3D;}
	.st16{fill:#8CC63F;}
	.st17{fill:#ED1C24;}
	.st18{fill:#59C0ED;}
	.st19{fill:#F7931E;}
	.st20{fill:#434A55;}
	.st21{fill:#FFF8F8;}
	.st22{fill:#704626;}
	.st23{fill:#F3DCC6;}
	.st24{fill:#FFFFFF;}
	.st25{fill:#3F2D23;}
	.st26{fill:#F7F7F7;}
	.st27{fill:#00CCDB;}
	.st28{fill:#EFEDED;}
	.st29{fill:#EDBEA1;}
</style>
<polygon class="st0" points="114.1,117 167.5,109.5 137.7,95.9 "/>
<ellipse class="st0" cx="21.2" cy="135.8" rx="21.2" ry="9.2"/>
<ellipse class="st0" cx="57.1" cy="160" rx="22.5" ry="9.8"/>
<title>vipРесурс 5</title>
<g id="Слой_2">
	<g id="Material">
		<g id="vip">
			<g>
				<g>
					<polygon class="st1" points="153,89.8 133.4,101.4 96.7,80.5 115.7,69.2 					"/>
					<polygon class="st1" points="153,103.5 153,89.8 133.4,101.4 133.4,114.6 					"/>
					<polygon class="st2" points="96.7,80.5 96.7,93.3 133.4,114.6 133.4,101.4 					"/>
				</g>
				<g>
					<polygon class="st3" points="125.7,105.2 114.1,112 94,100.6 105.9,93.2 					"/>
					<polygon class="st4" points="114.1,117 114.1,112 125.7,105.2 125.7,110.3 					"/>
					<polygon class="st5" points="94,100.6 94,105.6 114.1,117 114.1,112 					"/>
					<path class="st6" d="M118.4,109.5l0.5-0.3c-1.5-1.1-3.2-1.9-5-2.3c-1.8-0.5-3.5-1.2-5.1-2.1c-1.8-1.1-3.3-2.4-4.6-4
						c-0.6-0.8-1.3-1.4-2.1-1.9c-0.9-0.5-1.8-1-2.6-1.7L99,97.5c0.9,0.7,1.8,1.4,2.8,1.9c0.8,0.5,1.4,1.1,1.9,1.8
						c1.3,1.7,2.9,3,4.7,4.1c1.6,1,3.4,1.7,5.2,2.2C115.4,107.8,117,108.5,118.4,109.5z"/>
					<path class="st7" d="M110.6,102.7c-0.6-0.3-1-0.8-1.1-1.5c0.4,0,0.9-0.1,1.5-0.1C110.9,101.7,110.7,102.3,110.6,102.7z"/>
					<path class="st7" d="M113.3,100.9L113.3,100.9c0,1-0.7,1.9-1.7,1.9c0,0,0,0-0.1,0c-0.2,0-0.3,0-0.5-0.1
						c0.1-0.6,0.3-1.1,0.5-1.7C112.1,101,112.7,101,113.3,100.9z"/>
					<path class="st7" d="M109.6,100.7c0-0.9,0.8-1.7,1.7-1.7c0,0,0.1,0,0.1,0h0.3c-0.1,0.5-0.3,1-0.5,1.5
						C110.7,100.6,110.2,100.7,109.6,100.7z"/>
					<path class="st7" d="M112.1,99.1c0.6,0.2,1.1,0.7,1.2,1.4c-0.4,0-1,0.1-1.7,0.1C111.8,100.1,112,99.6,112.1,99.1z"/>
				</g>
				<g class="st8">
					<polygon class="st9" points="132.6,90.7 151,90.7 142.4,84.9 					"/>
				</g>
				<g>
					<polygon class="st3" points="145.4,80.5 125.4,68.6 113,75.6 132.6,87.7 					"/>
					<polygon class="st4" points="145.4,83.1 145.4,80.5 132.6,87.7 132.6,90.7 					"/>
					<polygon class="st5" points="132.6,90.7 113.3,78.8 113,75.6 132.6,87.7 					"/>
				</g>
				<g>
					<polygon class="st5" points="167.5,44.3 91.1,0.5 91.1,57.1 167.5,101.8 					"/>
					<polygon class="st10" points="165.7,45.4 92.7,3.4 92.7,55.9 165.7,98.7 					"/>
					
						<rect x="109.5" y="51.9" transform="matrix(0.5664 -0.8241 0.8241 0.5664 14.2378 131.9179)" class="st11" width="46" height="1"/>
					<path class="st11" d="M132.3,65.1c-6.9,0-12.5-5.6-12.5-12.5s5.6-12.5,12.5-12.5c6.9,0,12.5,5.6,12.5,12.5c0,0,0,0,0,0
						C144.8,59.5,139.2,65.1,132.3,65.1z M132.3,41c-6.4,0-11.5,5.1-11.5,11.5S126,64,132.3,64c6.4,0,11.5-5.1,11.5-11.5
						c0,0,0,0,0,0C143.8,46.1,138.7,41,132.3,41z"/>
					<polygon class="st4" points="167.5,101.8 169,100.6 169,43.5 167.5,44.3 					"/>
					<polygon class="st3" points="91.1,0.5 167.5,44.3 169,43.5 92.5,0 					"/>
					<polygon class="st7" points="112.6,53.2 114.6,60 115.9,53.2 					"/>
					<polygon class="st12" points="101.1,33.6 103.2,40.4 104.5,33.6 					"/>
					<polygon class="st12" points="121.2,42 123.2,48.8 124.5,42 					"/>
					<polygon class="st12" points="146.4,76.5 148.5,83.3 149.8,76.5 					"/>
					<polygon class="st12" points="159.6,52.2 161.6,59 163,52.2 					"/>
					<polygon class="st7" points="156.2,80.6 158.2,87.4 159.6,80.6 					"/>
					<polygon class="st7" points="151.1,46.4 153.1,53.2 154.5,46.4 					"/>
					<polygon class="st7" points="101.1,17 103.2,23.8 104.5,17 					"/>
					<polygon class="st7" points="127.5,45.4 129.5,52.2 130.9,45.4 					"/>
				</g>
			</g>
			<g>
				<g>
					<polygon class="st13" points="37.5,78.1 42,75.7 42.8,74.7 44.9,73.6 46.4,73.2 47.5,73.1 49.1,73.9 49.1,74.7 51.2,75.8 
						52.3,75.6 54.1,76.5 54.1,77.3 54,78.5 52.6,80.8 51.5,81.4 48.8,85.8 46.8,84.3 48.3,79.7 44.6,77.7 39.1,79.6 					"/>
					<ellipse class="st14" cx="45.7" cy="77.2" rx="0.9" ry="0.6"/>
					<ellipse class="st15" cx="45.7" cy="76.9" rx="0.9" ry="0.6"/>
					<ellipse class="st14" cx="46.4" cy="75.1" rx="1.5" ry="0.9"/>
					<ellipse class="st14" cx="48.7" cy="78.6" rx="0.9" ry="0.6"/>
					<ellipse class="st16" cx="51" cy="78.7" rx="0.4" ry="0.3"/>
					<ellipse class="st17" cx="52.2" cy="78.4" rx="0.4" ry="0.3"/>
					<ellipse class="st18" cx="50.8" cy="77.8" rx="0.4" ry="0.3"/>
					<ellipse class="st19" cx="52.1" cy="77.5" rx="0.4" ry="0.3"/>
					<ellipse class="st15" cx="48.7" cy="78.4" rx="0.9" ry="0.6"/>
					<polygon class="st20" points="51.5,81.4 48.8,85.8 46.8,84.3 48.3,79.7 44.6,77.7 39.1,79.6 37.5,78.1 37.3,79.7 38.9,80.8 
						44.5,78.7 48,80.7 46.8,84.3 46.7,85.4 48.7,86.9 51.2,83.1 52.4,82.4 53.7,80.3 54,78.5 52.6,80.8 					"/>
				</g>
				<path class="st21" d="M24.1,138.3c-1.3,0.8-1.8,3.9,0.2,4.4s8.9-1,10.6-2.2c1.7-1.2,3.2-3.5,1.8-4.3c-1.4-0.8-4.8-0.3-6.1-0.3
					S25.4,137.5,24.1,138.3z"/>
				<path class="st21" d="M11.2,130.4c-0.5,0.6,0,2.6,0.7,3c0.9,0.4,1.9,0.5,2.8,0.3c0.6-0.2,2.3-3.1,2.3-3.7s0.5-1.7-0.2-1.9
					C16.2,127.9,11.7,129.9,11.2,130.4z"/>
				<path class="st22" d="M23.9,138.5c0,0,3.4-17.6,3-19.8s-7.1-17.2-7.1-17.2l10.1-1.3c0,0,4.5,14.8,4.7,17.5
					c0.2,2.7-5.5,21.1-5.5,21.1C26.8,139.6,25.1,139.5,23.9,138.5z"/>
				<path class="st23" d="M26.4,77.5c0,0,8.8-0.2,11-0.6s3.8,0.2,5.1-0.3s3.2-0.8,2.8-1.6s-5.6-0.8-5.6-0.8
					c-6.1,0.7-12.3,0.9-18.5,0.8L26.4,77.5z"/>
				<path class="st2" d="M10.4,130.3c0,0,4.2-16.8,4.5-18.2s-0.4-13.5-0.4-13.5l7.4,4v7.5c0,1.4-6.6,21.1-6.6,21.1
					C13.6,131.8,11.8,131.4,10.4,130.3z"/>
				<path class="st24" d="M30.4,99.8c-1.8-7.9-2.2-12-1.5-12.9c2.1-1.1,4-2.6,5.7-4.3c-2.6-2.8-5.7-5.1-9.1-6.7c0,0-7.6-2.1-8-2.1
					c-1.3,0.1-2.6,0.5-3.7,1.2c-1.1,0.9,1.8,15.4,1.8,17.1s-2,6.5-2,6.5c1.8,2.4,4.5,3.8,7.5,3.9C24.4,102.4,27.6,101.4,30.4,99.8z"
					/>
				<path class="st23" d="M24.8,75.7c-1.1,0-1.6-0.5-1.5-1.3c0.9,0,1.7-0.3,2.4-0.9c0.8-0.9,1.6-5.1,1.6-5.1L25,67.5l-5.9,6.2
					c-0.4,1.2,0.2,2.5,1.4,3c0,0,0,0,0,0C21.9,77.2,24.8,75.7,24.8,75.7z"/>
				<path class="st23" d="M29.3,86.6c0,0,5.3,5.1,7,5.1s9.8-3.9,9.8-3.9s6.6-5.4,6.3-6.2c-0.3-0.8-3.5-0.4-4.2,0.6
					c-1,1-2.1,1.8-3.3,2.4c0,0-7.6,2.5-8.3,2.4s-2.8-3.9-2.8-3.9C33.1,84.3,31.4,85.5,29.3,86.6z"/>
				<path class="st25" d="M21.1,74.8c-1-0.2-1.8-0.9-2.2-1.8c-0.5-1.1-1.4-2.9-1.2-4.2c0.2-1.3,1.7-5.1,3.1-5.3s5.4,0.7,6.1,1.4
					s0.9,3.1,0.4,3.5S27,68,26,68.3c-1,0.3-2.8,6.2-3.2,6.5S22.1,75.2,21.1,74.8z"/>
			</g>
			<g>
				<g>
					<polygon class="st13" points="60.1,88 65,85.3 65.8,84.3 68.2,83 69.8,82.7 71,82.5 72.8,83.4 72.8,84.2 75,85.4 76.2,85.2 
						78.2,86.2 78.2,87 78.1,88.4 76.5,90.9 75.3,91.5 72.3,96.2 70.2,94.7 71.8,89.7 67.8,87.5 61.9,89.6 					"/>
					<ellipse class="st14" cx="69" cy="87" rx="1" ry="0.6"/>
					<ellipse class="st15" cx="69" cy="86.7" rx="1" ry="0.6"/>
					<ellipse class="st14" cx="69.8" cy="84.6" rx="1.6" ry="1"/>
					<ellipse class="st14" cx="72.3" cy="88.5" rx="1" ry="0.6"/>
					<ellipse class="st16" cx="74.8" cy="88.6" rx="0.4" ry="0.3"/>
					<ellipse class="st17" cx="76.1" cy="88.3" rx="0.4" ry="0.3"/>
					<ellipse class="st18" cx="74.6" cy="87.6" rx="0.4" ry="0.3"/>
					<ellipse class="st19" cx="76" cy="87.3" rx="0.4" ry="0.3"/>
					<ellipse class="st15" cx="72.3" cy="88.2" rx="1" ry="0.6"/>
					<polygon class="st20" points="75.3,91.5 72.3,96.2 70.2,94.7 71.8,89.7 67.8,87.5 61.9,89.6 60.1,88 59.9,89.6 61.6,90.9 
						67.7,88.6 71.5,90.7 70.2,94.7 70.2,95.8 72.2,97.5 75,93.3 76.3,92.6 77.7,90.3 78.1,88.4 76.5,90.9 					"/>
				</g>
				<path class="st26" d="M41.7,156.9c-0.6-0.5-0.3-3.5,0.2-3.6s7-1.8,9-1.6s-0.8,3.3-2.2,4.2S42.4,157.4,41.7,156.9z"/>
				<path class="st26" d="M58.3,166.2c-1.1-1-1.2-2.7-0.3-3.9c1-1.2,8.5-0.4,9.4-0.2c0.9,0.2,3.8,1.9,3.1,2.5
					c-0.7,0.6-3.8,1.5-4.9,1.6C64.6,166.3,59.2,166.8,58.3,166.2z"/>
				<path class="st27" d="M58.5,162.8c0,0,2.9-20.6,1.9-23.8s-9.1-14.4-9.1-14.4l12.2-2.9c0,0,7.5,17.2,7,19.9s-8.5,22-8.5,22
					C60.4,164.2,59.1,164.1,58.5,162.8z"/>
				<path class="st10" d="M42.3,154c0,0,3.7-20.1,4.3-21.9s0.1-8.6,0.1-8.6H55v7.8c0,2.5-7.8,22.7-7.8,22.7
					C45.1,154.6,43.4,154.8,42.3,154z"/>
				<path class="st28" d="M65.4,126.1c-5.3,4.4-12.3,5-18.9,2.5l-1.7-10.6c0,0-2.3-15.5-1.7-16.9c0.6-1.4,4-2.4,5.5-2.4
					c2.5,0.2,4.9,0.7,7.3,1.5c1.6,0.7,5.7,4.3,8.3,3.7c1.8-0.5,3.4-1.4,4.7-2.7l2.3,3.1c-0.8,1.9-2.1,3.6-3.7,4.8
					c-2.9,2.3-7.3,1.8-7.3,1.8L65.4,126.1z"/>
				<path class="st29" d="M71.2,104.2l4.6-8.3l0.2-0.3c0,0,1.6-1.8,1.6-2.9s-0.2-2.8-1.5-2.4s-2.6,4.4-2.6,4.4l-4.3,6.7L71.2,104.2z
					"/>
				<path class="st23" d="M54.1,90.7v5.4c0,1.1-1.7,1.9-1.7,1.9l0.7,1.6L47,98.2L54.1,90.7z"/>
				<path class="st25" d="M54.4,86.5c0.8,0.8-0.1,5.3-0.6,6.5s-3.4,5.4-5.4,5.6s-3.8-3-4.5-4.8C43.3,92,44.7,87,46.1,86
					S53.6,85.7,54.4,86.5z"/>
				<path class="st23" d="M54.1,95.9c0.1-0.4,9-9.2,9-9.2l-0.9-1.2l-2.7,2.4L54,92.7L54.1,95.9z"/>
			</g>
		</g>
	</g>
</g>
</svg>
