<svg xmlns="http://www.w3.org/2000/svg" viewBox="0 0 158.6 166.52">
  <defs>
    <style>
      .cls-1 {
        fill: #bb9469;
      }

      .cls-2 {
        fill: #825537;
      }

      .cls-3 {
        fill: #4d4d4d;
      }

      .cls-4 {
        fill: #333;
      }

      .cls-5 {
        fill: #1a1a1a;
      }

      .cls-6 {
        fill: #a0a0a0;
      }

      .cls-7 {
        fill: #ea821b;
      }

      .cls-8 {
        opacity: 0.2;
      }

      .cls-9 {
        opacity: 0.1;
      }

      .cls-10 {
        fill: #00b2ca;
      }

      .cls-11 {
        fill: #fcfcfc;
      }

      .cls-12 {
        fill: #3a3b3f;
      }

      .cls-13 {
        fill: #eff4fa;
      }

      .cls-14 {
        fill: #606060;
      }

      .cls-15 {
        fill: #3d3d3d;
      }

      .cls-16 {
        fill: #8cc63f;
      }

      .cls-17 {
        fill: #ed1c24;
      }

      .cls-18 {
        fill: #59c0ed;
      }

      .cls-19 {
        fill: #f7931e;
      }

      .cls-20 {
        fill: #434a55;
      }

      .cls-21 {
        fill: #fff8f8;
      }

      .cls-22 {
        fill: #704626;
      }

      .cls-23 {
        fill: #f3dcc6;
      }

      .cls-24 {
        fill: #fff;
      }

      .cls-25 {
        fill: #3f2d23;
      }

      .cls-26 {
        fill: #f7f7f7;
      }

      .cls-27 {
        fill: #00ccdb;
      }

      .cls-28 {
        fill: #efeded;
      }

      .cls-29 {
        fill: #edbea1;
      }
    </style>
  </defs>
  <title>vipРесурс 5</title>
  <g id="Слой_2" data-name="Слой 2">
    <g id="Material">
      <g id="vip">
        <g>
          <g>
            <polygon class="cls-1" points="142.6 89.8 123 101.4 86.3 80.5 105.3 69.2 142.6 89.8"/>
            <polygon class="cls-1" points="142.6 103.5 142.6 89.8 123 101.4 123 114.6 142.6 103.5"/>
            <polygon class="cls-2" points="86.3 80.5 86.3 93.3 123 114.6 123 101.4 86.3 80.5"/>
          </g>
          <g>
            <polygon class="cls-3" points="115.3 105.2 103.7 112 83.6 100.6 95.5 93.2 115.3 105.2"/>
            <polygon class="cls-4" points="103.7 117 103.7 112 115.3 105.2 115.3 110.3 103.7 117"/>
            <polygon class="cls-5" points="83.6 100.6 83.6 105.6 103.7 117 103.7 112 83.6 100.6"/>
            <path class="cls-6" d="M108,109.5l.5-.3a14,14,0,0,0-5-2.3,23,23,0,0,1-5.1-2.1,17.45,17.45,0,0,1-4.6-4,7.4,7.4,0,0,0-2.1-1.9,14.33,14.33,0,0,1-2.6-1.7l-.5.3a15,15,0,0,0,2.8,1.9,6.3,6.3,0,0,1,1.9,1.8,16.66,16.66,0,0,0,4.7,4.1,21.67,21.67,0,0,0,5.2,2.2A11.41,11.41,0,0,1,108,109.5Z"/>
            <path class="cls-7" d="M100.2,102.7a1.92,1.92,0,0,1-1.1-1.5c.4,0,.9-.1,1.5-.1C100.5,101.7,100.3,102.3,100.2,102.7Z"/>
            <path class="cls-7" d="M102.9,100.9h0a1.82,1.82,0,0,1-1.8,1.9.9.9,0,0,1-.5-.1,15.43,15.43,0,0,1,.5-1.7A9.72,9.72,0,0,0,102.9,100.9Z"/>
            <path class="cls-7" d="M99.2,100.7A1.71,1.71,0,0,1,101,99h.3a13.15,13.15,0,0,1-.5,1.5A11.55,11.55,0,0,1,99.2,100.7Z"/>
            <path class="cls-7" d="M101.7,99.1a1.74,1.74,0,0,1,1.2,1.4c-.4,0-1,.1-1.7.1A6.51,6.51,0,0,0,101.7,99.1Z"/>
          </g>
          <g class="cls-8">
            <polygon class="cls-9" points="122.2 90.7 140.6 90.7 132 84.9 122.2 90.7"/>
          </g>
          <g>
            <polygon class="cls-3" points="135 80.5 115 68.6 102.6 75.6 122.2 87.7 135 80.5"/>
            <polygon class="cls-4" points="135 83.1 135 80.5 122.2 87.7 122.2 90.7 135 83.1"/>
            <polygon class="cls-5" points="122.2 90.7 102.9 78.8 102.6 75.6 122.2 87.7 122.2 90.7"/>
          </g>
          <g>
            <polygon class="cls-5" points="157.1 44.3 80.7 0.5 80.7 57.1 157.1 101.8 157.1 44.3"/>
            <polygon class="cls-10" points="155.3 45.4 82.3 3.4 82.3 55.9 155.3 98.7 155.3 45.4"/>
            <rect class="cls-11" x="99.06" y="51.92" width="46" height="1" transform="translate(9.73 123.33) rotate(-55.5)"/>
            <path class="cls-11" d="M121.9,65.1a12.5,12.5,0,1,1,12.5-12.5A12.5,12.5,0,0,1,121.9,65.1Zm0-24.1a11.5,11.5,0,1,0,11.5,11.5A11.5,11.5,0,0,0,121.9,41Z"/>
            <polygon class="cls-4" points="157.1 101.8 158.6 100.6 158.6 43.5 157.1 44.3 157.1 101.8"/>
            <polygon class="cls-3" points="80.7 0.5 157.1 44.3 158.6 43.5 82.1 0 80.7 0.5"/>
            <polygon class="cls-7" points="102.2 53.2 104.2 60 105.5 53.2 102.2 53.2"/>
            <polygon class="cls-12" points="90.7 33.6 92.8 40.4 94.1 33.6 90.7 33.6"/>
            <polygon class="cls-12" points="110.8 42 112.8 48.8 114.1 42 110.8 42"/>
            <polygon class="cls-12" points="136 76.5 138.1 83.3 139.4 76.5 136 76.5"/>
            <polygon class="cls-12" points="149.2 52.2 151.2 59 152.6 52.2 149.2 52.2"/>
            <polygon class="cls-7" points="145.8 80.6 147.8 87.4 149.2 80.6 145.8 80.6"/>
            <polygon class="cls-7" points="140.7 46.4 142.7 53.2 144.1 46.4 140.7 46.4"/>
            <polygon class="cls-7" points="90.7 17 92.8 23.8 94.1 17 90.7 17"/>
            <polygon class="cls-7" points="117.1 45.4 119.1 52.2 120.5 45.4 117.1 45.4"/>
          </g>
        </g>
        <g>
          <g>
            <polygon class="cls-13" points="27.1 78.12 31.6 75.72 32.4 74.72 34.5 73.62 36 73.22 37.1 73.12 38.7 73.92 38.7 74.72 40.8 75.82 41.9 75.62 43.7 76.52 43.7 77.32 43.6 78.52 42.2 80.82 41.1 81.42 38.4 85.82 36.4 84.32 37.9 79.72 34.2 77.72 28.7 79.62 27.1 78.12"/>
            <ellipse class="cls-14" cx="35.3" cy="77.22" rx="0.9" ry="0.6"/>
            <ellipse class="cls-15" cx="35.3" cy="76.92" rx="0.9" ry="0.6"/>
            <ellipse class="cls-14" cx="36" cy="75.12" rx="1.5" ry="0.9"/>
            <ellipse class="cls-14" cx="38.3" cy="78.62" rx="0.9" ry="0.6"/>
            <ellipse class="cls-16" cx="40.6" cy="78.72" rx="0.4" ry="0.3"/>
            <ellipse class="cls-17" cx="41.8" cy="78.42" rx="0.4" ry="0.3"/>
            <ellipse class="cls-18" cx="40.4" cy="77.82" rx="0.4" ry="0.3"/>
            <ellipse class="cls-19" cx="41.7" cy="77.52" rx="0.4" ry="0.3"/>
            <ellipse class="cls-15" cx="38.3" cy="78.42" rx="0.9" ry="0.6"/>
            <polygon class="cls-20" points="41.1 81.42 38.4 85.82 36.4 84.32 37.9 79.72 34.2 77.72 28.7 79.62 27.1 78.12 26.9 79.72 28.5 80.82 34.1 78.72 37.6 80.72 36.4 84.32 36.3 85.42 38.3 86.92 40.8 83.12 42 82.42 43.3 80.32 43.6 78.52 42.2 80.82 41.1 81.42"/>
          </g>
          <path class="cls-21" d="M13.7,138.32c-1.26.78-1.84,3.9.2,4.4s8.87-1,10.6-2.2,3.24-3.52,1.8-4.3-4.8-.3-6.1-.3S15,137.54,13.7,138.32Z"/>
          <path class="cls-21" d="M.8,130.42c-.48.55,0,2.64.7,3a4.59,4.59,0,0,0,2.8.3c.64-.24,2.3-3.14,2.3-3.7s.45-1.67-.2-1.9S1.28,129.88.8,130.42Z"/>
          <path class="cls-22" d="M13.5,138.52s3.39-17.64,3-19.8-7.1-17.2-7.1-17.2l10.1-1.3S24,115,24.2,117.72s-5.5,21.1-5.5,21.1C16.42,139.56,14.64,139.53,13.5,138.52Z"/>
          <path class="cls-23" d="M15.93,77.52s8.78-.19,11-.55,3.82.15,5.1-.25,3.2-.8,2.8-1.6-5.6-.8-5.6-.8a140.32,140.32,0,0,1-18.49.8Z"/>
          <path class="cls-2" d="M0,130.32s4.22-16.77,4.5-18.2-.4-13.5-.4-13.5l7.4,4v7.5c0,1.36-6.6,21.1-6.6,21.1A5.23,5.23,0,0,1,0,130.32Z"/>
          <path class="cls-24" d="M20,99.82c-1.76-7.9-2.18-12-1.5-12.9a21.81,21.81,0,0,0,5.7-4.3,30.14,30.14,0,0,0-9.1-6.7s-7.6-2.11-8-2.06a7.64,7.64,0,0,0-3.67,1.2C2.34,76,5.19,90.41,5.2,92.12s-2,6.5-2,6.5a9.71,9.71,0,0,0,7.5,3.9A20.57,20.57,0,0,0,20,99.82Z"/>
          <path class="cls-23" d="M14.4,75.72c-1.1,0-1.62-.46-1.5-1.3a3.73,3.73,0,0,0,2.4-.9c.76-.87,1.6-5.1,1.6-5.1l-2.3-.9-5.9,6.2a2.33,2.33,0,0,0,1.4,3C11.5,77.22,14.4,75.72,14.4,75.72Z"/>
          <path class="cls-23" d="M18.9,86.62s5.3,5.07,7,5.07,9.84-3.86,9.84-3.86,6.6-5.44,6.3-6.2-3.52-.39-4.2.6a13.43,13.43,0,0,1-3.3,2.4s-7.62,2.5-8.3,2.4-2.8-3.92-2.8-3.92C22.68,84.35,21,85.5,18.9,86.62Z"/>
          <path class="cls-25" d="M10.7,74.82A3.36,3.36,0,0,1,8.5,73c-.54-1.1-1.39-2.9-1.2-4.2s1.66-5.08,3.1-5.3,5.39.74,6.1,1.4.87,3.09.4,3.5-.32-.43-1.3-.1-2.81,6.2-3.2,6.5S11.63,75.15,10.7,74.82Z"/>
        </g>
        <g>
          <g>
            <polygon class="cls-13" points="49.7 88.02 54.6 85.32 55.4 84.32 57.8 83.02 59.4 82.72 60.6 82.52 62.4 83.42 62.4 84.22 64.6 85.42 65.8 85.22 67.8 86.22 67.8 87.02 67.7 88.42 66.1 90.92 64.9 91.52 61.9 96.22 59.8 94.72 61.4 89.72 57.4 87.52 51.5 89.62 49.7 88.02"/>
            <ellipse class="cls-14" cx="58.6" cy="87.02" rx="1" ry="0.6"/>
            <ellipse class="cls-15" cx="58.6" cy="86.72" rx="1" ry="0.6"/>
            <ellipse class="cls-14" cx="59.4" cy="84.62" rx="1.6" ry="1"/>
            <ellipse class="cls-14" cx="61.9" cy="88.52" rx="1" ry="0.6"/>
            <ellipse class="cls-16" cx="64.4" cy="88.62" rx="0.4" ry="0.3"/>
            <ellipse class="cls-17" cx="65.7" cy="88.32" rx="0.4" ry="0.3"/>
            <ellipse class="cls-18" cx="64.2" cy="87.62" rx="0.4" ry="0.3"/>
            <ellipse class="cls-19" cx="65.6" cy="87.32" rx="0.4" ry="0.3"/>
            <ellipse class="cls-15" cx="61.9" cy="88.22" rx="1" ry="0.6"/>
            <polygon class="cls-20" points="64.9 91.52 61.9 96.22 59.8 94.72 61.4 89.72 57.4 87.52 51.5 89.62 49.7 88.02 49.5 89.62 51.2 90.92 57.3 88.62 61.1 90.72 59.8 94.72 59.8 95.82 61.8 97.52 64.6 93.32 65.9 92.62 67.3 90.32 67.7 88.42 66.1 90.92 64.9 91.52"/>
          </g>
          <path class="cls-26" d="M31.3,156.92c-.65-.48-.35-3.5.2-3.6s7-1.77,9-1.6-.84,3.31-2.2,4.2S32,157.41,31.3,156.92Z"/>
          <path class="cls-26" d="M47.9,166.22a3,3,0,0,1-.3-3.9c1-1.22,8.54-.35,9.4-.2s3.76,1.85,3.1,2.5-3.84,1.51-4.9,1.6S48.82,166.84,47.9,166.22Z"/>
          <path class="cls-27" d="M48.1,162.82S51,142.27,50,139s-9.1-14.4-9.1-14.4l12.2-2.9s7.53,17.17,7,19.9-8.5,22-8.5,22C50,164.18,48.7,164.12,48.1,162.82Z"/>
          <path class="cls-10" d="M31.9,154s3.68-20.13,4.3-21.9.1-8.6.1-8.6h8.3v7.8c0,2.51-7.8,22.7-7.8,22.7C34.71,154.62,33,154.76,31.9,154Z"/>
          <path class="cls-28" d="M54.94,126.06c-5.34,4.44-12.25,5-18.88,2.47L34.4,117.9s-2.32-15.53-1.69-16.9,4-2.4,5.49-2.4a28.4,28.4,0,0,1,7.3,1.53c1.55.69,5.7,4.3,8.3,3.7a11.25,11.25,0,0,0,4.7-2.7l2.3,3.1a11.29,11.29,0,0,1-3.7,4.8c-2.87,2.25-7.3,1.8-7.3,1.8Z"/>
          <path class="cls-29" d="M60.8,104.22l4.62-8.3.18-.32s1.6-1.84,1.6-2.88-.2-2.8-1.5-2.4-2.61,4.41-2.61,4.41l-4.34,6.73Z"/>
          <path class="cls-23" d="M43.7,90.72v5.4C43.7,97.27,42,98,42,98l.7,1.6-6.1-1.4Z"/>
          <path class="cls-25" d="M44,86.52c.78.85-.1,5.31-.6,6.5S40,98.46,38,98.62s-3.84-3-4.5-4.8.81-6.8,2.2-7.8S43.22,85.67,44,86.52Z"/>
          <path class="cls-23" d="M43.7,95.92c.1-.4,9-9.2,9-9.2l-.9-1.2-2.73,2.4-5.47,4.8Z"/>
        </g>
      </g>
    </g>
  </g>
</svg>
