<svg width="232" height="49" viewBox="0 0 232 49" fill="none" xmlns="http://www.w3.org/2000/svg">
<path fill-rule="evenodd" clip-rule="evenodd" d="M186.646 0V6.99999H205.834V48.9999H212.812V6.99999H232V0H186.646Z" fill="white"/>
<path fill-rule="evenodd" clip-rule="evenodd" d="M159.515 27.9556C158.021 26.1814 156.365 24.551 154.569 23.0855C156.523 21.4263 158.336 19.6075 159.989 17.6477C165.698 10.8229 174.75 0 174.75 0H165.642L150.887 17.6405L136.133 3.82018e-06H127.024C127.024 3.82018e-06 137.511 12.5386 143.028 19.1344C144.271 20.6019 145.672 21.9269 147.205 23.0855C145.381 24.5846 143.698 26.2482 142.176 28.0555C135.882 35.5809 124.658 48.9998 124.658 48.9998H133.767L150.887 28.5306L168.008 48.9998H177.116C177.116 48.9998 165.793 35.4615 159.515 27.9556Z" fill="white"/>
<path fill-rule="evenodd" clip-rule="evenodd" d="M64.542 0V6.99998H111.64V0H64.542ZM64.542 28H111.64V21H64.542V28ZM64.542 48.9998H111.64V41.9999H64.542V48.9998Z" fill="white"/>
<path fill-rule="evenodd" clip-rule="evenodd" d="M41.8647 41.1681C39.684 37.9236 37.0952 34.2087 35.2745 32.0318C26.2684 21.2641 16.6137 9.72097 8.4835 0.000488281H0V49.0003H6.97736V7.37411C8.27771 9.82575 9.88807 12.5698 11.4342 14.4184C21.0298 25.8909 31.5823 38.5075 40.3585 49.0003H48.8421V0.000488281H41.8647V41.1681Z" fill="white"/>
</svg>
