<svg width="233" height="84" viewBox="0 0 233 84" fill="none" xmlns="http://www.w3.org/2000/svg">
<path fill-rule="evenodd" clip-rule="evenodd" d="M187.646 0V6.99999H206.834V48.9999H213.812V6.99999H233V0H187.646Z" fill="white"/>
<path fill-rule="evenodd" clip-rule="evenodd" d="M160.515 27.9556C159.021 26.1814 157.365 24.551 155.569 23.0855C157.523 21.4263 159.336 19.6075 160.989 17.6477C166.698 10.8229 175.75 0 175.75 0H166.642L151.887 17.6405L137.133 3.82018e-06H128.024C128.024 3.82018e-06 138.511 12.5386 144.028 19.1344C145.271 20.6019 146.672 21.9269 148.205 23.0855C146.381 24.5846 144.698 26.2482 143.176 28.0555C136.882 35.5809 125.658 48.9998 125.658 48.9998H134.767L151.887 28.5306L169.008 48.9998H178.116C178.116 48.9998 166.793 35.4615 160.515 27.9556Z" fill="white"/>
<path fill-rule="evenodd" clip-rule="evenodd" d="M65.542 0V6.99998H112.64V0H65.542ZM65.542 28H112.64V21H65.542V28ZM65.542 48.9998H112.64V41.9999H65.542V48.9998Z" fill="white"/>
<path fill-rule="evenodd" clip-rule="evenodd" d="M42.8647 41.1681C40.684 37.9236 38.0952 34.2087 36.2745 32.0318C27.2684 21.2641 17.6137 9.72097 9.4835 0.000488281H1V49.0003H7.97736V7.37411C9.27771 9.82575 10.8881 12.5698 12.4342 14.4184C22.0298 25.8909 32.5823 38.5075 41.3585 49.0003H49.8421V0.000488281H42.8647V41.1681Z" fill="white"/>
<path d="M6.048 73.466C7.038 73.196 7.686 72.242 7.686 70.676C7.686 68.588 6.444 67.4 4.338 67.4H1.386V80H4.626C6.858 80 8.208 78.812 8.208 76.562C8.208 74.87 7.38 73.772 6.048 73.466ZM4.338 68.444C5.832 68.444 6.552 69.146 6.552 70.676C6.552 72.224 5.832 73.016 4.374 73.016H2.502V68.444H4.338ZM4.626 78.956H2.502V74.06H4.428C6.012 74.06 7.074 74.924 7.074 76.562C7.074 78.218 6.264 78.956 4.626 78.956ZM12.8022 80.18C14.6742 80.18 15.8802 78.974 15.9342 76.814H14.8542C14.8002 78.398 14.0622 79.136 12.8022 79.136C11.5962 79.136 10.8582 78.398 10.8582 76.814V73.7C10.8582 72.116 11.5962 71.378 12.8022 71.378C14.0622 71.378 14.7822 72.116 14.8362 73.7H15.9162C15.8622 71.54 14.6742 70.334 12.8022 70.334C10.9842 70.334 9.77822 71.54 9.77822 73.7V76.814C9.77822 78.974 10.9842 80.18 12.8022 80.18ZM19.4918 68.732C19.9058 68.732 20.1938 68.462 20.1938 68.03C20.1938 67.598 19.9058 67.328 19.4918 67.328C19.0598 67.328 18.7718 67.598 18.7718 68.03C18.7718 68.462 19.0598 68.732 19.4918 68.732ZM21.6158 68.732C22.0478 68.732 22.3358 68.462 22.3358 68.03C22.3358 67.598 22.0478 67.328 21.6158 67.328C21.1838 67.328 20.8778 67.598 20.8778 68.03C20.8778 68.462 21.1838 68.732 21.6158 68.732ZM22.8218 77.102C22.6778 78.488 21.9938 79.136 20.6258 79.136C19.3838 79.136 18.6278 78.398 18.6278 76.814V75.788H23.7578V73.7C23.7578 71.54 22.4978 70.334 20.6078 70.334C18.7718 70.334 17.5478 71.54 17.5478 73.7V76.814C17.5478 78.974 18.7538 80.18 20.5898 80.18C22.5698 80.18 23.7398 79.082 23.8838 77.102H22.8218ZM20.6258 71.378C21.9218 71.378 22.6958 72.116 22.6958 73.7V74.798H18.6278V73.7C18.6278 72.116 19.3838 71.378 20.6258 71.378ZM35.7225 70.55H29.9985V80H31.0605V71.558H34.6605V80H35.7225V70.55ZM41.3421 70.334C40.4241 70.334 39.6141 70.73 39.1101 71.432L38.9661 70.55H38.1021V83.24H39.1461V79.154C39.6681 79.874 40.4961 80.216 41.3421 80.216C43.1601 80.216 44.2761 79.01 44.2761 76.67V73.952C44.2761 71.558 43.0521 70.334 41.3421 70.334ZM43.1961 76.67C43.1961 78.47 42.4941 79.226 41.1081 79.226C39.9201 79.226 39.1461 78.182 39.1461 76.67V73.916C39.1461 72.152 40.0281 71.324 41.1081 71.324C42.4221 71.324 43.1961 72.098 43.1961 73.952V76.67ZM49.3325 80.216C51.2225 80.216 52.4825 79.01 52.4825 76.796V73.754C52.4825 71.54 51.2225 70.334 49.3325 70.334C47.4425 70.334 46.1825 71.54 46.1825 73.754V76.796C46.1825 79.01 47.4425 80.216 49.3325 80.216ZM49.3325 79.172C48.0545 79.172 47.2625 78.434 47.2625 76.796V73.754C47.2625 72.116 48.0545 71.378 49.3325 71.378C50.6105 71.378 51.4025 72.116 51.4025 73.754V76.796C51.4025 78.434 50.6105 79.172 49.3325 79.172ZM54.6255 80H55.7235L58.6575 74.078C58.9635 73.448 59.2875 72.782 59.4135 72.368L59.4495 72.386C59.4135 73.142 59.3775 73.916 59.3775 74.906V80H60.4395V70.55H59.3415L56.3175 76.706C56.1375 77.084 55.8495 77.732 55.6875 78.11L55.6515 78.074C55.7055 77.372 55.6875 76.652 55.6875 75.95V70.55H54.6255V80ZM65.6069 80.18C67.4789 80.18 68.6849 78.974 68.7389 76.814H67.6589C67.6049 78.398 66.8669 79.136 65.6069 79.136C64.4009 79.136 63.6629 78.398 63.6629 76.814V73.7C63.6629 72.116 64.4009 71.378 65.6069 71.378C66.8669 71.378 67.5869 72.116 67.6409 73.7H68.7209C68.6669 71.54 67.4789 70.334 65.6069 70.334C63.7889 70.334 62.5829 71.54 62.5829 73.7V76.814C62.5829 78.974 63.7889 80.18 65.6069 80.18ZM76.1484 80L73.4484 75.284L76.0224 70.55H74.8164L72.8184 74.258L70.8204 70.55H69.6144L72.2064 75.284L69.4884 80H70.7304L72.8184 76.148L74.9064 80H76.1484ZM80.3403 80.216C82.2303 80.216 83.4903 79.01 83.4903 76.796V73.754C83.4903 71.54 82.2303 70.334 80.3403 70.334C78.4503 70.334 77.1903 71.54 77.1903 73.754V76.796C77.1903 79.01 78.4503 80.216 80.3403 80.216ZM80.3403 79.172C79.0623 79.172 78.2703 78.434 78.2703 76.796V73.754C78.2703 72.116 79.0623 71.378 80.3403 71.378C81.6183 71.378 82.4103 72.116 82.4103 73.754V76.796C82.4103 78.434 81.6183 79.172 80.3403 79.172ZM84.2695 82.07H85.3135V80H90.9475V82.07H91.9915V78.992H90.9475V70.55H86.0515C86.0335 71.954 85.9795 73.322 85.8895 74.726C85.7635 76.526 85.4575 78.038 84.9535 78.992H84.2695V82.07ZM86.1235 78.992C86.5015 78.074 86.7715 76.724 86.9155 74.888C87.0055 73.772 87.0415 72.674 87.0595 71.558H89.8855V78.992H86.1235ZM93.4732 80H94.5712L97.5052 74.078C97.8112 73.448 98.1352 72.782 98.2612 72.368L98.2972 72.386C98.2612 73.142 98.2252 73.916 98.2252 74.906V80H99.2872V70.55H98.1892L95.1652 76.706C94.9852 77.084 94.6972 77.732 94.5352 78.11L94.4992 78.074C94.5532 77.372 94.5352 76.652 94.5352 75.95V70.55H93.4732V80ZM106.435 70.55H100.693V71.54H103.033V80H104.095V71.54H106.435V70.55ZM115.872 75.05C116.592 74.744 117.186 74.06 117.186 72.98C117.186 71.594 115.98 70.424 114.342 70.424C112.488 70.424 111.462 71.45 111.372 73.286H112.434C112.524 72.008 113.136 71.45 114.342 71.45C115.476 71.45 116.124 72.134 116.124 73.07C116.124 74.096 115.368 74.618 114.252 74.618H112.956V75.608H114.324C115.656 75.608 116.412 76.256 116.412 77.246C116.412 78.452 115.62 79.136 114.378 79.136C113.028 79.136 112.29 78.398 112.218 77.354H111.156C111.228 78.974 112.416 80.18 114.378 80.18C116.178 80.18 117.492 79.01 117.492 77.3C117.492 76.202 116.754 75.374 115.872 75.05ZM118.037 82.07H119.081V80H124.715V82.07H125.759V78.992H124.715V70.55H119.819C119.801 71.954 119.747 73.322 119.657 74.726C119.531 76.526 119.225 78.038 118.721 78.992H118.037V82.07ZM119.891 78.992C120.269 78.074 120.539 76.724 120.683 74.888C120.773 73.772 120.809 72.674 120.827 71.558H123.653V78.992H119.891ZM132.281 77.102C132.137 78.488 131.453 79.136 130.085 79.136C128.843 79.136 128.087 78.398 128.087 76.814V75.788H133.217V73.7C133.217 71.54 131.957 70.334 130.067 70.334C128.231 70.334 127.007 71.54 127.007 73.7V76.814C127.007 78.974 128.213 80.18 130.049 80.18C132.029 80.18 133.199 79.082 133.343 77.102H132.281ZM130.085 71.378C131.381 71.378 132.155 72.116 132.155 73.7V74.798H128.087V73.7C128.087 72.116 128.843 71.378 130.085 71.378ZM138.134 80.18C140.006 80.18 141.212 78.974 141.266 76.814H140.186C140.132 78.398 139.394 79.136 138.134 79.136C136.928 79.136 136.19 78.398 136.19 76.814V73.7C136.19 72.116 136.928 71.378 138.134 71.378C139.394 71.378 140.114 72.116 140.168 73.7H141.248C141.194 71.54 140.006 70.334 138.134 70.334C136.316 70.334 135.11 71.54 135.11 73.7V76.814C135.11 78.974 136.316 80.18 138.134 80.18ZM145.904 73.88H144.176V70.55H143.114V80H145.904C147.614 80 149 78.722 149 76.922C149 75.14 147.614 73.88 145.904 73.88ZM145.904 78.974H144.176V74.906H145.904C147.038 74.906 147.92 75.698 147.92 76.922C147.92 78.164 147.038 78.974 145.904 78.974Z" fill="white"/>
</svg>
